<?xml version="1.0" encoding="utf-8"?>
<!-- Generator: Adobe Illustrator 19.1.0, SVG Export Plug-In . SVG Version: 6.00 Build 0)  -->
<!DOCTYPE svg PUBLIC "-//W3C//DTD SVG 1.1//EN" "http://www.w3.org/Graphics/SVG/1.1/DTD/svg11.dtd">
<svg version="1.1" id="Layer_1" xmlns="http://www.w3.org/2000/svg" xmlns:xlink="http://www.w3.org/1999/xlink" x="0px" y="0px"
	 viewBox="0 0 514.3 51.7" style="enable-background:new 0 0 514.3 51.7;" xml:space="preserve">
<style type="text/css">
	.Arched_x0020_Green{fill:url(#SVGID_1_);stroke:#FFFFFF;stroke-width:0.25;stroke-miterlimit:1;}
	.st0{fill:#D1D2D3;}
</style>
<linearGradient id="SVGID_1_" gradientUnits="userSpaceOnUse" x1="-47.9966" y1="451.4033" x2="-47.2895" y2="450.6962">
	<stop  offset="0" style="stop-color:#20AC4B"/>
	<stop  offset="0.9831" style="stop-color:#19361A"/>
</linearGradient>
<g>
	<g>
		<path class="st0" d="M384.7,5.3c-1.2,0-1.9-0.5-1.9-1.7c0-1.2,0-3.3,0-3.3s2.2,0,3.2,0c1.1,0,2,0.4,2,1.8c0,1,0,3.2,0,3.2
			S385.9,5.3,384.7,5.3z M384.9,42.1c-1.1,0-1.9-0.7-1.9-1.9c0-1.2,0-28.6,0-28.6s1.3,0,2.6,0c1.2,0,2,0.5,2,1.9
			c0,1.4,0,28.7,0,28.7S386,42.1,384.9,42.1z"/>
		<path class="st0" d="M201,42.8c-11.9,0-20.8-9.4-20.8-21.4C180.3,9.6,189,0,201.2,0c7.5,0,12,2.7,16.1,6.6c0,0-0.9,1-1.8,1.9
			c-0.9,1-2.1,0.8-2.9,0.1c-3.1-2.6-6.7-4.3-11.5-4.3c-9.2,0-16,7.4-16,17s6.9,17.2,16,17.2c4.9,0,8.3-1.6,11.7-4.4
			c0.9-0.8,2.3-0.9,3.3,0.1c1.1,1,1.4,1.4,1.4,1.4C213.3,39.9,208.5,42.8,201,42.8z"/>
		<path class="st0" d="M292.3,10.9c7,0,11.4,4.7,11.4,12.3v18.9c0,0-0.9,0-2.4,0c-1.8,0-2.1-1-2.1-2.3c0-1.3,0-15.6,0-15.6
			c0-5.9-3-9.2-7.9-9.2c-4.6,0-8.5,3.4-8.5,9.5v17.6c0,0-1.4,0-2.5,0c-1.1,0-2-0.5-2-2c0-1.5,0-16,0-16c0-5.7-3-9.1-7.9-9.1
			c-4.9,0-8.5,4-8.5,9.6c0,0,0,13.9,0,15.5c0,1.6-0.6,1.9-1.9,1.9c-1.3,0-2.6,0-2.6,0V11.5c0,0,1,0,2.5,0c1.5,0,2.1,0.9,2.1,2.1
			c0,1.2,0,3,0,3c2-3,4.7-5.8,9.9-5.8c5,0,8.2,2.7,9.8,6.1C283.7,13.6,287,10.9,292.3,10.9z"/>
		<path class="st0" d="M328.3,42.8c-5.7,0-9.3-3.1-11.7-6.5v15.3c0,0-1.5,0-2.6,0c-1.2,0-1.9-0.6-1.9-2c0-1.4,0-38,0-38s1,0,2.2,0
			c1.5,0,2.3,0.7,2.3,2.2c0,1.2,0,4,0,4c2.5-3.7,6.1-6.8,11.7-6.8c7.3,0,14.6,5.8,14.6,15.9C342.9,36.8,335.7,42.8,328.3,42.8z
			 M327.5,15c-5.7,0-11.1,4.7-11.1,11.8c0,7.2,5.4,11.9,11.1,11.9c5.9,0,10.8-4.4,10.8-11.8C338.2,19.6,333.3,15,327.5,15z"/>
		<path class="st0" d="M410.2,51.7c-5.1,0-9.8-1.4-13.9-4.3c0,0,0.3-0.6,1.1-1.9c0.8-1.3,1.8-1,3.1-0.2c2.9,1.6,6.1,2.5,9.6,2.5
			c6.7,0,11.1-3.7,11.1-10.9v-3.6c-2.7,3.5-6.4,6.4-12,6.4c-7.3,0-14.4-5.4-14.4-14.4c0-9,7.1-14.5,14.4-14.5
			c5.7,0,9.5,2.8,11.9,6.2c0,0,0-2.2,0-3.4s1.2-2.1,2.1-2.1c0.9,0,2.5,0,2.5,0v25.3C425.8,46.7,419.6,51.7,410.2,51.7z M410.1,14.9
			c-5.8,0-10.6,4-10.6,10.4c0,6.3,4.9,10.5,10.6,10.5c5.8,0,11.2-4.1,11.2-10.4C421.4,19,415.9,14.9,410.1,14.9z"/>
		<path class="st0" d="M439,42.1h-4.6V11.5c0,0,1.4,0,2.5,0c1.1,0,2.1,0.6,2.1,1.9c0,1.2,0,3.5,0,3.5c2-3.3,5.2-6,10.5-6
			c7.4,0,11.7,5,11.7,12.2v19c0,0-1.5,0-2.8,0c-1.3,0-1.8-0.6-1.8-1.9c0-1.3,0-16,0-16c0-5.7-3.1-9.2-8.5-9.2
			c-5.3,0-9.2,3.8-9.2,9.6V42.1z"/>
		<path class="st0" d="M361.9,11.1c-4.4,0-7.8,1-11.1,2.5c0,0,0.5,1.4,0.9,2.4c0.4,1,1.6,0.8,2.2,0.6c2.3-0.9,4.7-1.5,7.6-1.5
			c5.7,0,9.1,2.8,9.1,8.3l0,7.4c0,4.8-4.5,8.3-10.2,8.3c-4.1,0-7.7-2.2-7.7-6.2c0-3.9,3.2-6.1,8.9-6.1c1,0,2.5,0,3.4,0
			c1.4,0,2-0.6,2-1.9c0-1.3,0-1.5,0-1.5c-1.4,0-4,0-5.8,0c-7.7,0-13.1,3.1-13.1,9.6c0,6.4,5.7,9.6,11.4,9.6c5.4,0,8.9-2.5,11.1-5.3
			c0,0,0,1.7,0,2.8c0,1.2,0.5,1.8,1.9,1.8c1.1,0,2.5,0,2.5,0V23.4C374.9,15.4,370.2,11.1,361.9,11.1z"/>
		<path class="st0" d="M236,11.1c-4.4,0-7.7,1-11.1,2.5c0,0,0.5,1.4,0.9,2.4c0.4,1,1.6,0.8,2.2,0.6c2.3-0.9,4.7-1.5,7.6-1.5
			c5.7,0,9.1,2.8,9.1,8.3l0,7.4c0,4.8-4.5,8.3-10.2,8.3c-4.1,0-7.7-2.2-7.7-6.2c0-3.9,3.2-6.1,8.9-6.1c1,0,2.5,0,3.4,0
			c1.4,0,2-0.6,2-1.9c0-1.3,0-1.5,0-1.5c-1.4,0-4,0-5.8,0c-7.7,0-13.1,3.1-13.1,9.6c0,6.4,5.7,9.6,11.4,9.6c5.4,0,8.9-2.5,11.1-5.3
			c0,0,0,1.7,0,2.8c0,1.2,0.5,1.8,1.9,1.8c1.1,0,2.5,0,2.5,0V23.4C249,15.4,244.3,11.1,236,11.1z"/>
	</g>
	<g>
		<path class="st0" d="M512.7,28.9c1.2-0.9,1.6-2,1.6-3c0-1.1,0,1,0-0.5c0-1.1-0.6-2-1.6-2.7c-0.8-0.6-30.5-21.3-30.5-21.3
			s0,2.7,0,4.4c0,1.5,0.8,2,1.9,2.8c1.5,1.1,24.7,17.2,24.7,17.2S485.2,42,483.8,43c-1.5,1-1.6,1.6-1.6,2.9c0,1.3,0,4.1,0,4.1
			S511.4,29.8,512.7,28.9z"/>
		<path class="st0" d="M482.1,16c0,1.2,0,3,0,3s9.2,6.4,11,7.6c1.5,1,2.8,0.9,4.3-0.2c1-0.7,1.9-1.3,1.9-1.3s-13.4-9.3-14.8-10.2
			C483.4,14.1,482.1,14.7,482.1,16z"/>
		<path class="st0" d="M59.9,42.8c-8.9,0-15.7-7.3-15.7-15.9c0-8.7,6.7-16,15.7-16c5.8,0,9.4,2.4,12.2,5.4c0,0-0.9,1-1.7,1.8
			c-0.9,0.9-1.8,0.8-3-0.2c-2.1-1.7-4.4-3-7.6-3c-6.2,0-10.9,5.3-10.9,11.9c0,6.7,4.9,11.9,11.2,11.9c3.2,0,5.8-1.3,7.9-3.2
			c0.5-0.4,1.8-1.1,2.8-0.1c1,1,1.5,1.4,1.5,1.4C69.3,40.3,65.6,42.8,59.9,42.8z"/>
		<path class="st0" d="M102.8,5.3c-1.2,0-1.9-0.5-1.9-1.7c0-1.2,0-3.3,0-3.3s2.2,0,3.2,0c1.1,0,2,0.7,2,2.1c0,1,0,2.9,0,2.9
			S104.1,5.3,102.8,5.3z M103.1,42.1c-1.1,0-1.9-0.7-1.9-1.9c0-1.2,0-28.6,0-28.6s1.3,0,2.6,0c1.2,0,2,0.5,2,1.9
			c0,1.4,0,28.7,0,28.7S104.2,42.1,103.1,42.1z"/>
		<path class="st0" d="M136.9,13.1c0.5-1.2,1.4-1.6,2.5-1.6c1.1,0,3.1,0,3.1,0s-12.2,28-12.7,29.1c-0.5,1.1-1.2,1.5-2.3,1.5
			c-0.8,0,0,0-0.6,0c-1.2,0-1.9-0.2-2.4-1.4c-0.5-1.1-12.7-29.3-12.7-29.3s2,0,3.2,0c1.2,0,2.1,0.5,2.6,1.7
			c0.4,1.2,9.6,23.5,9.6,23.5S136.3,14.3,136.9,13.1z"/>
		<path class="st0" d="M169.1,28.8c3.6,0,4.7-2.3,4.5-5c-0.7-7.4-6.1-12.9-14-12.9c-8.5,0-14.7,7.1-14.7,16c0,9.5,6.9,16,15.3,16
			c5.8,0,9.5-2.3,12.6-5.7c0,0-0.7-0.6-1.5-1.3c-1-0.8-2-0.6-2.6,0c-2.2,2-4.9,3.1-8.4,3.1c-5.4,0-10.1-3.7-10.8-10.4
			c0,0-0.1-0.7-0.1-1.6c0-1,0.1-1.7,0.1-1.7c0.6-6,4.6-10.4,9.9-10.4c5.5,0,9.1,3.8,9.5,8.8c0.2,1.1-0.2,1.6-1,1.6
			c-3.6,0-11.2,0-12.3,0c-1.2,0-1.9,0.7-1.9,1.9c0,1.2,0,1.7,0,1.7C160,28.8,167.9,28.8,169.1,28.8z"/>
		<path class="st0" d="M24,1.8c-0.6-1.2-1.2-1.5-2.4-1.5c-1.2,0-0.2,0-1.2,0c-0.9,0-1.7,0.5-2.2,1.4C17.8,2.6,0,42.1,0,42.1
			s1.6,0,2.9,0c1.3,0,2.1-0.6,2.8-1.9c0.6-1.3,4.1-9,4.1-9s11.9,0,13.8,0c1.5,0,2.4-0.9,2.4-2.2c0-1.3,0-2,0-2H11.5L21,5.7
			c0,0,14.8,33.6,15.4,34.9c0.6,1.3,2,1.5,3.1,1.5c1.1,0,2.6,0,2.6,0S24.5,3,24,1.8z"/>
		<path class="st0" d="M83.5,33.4c0,3.7,2.1,5.1,5.1,5.1c1.1,0,1.9-0.2,3-0.5c1-0.3,2.2-0.1,2.2,1.4c0,1.1-0.1,2-0.1,2
			c-1.6,0.8-4.1,1.3-6.2,1.3c-4.9,0-8.6-2.4-8.6-8.6V0.3c0,0,1.4,0,2.2,0c1.3,0,2.3,0.7,2.3,2.1c0,1.4,0,9.1,0,9.1s6.2,0,7.3,0
			c1.1,0,2.4,0.6,2.4,2.1c0,1,0,1.9,0,1.9h-9.7V33.4z"/>
	</g>
</g>
</svg>
