<?xml version="1.0" encoding="utf-8"?>
<!-- Generator: Adobe Illustrator 18.1.0, SVG Export Plug-In . SVG Version: 6.00 Build 0)  -->
<!DOCTYPE svg PUBLIC "-//W3C//DTD SVG 1.1//EN" "http://www.w3.org/Graphics/SVG/1.1/DTD/svg11.dtd">
<svg version="1.1" id="Layer_1" xmlns="http://www.w3.org/2000/svg" xmlns:xlink="http://www.w3.org/1999/xlink" x="0px" y="0px"
	 width="193.24px" height="40px" viewBox="0 0 193.24 40" enable-background="new 0 0 193.24 40" xml:space="preserve">
<path fill="#D1D2D3" d="M3.242,37.644C4.804,39.03,6.833,39.848,8.911,40h1.679c-1.631-3.903-2.717-8.028-3.296-12.216
	C6.961,25.422,6.8,23.039,6.74,20.657c-0.065-3.413,0.095-6.834,0.579-10.215C7.821,6.877,8.725,3.372,9.983,0H8.913
	C6.833,0.151,4.801,0.971,3.239,2.36C1.342,3.999,0.174,6.418,0,8.914v22.16C0.17,33.576,1.341,36.001,3.242,37.644z"/>
<path fill="#D1D2D3" d="M83.864,38.678c2.908-7.615,5.764-15.251,8.658-22.872c0.29,0.58,0.454,1.218,0.695,1.82
	c2.512,6.934,5.033,13.864,7.54,20.799c-0.004,0.08,0.141,0.265,0.168,0.076c4.795-11.414,9.583-22.831,14.386-34.241
	c-1.771-0.02-3.542-0.006-5.312-0.008c-2.937,7.104-5.878,14.206-8.811,21.311c-0.032,0.089-0.085,0.161-0.162,0.215
	c-2.476-6.854-4.972-13.702-7.455-20.554c-0.323-0.834-0.577-1.698-0.941-2.513c-2.93,7.71-5.846,15.425-8.779,23.134
	c-0.336-0.81-0.64-1.634-0.963-2.449c-2.48-6.38-4.973-12.754-7.445-19.137c-1.765-0.018-3.532-0.004-5.297-0.008
	c0.643,1.733,1.364,3.437,2.038,5.159C76.078,19.167,79.967,28.924,83.864,38.678z"/>
<path fill="#D1D2D3" d="M17.81,39.958L17.756,40h13.25c1.625-0.105,3.225-0.615,4.595-1.498c2.2-1.406,3.785-3.745,4.233-6.321
	c0.193-0.986,0.142-1.995,0.148-2.994c-0.001-6.596,0.003-13.192-0.002-19.788c-0.009-2.534-1.106-5.037-2.949-6.774
	C35.42,1.066,33.237,0.137,31.004,0H17.138c-1.754,3.972-2.907,8.204-3.425,12.514c-0.384,3.167-0.478,6.367-0.32,9.552
	C13.666,28.242,15.098,34.391,17.81,39.958z M28.5,8.01c0.138-0.185,0.317-0.342,0.532-0.429c0.556-0.241,1.187,0.105,1.499,0.573
	c0.208,0.31,0.138,0.73-0.09,1.009c-0.931,1.248-1.78,2.57-2.397,4.003c-1.167,2.644-1.46,5.604-1.182,8.46
	c0.141,1.444,0.471,2.874,1.008,4.223c0.587,1.483,1.407,2.866,2.35,4.15c0.255,0.33,0.555,0.758,0.346,1.188
	c-0.244,0.453-0.754,0.804-1.283,0.77c-0.302-0.026-0.569-0.209-0.754-0.442c-1.591-2.125-2.889-4.512-3.505-7.108
	c-0.585-2.455-0.659-5.016-0.352-7.515c0.214-1.642,0.661-3.256,1.347-4.765C26.677,10.66,27.543,9.297,28.5,8.01z M16.651,13.677
	c0.799-3.581,2.527-6.893,4.678-9.844c0.346-0.486,0.699-1.045,1.312-1.213c0.405-0.106,0.855-0.052,1.214,0.169
	c0.467,0.267,0.921,0.688,0.969,1.255c0.043,0.458-0.25,0.842-0.511,1.185c-1.846,2.478-3.393,5.223-4.221,8.216
	c-0.586,2.058-0.825,4.199-0.859,6.333c-0.015,2.58,0.28,5.179,1.062,7.645c0.87,2.797,2.348,5.368,4.093,7.707
	c0.3,0.387,0.511,0.903,0.326,1.388c-0.22,0.501-0.691,0.857-1.184,1.065c-0.629,0.252-1.368,0.003-1.764-0.533
	c-1.481-1.992-2.794-4.123-3.771-6.409c-1.154-2.681-1.785-5.573-1.956-8.483C15.866,19.323,16.019,16.453,16.651,13.677z"/>
<path fill="#D1D2D3" d="M53.655,28.768c4.617-0.008,9.234-0.009,13.851,0.001c1.119,2.613,2.26,5.217,3.373,7.833
	c1.785,0.01,3.568,0.009,5.353,0.001C71.11,25.151,65.958,13.713,60.827,2.265c-0.031,0.039-0.092,0.118-0.123,0.157
	c-5.308,11.392-10.601,22.791-15.912,34.181c1.755,0.01,3.509-0.002,5.262,0.006C51.266,34.001,52.457,31.382,53.655,28.768z
	 M60.685,13.24c0.082,0.083,0.146,0.179,0.189,0.289c1.534,3.543,3.091,7.077,4.622,10.621c-3.261,0.004-6.521,0.005-9.782,0
	C57.35,20.504,59.037,16.88,60.685,13.24z"/>
<path fill="#D1D2D3" d="M184.689,27.518c0.003-1.646-0.07-3.345,0.502-4.917c0.271-0.742,0.722-1.451,1.402-1.878
	c0.783-0.493,1.769-0.625,2.669-0.443c0.688,0.145,1.326,0.476,1.892,0.889c0.677-1.287,1.301-2.601,1.964-3.896
	c0.083-0.146,0.111-0.313,0.122-0.479c-1.517-0.914-3.352-1.429-5.116-1.038c-1.01,0.195-1.886,0.788-2.631,1.473
	c-0.28,0.221-0.48,0.549-0.806,0.701c0.003-0.578,0.002-1.155,0.001-1.733c-1.57-0.001-3.141-0.001-4.71,0
	c-0.003,6.802,0.004,13.603-0.004,20.403c1.572,0.017,3.144,0.004,4.716,0.006C184.689,33.576,184.689,30.548,184.689,27.518z"/>
<path fill="#D1D2D3" d="M112.616,20.043c-0.855,1.398-1.323,3.005-1.506,4.626c-0.217,2.059-0.085,4.185,0.596,6.15
	c0.865,2.519,2.814,4.679,5.312,5.653c1.983,0.776,4.183,0.882,6.273,0.55c1.674-0.262,3.267-1.001,4.541-2.118
	c1.194-1.015,2.127-2.297,2.927-3.635c-1.324-0.756-2.659-1.491-3.99-2.233c-0.645,0.992-1.326,1.98-2.197,2.789
	c-0.582,0.546-1.329,0.897-2.109,1.044c-1.491,0.271-3.141,0.051-4.36-0.9c-1.369-1.035-2.055-2.761-2.141-4.438
	c0.848-0.07,1.698,0.026,2.547-0.022c4.022-0.003,8.044,0.014,12.065-0.006c0.078-2.158-0.077-4.377-0.927-6.388
	c-0.677-1.638-1.839-3.082-3.334-4.042c-1.275-0.825-2.771-1.268-4.278-1.393c-1.944-0.174-3.968,0.055-5.732,0.929
	C114.77,17.362,113.492,18.586,112.616,20.043z M118.329,20.66c0.775-0.514,1.707-0.778,2.637-0.767
	c1.023-0.01,2.081,0.22,2.921,0.826c0.958,0.697,1.567,1.801,1.812,2.945c-3.145-0.004-6.29,0.001-9.436-0.003
	C116.56,22.457,117.283,21.343,118.329,20.66z"/>
<path fill="#D1D2D3" d="M134.115,36.608c1.574-0.004,3.148,0.003,4.723-0.003c0.003-0.699-0.006-1.399,0.005-2.098
	c1.291,1.229,2.875,2.202,4.645,2.531c2.19,0.405,4.548,0.048,6.465-1.109c2.368-1.452,4.033-3.944,4.6-6.652
	c0.424-2.022,0.417-4.147-0.083-6.155c-0.41-1.611-1.205-3.125-2.315-4.364c-1.184-1.372-2.772-2.414-4.54-2.848
	c-1.675-0.405-3.478-0.406-5.11,0.182c-1.402,0.495-2.635,1.387-3.663,2.45c-0.009-5.778,0.001-11.555-0.004-17.333
	c-1.572-0.006-3.145,0.005-4.716-0.005c-0.026,2.088-0.004,4.176-0.011,6.264C134.113,17.182,134.103,26.895,134.115,36.608z
	 M138.632,25.247c0.181-1.551,0.893-3.066,2.101-4.078c0.782-0.678,1.773-1.094,2.798-1.224c0.99-0.12,2.024-0.049,2.947,0.353
	c1.308,0.563,2.325,1.688,2.911,2.97c0.614,1.38,0.747,2.94,0.565,4.428c-0.22,1.757-1.181,3.429-2.657,4.425
	c-1.368,0.921-3.153,1.058-4.713,0.612c-1.428-0.407-2.593-1.499-3.265-2.802C138.59,28.493,138.463,26.827,138.632,25.247z"/>
<path fill="#D1D2D3" d="M161.572,35.704c1.313,0.845,2.851,1.302,4.4,1.44c1.821,0.153,3.705-0.003,5.412-0.689
	c1.755-0.709,3.207-2.017,4.327-3.522c0.385-0.546,0.801-1.083,1.083-1.692c-1.329-0.723-2.643-1.474-3.967-2.206
	c-0.286,0.435-0.572,0.869-0.883,1.287c-0.738,0.981-1.583,1.999-2.797,2.382c-1.786,0.56-3.926,0.295-5.326-1.018
	c-1.16-1.055-1.701-2.623-1.817-4.154c2.67-0.048,5.343,0.001,8.015-0.023c2.204-0.013,4.408,0.032,6.612-0.007
	c0.039-1.321,0.017-2.65-0.223-3.953c-0.259-1.468-0.779-2.905-1.632-4.135c-0.934-1.35-2.253-2.439-3.779-3.052
	c-1.746-0.708-3.679-0.854-5.538-0.65c-1.763,0.204-3.488,0.883-4.841,2.043c-1.291,1.087-2.25,2.543-2.817,4.128
	c-0.556,1.546-0.75,3.2-0.725,4.835c0.034,1.677,0.315,3.371,1.012,4.907C158.827,33.28,160.041,34.728,161.572,35.704z
	 M164.443,20.623c0.743-0.476,1.624-0.729,2.505-0.73c1.028-0.02,2.093,0.193,2.947,0.791c0.992,0.691,1.602,1.819,1.868,2.978
	c-3.147-0.002-6.294,0.002-9.44-0.002C162.624,22.435,163.367,21.301,164.443,20.623z"/>
</svg>
