<?xml version="1.0" encoding="utf-8"?>
<!-- Generator: Adobe Illustrator 18.1.1, SVG Export Plug-In . SVG Version: 6.00 Build 0)  -->
<!DOCTYPE svg PUBLIC "-//W3C//DTD SVG 1.1//EN" "http://www.w3.org/Graphics/SVG/1.1/DTD/svg11.dtd">
<svg version="1.1" id="Layer_1" xmlns="http://www.w3.org/2000/svg" xmlns:xlink="http://www.w3.org/1999/xlink" x="0px" y="0px"
	 width="25px" height="25px" viewBox="0 0 25 25" enable-background="new 0 0 25 25" xml:space="preserve">
<path fill="#A345E6" d="M20,25H5c-2.75,0-5-2.25-5-5V5c0-2.75,2.25-5,5-5h15c2.75,0,5,2.25,5,5v15C25,22.75,22.75,25,20,25z"/>
<g id="Layer_1_1_">
	<g>
		<path fill="#FFFFFF" d="M21.689,12.5c0-1.472-0.833-2.907-2.297-3.979c-0.155-1.425-0.749-2.869-1.933-3.74
			c-1.45-1.068-3.379-0.933-4.959-0.239c-1.564-0.688-3.472-0.829-4.92,0.21C6.372,5.619,5.765,7.081,5.608,8.521
			C4.335,9.453,3.311,10.869,3.311,12.5c0,1.631,1.024,3.047,2.297,3.979c0.155,1.425,0.749,2.869,1.933,3.74
			c1.451,1.068,3.38,0.933,4.959,0.239c1.564,0.688,3.472,0.829,4.92-0.21c1.208-0.867,1.815-2.328,1.972-3.768
			C20.855,15.408,21.689,13.972,21.689,12.5z M5.623,14.712c-0.519-0.561-0.915-1.269-0.966-2.044
			c-0.044-0.666,0.185-1.316,0.554-1.863c0.805-1.193,2.222-2.01,3.62-2.283C8.594,8.74,8.377,8.98,8.182,9.237l-1.739,2.928
			C5.995,12.942,5.733,13.824,5.623,14.712C4.995,14.034,5.628,14.669,5.623,14.712z M8.973,14.536L8.973,14.536
			c-0.721-1.247-0.721-2.825,0-4.071l0.001-0.001c0.722-1.247,2.085-2.036,3.527-2.036c1.442,0,2.805,0.789,3.527,2.037l0.001,0.001
			c0.721,1.247,0.721,2.825,0,4.072l-0.001,0.001c-0.722,1.247-2.085,2.036-3.527,2.036C11.058,16.573,9.695,15.784,8.973,14.536z
			 M18.083,8.934c0.053,0.822-0.055,1.65-0.303,2.377c-0.07-0.313-0.168-0.619-0.293-0.914l-1.669-2.975
			c-0.424-0.734-1.049-1.419-1.793-1.982c1.072-0.241,2.227-0.078,3.008,0.746C17.727,6.918,18.02,7.95,18.083,8.934
			C18.137,9.756,17.986,7.433,18.083,8.934z M12.203,5.881c0.719,0.355,1.376,0.846,1.905,1.45
			c-0.519-0.163-1.065-0.244-1.608-0.244H9.762c-0.848,0-1.756,0.199-2.616,0.563c0.279-0.9,0.852-1.737,1.748-2.103
			C9.964,5.11,11.204,5.388,12.203,5.881C12.262,5.91,11.476,5.522,12.203,5.881z M6.917,16.066
			c-0.053-0.822,0.055-1.65,0.303-2.377c0.072,0.322,0.174,0.638,0.305,0.942l1.657,2.947c0.424,0.734,1.049,1.419,1.793,1.982
			c-1.072,0.241-2.227,0.078-3.008-0.746C7.273,18.083,6.98,17.05,6.917,16.066C6.863,15.244,7.014,17.567,6.917,16.066z
			 M12.796,19.118c-0.719-0.355-1.376-0.846-1.905-1.45c0.519,0.163,1.065,0.244,1.608,0.244h2.738c0.897,0,1.792-0.214,2.616-0.563
			c-0.279,0.9-0.852,1.737-1.748,2.103C15.036,19.89,13.796,19.612,12.796,19.118C12.738,19.09,13.524,19.478,12.796,19.118z
			 M18.38,15.553c-0.685,0.458-1.457,0.778-2.212,0.926c0.226-0.208,0.434-0.436,0.622-0.68l1.767-2.964
			c0.449-0.777,0.711-1.659,0.821-2.547c0.72,0.778,1.158,1.823,0.884,2.883C20,14.181,19.227,14.987,18.38,15.553
			C17.694,16.01,19.631,14.717,18.38,15.553z"/>
	</g>
</g>
</svg>
