<?xml version="1.0" encoding="utf-8"?>
<!-- Generator: Adobe Illustrator 18.1.0, SVG Export Plug-In . SVG Version: 6.00 Build 0)  -->
<!DOCTYPE svg PUBLIC "-//W3C//DTD SVG 1.1//EN" "http://www.w3.org/Graphics/SVG/1.1/DTD/svg11.dtd">
<svg version="1.1" id="Layer_1" xmlns="http://www.w3.org/2000/svg" xmlns:xlink="http://www.w3.org/1999/xlink" x="0px" y="0px"
	 width="139.452px" height="40px" viewBox="0 0 139.452 40" enable-background="new 0 0 139.452 40" xml:space="preserve">
<path fill="#D1D2D3" d="M6.113,40c1.683,0,2.982-0.32,3.749-0.66l-0.234-2.024c-0.767,0.362-1.832,0.554-2.876,0.554
	c-2.833,0-4.068-1.81-4.068-4.217c0-2.088,0.81-3.898,2.066-5.006c0.98-0.852,2.3-1.321,3.663-1.321
	c1.257,0,2.237,0.256,2.705,0.512l0.724-2.002c-0.405-0.277-1.555-0.66-3.131-0.66c-2.066,0-3.855,0.575-5.346,1.704
	C1.278,28.434,0,30.969,0,33.951C0,37.678,2.386,40,6.113,40z"/>
<path fill="#D1D2D3" d="M14.185,40c3.536,0,6.006-3.025,6.006-6.539c0-2.3-1.47-4.302-4.26-4.303c-3.536,0-5.985,3.046-5.985,6.56
	C9.947,38.189,11.565,40,14.185,40z M15.633,31.075c1.512,0,1.981,1.321,1.981,2.386c0,2.066-1.235,4.622-3.089,4.622
	c-1.257,0-2.023-1.001-2.023-2.428C12.502,33.716,13.653,31.075,15.633,31.075z"/>
<path fill="#D1D2D3" d="M22.343,39.765l0.895-4.792c0.447-2.428,1.896-3.791,3.025-3.791c0.98,0,1.299,0.639,1.299,1.491
	c0,0.404-0.064,0.852-0.128,1.235l-1.107,5.857h2.471l1.15-6.028c0.107-0.533,0.192-1.257,0.192-1.725
	c0-1.96-1.171-2.854-2.641-2.854c-1.448,0-2.769,0.703-3.728,2.108h-0.043l0.213-1.874h-2.194c-0.128,0.894-0.277,1.981-0.533,3.216
	l-1.342,7.156H22.343z"/>
<polygon fill="#D1D2D3" points="19.871,39.766 19.872,39.765 19.871,39.765 "/>
<path fill="#D1D2D3" d="M32.949,38.146c-0.937,0-1.96-0.405-2.492-0.703l-0.639,1.789c0.553,0.405,1.683,0.745,2.896,0.767
	c2.492,0,4.409-1.278,4.409-3.558c0-1.321-1.022-2.173-2.152-2.79c-0.873-0.448-1.342-0.852-1.342-1.428
	c0-0.702,0.639-1.214,1.576-1.214c0.852,0,1.555,0.255,1.938,0.469l0.639-1.789c-0.469-0.276-1.364-0.532-2.45-0.532
	c-2.449,0-4.196,1.406-4.196,3.408c0,1.193,0.852,2.067,2.045,2.706c1.022,0.533,1.363,0.937,1.363,1.597
	C34.546,37.55,33.95,38.125,32.949,38.146z"/>
<path fill="#D1D2D3" d="M41.787,31.309h2.322l0.383-1.916h-2.343l0.511-2.662l-2.578,0.745l-0.362,1.917h-1.406l-0.362,1.917h1.406
	l-0.894,4.622c-0.17,0.767-0.235,1.342-0.235,1.917c0,1.193,0.767,2.151,2.471,2.151c0.596,0,1.257-0.085,1.619-0.213l0.234-1.959
	c-0.256,0.043-0.554,0.064-0.852,0.064c-0.66,0-0.916-0.362-0.916-0.938c0-0.426,0.085-0.98,0.17-1.448L41.787,31.309z"/>
<path fill="#D1D2D3" d="M53.693,29.627c-0.789-0.255-2.003-0.468-3.131-0.468c-4.835,0-7.306,3.77-7.306,7.305
	c0,2.087,1.214,3.536,3.067,3.536c1.32,0,2.684-0.66,3.706-2.577h0.064c-0.086,0.894-0.171,1.725-0.192,2.343v0.001h2.301
	c-0.042-1.236,0.128-3.174,0.426-4.728L53.693,29.627z M50.37,33.908c-0.49,2.641-1.896,4.09-3.046,4.09
	c-1.086,0-1.491-0.895-1.491-1.981c0-2.364,1.768-4.942,4.068-4.942c0.447,0,0.767,0.043,1.022,0.107L50.37,33.908z"/>
<path fill="#D1D2D3" d="M59.551,39.765h2.471l1.15-6.028c0.106-0.533,0.191-1.257,0.191-1.725c0-1.96-1.171-2.854-2.641-2.854
	c-1.448,0-2.77,0.703-3.728,2.108h-0.043l0.213-1.874h-2.194c-0.128,0.894-0.277,1.981-0.533,3.216l-1.342,7.157h0.001v-0.001h2.471
	l0.894-4.792c0.448-2.428,1.896-3.791,3.024-3.791c0.98,0,1.3,0.639,1.3,1.491c0,0.404-0.064,0.852-0.128,1.235L59.551,39.765z"/>
<path fill="#D1D2D3" d="M66.343,27.475l-0.362,1.917h-1.405l-0.362,1.917h1.406l-0.894,4.622c-0.171,0.767-0.235,1.342-0.235,1.917
	c0,1.193,0.767,2.151,2.471,2.151c0.596,0,1.257-0.085,1.619-0.213l0.234-1.959c-0.256,0.043-0.554,0.064-0.852,0.064
	c-0.66,0-0.916-0.362-0.916-0.938c0-0.426,0.085-0.98,0.17-1.448l0.831-4.196h2.322l0.383-1.916H68.41l0.511-2.662L66.343,27.475z"
	/>
<path fill="#D1D2D3" d="M77.333,28.646c0.98-0.852,2.3-1.321,3.664-1.321c1.257,0,2.237,0.256,2.705,0.512l0.724-2.002
	c-0.405-0.277-1.555-0.66-3.131-0.66c-2.067,0-3.856,0.575-5.346,1.704c-2.087,1.555-3.366,4.09-3.366,7.072
	c0,3.728,2.386,6.049,6.113,6.049c1.683,0,2.982-0.32,3.749-0.66l-0.234-2.024c-0.767,0.362-1.832,0.554-2.876,0.554
	c-2.833,0-4.068-1.81-4.068-4.217C75.267,31.564,76.077,29.755,77.333,28.646z"/>
<path fill="#D1D2D3" d="M86.768,40c3.536,0,6.007-3.025,6.007-6.539c0-2.3-1.47-4.302-4.26-4.303c-3.535,0-5.985,3.046-5.985,6.56
	C82.529,38.189,84.149,40,86.768,40z M88.217,31.075c1.512,0,1.981,1.321,1.981,2.386c0,2.066-1.235,4.622-3.089,4.622
	c-1.257,0-2.024-1.001-2.024-2.428C85.086,33.716,86.236,31.075,88.217,31.075z"/>
<path fill="#D1D2D3" d="M99.229,39.765h2.471l1.15-6.028c0.106-0.533,0.191-1.257,0.191-1.725c0-1.96-1.172-2.854-2.641-2.854
	c-1.448,0-2.769,0.703-3.728,2.108H96.63l0.213-1.874h-2.194c-0.128,0.894-0.277,1.981-0.533,3.216l-1.342,7.157h0.001v-0.001h2.472
	l0.894-4.792c0.447-2.428,1.896-3.791,3.024-3.791c0.979,0,1.299,0.639,1.299,1.491c0,0.404-0.064,0.852-0.128,1.235L99.229,39.765z
	"/>
<path fill="#D1D2D3" d="M104.297,35.93c-0.171,0.767-0.235,1.342-0.235,1.917c0,1.193,0.767,2.151,2.471,2.151
	c0.596,0,1.257-0.085,1.619-0.213l0.234-1.959c-0.256,0.043-0.554,0.064-0.852,0.064c-0.66,0-0.916-0.362-0.916-0.938
	c0-0.426,0.085-0.98,0.17-1.448l0.831-4.196h2.322l0.383-1.916h-2.343l0.511-2.662l-2.578,0.745l-0.362,1.917h-1.406l-0.362,1.917
	h1.405L104.297,35.93z"/>
<path fill="#D1D2D3" d="M112.049,40c1.321,0,2.684-0.66,3.706-2.577h0.064c-0.085,0.894-0.17,1.725-0.192,2.343v0.001h2.301
	c-0.042-1.236,0.128-3.174,0.426-4.728l1.065-5.411c-0.789-0.255-2.003-0.468-3.131-0.468c-4.835,0-7.305,3.77-7.305,7.305
	C108.982,38.552,110.196,40,112.049,40z M115.628,31.075c0.447,0,0.767,0.043,1.023,0.107l-0.554,2.726
	c-0.491,2.641-1.896,4.09-3.046,4.09c-1.086,0-1.491-0.895-1.491-1.981C111.559,33.652,113.327,31.075,115.628,31.075z"/>
<path fill="#D1D2D3" d="M123.28,40c1.321,0,2.386-0.298,2.982-0.596l-0.085-1.918c-0.532,0.235-1.257,0.49-2.215,0.49
	c-1.385,0-2.279-0.873-2.279-2.428c0-2.151,1.512-4.366,3.919-4.366c0.682,0,1.171,0.149,1.555,0.319l0.639-1.938
	c-0.383-0.17-1.193-0.404-2.109-0.404c-3.855,0-6.603,3.067-6.603,6.688C119.084,38.317,120.682,40,123.28,40z"/>
<path fill="#D1D2D3" d="M128.561,35.93c-0.171,0.767-0.234,1.342-0.234,1.917c0,1.193,0.767,2.151,2.471,2.151
	c0.596,0,1.257-0.085,1.619-0.213l0.235-1.959c-0.256,0.043-0.554,0.064-0.852,0.064c-0.66,0-0.916-0.362-0.916-0.938
	c0-0.426,0.085-0.98,0.17-1.448l0.831-4.196h2.322l0.383-1.916h-2.343l0.511-2.662l-2.578,0.745l-0.362,1.917h-1.406l-0.362,1.917
	h1.406L128.561,35.93z"/>
<path fill="#D1D2D3" d="M137.423,28.394c1.189,0,2.029-1.038,2.029-2.047c0-1.679-1.505-2.07-2.029-2.07
	c-0.811,0-2.024,0.571-2.024,2.07C135.399,27.415,136.269,28.417,137.423,28.394z M137.434,24.604c0.951,0,1.721,0.757,1.715,1.761
	c-0.006,0.903-0.799,1.702-1.762,1.702c-0.653-0.023-1.686-0.583-1.686-1.732C135.701,25.362,136.524,24.604,137.434,24.604z"/>
<path fill="#D1D2D3" d="M137.107,26.505h0.297l0.432,0.933h0.589l-0.502-1.021c0.326-0.105,0.508-0.309,0.502-0.618
	c-0.006-0.518-0.537-0.63-0.962-0.63h-0.875v2.269h0.519V26.505z M137.114,25.49h0.215c0.297,0,0.542,0.076,0.542,0.338
	c-0.012,0.291-0.239,0.35-0.542,0.35h-0.215V25.49z"/>
<path fill="#F2F2F2" d="M97.635,3.195C88.342,3.942,78.208,6.07,73.249,7.208l7.931,3.423L97.635,3.195z"/>
<path fill="#F2F2F2" d="M94.411,19.147l6.835-16.168c-0.59,0.022-1.185,0.05-1.788,0.087L80.459,15.162l-8.214-7.721
	c-1.318,0.31-2.082,0.504-2.082,0.504L60.51,21.993C63.932,21.112,76.863,18.183,94.411,19.147z"/>
<path fill="#F2F2F2" d="M60.427,22.114l-1.518,2.209c0,0,14.143-3.458,35.212-2.259l0.565-1.37
	C81.102,19.302,64.283,21.552,60.427,22.114z"/>
<polygon fill="#E7E7E7" points="80.459,15.162 99.458,3.065 101.854,1.54 101.908,1.413 80.408,13.23 70.963,6.235 72.245,7.441 "/>
<path fill="#D1D2D3" d="M80.408,13.23l21.5-11.818l-0.054,0.127l-0.608,1.439l-6.835,16.168c-17.548-0.964-30.479,1.965-33.9,2.847
	c-0.589,0.152-0.904,0.245-0.904,0.245s0.293-0.046,0.821-0.124c3.856-0.563,20.675-2.812,34.259-1.419
	c0.207,0.021,0.417,0.04,0.622,0.063L103.784,0C83.92,1.762,70.861,5.859,70.861,5.859s18.684-3.803,30.934-4.543l-4.159,1.879
	L81.18,10.63l-7.931-3.423l-2.33-1.006l0.045,0.033L80.408,13.23z"/>
<polygon fill="#F2F2F2" points="50.657,13.18 53.062,10.668 50.12,10.968 47.668,13.24 "/>
<polygon fill="#D1D2D3" points="43.64,13.062 46.742,13.216 49.187,11.045 45.974,11.18 "/>
<polygon fill="#E7E7E7" points="37.508,10.597 34.69,10.105 32.977,10.903 35.54,11.7 "/>
<polygon fill="#F2F2F2" points="39.048,12.482 41.064,11.062 38.285,10.804 36.373,11.911 "/>
<polygon fill="#E7E7E7" points="47.626,9.161 44.355,9.415 42.692,10.626 45.663,10.692 "/>
<polygon fill="#D1D2D3" points="66.894,10.737 70.102,6.123 66.764,7.415 63.8,11.469 "/>
<polygon fill="#E7E7E7" points="62.748,11.671 65.612,7.807 62.418,8.775 59.677,12.236 "/>
<polygon fill="#D1D2D3" points="55.605,12.799 58.668,12.393 61.352,9.056 58.236,9.785 "/>
<polygon fill="#E7E7E7" points="60.596,6.108 56.87,7.281 54.317,9.996 57.66,9.426 "/>
<polygon fill="#D1D2D3" points="48.315,16.433 51.286,16.628 53.996,13.569 50.813,13.773 "/>
<polygon fill="#E7E7E7" points="50.075,13.787 47.05,13.798 44.67,15.992 47.608,16.36 "/>
<polygon fill="#D1D2D3" points="56.132,16.71 59.074,16.621 62.168,12.47 59.081,12.977 "/>
<polygon fill="#F2F2F2" points="66.301,11.604 63.208,12.266 60.047,16.569 62.962,16.381 "/>
<polygon fill="#F2F2F2" points="37.568,14.351 40.105,15.071 42.151,13.469 39.355,13.052 "/>
<polygon fill="#E7E7E7" points="52.636,21.132 55.508,21.435 58.428,17.495 55.484,17.528 "/>
<polygon fill="#E7E7E7" points="36.324,14.413 33.84,13.368 31.946,14.468 34.344,15.797 "/>
<polygon fill="#D1D2D3" points="41.641,18.765 44.509,19.592 47.019,16.977 44.085,16.518 "/>
<polygon fill="#E7E7E7" points="38.1,17.504 40.803,18.49 43.212,16.351 40.359,15.689 "/>
<polygon fill="#E7E7E7" points="35.315,19.726 37.978,20.998 40.363,18.874 37.673,17.848 "/>
<polygon fill="#F2F2F2" points="48.844,20.545 51.726,21.01 54.536,17.519 51.585,17.4 "/>
<polygon fill="#E7E7E7" points="42.384,22.782 45.044,23.674 47.556,20.849 44.783,20.205 "/>
</svg>
