<?xml version="1.0" encoding="utf-8"?>
<!-- Generator: Adobe Illustrator 19.1.0, SVG Export Plug-In . SVG Version: 6.00 Build 0)  -->
<!DOCTYPE svg PUBLIC "-//W3C//DTD SVG 1.1//EN" "http://www.w3.org/Graphics/SVG/1.1/DTD/svg11.dtd">
<svg version="1.1" id="Layer_1" xmlns="http://www.w3.org/2000/svg" xmlns:xlink="http://www.w3.org/1999/xlink" x="0px" y="0px"
	 viewBox="0 0 310.3 81.7" style="enable-background:new 0 0 310.3 81.7;" xml:space="preserve">
<style type="text/css">
	.st0{fill:#D2D2D2;}
	.st1{fill:#FFFFFF;}
</style>
<path class="st0" d="M134.8,29c2.5-4.9,12.5-4.3,14.9-0.4c1.2,1.9,2.3,1.8,3.9,0.9c3.8-2.1,7.7-3.6,12.2-3.5c2.7,0.1,5,0.9,6.6,3.1
	c1.2,1.6,2.2,1.5,3.8,0.6c4.4-2.7,9.1-4.4,14.4-3.5c3.9,0.6,6.2,2.9,5.8,6.9c-0.8,6.7-2,13.4-3.2,20.1c-0.4,2.2-0.9,4.3-1.3,6.4
	c-0.4,2.2-1.7,3.1-3.8,3.3c-6,0.4-6.7-0.3-5.6-6.1c1-5.7,2.2-11.4,3.3-17.1c0.4-2.2,1.3-4.7-0.9-6.4c-2.2-1.7-4.7-0.6-6.9,0.3
	c-2.5,1-4.2,2.9-4.8,5.5c-1.7,6.7-3.3,13.4-4.9,20.1c-0.8,3.3-5.1,5.3-7.8,3.2c-0.7-0.5-0.7-2.3-0.5-3.4c0.9-5.3,2.1-10.5,3.1-15.8
	c0.4-2.1,0.9-4.3,1.2-6.5c0.4-2.8-0.8-4.1-3.6-4.2c-4.7-0.1-8.4,2.7-9.9,8.1c-1.7,6.1-3.2,12.4-4.4,18.6c-0.5,2.8-1.9,3.7-4.4,3.6
	c-0.3,0-0.7,0-1,0c-4.7,0-5.1-0.4-4.2-5.1c1.2-6.5,2.5-13,3.8-19.5c0.1-0.6,0.1-1.2,0.2-1.8C140.6,31.4,139.7,30.1,134.8,29z"/>
<path class="st0" d="M200.5,29c2.3-4.8,12.2-4.4,14.7-0.7c1.4,2.2,2.8,1.9,4.6,0.9c3.6-2,7.4-3.4,11.7-3.3c2.7,0.1,5,0.9,6.6,3.1
	c1.3,1.8,2.4,1.5,4,0.5c4.3-2.5,8.8-4.2,13.9-3.5c4.3,0.6,6.6,3,6.1,7.2c-0.8,6.7-2.1,13.3-3.2,19.9c-0.4,2.2-0.9,4.3-1.3,6.4
	c-0.4,2.3-1.8,3.2-4,3.3c-5.9,0.3-6.5-0.3-5.4-6.1c1-5.8,2.2-11.5,3.3-17.3c0.4-2.1,1.2-4.6-0.9-6.1c-2.1-1.6-4.5-0.7-6.7,0.2
	c-2.5,1-4.3,2.7-5,5.3c-1.7,6.7-3.4,13.5-5,20.3c-0.8,3.4-4.9,5.3-7.8,3.3c-0.7-0.5-0.7-2.4-0.5-3.6c0.9-5.3,2.1-10.5,3.1-15.8
	c0.4-2.1,0.8-4.1,1.1-6.2c0.4-2.9-0.7-4.1-3.6-4.2c-4.7-0.1-8.5,2.7-10,8c-1.7,6.1-3.1,12.4-4.5,18.6c-0.8,3.3-1.2,3.6-4.6,3.7
	c-0.1,0-0.2,0-0.3,0c-5.4,0.1-5.7-0.3-4.7-5.5c1.2-6.4,2.5-12.9,3.7-19.3c0.1-0.7,0.2-1.3,0.2-2C206,31,205.3,30,200.5,29z"/>
<path class="st0" d="M307.2,25.8c-0.2,1.5-0.2,2.5-0.4,3.5c-1.6,6.7-3.3,13.4-5,20c-0.3,1.1-0.4,2.3-0.4,3.5c0.1,3.8,3,5.8,6.5,4.5
	c0.8-0.3,1.5-0.6,2.4-0.9c-2.4,7.1-12.7,8.6-16.6,4c-1.6-1.8-2.7-1.4-4.2-0.4c-4.9,3.3-10.1,5.3-16.1,3.9c-4.5-1-7.2-3.5-7.7-8.1
	c-1.1-10.6,2.4-19.7,10.4-26.9c5.2-4.7,15.1-5.7,20.4-1.4c1,0.8,3,0.5,4.5,0.3C302.8,27.4,304.8,26.6,307.2,25.8z M281.9,57.6
	c3-0.2,6.6-0.9,7.6-4.2c1.8-5.8,2.8-11.9,3.8-17.9c0.4-2.1-1.1-3.8-3.1-3.9c-2-0.1-4.5,0.1-5.9,1.2c-5.7,4.8-8.5,11.2-8.7,18.6
	C275.7,55.3,278.1,57.5,281.9,57.6z"/>
<path class="st0" d="M130.4,52.5c-0.1,0.5-0.1,1.1-0.4,1.7c-5.2,9.9-21.3,14.7-29.7,4.7c-4.3-5.1-4.6-11.2-3.2-17.5
	c2.1-9.4,10-16.1,19.5-16.6c4.3-0.2,8.3,1.2,11.4,4.5c4.5,4.8,3.7,11.3-2.2,14.1c-4.3,2-9,3-13.6,4.3c-1.5,0.5-3,0.7-4.5,1.1
	c1.1,7.6,5.8,10.9,12.7,8.6C123.8,56.3,127,54.2,130.4,52.5z M107.6,44.3c4-0.7,8-1.2,11.3-3.6c2.3-1.7,3.1-5,1.9-7.2
	c-1-1.9-3.4-2.7-6.2-2C110,32.6,106.8,38.2,107.6,44.3z"/>
<path class="st0" d="M82.6,63.3c0.2,2.3-0.8,3.9-2.5,5.1c-5,3.4-11.9,0.1-12.5-5.9c-0.1-0.8,0-1.6-0.1-2.4c-0.1-1.2,0.4-2,1.4-2.8
	c2.4-2,3-4.8,3.4-7.7c0.2-1.3,0.3-2.5,0.7-3.7c0.2-0.7,0.8-1.4,1.5-1.7c1.7-0.8,0.8-2.3,1-3.5c0.2-1.1-0.8-1-1.4-1.1
	c-1.4-0.3-3.2-0.2-4.3-0.9c-1-0.7-1.3-2.5-2.1-3.7c-1.5-2.4-3.7-3.9-6.2-5c-2.2-0.9-4.5-1.6-6.8-2.5c-2.9-1.1-3.2-1.7-3.1-4.8
	c0.1-4-1.5-7.1-4.6-9.5c-4.6-3.5-9.8-4-15.3-3.1C19,11.9,11.5,22.3,10,32.9c-0.5,3.1-0.5,6.3-0.6,9.5c-0.1,2,0,4.1-0.2,6.2
	c-1.6-4.9-3-9.7-3.3-14.9c-0.5-9,2.4-16.8,9-22.9c6.6-6.1,14.4-8.7,23.3-6.7c1.4,0.3,2.7,1,4.3,1.5c-0.3-3-3-3.7-5-5.6
	c1.8,0.1,3.2,0.1,4.6,0.2C50.6,1,58.8,3,65.8,8.4c9.2,7.2,13.7,16.8,13.9,28.4c0.1,4.2-1.4,8.2-2.9,12.1c-1.1,2.9-2.2,5.9-3,8.9
	c-0.5,1.8-0.5,3.8,0.8,5.5c1.9,2.4,4.8,2.6,7.1,0.7C82,63.7,82.3,63.5,82.6,63.3z"/>
<path class="st0" d="M0,57.6c1.1-0.1,2.1-0.1,3-0.2c2.2-0.1,3.8-1.1,5-2.9c2.4-3.6,2.8-7.8,2.9-12c0.1-5.5,0.5-11,3-16
	c4.5-9.2,11.9-14.2,22.2-14.7c3.7-0.2,7.2,0.9,10.2,3.2c4.7,3.7,5.3,11.4-1.9,14.1c-2.9,1.1-6.1,1.3-9.1,2c-2.8,0.6-5.5,1.2-8.2,2.1
	c-3.4,1.1-5.6,3.6-6.7,7.1c-1.3,4.1-2.4,8.3-3.9,12.3c-1,2.9-2.5,5.6-4.9,7.8C7.9,63.5,1.5,62.1,0,57.6z"/>
<path class="st0" d="M73.5,41c0.3,1.1,0.1,1.7-0.9,2.4c-1.5,0.9-1.6,2.7-1.9,4.3c-0.3,1.5-0.4,3.1-0.9,4.6c-1,3.5-3.5,5.4-7,5.9
	c-2,0.3-4.1,0.2-6.1,0c-4.8-0.7-8-3.4-9.7-7.9c-0.4-1.1-0.7-2.4-1.3-3.4c-0.3-0.6-1.1-1.2-1.8-1.3c-0.9-0.2-1.5,0.3-1.8,1.3
	c-0.5,1.4-1,2.8-1.5,4.1c-1.8,4.4-5.2,6.8-9.9,7.3c-2.2,0.2-4.4,0.1-6.5-0.3c-2.2-0.4-3.7-1.8-4.9-3.7c-1-1.6-0.7-2.9,0.2-4.3
	c0.1,0.1,0.2,0.2,0.2,0.3c1.3,5.7,5.1,6.9,9.7,6.3c5.5-0.6,8.1-3,9.4-8.4c0.7-2.7-0.1-4.5-2.8-5.5c-1.8-0.6-3.8-1-5.7-1.1
	c-2.9-0.2-5.8-0.4-8.6,1c0.4-2.7,0.4-2.6,2.8-2.7c5.4-0.3,10.6,0.3,15.7,2c2.6,0.9,5.1,0.8,7.6,0C56.2,38.8,64.9,39.4,73.5,41z
	 M59.8,56.8c5.4-0.2,8.8-3.4,9.1-9c0.2-3.3-0.9-5.2-4.1-5.8c-3-0.5-6.2-0.5-9.3-0.4c-1.7,0.1-3.3,0.7-4.9,1.3
	c-1.2,0.4-2.1,1.5-2,2.8c0.1,3.5,1.5,8,5.6,9.6C56,56,57.9,56.3,59.8,56.8z"/>
<path class="st0" d="M3.5,64.8c0.8,0.5,1.3,0.7,1.7,1c2.6,1.7,5.3,0.7,6-2.3c0.1-0.4,0.2-0.9,0.5-1c2.4-1.4,3.7-3.7,5-6
	c2.5,2.9,3.2,7.6,1.6,10.5c-1.5,2.8-4.6,4.4-7.8,3.9C7.6,70.5,4.2,67.7,3.5,64.8z"/>
<path class="st0" d="M31.9,46.3c0.7,1.5,0.8,2.9-0.5,4c-0.9,0.8-2.1,1-3.3,0.5c-1.7-0.7-2-2.1-1.8-4c-1.3,0.7-2.3,1.4-3.5,1.9
	c-0.4,0.2-0.9-0.1-1.4-0.1c0.2-0.4,0.2-1,0.5-1.2c3.1-2.1,6.6-3.4,10.4-2.3c1.3,0.4,2.4,1.4,3.5,2.3c0.3,0.2,0.2,0.8,0.2,1.3
	c-0.4-0.1-0.9-0.2-1.2-0.4c-0.9-0.7-1.7-1.5-2.6-2.2C32.1,46.1,32,46.2,31.9,46.3z"/>
<path class="st0" d="M34,75c2.5,0.6,5-0.3,7.4-0.4c1.7-0.1,3.4,0,5.1,0c2.5,0,4.9,1,7.7,0.1C51.8,78.3,37.4,78.8,34,75z"/>
<path class="st0" d="M36.9,78.2c2.4,0.6,4.8,1.6,7.1,1.6c2.3,0,4.7-1,7-1.6C48.3,82.9,39.8,82.9,36.9,78.2z"/>
<path class="st0" d="M38.7,67c0.5,0.2,1.1,0.2,1.5,0.5c2.7,1.6,5.3,1.6,7.8-0.5c0.3-0.3,0.8-0.3,1.3-0.4c-0.1,0.5-0.2,1-0.5,1.3
	C46,70.9,42,71,39.1,68.3c-0.2-0.2-0.4-0.6-0.6-0.9C38.6,67.3,38.7,67.2,38.7,67z"/>
<path class="st1" d="M59.8,56.8c-1.9-0.5-3.8-0.8-5.6-1.5c-4.1-1.6-5.5-6.1-5.6-9.6c-0.1-1.3,0.8-2.4,2-2.8c1.6-0.6,3.3-1.2,4.9-1.3
	c3.1-0.1,6.3-0.1,9.3,0.4c3.2,0.6,4.3,2.5,4.1,5.8C68.6,53.4,65.2,56.6,59.8,56.8z M61.1,46.8c1.4,0.8,2.4,1.4,3.5,1.9
	c0.4,0.2,1,0,1.4,0c-0.2-0.5-0.2-1.2-0.6-1.4c-1.6-0.8-3.2-1.7-4.9-2.2c-3.2-0.9-6.2-0.5-8.5,2c-0.3,0.4-0.3,1.1-0.5,1.6
	c0.5-0.2,1-0.4,1.4-0.7c0.9-0.6,1.7-1.4,2.5-2.1c0.1,0.1,0.2,0.2,0.3,0.3c-0.9,1.3-0.9,2.6,0.1,3.8c0.9,1.1,2.1,1.3,3.4,0.9
	C61.1,50.4,61.5,48.9,61.1,46.8z"/>
<path class="st0" d="M61.1,46.8c0.4,2.1,0,3.6-1.9,4.2c-1.2,0.4-2.5,0.2-3.4-0.9c-1-1.2-1-2.5-0.1-3.8c-0.1-0.1-0.2-0.2-0.3-0.3
	c-0.8,0.7-1.7,1.4-2.5,2.1c-0.4,0.3-0.9,0.4-1.4,0.7c0.2-0.5,0.2-1.2,0.5-1.6c2.4-2.5,5.4-2.9,8.5-2c1.7,0.5,3.3,1.4,4.9,2.2
	c0.3,0.2,0.4,0.9,0.6,1.4c-0.5,0-1,0.2-1.4,0C63.5,48.3,62.5,47.6,61.1,46.8z"/>
</svg>
