<?xml version="1.0" encoding="utf-8"?>
<!-- Generator: Adobe Illustrator 18.1.0, SVG Export Plug-In . SVG Version: 6.00 Build 0)  -->
<!DOCTYPE svg PUBLIC "-//W3C//DTD SVG 1.1//EN" "http://www.w3.org/Graphics/SVG/1.1/DTD/svg11.dtd">
<svg version="1.1" id="Layer_1" xmlns="http://www.w3.org/2000/svg" xmlns:xlink="http://www.w3.org/1999/xlink" x="0px" y="0px"
	 width="197.109px" height="40px" viewBox="0 0 197.109 40" enable-background="new 0 0 197.109 40" xml:space="preserve">
<path fill="#D1D2D3" d="M95,12.85c-1.696-0.733-3.547-1.132-5.43-1.132c-7.615,0-13.789,5.781-13.789,15.156
	c0,7.615,5.312,13.047,13.75,13.047c2.088,0,3.921-0.395,5.469-0.994v0.994h7.031V0.156L95,2.109V12.85z M89.766,34.609
	c-7.188,0-7.109-8.516-7.109-8.516c0-5.547,3.232-9.219,6.718-9.219c2.357,0,4.416,0.707,5.625,2.209v14.122
	C93.846,33.926,92.133,34.609,89.766,34.609z"/>
<path fill="#D1D2D3" d="M139.688,32.422V0.156l-7.031,1.953l0.078,32.578c0,1.953,1.016,5.312,4.531,5.312s5-2.266,5-2.266
	C139.766,36.562,139.688,32.422,139.688,32.422z"/>
<path fill="#D1D2D3" d="M196.953,14.915v-3.196h-33.438V3.828l-7.031,1.953v5.938h-12.266l-2.656,5.156h3.125v23.047h7.031V16.875
	h4.766v14.062c0,6.797,4.609,8.906,9.141,8.906c3.75,0,6.172-0.703,6.172-0.703v-6.094c0,0-2.109,1.641-4.766,1.641
	c-3.359,0-3.516-3.75-3.516-3.75V16.875h23.996l-14.933,20.234v2.5h21.25l3.281-5.156h-13.984L196.953,14.915z"/>
<path fill="#D1D2D3" d="M61.055,11.719c-7.615,0-13.789,5.781-13.789,15.156c0,7.615,5.781,13.047,13.75,13.047
	c4.531,0,7.927-1.031,9.59-2.909l-2.246-4.669c0,0-2.109,2.266-7.109,2.266c-6.797,0-7.188-6.562-7.188-6.562H73.75
	C75.859,18.047,68.67,11.719,61.055,11.719z M54.141,22.891c0.392-3.381,3.232-6.016,6.718-6.016c3.486,0,6.326,2.635,6.718,6.016
	H54.141z"/>
<path fill="#D1D2D3" d="M116.797,11.719c-1.882,0-3.733,0.398-5.43,1.132V2.109l-7.031-1.953v39.766h7.031v-0.994
	c1.547,0.599,3.38,0.994,5.469,0.994c8.438,0,13.75-5.431,13.75-13.047C130.586,17.5,124.412,11.719,116.797,11.719z
	 M116.602,34.609c-2.368,0-4.08-0.684-5.234-1.403V19.084c1.209-1.501,3.268-2.209,5.625-2.209c3.486,0,6.718,3.672,6.718,9.219
	C123.71,26.094,123.789,34.609,116.602,34.609z"/>
<path fill="#D1D2D3" d="M33.243,11.719c-6.465,0-11.875,4.177-13.367,11.172h-6.907V10.078c0-2.812,1.719-4.766,3.984-4.766
	c2.656,0,3.516,0.859,3.516,0.859l1.641-5.078c0,0-2.266-1.094-6.641-1.094c-5.156,0-9.688,5.234-9.688,12.734v10.156H2.656
	L0,28.047h5.781v11.562h7.188V28.047h6.541c0.563,6.993,6.142,11.875,13.694,11.875c4.531,0,7.927-1.031,9.59-2.909l-2.246-4.669
	c0,0-2.109,2.266-7.109,2.266c-6.797,0-7.188-6.562-7.188-6.562h17.343h2.344C48.047,18.047,40.858,11.719,33.243,11.719z
	 M26.329,22.891c0.392-3.381,3.232-6.016,6.718-6.016c3.486,0,6.326,2.635,6.718,6.016H26.329z"/>
<circle fill="#D1D2D3" cx="148.555" cy="4.727" r="3.945"/>
</svg>
