<?xml version="1.0" encoding="utf-8"?>
<!-- Generator: Adobe Illustrator 18.1.0, SVG Export Plug-In . SVG Version: 6.00 Build 0)  -->
<!DOCTYPE svg PUBLIC "-//W3C//DTD SVG 1.1//EN" "http://www.w3.org/Graphics/SVG/1.1/DTD/svg11.dtd">
<svg version="1.1" id="Layer_1" xmlns="http://www.w3.org/2000/svg" xmlns:xlink="http://www.w3.org/1999/xlink" x="0px" y="0px"
	 width="256.858px" height="40px" viewBox="0 0 256.858 40" enable-background="new 0 0 256.858 40" xml:space="preserve">
<path fill="#D1D2D3" d="M249.932,14.468c-4.69,0-7.937,3.371-7.937,8.182c0,4.442,3.218,8.18,8.396,8.18
	c3.891,0,6.282-2.357,6.282-2.357l-1.623-2.695c0,0-1.873,1.743-4.384,1.743c-2.357,0-4.379-1.439-4.686-4.197h10.785
	c0,0,0.092-0.979,0.092-1.439C256.858,17.748,254.408,14.468,249.932,14.468z M246.104,20.628c0.428-1.959,1.833-3.157,3.828-3.157
	c1.594,0,2.878,1.286,2.941,3.157H246.104z"/>
<path fill="#D1D2D3" d="M103.009,14.468c-4.688,0-7.937,3.371-7.937,8.182c0,4.442,3.218,8.18,8.396,8.18
	c3.891,0,6.277-2.357,6.277-2.357l-1.621-2.695c0,0-1.869,1.743-4.379,1.743c-2.362,0-4.384-1.439-4.688-4.197h10.783
	c0,0,0.092-0.979,0.092-1.439C109.933,17.748,107.481,14.468,103.009,14.468z M99.182,20.628c0.428-1.959,1.833-3.157,3.828-3.157
	c1.594,0,2.878,1.286,2.941,3.157H99.182z"/>
<path fill="#D1D2D3" d="M147.996,14.468c-4.686,0-7.937,3.371-7.937,8.182c0,4.442,3.224,8.18,8.396,8.18
	c3.891,0,6.284-2.357,6.284-2.357l-1.623-2.695c0,0-1.873,1.743-4.386,1.743c-2.36,0-4.379-1.439-4.683-4.197h10.783
	c0,0,0.09-0.979,0.09-1.439C154.92,17.748,152.47,14.468,147.996,14.468z M144.168,20.628c0.428-1.959,1.837-3.157,3.828-3.157
	c1.594,0,2.882,1.286,2.943,3.157H144.168z"/>
<path fill="#D1D2D3" d="M224.828,26.511v-6.097c0-4.136-1.993-5.944-5.453-5.944c-3.159,0-4.845,1.93-5.519,3.247h-0.059
	c0,0,0.059-0.338,0.059-0.673v-0.459c0-1.103-0.675-1.747-2.051-1.747h-3.587v3.308h1.229c0.428,0,0.669,0.216,0.669,0.675v11.643
	h3.864v-7.169c0-0.736,0.088-1.441,0.309-2.083c0.549-1.871,2.107-3.186,4.192-3.186c1.963,0,2.454,1.286,2.454,3.186v7.169
	c0,1.47,0.612,2.083,2.083,2.083h3.706v-3.278h-1.227C225.071,27.184,224.828,26.939,224.828,26.511z"/>
<path fill="#D1D2D3" d="M198.654,14.468c-4.751,0-8.549,3.402-8.549,8.18c0,4.814,3.798,8.182,8.549,8.182
	c4.778,0,8.579-3.368,8.579-8.182C207.233,17.87,203.432,14.468,198.654,14.468z M198.654,27.521c-2.513,0-4.627-1.959-4.627-4.872
	c0-2.878,2.114-4.87,4.627-4.87c2.542,0,4.659,1.993,4.659,4.87C203.313,25.562,201.196,27.521,198.654,27.521z"/>
<path fill="#D1D2D3" d="M181.201,14.468c-3.557,0-4.845,2.299-4.845,2.299h-0.061v-0.552c0-0.797-0.581-1.378-1.993-1.378h-3.429
	v3.308h1.227c0.428,0,0.673,0.216,0.673,0.675v17.769h3.888v-6.62c0-0.795-0.059-1.346-0.059-1.346h0.059
	c0,0,1.317,2.207,4.69,2.207c4.228,0,6.926-3.339,6.926-8.18C188.277,17.687,185.335,14.468,181.201,14.468z M180.464,27.549
	c-2.024,0-3.922-1.468-3.922-4.931c0-2.418,1.286-4.81,3.888-4.81c2.112,0,3.922,1.745,3.922,4.841
	C184.353,25.622,182.763,27.549,180.464,27.549z"/>
<path fill="#D1D2D3" d="M161.131,18.882c0-0.921,0.955-1.409,2.33-1.409c0.858,0,1.963,0.367,1.963,1.103v0.766h3.429v-1.623
	c0-2.544-3.368-3.249-5.48-3.249c-3.251,0-6.073,1.441-6.073,4.566c0,5.055,8.245,5.026,8.245,7.232c0,1.04-0.921,1.529-2.114,1.529
	c-2.668,0-4.658-2.297-4.658-2.297l-1.84,2.542c0,0,2.211,2.79,6.498,2.79c3.4,0,6.005-1.837,6.005-4.78
	C169.437,20.843,161.131,21.331,161.131,18.882z"/>
<path fill="#D1D2D3" d="M232.296,18.882c0-0.921,0.95-1.409,2.328-1.409c0.858,0,1.961,0.367,1.961,1.103v0.766h3.429v-1.623
	c0-2.544-3.368-3.249-5.48-3.249c-3.249,0-6.066,1.441-6.066,4.566c0,5.055,8.241,5.026,8.241,7.232c0,1.04-0.921,1.529-2.114,1.529
	c-2.67,0-4.661-2.297-4.661-2.297l-1.835,2.542c0,0,2.209,2.79,6.496,2.79c3.4,0,6-1.837,6-4.78
	C240.595,20.843,232.296,21.331,232.296,18.882z"/>
<path fill="#D1D2D3" d="M117.078,24.244v-6.311h3.555v-1.441c0-1.144-0.513-1.655-1.659-1.655h-0.943h-0.952v-4.26h-3.798v4.26
	h-2.114v3.096h2.02v6.802c0,5.235,4.323,5.883,6.498,5.883c0.705,0,1.196-0.092,1.196-0.092v-3.404c0,0-0.277,0.063-0.705,0.063
	C119.1,27.184,117.078,26.815,117.078,24.244z"/>
<path fill="#D1D2D3" d="M90.908,19.112H87.38v3.404h1.317c0.43,0,0.676,0.214,0.676,0.671v1.626c0,0-2.056,2.267-5.519,2.267
	c-3.893,0-7.138-2.911-7.138-7.662c0-4.413,3.218-7.39,6.987-7.39c3.31,0,5.579,1.934,5.579,1.934l2.267-2.88
	c0,0-2.607-2.76-7.939-2.76c-6.313,0-11.067,4.872-11.067,11.13c0,7.016,4.875,11.368,10.576,11.368c4.08,0,6.406-2.33,6.406-2.33
	h0.063c0,0-0.034,0.464-0.034,0.921v1.042h3.434v-9.288C92.988,19.725,92.376,19.112,90.908,19.112z"/>
<path fill="#D1D2D3" d="M137.179,26.346l-2.119-4.197c-0.399-0.797-1.074-1.106-1.074-1.106v-0.059
	c0.923-0.187,3.618-1.81,3.618-5.732c0-4.109-2.79-6.561-6.775-6.561h-7.752v21.764h4.014v-8.126h2.024
	c1.135,0,1.594,0.153,2.054,1.015l2.787,5.485c0.705,1.378,1.412,1.626,3.035,1.626h2.114v-3.404h-0.396
	C138.034,27.051,137.51,26.99,137.179,26.346z M130.28,18.898h-3.188v-6.804h3.249c1.961,0,3.157,1.227,3.157,3.373
	C133.497,17.641,132.302,18.898,130.28,18.898z"/>
<path fill="#D1D2D3" d="M29.626,29.57c-5.496,0.014-10.546-1.972-14.61-4.961c-5.232-3.851-8.389-9.809-9.243-15.106
	C5.709,9.103,5.644,8.709,5.597,8.372C5.381,6.885,6.468,5.269,8.291,5.269h1.255c1.137,5.409,4.129,9.238,7.129,11.677
	c4.014,3.263,8.725,4.47,12.873,4.56c11.169,0.239,22.038-9.61,29.049-20.454C58.105,0.427,57.376,0,56.519,0H2.685
	C1.202,0,0,1.202,0,2.685v32.419c0,1.483,1.202,2.685,2.685,2.685h53.834c1.483,0,2.685-1.202,2.685-2.685V7.283
	C50.014,23.331,39.468,29.54,29.626,29.57z"/>
</svg>
