<?xml version="1.0" encoding="utf-8"?>
<!-- Generator: Adobe Illustrator 19.1.0, SVG Export Plug-In . SVG Version: 6.00 Build 0)  -->
<!DOCTYPE svg PUBLIC "-//W3C//DTD SVG 1.1//EN" "http://www.w3.org/Graphics/SVG/1.1/DTD/svg11.dtd">
<svg version="1.1" id="Layer_1" xmlns="http://www.w3.org/2000/svg" xmlns:xlink="http://www.w3.org/1999/xlink" x="0px" y="0px"
	 viewBox="0 0 475.8 139" style="enable-background:new 0 0 475.8 139;" xml:space="preserve">
<style type="text/css">
	.st0{fill:#E5E5E5;}
	.st1{fill:#D2D2D2;}
</style>
<g>
	<path class="st0" d="M327.6,0c0.6,0.2,1.1,0.5,1.7,0.7c7.6,2,11.7,7.9,10.7,15.7c-0.2,1.4,0.2,2,1.1,2.7
		c14.2,10.7,28.3,21.5,42.5,32.2c0.6,0.4,1.7,0.6,2.5,0.4c2.9-0.8,5.7-1.9,8.7-2.7c1.3-0.3,1.8-0.8,1.8-2.2c0-4.5,0.1-9.1-0.1-13.6
		c0-0.9-0.9-2-1.8-2.6c-4.3-3-6.2-7.1-5.5-12.1c0.7-5,3.6-8.5,8.5-10.1c5.8-1.9,12.2,0.9,14.8,6.4c2.6,5.6,0.9,12.2-4.2,15.5
		c-1.7,1.1-2.3,2.2-2.2,4.2c0.1,3.7,0.2,7.3,0,11c-0.2,2.5,0.8,3.3,3.1,3.8c12.4,2.9,21,10.3,25.2,22.4c6.8,19.7-6.5,41-27.1,43.8
		c-9,1.2-17.3-0.4-25.1-5.1c-1.3-0.8-2-0.6-3,0.4c-3.6,3.7-7.2,7.4-10.9,10.9c-1.2,1.1-1.5,2.3-1.5,3.9c0.3,6.8-3.9,11.7-10,11.8
		c-6.2,0.1-10.8-4.6-10.7-11c0.1-5.8,5-10.5,10.9-9.8c2.9,0.3,4.6-0.6,6.4-2.6c3-3.2,6.1-6.2,9.2-9.3c0.9-0.9,1.3-1.6,0.4-2.8
		c-9.4-12.6-8.5-32.4,3.4-43.6c0.3-0.3,0.4-0.6,0.8-1.1c-0.7-0.6-1.3-1.1-2-1.6c-13.3-9.6-26.5-19.2-39.8-28.7
		c-0.8-0.5-2.2-0.7-3.1-0.4c-7.8,3.1-15.9-0.3-18.6-7.8c-2.8-7.9,1.4-15.6,9.7-18c0.7-0.2,1.3-0.5,1.9-0.8C326,0,326.8,0,327.6,0z
		 M401.1,101.3c9.8,0.1,19.4-9.2,19.1-18.8c-0.2-10.4-7.6-18.9-18.8-19.3c-10-0.3-19.1,9-19.2,19.3
		C382.1,92.3,391.1,101.2,401.1,101.3z"/>
	<path class="st1" d="M0,26.2c5.4,0,10.9,0,16.6,0c0,12.5,0,24.7,0,37c12,0,23.6,0,35.6,0c0-12.3,0-24.5,0-36.8c5.6,0,10.9,0,16.3,0
		c0,30.2,0,60.2,0,90.4c-5.4,0-10.6,0-16.2,0c0-12.5,0-25,0-37.7c-12,0-23.6,0-35.5,0c0,12.6,0,25,0,37.9c-5.7,0-11.2,0-16.7,0
		C0,86.7,0,56.5,0,26.2z"/>
	<path class="st1" d="M289.2,139c0-1.1,0.1-2.2,0.1-3.3c0-17.5-0.1-35.1,0-52.6c0.1-10.4,3.3-19.7,11.1-26.8
		c11.5-10.6,28.6-11.2,41.9-1.4c11.5,8.4,16.1,20,13.4,33.8c-2.7,13.9-11.2,23.1-25.1,26.5c-8.8,2.1-17.2,1-24.3-5.3
		c-0.3-0.3-0.6-0.5-0.9-0.7c0,0-0.1,0-0.4,0.1c0,0.4-0.1,0.8-0.1,1.2c0,9.1,0,18.3,0,27.4c0,0.4,0.1,0.8,0.2,1.1
		C299.8,139,294.5,139,289.2,139z M304.5,82.1c0.8,2.9,1.3,5.9,2.5,8.6c5.2,11.2,18.9,14.4,27.7,6.8c9.2-8.1,9.3-22.6,0.2-30.8
		c-3.3-3-7.2-4.8-11.7-4.5C312.8,63,305,71.5,304.5,82.1z"/>
	<path class="st1" d="M479.2,103c-1.1,3.9-2.3,7.8-3.4,11.8c-0.4,1.3-1,2-2.3,2.1c-5.2,0.3-10.4,0.2-15.4-1.8
		c-8.4-3.5-12.1-10.2-12.2-18.9c-0.1-18.3,0-36.6,0-55c0-0.6,0.4-1.6,0.9-1.8c4.7-2.2,9.4-4.3,14.6-6.6c0,4.4,0,8.5,0,12.6
		c0,1.2,0.1,2.3,0,3.5c-0.2,1.8,0.7,2.3,2.3,2.2c4-0.1,7.9,0,12.1,0c0,4.5,0,8.8,0,13.4c-4,0-8,0.1-11.9,0c-1.9-0.1-2.5,0.5-2.5,2.5
		c0.1,8.3,0,16.5,0.1,24.8c0,7.2,3.5,10.7,10.8,10.9c2.3,0,4.7-0.1,7-0.1C479.2,102.7,479.2,102.8,479.2,103z"/>
	<path class="st1" d="M163.6,56c3.2-2.9,6.8-5.3,11-6.3c16.6-3.9,33.8,6.4,38.7,23.3c5.8,20.2-7.4,40.4-28.2,43.6
		c-19.4,3-34.9-11-37.1-28.7c-0.3-2.5-0.4-5-0.4-7.5c0-17,0-34,0-51c0-0.9,0-1.8,0-2.9c5.1,0,10.1,0,15.4,0c0,9.8,0,19.6,0,29.3
		C163.1,55.8,163.3,55.9,163.6,56z M181.9,102.7c1.2-0.1,2.3-0.2,3.5-0.4c10.1-2.5,16.5-13.9,13.8-24.3
		c-2.4-9.5-11.5-16.3-20.4-14.5c-9.2,1.9-16.5,10.9-15.8,20.3C163.8,94.5,171.8,102.5,181.9,102.7z"/>
	<path class="st1" d="M222.5,103.3c4-3.7,7.8-7.2,11.6-10.7c1.3,1.2,2.8,2.7,4.4,4.1c4.5,4.1,9.8,5.4,15.6,3.9
		c4.3-1.1,7.2-4.1,7.9-8.6c0.7-4.6-1.7-7.9-5.6-9.9c-3.5-1.8-7.3-3-11-4.6c-2.9-1.2-5.8-2.2-8.6-3.6c-10.5-5.2-13.7-14.4-12.4-25.1
		c1.7-14.4,13-20.8,23.4-22.2c11.2-1.5,20.7,1.8,28.7,9.8c0.4,0.4,0.7,0.8,1.1,1.4c-3.3,3.9-6.7,7.8-10.1,11.8
		c-3.7-3.4-7.6-6.4-12.4-7.4c-7-1.4-14.3,1.6-13.9,10.7c0.1,3,1.7,5.1,4.2,6.3c2.8,1.4,5.9,2.4,8.9,3.5c3.6,1.4,7.4,2.5,10.9,4.1
		c11.4,5.2,14.8,15.7,13.7,26.9c-1.3,14.1-13,21.2-23.7,22.6C242.1,118.3,231.4,113.9,222.5,103.3z"/>
	<path class="st1" d="M121.9,69.6c0-6.3,0.1-12.6,0-18.9c0-1.7,0.4-2.4,2.2-2.3c3.8,0.1,7.6,0.1,11.5,0c1.2,0,1.9,0.2,1.9,1.6
		c-0.1,13.7,0.2,27.5-0.4,41.1c-0.6,12.3-11.2,23.2-23.3,25.3c-16.6,2.9-31.2-7-34.6-23.4c-0.4-2-0.6-4.2-0.6-6.3
		c-0.1-11.9,0-23.9-0.1-35.8c0-2.2,0.7-2.8,2.8-2.7c3.3,0.2,6.7,0.2,10.1,0c2.1-0.1,2.8,0.5,2.8,2.7c-0.1,11.7-0.1,23.4,0,35.1
		c0,2.4,0.4,5,1.3,7.2c2.7,6.2,9.3,9.3,15.8,7.8c6.2-1.4,10.7-7,10.8-13.5C121.9,81.6,121.9,75.6,121.9,69.6
		C121.9,69.6,121.9,69.6,121.9,69.6z"/>
</g>
</svg>
