<?xml version="1.0" encoding="utf-8"?>
<!-- Generator: Adobe Illustrator 18.1.0, SVG Export Plug-In . SVG Version: 6.00 Build 0)  -->
<!DOCTYPE svg PUBLIC "-//W3C//DTD SVG 1.1//EN" "http://www.w3.org/Graphics/SVG/1.1/DTD/svg11.dtd">
<svg version="1.1" id="Layer_1" xmlns="http://www.w3.org/2000/svg" xmlns:xlink="http://www.w3.org/1999/xlink" x="0px" y="0px"
	 width="164.661px" height="40px" viewBox="0 0 164.661 40" enable-background="new 0 0 164.661 40" xml:space="preserve">
<path fill="#D1D2D3" d="M10.356,39.34c0.209,0.059,0.492,0.094,0.849,0.107c0.357,0.013,0.815,0,1.372-0.036
	c0.541-0.036,0.998-0.085,1.372-0.146c0.373-0.061,0.673-0.135,0.902-0.223c0.226-0.088,0.393-0.19,0.498-0.307
	c0.105-0.116,0.168-0.248,0.187-0.396l2.588-19.653c0.02-0.147-0.005-0.273-0.073-0.379c-0.068-0.106-0.207-0.19-0.417-0.257
	c-0.21-0.065-0.494-0.11-0.852-0.129c-0.358-0.02-0.816-0.011-1.375,0.026c-0.556,0.037-1.017,0.088-1.381,0.156
	c-0.365,0.068-0.661,0.15-0.888,0.245c-0.227,0.095-0.394,0.201-0.498,0.318c-0.105,0.117-0.167,0.248-0.186,0.395L9.867,38.715
	c-0.02,0.147,0.005,0.274,0.073,0.378C10.009,39.198,10.147,39.281,10.356,39.34z"/>
<path fill="#D1D2D3" d="M19.255,14.861c0.155-0.383,0.265-0.847,0.331-1.393c0.068-0.53,0.076-0.975,0.027-1.338
	c-0.049-0.363-0.184-0.652-0.405-0.872c-0.221-0.219-0.536-0.366-0.945-0.442c-0.408-0.075-0.93-0.091-1.565-0.049
	c-0.644,0.043-1.18,0.129-1.607,0.259c-0.428,0.131-0.782,0.323-1.065,0.575c-0.283,0.252-0.501,0.566-0.654,0.942
	c-0.153,0.375-0.263,0.828-0.33,1.358c-0.08,0.547-0.093,1.004-0.035,1.373c0.058,0.368,0.195,0.659,0.413,0.871
	c0.219,0.212,0.53,0.352,0.933,0.421c0.403,0.067,0.918,0.082,1.546,0.04c0.65-0.043,1.191-0.127,1.622-0.25
	c0.431-0.124,0.79-0.307,1.075-0.554C18.882,15.558,19.101,15.243,19.255,14.861z"/>
<path fill="#D1D2D3" d="M38.781,10.524c2.677,0,4.925,0.568,6.5,1.326l1.004-3.359c-1.1-0.568-3.631-1.42-7.646-1.42
	c-9.989,0-16.823,6.766-16.823,16.749C21.815,34.276,28.649,40,37.729,40c3.921,0,6.98-0.804,8.508-1.561l-0.86-3.263
	c-1.672,0.804-4.253,1.324-6.786,1.324c-7.84,0-12.379-5.015-12.379-12.821C26.212,15.303,31.231,10.524,38.781,10.524z"/>
<path fill="#D1D2D3" d="M59.381,16.061c-6.404,0-11.471,4.495-11.471,12.159C47.91,35.459,52.737,40,58.999,40
	c5.592,0,11.519-3.689,11.519-12.159C70.518,20.839,66.025,16.061,59.381,16.061z M59.189,36.879c-4.109,0-7.026-3.785-7.026-8.801
	c0-4.353,2.151-8.894,7.122-8.894c4.971,0,6.93,4.921,6.93,8.799C66.215,33.14,63.206,36.879,59.189,36.879z"/>
<path fill="#D1D2D3" d="M88.919,39.924h4.205V26.25c0-7.854-4.971-9.745-8.172-9.745c-3.825,0-6.5,2.127-7.648,4.305h-0.096
	l-0.238-3.785h-3.729c0.144,1.891,0.192,3.833,0.192,6.198v16.701h4.205V26.156c0-0.71,0.096-1.42,0.288-1.942
	c0.716-2.317,2.867-4.257,5.638-4.257c3.967,0,5.354,3.075,5.354,6.766V39.924z"/>
<path fill="#D1D2D3" d="M102.528,11.092l-4.111,1.278v4.211h-3.583v3.171h3.583v12.49c0,2.695,0.43,4.731,1.626,5.961
	c1.004,1.135,2.581,1.797,4.541,1.797c1.626,0,2.915-0.284,3.727-0.614l-0.19-3.123c-0.622,0.19-1.292,0.284-2.439,0.284
	c-2.341,0-3.153-1.61-3.153-4.447V19.752h6.022v-3.171h-6.022V11.092z"/>
<path fill="#D1D2D3" d="M128.337,33.992v-8.564c0-4.589-1.72-9.367-8.793-9.367c-2.917,0-5.688,0.804-7.6,2.036l0.956,2.743
	c1.625-1.042,3.871-1.704,6.022-1.704c4.731,0,5.258,3.407,5.258,5.299v0.474c-0.07-0.001-0.139-0.001-0.208-0.001
	c-8.808,0-13.702,3.025-13.702,8.516c0,3.313,2.392,6.576,7.074,6.576c3.297,0,5.782-1.607,7.074-3.405h0.144l0.334,2.885h3.823
	C128.433,37.919,128.337,35.979,128.337,33.992z M124.274,31.768c0,0.426-0.094,0.898-0.24,1.326
	c-0.668,1.94-2.579,3.831-5.59,3.831c-2.152,0-3.967-1.278-3.967-3.973c0-4.232,4.713-5.165,9.123-5.165
	c0.226,0,0.451,0.002,0.674,0.007V31.768z"/>
<path fill="#D1D2D3" d="M143.043,19.42c2.295,0,3.871,0.52,4.877,1.088l0.956-3.217c-1.148-0.568-3.347-1.184-5.832-1.184
	c-7.552,0-12.427,5.111-12.427,12.161c0,7.002,4.541,11.733,11.519,11.733c3.107,0,5.544-0.804,6.644-1.372l-0.718-3.121
	c-1.194,0.52-2.771,1.134-5.163,1.134c-4.586,0-8.028-3.265-8.028-8.564C134.871,23.299,137.738,19.42,143.043,19.42z"/>
<path fill="#D1D2D3" d="M164.229,36.263c-0.62,0.19-1.29,0.284-2.435,0.284c-2.344,0-3.155-1.61-3.155-4.447V19.752h6.022v-3.171
	h-6.022v-5.488l-4.111,1.278v4.211h-3.585v3.171h3.585v12.49c0,2.695,0.43,4.731,1.626,5.961c1.004,1.135,2.581,1.797,4.541,1.797
	c1.623,0,2.915-0.284,3.727-0.614L164.229,36.263z"/>
<path fill="#D1D2D3" d="M12.276,7.331c0.528-0.292,0.718-0.956,0.424-1.483c-0.199-0.36-0.57-0.562-0.953-0.562
	c-0.18,0-0.362,0.044-0.53,0.138c-2.365,1.311-4.041,3.433-4.721,5.974c-0.66,2.463-0.292,5.033,1.032,7.232
	c0.204,0.34,0.566,0.529,0.936,0.529c0.192,0,0.386-0.051,0.562-0.157c0.516-0.31,0.682-0.982,0.372-1.498
	c-1.016-1.687-1.298-3.657-0.794-5.542C9.129,9.998,10.432,8.353,12.276,7.331z"/>
<path fill="#D1D2D3" d="M9.892,2.955c0.761-0.422,1.036-1.382,0.614-2.143c-0.422-0.761-1.382-1.036-2.143-0.614
	c-3.919,2.174-6.791,5.754-7.879,9.821c-0.976,3.649-0.465,7.4,1.438,10.564c0.449,0.746,1.417,0.987,2.163,0.538
	c0.746-0.449,0.987-1.417,0.538-2.163c-1.458-2.424-1.847-5.309-1.094-8.124C4.397,7.588,6.716,4.717,9.892,2.955z"/>
</svg>
