<?xml version="1.0" encoding="utf-8"?>
<!-- Generator: Adobe Illustrator 18.1.0, SVG Export Plug-In . SVG Version: 6.00 Build 0)  -->
<!DOCTYPE svg PUBLIC "-//W3C//DTD SVG 1.1//EN" "http://www.w3.org/Graphics/SVG/1.1/DTD/svg11.dtd">
<svg version="1.1" id="Layer_1" xmlns="http://www.w3.org/2000/svg" xmlns:xlink="http://www.w3.org/1999/xlink" x="0px" y="0px"
	 width="234.35px" height="40px" viewBox="0 0 234.35 40" enable-background="new 0 0 234.35 40" xml:space="preserve">
<path fill="#E7E7E7" d="M211.695,15.025c0.018-2.91-0.179-5.837,0.117-8.734c0.625-2.624,3.609-3.368,5.891-3.892
	c-0.169-0.802-0.352-1.601-0.547-2.399c-2.865,0.881-6.578,1.621-7.733,4.801c-0.993,3.322-0.309,6.835-0.574,10.244
	c-1.547-0.046-3.092-0.054-4.637,0.021c0.217,0.72,0.412,1.448,0.691,2.15c1.304,0.116,2.62,0.033,3.929,0.016
	c0.133,7.334,0.041,14.671,0.046,22.006c0.931,0.016,1.865,0.021,2.801,0.016c0.009-7.335-0.066-14.672,0.037-22.009
	c2.305,0.025,4.607,0.021,6.914,0.008c-0.169-0.748-0.346-1.492-0.515-2.24C215.975,15.015,213.833,15.007,211.695,15.025z"/>
<path fill="#D1D2D3" d="M49.36,19.706c-0.283-1.676-0.745-3.306-1.164-4.948c-1.995-0.016-3.988,0.042-5.979-0.066
	c0.108-2.103-0.245-4.277,0.329-6.336c1.21-1.783,3.638-1.841,5.513-2.469c-0.407-1.568-0.791-3.142-1.148-4.722
	c-3.114,0.782-6.784,1.38-8.731,4.223c-1.65,2.823-0.952,6.241-1.09,9.345c-1.446,0.025-2.889,0.025-4.331,0.022
	c0.357,1.659,0.807,3.297,1.209,4.947c1.036,0,2.07,0.004,3.106,0.009c-0.004,6.555,0.038,13.112-0.021,19.669
	c1.721,0.098,3.45,0.073,5.176,0.037c-0.013-5.962,0.017-11.924-0.013-17.885c-0.008-0.632,0.112-1.256,0.242-1.876
	C44.758,19.743,47.061,19.693,49.36,19.706z"/>
<path fill="#D1D2D3" d="M5.179,39.407C5.151,27.657,5.176,15.914,5.171,4.165C3.455,4.693,1.724,5.193,0,5.687
	c0.029,11.25-0.005,22.499,0.016,33.754C1.737,39.446,3.458,39.453,5.179,39.407z"/>
<path fill="#D1D2D3" d="M104.416,5.562c-1.746,0.491-3.489,1.006-5.268,1.375c-0.033,2.03-0.016,4.057-0.021,6.086
	c1.754-0.519,3.508-1.026,5.275-1.5C104.424,9.537,104.412,7.55,104.416,5.562z"/>
<path fill="#E7E7E7" d="M229.011,37.009c-1.481-0.419-1.625-2.17-1.595-3.447c0.037-5.447-0.108-10.896,0.073-16.338
	c1.835,0.049,3.671,0.041,5.509,0.041c-0.204-0.761-0.414-1.517-0.623-2.274c-1.655,0.033-3.309,0.029-4.964,0.016
	c-0.009-3.109,0-6.219-0.005-9.328c-0.932,0.182-1.847,0.42-2.753,0.693c0.03,2.886,0.044,5.771-0.002,8.652
	c-1.41-0.013-2.815-0.013-4.22-0.009c0.199,0.742,0.387,1.485,0.57,2.234c1.206,0.016,2.41,0.011,3.62-0.009
	c0.121,4.882,0.03,9.763,0.05,14.647c-0.004,2.366-0.13,5.314,1.97,6.905c2.321,1.435,5.174,0.478,7.708,0.325
	c-0.041-0.801-0.092-1.604-0.137-2.407C232.492,36.917,230.736,37.324,229.011,37.009z"/>
<path fill="#E7E7E7" d="M171.632,37.295c-3.746,0.636-7.562,0.055-11.225-0.785c0.178,0.856,0.38,1.712,0.65,2.549
	c4.314,0.764,8.861,1.234,13.141,0.007c2.074-0.565,3.57-2.444,3.79-4.563c0.304-2.515,0.405-5.804-2.069-7.305
	c-3.609-2.012-7.978-1.364-11.766-2.79c-1.982-0.732-2.119-3.234-1.712-4.989c0.277-1.604,1.909-2.436,3.376-2.648
	c3.433-0.528,6.93-0.112,10.335,0.407c-0.197-0.802-0.403-1.601-0.641-2.39c-2-0.188-3.98-0.599-5.996-0.52
	c-2.785-0.03-5.932,0.095-8.157,1.999c-1.87,1.596-1.886,4.291-1.645,6.536c0.101,1.547,1.076,2.998,2.527,3.586
	c3.518,1.51,7.493,1.199,11.084,2.453c2.382,0.89,2.387,3.925,1.764,5.971C174.625,36.311,173.078,37.075,171.632,37.295z"/>
<path fill="#D1D2D3" d="M25.546,39.441c1.743,0,3.48,0,5.221-0.005c0.013-5.824-0.004-11.653,0.009-17.482
	c-0.042-2.108-0.453-4.44-2.071-5.941c-1.566-1.484-3.824-1.849-5.903-1.778c-2.819,0.021-5.479,1.072-8.027,2.174
	c-0.994,0.395-0.799-1.152-1.028-1.726c-1.314-0.004-2.623,0.005-3.936,0.033c0.062,8.194-0.083,16.392,0.071,24.583
	c1.699,0.307,3.437,0.08,5.155,0.142c0.037-6.129-0.05-12.258,0.041-18.384c2.781-1.073,5.72-2.278,8.764-1.833
	c1.292,0.166,1.758,1.57,1.688,2.703C25.563,27.763,25.526,33.603,25.546,39.441z"/>
<path fill="#D1D2D3" d="M88.438,34.935c-4.032,0.456-8.19,0-11.977-1.49c0.511,1.867,0.903,3.767,1.471,5.616
	c3.859,0.854,7.878,1.298,11.795,0.579c1.775-0.332,3.628-1.053,4.71-2.582c1.288-1.838,1.464-4.2,1.301-6.374
	c-0.125-1.838-1.01-3.728-2.694-4.618c-3.172-1.808-6.972-1.533-10.398-2.479c-1.451-0.382-1.222-2.16-0.922-3.275
	c0.739-1.094,2.212-1.127,3.401-1.203c3.159-0.037,6.41,0.079,9.395,1.228c-0.36-1.776-0.843-3.527-1.284-5.281
	c-2.382-0.529-4.819-0.848-7.263-0.782c-2.54,0-5.292,0.329-7.364,1.937c-1.833,1.443-2.378,3.933-2.261,6.162
	c0.079,1.911,0.69,4.057,2.461,5.067c3.268,1.92,7.258,1.394,10.738,2.623c1.314,0.428,0.84,2.062,0.862,3.115
	C90.442,34.228,89.308,34.747,88.438,34.935z"/>
<path fill="#D1D2D3" d="M99.135,39.441c1.759,0,3.518,0,5.276,0c0.013-8.406-0.009-16.81,0.008-25.216
	c-1.754,0.496-3.5,1.028-5.272,1.456C99.107,23.602,99.132,31.521,99.135,39.441z"/>
<path fill="#D1D2D3" d="M138.889,39.441c0.016-6.12-0.009-12.239,0.011-18.359c2.785-1.14,5.774-2.325,8.843-1.842
	c1.252,0.204,1.659,1.597,1.625,2.694c0.034,5.838-0.032,11.679,0.03,17.519c1.714-0.016,3.426-0.016,5.138-0.007
	c0.146-5.14,0.004-10.283,0.066-15.42c-0.03-2.556,0.131-5.472-1.652-7.542c-1.602-1.97-4.321-2.374-6.708-2.24
	c-2.934,0.049-5.575,1.41-8.289,2.327c-0.126-0.624-0.245-1.247-0.362-1.874c-1.314-0.013-2.627-0.013-3.941,0
	c0.021,8.249-0.005,16.497,0.011,24.745C135.403,39.441,137.145,39.441,138.889,39.441z"/>
<path fill="#D1D2D3" d="M52.079,33.159c0.046,2.582,1.459,5.305,4.028,6.14c4.203,1.522,8.644-0.149,12.489-1.9
	c0.133,0.627,0.246,1.259,0.437,1.874c1.23,0.371,2.574,0.101,3.849,0.162c0.021-8.252-0.016-16.501,0.017-24.753
	c-1.726,0.005-3.451,0.005-5.177,0.013c0.084,6.075-0.02,12.144,0.055,18.218c-2.357,1.167-4.948,1.954-7.588,2.074
	c-1.189,0.092-2.744-0.449-2.802-1.845c-0.441-3.582-0.046-7.202-0.174-10.797c0-2.545-0.134-5.101,0.158-7.637
	c-1.779-0.025-3.554-0.021-5.334-0.025C52.083,20.84,51.995,27.003,52.079,33.159z"/>
<path fill="#E7E7E7" d="M188.523,14.439c-3.252,0.598-6.047,3.009-6.998,6.191c-1.254,4.323-1.309,9.095,0.227,13.354
	c1.117,3.08,4.064,5.213,7.266,5.669c3.746,0.6,8.049,0.38,11.095-2.13c3.023-2.591,3.598-6.832,3.671-10.583
	c-0.082-3.657-0.643-7.762-3.492-10.359C197.087,13.79,192.48,13.856,188.523,14.439z M199.863,33.557
	c-0.964,2.133-3.106,3.572-5.403,3.875c-3.08,0.451-6.802,0.213-8.923-2.382c-2.357-2.971-2.236-7.033-2.037-10.621
	c0.188-3.135,1.705-6.627,4.978-7.55c2.627-0.744,5.575-0.789,8.117,0.292c2.815,1.23,3.989,4.416,4.271,7.272
	C201.06,27.488,201.156,30.715,199.863,33.557z"/>
<path fill="#D1D2D3" d="M126.517,15.885c-3.277-2.074-7.452-2.25-11.154-1.46c-3.243,0.637-5.996,3.077-6.98,6.232
	c-1.331,4.225-1.335,8.939,0.158,13.118c1.11,3.147,4.053,5.387,7.312,5.902c4.033,0.707,8.74,0.371,11.862-2.565
	c2.81-2.872,3.321-7.166,3.247-11.008C130.835,22.35,129.828,18.105,126.517,15.885z M124.07,33.441
	c-1.591,1.881-4.298,1.689-6.518,1.561c-1.854-0.092-3.488-1.419-4.132-3.126c-0.878-2.245-0.715-4.712-0.628-7.072
	c0.117-2.213,1.036-4.744,3.309-5.53c2.078-0.624,4.419-0.673,6.456,0.125c2.375,1.064,2.987,3.945,3.122,6.291
	C125.723,28.303,125.862,31.322,124.07,33.441z"/>
</svg>
