<?xml version="1.0" encoding="utf-8"?>
<!-- Generator: Adobe Illustrator 18.1.0, SVG Export Plug-In . SVG Version: 6.00 Build 0)  -->
<!DOCTYPE svg PUBLIC "-//W3C//DTD SVG 1.1//EN" "http://www.w3.org/Graphics/SVG/1.1/DTD/svg11.dtd">
<svg version="1.1" id="Layer_1" xmlns="http://www.w3.org/2000/svg" xmlns:xlink="http://www.w3.org/1999/xlink" x="0px" y="0px"
	 width="200.219px" height="40px" viewBox="0 0 200.219 40" enable-background="new 0 0 200.219 40" xml:space="preserve">
<path fill="#E7E7E7" d="M86.51,34.345c1.663-0.666,3.252-1.462,4.502-2.804c1.106-1.188,1.698-2.561,1.562-4.201
	c-0.027-0.329-0.135-0.651-0.218-1.035c-0.111,0.104-0.145,0.123-0.161,0.153c-0.054,0.094-0.106,0.19-0.152,0.287
	c-0.44,0.925-1.114,1.663-1.91,2.279c-1.654,1.282-3.529,2.118-5.559,2.591c-2.318,0.541-4.531,0.398-6.47-1.177
	c-0.201-0.163-0.344-0.076-0.516,0.032c-1.628,1.024-3.397,1.53-5.327,1.408c-1.386-0.088-2.64-0.552-3.709-1.444
	c-0.298-0.249-0.522-0.29-0.865-0.11c-1.448,0.763-2.962,1.342-4.606,1.518c-1.661,0.179-3.257-0.066-4.609-1.068
	c-0.624-0.462-1-0.442-1.63-0.051c-1.617,1.004-3.411,1.345-5.307,1.088c-1.453-0.197-2.667-0.871-3.692-1.897
	c-0.202-0.202-0.324-0.221-0.561-0.036c-0.521,0.406-1.057,0.805-1.626,1.138c-1.784,1.043-3.718,1.42-5.744,1.027
	c-2.495-0.483-4.033-2.119-4.977-4.394c-0.052-0.125-0.117-0.244-0.193-0.4c-0.319,0.268-0.583,0.511-0.868,0.726
	c-1.713,1.286-3.75,1.368-5.378,0.213c-0.571-0.405-0.493-0.485-0.916,0.198c-1.148,1.853-2.584,3.443-4.317,4.764
	c-2.794,2.129-5.961,3.283-9.455,3.49c-2.831,0.168-5.55-0.287-8.034-1.761c-2.265-1.345-3.995-3.169-4.968-5.64
	C0.5,28.46,0.318,27.633,0.085,26.853C0.069,26.887,0.035,26.961,0,27.034c0,0.772,0,1.543,0,2.315
	c0.024,0.092,0.059,0.183,0.069,0.277c0.252,2.323,1.126,4.385,2.688,6.119c2.405,2.671,5.464,4.014,9.021,4.224
	c1.847,0.109,3.681-0.064,5.477-0.556c4.526-1.239,7.973-3.906,10.44-7.873c0.258-0.415,0.275-0.429,0.675-0.114
	c0.738,0.582,1.583,0.858,2.512,0.887c1.356,0.043,2.476-0.513,3.462-1.394c0.119-0.106,0.243-0.207,0.396-0.336
	c0.071,0.152,0.119,0.247,0.16,0.344c0.524,1.237,1.214,2.36,2.288,3.199c1.82,1.421,3.884,1.639,6.068,1.168
	c1.417-0.306,2.663-0.978,3.784-1.885c0.524-0.424,0.507-0.418,1.013,0.047c1.542,1.419,3.38,1.935,5.438,1.721
	c1.442-0.15,2.761-0.651,3.955-1.475c0.187-0.129,0.325-0.132,0.508,0.028c0.253,0.22,0.53,0.42,0.819,0.591
	c1.526,0.899,3.177,1.063,4.89,0.773c1.452-0.246,2.805-0.786,4.099-1.475c0.293-0.156,0.483-0.079,0.746,0.096
	c0.597,0.398,1.199,0.838,1.866,1.073c2.488,0.877,4.848,0.417,7.063-0.905c0.376-0.224,0.587-0.186,0.909,0.055
	c1.1,0.823,2.335,1.26,3.727,1.279C83.618,35.237,85.09,34.914,86.51,34.345z"/>
<path fill="#D1D2D3" d="M7.718,32.285c1.886,1.026,3.935,1.279,6.061,1.13c3.454-0.242,6.399-1.596,8.877-3.985
	c1.87-1.803,3.166-3.988,3.933-6.449c0.667-2.137,1.148-4.332,1.768-6.484c0.48-1.665,1.049-3.305,1.582-4.955
	c0.035-0.11,0.102-0.209,0.155-0.313c0.056,0.174,0.057,0.318,0.055,0.461c-0.012,0.903-0.072,1.808-0.027,2.708
	c0.129,2.566,0.12,5.125-0.132,7.686c-0.091,0.918-0.056,1.85-0.042,2.776c0.007,0.485,0.336,0.749,0.781,0.878
	c0.58,0.167,1.004-0.137,1.4-0.484c0.779-0.684,1.403-1.506,1.887-2.41c1.035-1.932,2.033-3.885,3.008-5.848
	c1.023-2.059,2.143-4.048,3.752-5.72c0.113-0.118,0.241-0.222,0.361-0.332c-0.307,0.778-0.689,1.489-1.025,2.221
	c-0.492,1.072-1.033,2.131-1.407,3.245c-0.648,1.932-1.134,3.912-1.278,5.958c-0.094,1.333-0.042,2.655,0.431,3.922
	c0.524,1.404,1.373,2.498,2.981,2.646c0.633,0.058,1.303-0.026,1.925-0.175c1.375-0.33,2.422-1.204,3.348-2.233
	c1.051-1.168,1.842-2.478,2.084-4.057c0.067-0.436,0.071-0.889,0.036-1.33c-0.052-0.654-0.484-0.92-1.113-0.729
	c-0.183,0.056-0.356,0.146-0.532,0.224c-0.436,0.194-0.822,0.113-1.165-0.208c-0.457-0.428-0.643-0.994-0.716-1.583
	c-0.227-1.836-0.124-3.664,0.323-5.455c0.758-3.036,2.062-5.855,3.54-8.6c0.221-0.411,0.44-0.837,0.563-1.283
	c0.239-0.871-0.285-1.537-1.188-1.57c-0.275-0.01-0.556,0.002-0.828,0.044c-1.42,0.22-2.645,0.891-3.78,1.724
	c-3.303,2.426-5.989,5.393-7.879,9.053c-0.318,0.615-0.677,1.208-1.062,1.891c-0.029-0.153-0.045-0.208-0.049-0.263
	c-0.075-1.371-0.174-2.741-0.216-4.112C34.084,8.69,34.19,7.118,34.72,5.603c0.111-0.318,0.221-0.639,0.296-0.967
	c0.224-0.973-0.297-1.628-1.287-1.619c-0.421,0.004-0.843,0.037-1.262,0.073c-1.406,0.122-2.729-0.243-4.027-0.708
	c-1.554-0.556-3.085-1.178-4.648-1.707c-1.61-0.544-3.266-0.831-4.979-0.582c-2.113,0.307-3.932,1.207-5.547,2.601
	c-2.545,2.197-3.143,5.863-1.369,8.715c1.344,2.161,3.452,3.114,5.93,2.646c1.769-0.334,3.369-1.078,4.826-2.125
	c0.33-0.237,0.625-0.531,0.902-0.83c0.353-0.379,0.573-0.836,0.6-1.363c0.024-0.471-0.19-0.698-0.657-0.713
	c-0.253-0.008-0.507,0.009-0.759-0.001c-0.369-0.015-0.608-0.22-0.718-0.561c-0.185-0.576,0.058-1.256,0.565-1.597
	c0.514-0.346,1.092-0.485,1.705-0.528c1.269-0.088,2.457,0.27,3.646,0.631c0.061,0.019,0.112,0.072,0.175,0.114
	c-0.042,0.072-0.066,0.128-0.102,0.175c-1.095,1.425-1.903,3.011-2.627,4.647c-0.961,2.171-1.911,4.348-3.116,6.4
	c-0.692,1.178-1.552,2.178-2.857,2.711c-1.213,0.495-2.443,0.277-3.275-0.497c-0.66-0.615-0.81-2.119,0.192-2.713
	c0.164-0.097,0.345-0.21,0.445-0.363c0.136-0.209,0.283-0.464,0.282-0.698c-0.002-0.609-0.448-0.904-0.958-1.088
	c-0.937-0.337-1.909-0.332-2.891-0.284c-2.424,0.117-4.595,0.897-6.496,2.412c-2.658,2.118-3.816,4.876-3.429,8.244
	C3.61,28.91,5.231,30.932,7.718,32.285z"/>
<path fill="#D1D2D3" d="M104.314,32.169c1.96,1.119,4.094,1.407,6.322,1.242c3.289-0.244,6.128-1.499,8.546-3.721
	c2.452-2.254,3.854-5.115,4.714-8.275c0.671-2.465,1.287-4.944,1.973-7.405c0.276-0.993,0.672-1.952,1.014-2.926
	c0.026,0.011,0.052,0.022,0.078,0.033c0,1.635,0.009,3.27-0.003,4.905c-0.011,1.516-0.03,3.032-0.071,4.547
	c-0.037,1.372-0.135,2.742-0.155,4.114c-0.012,0.864,0.79,1.363,1.562,0.974c0.399-0.201,0.786-0.492,1.072-0.833
	c0.541-0.644,1.082-1.309,1.484-2.042c0.957-1.741,1.851-3.518,2.737-5.298c0.99-1.989,1.99-3.967,3.483-5.643
	c0.271-0.304,0.56-0.591,0.841-0.886c0.025,0.022,0.049,0.044,0.074,0.067c-0.274,0.548-0.562,1.089-0.82,1.645
	c-0.547,1.18-1.173,2.334-1.594,3.558c-0.706,2.051-1.222,4.157-1.348,6.344c-0.082,1.429,0.021,2.821,0.609,4.139
	c0.442,0.99,1.096,1.786,2.191,2.113c1.029,0.308,2.037,0.176,3.01-0.202c1.813-0.704,3.057-2.06,4.048-3.673
	c0.65-1.057,1.01-2.216,1.003-3.463c-0.006-1.042-0.545-1.373-1.476-0.944c-0.033,0.015-0.065,0.032-0.098,0.047
	c-0.615,0.278-1.17,0.168-1.5-0.417c-0.249-0.441-0.441-0.949-0.512-1.448c-0.227-1.613-0.072-3.219,0.219-4.815
	c0.313-1.722,0.95-3.334,1.648-4.926c0.667-1.522,1.266-3.077,2.176-4.483c0.167-0.259,0.28-0.563,0.366-0.862
	c0.286-0.996-0.251-1.692-1.291-1.706c-1.161-0.015-2.203,0.39-3.181,0.958c-2.773,1.611-4.985,3.846-6.96,6.339
	c-1.122,1.417-1.907,3.039-2.805,4.592c-0.147,0.254-0.294,0.508-0.441,0.762c-0.08-0.136-0.09-0.251-0.097-0.365
	c-0.056-0.889-0.119-1.778-0.166-2.668c-0.102-1.918-0.12-3.83,0.485-5.688c0.123-0.378,0.25-0.756,0.354-1.139
	c0.272-1.002-0.269-1.712-1.302-1.701c-0.445,0.005-0.89,0.041-1.334,0.074c-1.522,0.114-2.932-0.345-4.331-0.847
	c-1.519-0.546-3.017-1.152-4.548-1.661c-1.462-0.486-2.972-0.714-4.523-0.511c-2.42,0.317-4.472,1.358-6.175,3.104
	c-2.162,2.216-2.556,5.575-0.913,8.195c1.253,1.998,3.048,3.06,5.441,2.755c2.237-0.285,4.23-1.217,5.936-2.705
	c0.524-0.457,0.909-1.036,0.887-1.789c-0.011-0.378-0.196-0.581-0.573-0.604c-0.252-0.016-0.506,0.003-0.759-0.003
	c-0.443-0.012-0.739-0.246-0.817-0.669c-0.087-0.476-0.029-0.963,0.362-1.259c0.382-0.29,0.833-0.554,1.293-0.661
	c1-0.231,2.012-0.115,3,0.162c0.491,0.138,0.98,0.281,1.515,0.435c-0.245,0.343-0.45,0.624-0.649,0.909
	c-1.217,1.742-2.021,3.698-2.873,5.626c-0.805,1.822-1.653,3.62-2.735,5.295c-0.617,0.954-1.409,1.755-2.511,2.151
	c-0.977,0.352-1.951,0.416-2.882-0.178c-1.133-0.723-1.298-2.414-0.095-3.1c0.154-0.088,0.303-0.212,0.406-0.354
	c0.107-0.147,0.206-0.332,0.22-0.507c0.046-0.572-0.238-0.953-0.901-1.195c-0.957-0.35-1.95-0.357-2.957-0.308
	c-2.454,0.119-4.633,0.932-6.548,2.469c-2.576,2.067-3.694,4.765-3.38,8.028C100.333,28.718,101.869,30.774,104.314,32.169z"/>
<path fill="#D1D2D3" d="M48.571,22.29c-0.129,1.661,0.104,3.249,1.02,4.682c0.731,1.144,1.765,1.752,3.141,1.718
	c1.267-0.031,2.406-0.472,3.337-1.299c0.852-0.756,1.593-1.637,2.383-2.463c0.093-0.097,0.185-0.194,0.292-0.306
	c0.034,0.079,0.051,0.1,0.051,0.122c0.003,0.205,0,0.409,0.004,0.614c0.019,1.121,0.466,2.031,1.367,2.701
	c0.933,0.693,1.998,0.775,3.073,0.51c2.204-0.543,4.247-1.405,5.745-3.213c0.167,0.394,0.321,0.825,0.526,1.23
	c0.585,1.158,1.479,1.92,2.806,2.079c0.831,0.1,1.634-0.041,2.412-0.332c1.441-0.539,2.476-1.594,3.448-2.726
	c0.247-0.287,0.49-0.578,0.804-0.949c0,0.324,0,0.537,0,0.749c0.002,1.859,1.411,3.321,3.271,3.272
	c2.255-0.06,4.238-0.93,6.015-2.283c0.569-0.433,0.984-0.99,1.106-1.724c0.115-0.691-0.39-1.159-1.062-0.972
	c-0.383,0.106-0.754,0.259-1.141,0.344c-0.816,0.178-1.421-0.284-1.449-1.119c-0.012-0.368,0.034-0.747,0.113-1.108
	c1.216-5.555,2.443-11.108,3.663-16.662c0.297-1.349-0.32-2.459-1.575-2.739c-0.495-0.111-1.034-0.13-1.54-0.074
	c-1.628,0.183-3.02,0.942-4.314,1.901c-0.14,0.104-0.264,0.229-0.384,0.336c0.029,0.064,0.036,0.087,0.049,0.106
	c0.014,0.019,0.03,0.04,0.05,0.051c0.827,0.422,0.927,1.128,0.762,1.941c-0.403,1.983-0.802,3.967-1.207,5.95
	c-0.037,0.183-0.107,0.36-0.177,0.587c-0.25-0.136-0.453-0.258-0.666-0.36c-1.719-0.821-3.462-0.717-5.201-0.092
	c-1.57,0.565-2.766,1.642-3.792,2.918c-1.452,1.805-2.393,3.838-2.644,6.159c-0.068,0.631-0.075,1.27-0.107,1.834
	c-0.453,0.102-0.855,0.189-1.255,0.284c-0.14,0.034-0.274,0.093-0.413,0.133c-1.08,0.309-1.87-0.408-1.652-1.51
	c0.145-0.732,0.314-1.46,0.475-2.19c0.44-2,0.89-3.999,1.318-6.002c0.256-1.196-0.231-1.875-1.439-2.072
	c-0.695-0.113-1.359,0.022-1.958,0.351c-0.621,0.34-1.208,0.746-1.788,1.154c-0.259,0.182-0.413,0.169-0.639-0.055
	c-0.979-0.967-2.175-1.452-3.545-1.482c-2.329-0.051-4.244,0.896-5.809,2.554C50.067,16.93,48.797,19.374,48.571,22.29z
	 M77.772,16.88c0.3-0.222,0.724-0.338,1.104-0.376c0.626-0.062,1.101,0.355,1.28,1c0.305,1.097-0.517,2.827-1.568,3.258
	c-1.17,0.48-2.178-0.335-2.078-1.391C76.582,18.365,76.952,17.487,77.772,16.88z M57.217,17.337c0.295-0.354,0.665-0.583,1.12-0.678
	c1.033-0.214,1.639,0.277,1.626,1.751c-0.009,0.42-0.3,1.174-0.845,1.792c-0.246,0.279-0.626,0.511-0.987,0.605
	c-1.019,0.265-1.738-0.362-1.697-1.415C56.465,18.622,56.721,17.932,57.217,17.337z"/>
<path fill="#D1D2D3" d="M158.256,16.277c-0.047,0.418-0.086,0.84-0.177,1.25c-0.844,3.799-1.698,7.595-2.547,11.392
	c-0.021,0.093-0.022,0.191-0.034,0.299c0.064-0.011,0.078-0.01,0.086-0.016c0.049-0.034,0.102-0.065,0.144-0.107
	c0.672-0.646,1.457-0.921,2.401-0.854c0.925,0.066,1.845-0.006,2.759-0.24c0.978-0.25,1.594-0.819,1.844-1.779
	c0.307-1.177,0.595-2.359,0.881-3.542c0.259-1.076,0.473-2.165,0.766-3.231c0.17-0.62,0.555-1.144,1.186-1.378
	c0.872-0.324,1.829-0.075,1.636,1.239c-0.084,0.571-0.212,1.136-0.335,1.701c-0.444,2.049-0.896,4.096-1.342,6.144
	c-0.148,0.678-0.289,1.358-0.457,2.145c0.22-0.138,0.348-0.217,0.475-0.299c0.594-0.382,1.214-0.698,1.937-0.735
	c0.613-0.031,1.227-0.064,1.84-0.073c1.755-0.027,2.823-0.929,3.198-2.641c0.434-1.976,0.908-3.943,1.375-5.912
	c0.122-0.515,0.378-0.963,0.783-1.316c0.451-0.393,1.183-0.505,1.656-0.226c0.517,0.305,0.53,0.819,0.501,1.339
	c-0.003,0.06-0.017,0.119-0.031,0.178c-0.324,1.384-0.679,2.762-0.959,4.154c-0.138,0.689-0.255,1.42-0.173,2.106
	c0.154,1.274,1.035,2.028,2.184,2.467c1.423,0.543,2.833,0.314,4.2-0.205c1.585-0.602,3.094-1.344,4.187-2.834
	c0.038,0.182,0.053,0.293,0.084,0.4c0.102,0.345,0.164,0.71,0.322,1.027c0.595,1.196,2.333,2.029,3.854,1.877
	c1.96-0.196,3.702-0.948,5.264-2.119c0.637-0.478,1.129-1.083,1.219-1.931c0.07-0.657-0.367-1.047-1.001-0.848
	c-0.39,0.122-0.763,0.299-1.152,0.424c-0.488,0.157-0.948-0.021-1.223-0.453c-0.259-0.407-0.324-0.857-0.231-1.321
	c0.231-1.157,0.471-2.313,0.716-3.467c0.289-1.366,0.616-2.726,0.872-4.098c0.244-1.307-0.486-2.314-1.8-2.532
	c-0.398-0.066-0.821-0.067-1.222-0.016c-1.431,0.182-2.698,0.787-3.869,1.603c-0.328,0.228-0.624,0.501-0.98,0.791
	c0.115,0.079,0.155,0.106,0.195,0.133c0.689,0.459,0.879,1.086,0.704,1.885c-0.437,2.001-0.845,4.008-1.265,6.012
	c-0.105,0.502-0.214,1.004-0.327,1.537c-0.482-0.558-0.728-0.617-1.39-0.361c-0.236,0.091-0.464,0.204-0.705,0.279
	c-0.145,0.045-0.31,0.064-0.459,0.046c-0.656-0.079-1.083-0.611-1.057-1.367c0.014-0.406,0.095-0.814,0.182-1.212
	c0.353-1.612,0.732-3.218,1.075-4.831c0.168-0.792,0.256-1.598-0.017-2.391c-0.435-1.267-1.775-2.158-3.301-2.234
	c-1.905-0.095-3.576,0.529-5.098,1.622c-0.349,0.25-0.685,0.518-1.016,0.77c-0.27-0.408-0.488-0.817-0.778-1.163
	c-0.994-1.183-2.335-1.355-3.755-1.188c-1.28,0.151-2.374,0.763-3.409,1.493c-0.419,0.296-0.845,0.581-1.318,0.906
	c-0.038-0.191-0.066-0.316-0.088-0.442c-0.208-1.156-0.848-1.845-1.905-1.971c-0.438-0.052-0.895-0.042-1.332,0.019
	c-1.546,0.214-2.88,0.917-4.102,1.856c-0.184,0.141-0.343,0.315-0.544,0.503C158.105,14.946,158.339,15.541,158.256,16.277z"/>
<path fill="#E7E7E7" d="M161.211,34.53c0.79-0.284,1.268-0.076,1.805,0.515c0.613,0.674,1.476,0.855,2.387,0.769
	c0.647-0.061,1.196-0.336,1.729-0.68c0.228-0.147,0.482-0.303,0.741-0.342c0.485-0.074,0.983-0.087,1.476-0.087
	c1.641,0.001,3.109-0.462,4.342-1.576c0.184-0.166,0.345-0.23,0.549-0.004c0.168,0.186,0.379,0.334,0.58,0.486
	c2.188,1.655,4.63,1.934,7.199,1.214c1.048-0.294,2.036-0.799,3.057-1.191c0.144-0.055,0.376-0.086,0.48-0.009
	c1.876,1.396,3.978,1.776,6.237,1.369c2.283-0.411,4.36-1.335,6.152-2.805c1.496-1.227,2.373-2.805,2.266-4.814
	c-0.02-0.374-0.08-0.742-0.265-1.095c-0.074,0.058-0.099,0.069-0.11,0.088c-0.054,0.094-0.109,0.188-0.154,0.286
	c-0.469,1.023-1.19,1.839-2.095,2.488c-1.93,1.384-4.042,2.328-6.425,2.608c-1.988,0.233-3.812-0.182-5.441-1.351
	c-0.269-0.193-0.454-0.21-0.737-0.064c-0.535,0.276-1.081,0.536-1.643,0.75c-1.69,0.646-3.426,0.962-5.238,0.652
	c-1.456-0.249-2.717-0.901-3.797-1.89c-0.29-0.265-0.447-0.152-0.69,0.02c-0.46,0.325-0.921,0.663-1.422,0.912
	c-1.002,0.499-2.087,0.619-3.2,0.602c-0.759-0.012-1.491,0.071-2.14,0.584c-0.55,0.435-1.242,0.589-1.946,0.547
	c-1.009-0.059-1.817-0.525-2.424-1.327c-0.141-0.186-0.283-0.234-0.494-0.168c-1.199,0.377-2.43,0.463-3.679,0.44
	c-0.229-0.004-0.51,0.097-0.684,0.245c-1.323,1.131-3.377,1.071-4.499-0.223c-0.185-0.213-0.374-0.241-0.639-0.156
	c-1.086,0.347-2.201,0.522-3.345,0.484c-1.722-0.058-3.259-0.623-4.571-1.738c-0.294-0.25-0.468-0.217-0.73-0.004
	c-1.745,1.422-3.725,2.185-6,2.104c-2.304-0.082-4.083-1.1-5.323-3.033c-0.367-0.573-0.652-1.199-0.995-1.84
	c-0.307,0.245-0.608,0.498-0.92,0.734c-1.689,1.274-3.861,1.287-5.468,0.038c-0.374-0.291-0.376-0.292-0.632,0.127
	c-1.152,1.893-2.589,3.533-4.35,4.88c-1.8,1.376-3.781,2.392-5.978,2.98c-2.337,0.625-4.701,0.781-7.088,0.417
	c-2.427-0.37-4.575-1.367-6.435-2.986c-1.694-1.474-2.859-3.272-3.438-5.443c-0.109-0.407-0.199-0.818-0.318-1.314
	c-0.239,1.514-0.074,3.019,0.181,4.147c0.541,2.392,1.757,4.376,3.621,5.982c2.294,1.976,4.973,2.949,7.959,3.112
	c1.493,0.081,2.98-0.035,4.455-0.334c3.205-0.651,5.972-2.131,8.353-4.348c1.232-1.147,2.283-2.447,3.124-3.91
	c0.116-0.202,0.239-0.249,0.428-0.084c1.548,1.356,3.857,1.309,5.398,0.196c0.378-0.273,0.738-0.569,1.143-0.883
	c0.067,0.14,0.113,0.223,0.149,0.311c0.39,0.957,0.891,1.851,1.613,2.594c1.748,1.798,3.905,2.276,6.306,1.866
	c1.578-0.269,2.979-0.947,4.205-1.974c0.263-0.22,0.435-0.281,0.749-0.006c1.077,0.944,2.351,1.486,3.777,1.671
	c1.4,0.182,2.765,0.015,4.1-0.41c0.317-0.101,0.517-0.035,0.725,0.201c1.09,1.236,3.121,1.292,4.381,0.209
	c0.243-0.209,0.497-0.31,0.82-0.3C159.334,34.8,160.311,34.853,161.211,34.53z"/>
<path fill="#D1D2D3" d="M147.251,16.724c-0.555,2.529-1.076,5.065-1.602,7.601c-0.208,1.005-0.153,1.982,0.525,2.813
	c0.918,1.124,2.167,1.566,3.568,1.459c2.025-0.154,3.817-0.965,5.409-2.204c0.613-0.477,1.057-1.089,1.119-1.908
	c0.041-0.549-0.383-0.937-0.911-0.803c-0.313,0.08-0.613,0.213-0.913,0.336c-1.004,0.409-1.775-0.078-1.821-1.161
	c-0.008-0.179,0-0.364,0.037-0.539c0.314-1.484,0.641-2.964,0.955-4.448c0.222-1.048,0.462-2.094,0.634-3.15
	c0.122-0.746-0.05-1.442-0.672-1.957c-0.71-0.589-1.546-0.631-2.399-0.514c-1.453,0.2-2.739,0.815-3.919,1.664
	c-0.29,0.208-0.555,0.45-0.85,0.69c0.077,0.091,0.095,0.125,0.124,0.144C147.27,15.227,147.435,15.884,147.251,16.724z"/>
<path fill="#D1D2D3" d="M149.904,10.59c0.44,0.17,0.927,0.218,1.392,0.323c1.528-0.076,2.781-0.662,3.778-1.781
	c1.352-1.517,0.837-3.706-1.034-4.473c-0.917-0.376-1.849-0.328-2.761-0.031c-1.229,0.401-2.29,1.062-2.818,2.307
	C147.928,8.189,148.055,9.874,149.904,10.59z"/>
<path fill="#D1D2D3" d="M190.762,10.642c0.412,0.146,0.866,0.173,1.301,0.255c1.432-0.062,2.619-0.589,3.663-1.681
	c1.464-1.531,0.915-3.9-1.074-4.607c-1.124-0.4-2.213-0.209-3.266,0.258c-0.843,0.373-1.567,0.923-2.027,1.734
	C188.612,7.918,188.67,9.901,190.762,10.642z"/>
<path fill="#E7E7E7" d="M48.183,14.409c0.527-0.614,1.073-1.221,1.582-1.857c0.26-0.325,0.467-0.695,0.671-1.06
	c0.34-0.609,0.632-1.244,0.99-1.842c0.721-1.206,1.075-2.492,0.932-3.898c-0.026-0.256-0.109-0.507-0.184-0.838
	C50.738,6.904,47.915,13.683,48.183,14.409z"/>
<path fill="#E7E7E7" d="M89.772,20.608c0.313,0.074,0.385-0.082,0.43-0.321c0.016-0.083,0.039-0.164,0.057-0.246
	c0.791-3.611,1.604-7.218,2.353-10.838c0.156-0.753,0.077-1.555,0.092-2.334c0.003-0.134-0.064-0.27-0.099-0.405
	c-0.031,0.004-0.063,0.007-0.094,0.011c-0.026,0.103-0.054,0.205-0.077,0.308c-0.526,2.375-1.052,4.75-1.577,7.125
	c-0.457,2.07-0.91,4.14-1.371,6.209C89.426,20.385,89.466,20.536,89.772,20.608z"/>
<path fill="#E7E7E7" d="M198.188,14.119c0.021,0.105,0.027,0.214,0.041,0.32c1.384-1.607,1.798-3.422,1.358-5.522
	c-0.077,0.094-0.106,0.117-0.12,0.148c-0.041,0.087-0.081,0.175-0.113,0.265c-0.295,0.843-0.768,1.577-1.403,2.198
	c-0.238,0.233-0.229,0.432-0.146,0.734C197.973,12.87,198.067,13.499,198.188,14.119z"/>
<path fill="#E7E7E7" d="M197.877,20.225c0.131-0.793,0.291-1.584,0.357-2.383c0.04-0.486-0.073-0.984-0.117-1.477
	c-0.034-0.001-0.067-0.002-0.101-0.003c-0.023,0.049-0.056,0.096-0.068,0.148c-0.292,1.238-0.585,2.477-0.867,3.718
	c-0.019,0.082,0.023,0.226,0.086,0.272C197.541,20.771,197.803,20.669,197.877,20.225z"/>
<path fill="#E7E7E7" d="M8.508,13.097c0.154-0.061,0.305-0.131,0.428-0.185C8.538,11.86,8.15,10.837,7.768,9.829
	C7.765,9.844,7.74,9.896,7.74,9.949c0.004,0.911-0.024,1.825,0.028,2.734C7.805,13.329,7.886,13.344,8.508,13.097z"/>
<path fill="#E7E7E7" d="M105.335,13.081c0.068-0.025,0.135-0.05,0.205-0.07c0.23-0.066,0.249-0.172,0.152-0.399
	c-0.332-0.782-0.632-1.578-0.94-2.37c-0.05-0.13-0.078-0.268-0.116-0.402c-0.264,0.935-0.202,1.854-0.081,2.769
	C104.65,13.328,104.67,13.325,105.335,13.081z"/>
<path fill="#E7E7E7" d="M78.915,8.673c0.103-0.507,0.177-1.021,0.299-1.523c0.094-0.386-0.133-0.559-0.371-0.764
	c-0.534,0.709-0.6,2.211-0.075,2.724C78.829,8.933,78.888,8.806,78.915,8.673z"/>
</svg>
