<?xml version="1.0" encoding="utf-8"?>
<!-- Generator: Adobe Illustrator 18.1.0, SVG Export Plug-In . SVG Version: 6.00 Build 0)  -->
<!DOCTYPE svg PUBLIC "-//W3C//DTD SVG 1.1//EN" "http://www.w3.org/Graphics/SVG/1.1/DTD/svg11.dtd">
<svg version="1.1" id="Layer_1" xmlns="http://www.w3.org/2000/svg" xmlns:xlink="http://www.w3.org/1999/xlink" x="0px" y="0px"
	 width="182.732px" height="40px" viewBox="0 0 182.732 40" enable-background="new 0 0 182.732 40" xml:space="preserve">
<path fill="#D1D2D3" d="M179.879,21.919c-0.786-0.978-1.887-1.5-3.183-1.51h-0.026c-1.75,0-3.375,1.328-4.967,4.059l-0.127,0.218
	l-0.082-0.238c-0.402-1.171-0.76-2.146-0.975-2.729c-0.15-0.407-0.216-0.59-0.232-0.649c-0.076-0.295-0.329-0.479-0.66-0.479
	c-0.203,0-0.42,0.069-0.625,0.199c-0.203,0.129-0.316,0.287-0.357,0.498l-0.01,0.032c-1.594,4.971-2.909,7.386-4.022,7.386
	c-0.162-0.001-0.289-0.055-0.383-0.159c-0.292-0.322-0.22-1.089-0.121-2.15c0.073-0.78,0.156-1.663,0.121-2.599
	c-0.066-1.801-1.051-2.882-2.635-2.894c-2.013-0.001-3.318,2.143-3.919,3.421l-0.179,0.381l-0.04-0.42
	c-0.15-1.581-0.681-3.47-2.357-3.483c-1.955,0-3.444,2.294-4.352,4.219l-0.243,0.516l0.024-0.57
	c0.108-2.567,0.197-4.083,0.263-4.504c0.066-0.422,0.031-0.705-0.107-0.867c-0.13-0.152-0.377-0.208-0.739-0.185
	c-0.626,0.04-0.946,0.42-1.428,1.697c-0.791,2.097-2.804,6.974-4.411,6.974c-0.319-0.002-0.571-0.111-0.756-0.323
	c-0.674-0.773-0.404-2.861-0.031-5.752l0.028-0.219c0.176-1.369-0.125-1.661-0.868-1.797c-0.08-0.014-0.156-0.022-0.226-0.022
	c-0.594,0-0.871,0.569-1.426,2.149c-0.987,2.812-2.255,5.768-3.739,5.768c-0.055,0-0.108-0.004-0.162-0.013
	c-0.786-0.134-0.769-1.3-0.747-2.778c0.011-0.799,0.025-1.705-0.099-2.523c-0.221-1.468-1.086-2.384-2.257-2.393
	c-2.337,0-3.912,2.992-4.645,4.776l-0.166,0.404l-0.055-0.433c-0.098-0.774-0.228-1.999-0.284-3.449l-0.002-0.043l0.027-0.034
	c4.373-5.504,6.334-9.476,6.361-12.88c0.017-2.174-0.986-3.48-2.683-3.493c-1.24,0-4.191,1.033-5.216,10.606
	c-0.19,1.775-0.295,3.595-0.31,5.41l0,0.036l-0.02,0.029c-2,2.896-6.27,7.876-10.45,7.876c-3.777,0-6.79-3.056-6.79-8.449
	c0-7.231,5.118-11.67,8.97-11.67l0.032,0c0.837,0.006,1.554,0.24,2.075,0.676c0.541,0.453,0.824,1.087,0.818,1.834
	c-0.008,0.998-0.333,1.511-0.647,2.007c-0.081,0.128-0.161,0.254-0.235,0.389c-0.074,0.135-0.142,0.333-0.043,0.501
	c0.101,0.173,0.36,0.281,0.675,0.284c0.917,0,2.303-1.327,2.319-3.327c0.016-2.093-1.747-4.249-4.892-4.249
	c-4.76,0-11.17,5.229-11.17,13.704c0,5.995,3.758,10.138,8.85,10.138c3.613,0,7.187-2.587,10.352-6.908l0.194-0.262l0.014,0.326
	c0.067,1.581,0.182,2.828,0.266,3.738c0.054,0.585,0.094,1.008,0.091,1.241c-0.004,0.511,0.079,0.866,0.256,1.084
	c0.176,0.218,0.456,0.321,0.88,0.324c0.711,0,0.853-0.485,1.135-1.68l0.081-0.342c0.35-1.449,1.642-6.177,3.585-6.177
	c0.318,0.003,0.562,0.097,0.736,0.281c0.429,0.455,0.382,1.39,0.328,2.472c-0.034,0.675-0.069,1.373-0.001,2.052
	c0.183,1.834,0.975,2.731,2.421,2.742c1.485,0.001,3.034-1.599,3.852-3.085l0.154-0.281l0.06,0.315
	c0.151,0.795,0.826,3.406,2.939,3.406c1.916,0,3.559-2.017,5.36-6.169l0.235-0.542l-0.014,0.591
	c-0.038,1.573-0.123,3.494-0.124,4.979c-0.001,1.149,0.115,1.587,0.646,1.587c0.038,0,0.078,0.005,0.12,0.005
	c0.51,0,0.855-0.304,1.028-0.905c1.355-4.724,2.527-6.924,3.687-6.924c1.136,0.009,1.243,2.086,1.334,5.758l0.006,0.258
	c0.028,1.284,0.074,1.852,0.872,1.858c0.605,0,0.756-0.476,1.069-1.647c0.06-0.223,0.125-0.468,0.201-0.733
	c1.094-3.797,2.002-5.346,3.131-5.346c0.967,0.007,1.021,1.004,1.039,1.332c0.037,0.702-0.035,1.436-0.105,2.145
	c-0.065,0.659-0.132,1.341-0.107,1.975c0.059,1.485,0.872,2.309,2.29,2.32c1.84,0,3.5-2.152,4.955-6.394l0.101-0.296l0.115,0.291
	c0.264,0.667,0.607,1.569,0.926,2.646l0.012,0.041l-0.018,0.039c-1.408,3.127-2.402,6.611-2.416,8.471
	c-0.019,2.451,1.09,4.044,2.825,4.057h0.03c0.944,0,3.144-0.379,3.187-3.886c0.017-1.437-0.322-3.47-1.009-6.042l-0.079-0.295
	l0.254,0.169c0.876,0.581,1.864,0.893,2.858,0.901l0.047,0.001c2.846,0,4.848-1.971,4.87-4.793
	C181.026,24.121,180.622,22.843,179.879,21.919z M128.681,18.416c0.039-0.879,0.113-1.735,0.218-2.544
	c0.681-5.214,2.102-8.856,3.457-8.856h0.006c0.646,0.005,0.97,0.493,0.963,1.452c-0.018,2.354-1.51,5.725-4.434,10.019l-0.229,0.336
	L128.681,18.416z M171.892,37.164c-0.216,0.287-0.516,0.432-0.892,0.432c-0.432-0.003-0.756-0.154-0.977-0.449
	c-0.618-0.827-0.444-2.768,0.565-6.294c0.12-0.421,0.252-0.845,0.389-1.259l0.117-0.352l0.103,0.356
	C172.373,33.668,172.606,36.213,171.892,37.164z M177.925,27.906c-0.542,0.452-1.263,0.71-1.98,0.71
	c-1.766-0.013-2.978-1.029-3.688-1.879l-0.021-0.039l-0.043-0.135l0.019-0.04c1.341-2.762,2.876-4.345,4.213-4.345h0.014
	c1.509,0.011,2.553,1.369,2.538,3.301C178.968,26.768,178.399,27.511,177.925,27.906z"/>
<path fill="#D1D2D3" d="M73.548,30.856c0.952,0,1.945-0.463,2.951-1.375l0.094-0.085l0.076,0.102c0.662,0.89,1.73,1.368,2.884,1.279
	c1.769-0.138,3.254-1.713,3.806-3.199l0.108-0.291l0.108,0.291c0.41,1.102,1.298,2.431,3.195,2.278
	c2.069-0.166,3.711-2.98,4.32-4.182l0.157-0.31l0.06,0.342c0.292,1.691,1.212,4.532,4.09,4.554h0.024
	c1.244,0,2.657-0.761,4.084-2.201l0.105-0.106l0.076,0.127c0.961,1.607,2.25,2.46,3.621,2.391c2.02-0.105,3.246-1.536,3.354-2.53
	c0.027-0.254-0.04-0.492-0.184-0.653c-0.182-0.203-0.445-0.226-0.639-0.04l-0.092,0.087c-0.47,0.451-1.347,1.293-2.301,1.343
	c-1.169,0.057-2.033-0.642-2.592-2.084l-0.023-0.061l0.039-0.051c3.214-4.204,5.47-10.619,5.247-14.921
	c-0.103-1.991-0.682-4.365-2.856-4.365c-0.053,0-0.107,0.001-0.162,0.004c-0.833,0.043-1.591,0.44-2.252,1.18
	c-2.018,2.257-3.074,7.814-2.69,14.155c0.08,1.318,0.308,2.549,0.68,3.659l0.021,0.062l-0.042,0.05
	c-1.193,1.394-2.37,2.162-3.314,2.162c-2.272,0-2.195-3.809-2.016-6.968c0.039-0.681,0.096-1.115-0.105-1.362
	c-0.144-0.177-0.385-0.264-0.736-0.267l-0.041,0c-0.808,0-0.977,0.167-1.391,1.366c-0.861,2.493-2.559,6.676-4.268,6.676
	c-0.474-0.004-0.835-0.166-1.083-0.482c-0.829-1.058-0.199-3.697,0.306-5.818c0.091-0.381,0.178-0.747,0.253-1.086
	c0.111-0.503,0.077-0.87-0.101-1.092c-0.178-0.221-0.534-0.311-1.004-0.274c-0.732,0.059-1.2,0.365-1.426,1.757l-0.045,0.289
	l-0.17-0.206c-0.32-0.472-0.943-1.034-2.099-1.034c-0.101,0-0.206,0.004-0.315,0.013c-1.234,0.101-2.64,0.961-3.668,2.245
	c-1.201,1.499-1.775,3.395-1.615,5.341c0.009,0.103,0.024,0.202,0.038,0.3l0.008,0.055l-0.037,0.041
	c-0.719,0.783-1.451,1.18-2.176,1.18c-1.119-0.009-1.762-0.841-1.762-2.226c0-2.333,1.581-9.366,1.581-11.912
	c0-2.709-1.207-4.185-3.304-4.201l-0.032,0c-3.061,0-5.447,3.474-7.731,10.621c-0.209,0.654-0.437,1.41-0.632,2.064l-0.32,1.075
	l0.095-1.117c0.212-2.49,0.358-4.912,0.433-7.2c0.114-3.454-0.353-5.677-1.428-6.796c-0.579-0.603-1.346-0.901-2.345-0.908h-0.027
	c-3.746,0-5.541,6.318-6.847,10.776c-0.3,1.023-0.821,3.021-1.281,4.833c0.281-3.047,0.791-8.469,0.752-11.586
	c-0.047-3.809-1.316-5.518-4.114-5.539h-0.034c-1.494,0-2.531,0.743-3.138,1.366c-0.974,1-1.581,2.462-1.547,3.724
	c0.021,0.767,0.492,1.45,0.848,1.45c0.233,0,0.361-0.31,0.417-0.495c0.865-2.862,1.986-4.253,3.424-4.253
	c0.596,0.004,1.04,0.18,1.372,0.537c1.123,1.205,0.919,4.459,0.548,10.366c-0.119,1.904-0.255,4.061-0.369,6.515
	c-0.02,0.421-0.046,0.827-0.071,1.214c-0.109,1.704-0.196,3.05,0.45,3.151c0.841,0.131,1.388-0.211,1.668-1.043
	c0.415-1.235,1.347-4.61,3.149-10.778c1.729-5.919,3.036-8.072,4.708-8.072c1.931,0,2.075,3.316,1.721,10.314
	c-0.075,1.483-0.176,3.163-0.254,4.992c-0.011,0.257-0.023,0.506-0.035,0.746c-0.074,1.514-0.133,2.709,0.299,3.167
	c0.135,0.143,0.318,0.213,0.561,0.215c0.837,0,1.089-0.734,1.506-1.951c0.074-0.215,0.152-0.444,0.239-0.684
	c2.869-7.914,4.99-14.779,7.837-14.779c0.854,0,1.518,0.693,1.518,2.046c0,3.122-1.527,9.156-1.527,12.215
	c0,1.096,0.315,2.08,0.911,2.771c0.612,0.71,1.467,1.088,2.475,1.096H73.548z M103.074,9.177l0.03-0.001
	c0.202,0,0.379,0.101,0.527,0.302c0.703,0.95,0.713,4.417-0.495,8.361c-0.691,2.254-1.619,4.384-2.685,6.158l-0.17,0.282
	l-0.043-0.327c-0.125-0.954-0.187-1.947-0.231-2.793C99.699,15.198,101.503,9.259,103.074,9.177z M79.416,22.779
	c0.685-0.743,1.457-1.152,2.174-1.152h0.015c0.906,0.007,1.54,0.734,1.832,1.412l0.016,0.035l-0.01,0.038
	c-0.619,2.492-1.807,5.499-3.948,5.672c-0.06,0.004-0.118,0.007-0.174,0.007c-0.888,0-1.386-0.582-1.48-1.729
	C77.721,25.627,78.341,23.946,79.416,22.779z"/>
<path fill="#D1D2D3" d="M93.35,16.775l0.011,0.115v-0.115c0.779,0,1.417-0.622,1.423-1.388c0.006-0.771-0.628-1.404-1.413-1.41
	c-0.79,0-1.429,0.623-1.435,1.388C91.931,16.136,92.565,16.768,93.35,16.775z"/>
<path fill="#D1D2D3" d="M143.042,16.775l0.011,0.115v-0.115c0.78,0,1.418-0.622,1.424-1.388c0.006-0.771-0.628-1.404-1.413-1.41
	c-0.79,0-1.429,0.623-1.435,1.388C141.623,16.136,142.257,16.768,143.042,16.775z"/>
<path fill="#D1D2D3" d="M181.761,28.732c-0.535,0-0.971,0.436-0.971,0.971c0,0.535,0.436,0.97,0.971,0.97
	c0.535,0,0.971-0.435,0.971-0.97C182.732,29.168,182.296,28.732,181.761,28.732z M181.761,30.533c-0.459,0-0.83-0.37-0.83-0.829
	c0-0.459,0.37-0.83,0.83-0.83c0.459,0,0.83,0.371,0.83,0.83C182.591,30.163,182.22,30.533,181.761,30.533z"/>
<path fill="#D1D2D3" d="M182.191,29.45c0-0.2-0.099-0.31-0.352-0.31h-0.43v1.119h0.141v-0.49h0.201l0.334,0.49h0.159l-0.334-0.49
	C182.061,29.742,182.191,29.656,182.191,29.45z M181.73,29.643h-0.18v-0.378h0.25c0.12,0,0.251,0.042,0.251,0.185
	C182.051,29.636,181.884,29.643,181.73,29.643z"/>
<path fill="#C8C7C7" d="M33.961,36.188c0.133-0.13,0.2-0.289,0.2-0.478c0-0.184-0.065-0.341-0.195-0.471
	c-0.13-0.13-0.287-0.195-0.471-0.195c-0.175,0-0.328,0.06-0.458,0.181c-0.138,0.129-0.208,0.291-0.208,0.485
	c0,0.187,0.064,0.345,0.193,0.473c0.128,0.128,0.286,0.192,0.473,0.192C33.676,36.375,33.831,36.313,33.961,36.188z M32.944,35.71
	c0-0.149,0.053-0.277,0.159-0.386c0.108-0.111,0.238-0.166,0.391-0.166c0.151,0,0.281,0.055,0.388,0.166
	c0.107,0.109,0.16,0.238,0.16,0.386c0,0.153-0.054,0.283-0.161,0.392c-0.107,0.108-0.236,0.163-0.388,0.163
	c-0.152,0-0.281-0.054-0.389-0.162C32.998,35.995,32.944,35.864,32.944,35.71z"/>
<polygon fill="#C8C7C7" points="33.708,36.042 33.831,35.821 33.665,35.821 33.621,35.914 33.518,35.951 33.391,35.895 
	33.338,35.715 33.386,35.529 33.509,35.467 33.6,35.494 33.665,35.604 33.835,35.607 33.678,35.359 33.495,35.316 33.233,35.431 
	33.138,35.711 33.249,35.996 33.511,36.104 "/>
<path fill="#C8C7C7" d="M16.821,1.227c0.56-0.136,1.072-0.203,1.517-0.203C17.893,1.024,17.381,1.091,16.821,1.227z"/>
<path fill="#C8C7C7" d="M0.293,18.615c0.111,0.238,0.254,0.459,0.432,0.654l0.004,0.005l1.402,1.468l0.155,0.162l-0.009,0.016
	L2.229,21.01l-0.071,0.133l-0.045,0.092l-0.065,0.137l-0.041,0.093l-0.059,0.142L1.91,21.702l-0.053,0.146l-0.032,0.095
	l-0.046,0.151l-0.013,0.042l-0.015,0.054l-0.04,0.156l-0.023,0.095L1.674,22.51l-0.019,0.098l-0.017,0.088l-0.03,0.199l-0.009,0.059
	l-0.001,0.005l-0.002,0.018l-0.013,0.131l-0.016,0.207l-0.005,0.092l-0.004,0.072l-0.001,0.147v0.089v0.053v0.006v0.004l0.003,0.095
	l0.007,0.103l0.004,0.076l0.005,0.054l0.009,0.097l0.013,0.122l0,0.004v0l0.006,0.043l0.016,0.11l0.018,0.115l0.009,0.047
	l0.013,0.066l0,0.002l0.001,0.003l0.006,0.028l0.025,0.12l0,0l0,0.001L1.7,24.895l0.019,0.075l0.008,0.034l0.009,0.037l0.008,0.031
	l0.007,0.026l0.006,0.023l0,0l0.001,0.002l0.009,0.029l0.009,0.032l0.023,0.074l0.037,0.118l-0.003-0.008l0.003,0.01l0.011,0.031
	l0.033,0.092l0.001,0.002v0l0.045,0.122l0,0.001l0.002,0.005l-0.001-0.002l0.009,0.022l0.032,0.078l0.01,0.025l0.001,0.004
	l0.021,0.049l0.027,0.064l0-0.001l0.001,0.001l0.01,0.022l0.028,0.062l0.021,0.043l0.001,0.002l0.051,0.106l0.002,0.004l0.001,0.002
	l0.009,0.018l0.026,0.051l0.03,0.056l0.002,0.003l0.051,0.095l0.002,0.003l0.001,0.003l0.01,0.016l0.027,0.047l0.039,0.065
	l0.003,0.005l0.001,0.002l0.052,0.084l0.002,0.004l0.007,0.011l0.034,0.052l0.043,0.065l0.002,0.003L2.481,26.69l0.059,0.086
	l0.002,0.003l0,0.001l0.001,0.002l0.002,0.003l-0.001,0l0.001,0.001l0,0l0.038,0.053l0.049,0.067l-0.001-0.001l0.054,0.072
	l0.003,0.004l0.001,0.002l0.047,0.06l0.056,0.069l0.006,0.008l0.045,0.054l0.008,0.01l0,0l0.003,0.003l0.005,0.005l0.079,0.09
	l0.027,0.031v0l0,0l0.001,0.001l0.002,0.002l-0.001-0.001l0.047,0.052l0.006,0.007l0,0l0.001,0.001l0.004,0.004l-0.001-0.001
	l0.09,0.094l0.037,0.038l0.002,0.002l0.044,0.045l0.005,0.004l0.013,0.014l0.111,0.104l0.009,0.008l0.003,0.002l0.001,0.001
	l0.001,0.001l0.047,0.043l0.002,0.003l0.144,0.123l0.003,0.002l0.027,0.022l0.018,0.015l-0.001-0.001l0.028,0.022l0.118,0.093
	l0.011,0.008l0.005,0.004l0.031,0.024l0.007,0.006l0.006,0.004l0.034,0.024l0.102,0.072l0.029,0.02l0.003,0.002l0.035,0.024l0.002,0
	l0.018,0.012l0.108,0.07l0.057,0.036l0.031,0.019l0.018,0.01l0.011,0.007l0.16,0.092L4.4,28.451l0.031,0.016l0.002,0.002l0.193,0.1
	l0.01,0.005L4.67,28.59l0,0l0.098,0.044l0.046,0.021l0.057,0.026l0.016,0.007l0.005,0.002l0.007,0.003l0.094,0.038l0.016,0.006
	l0.105,0.042l0.008,0.003l0.026,0.009l0.05,0.017l0.015,0.005l0.152,0.052l0.012,0.004l0.004,0.001l0.002,0.001l0.236,0.068
	l0.003,0.001l0.011,0.003l0.202,0.048h0.001l0.025,0.007l0.026,0.006l0.196,0.037l0.019,0.005l0.047,0.007l0.119,0.017l0.017,0.047
	l0.001,0.002c0.109,0.297,0.227,0.592,0.353,0.885c1.868,5.168,7.03,9.175,12.922,9.907C20.039,39.971,20.52,40,21.001,40
	c5.448,0,10.949-3.7,13.303-8.563c0.11-0.202,0.211-0.401,0.303-0.594c0.254-0.261,0.451-0.533,0.583-0.82
	c0.14-0.301,0.197-0.616,0.197-0.887c0-0.033-0.001-0.066-0.002-0.098l-0.016-0.19l-0.022-0.118l-0.067-0.261l-0.001-0.002
	c-0.061-0.174-0.156-0.341-0.278-0.482c-0.122-0.141-0.267-0.252-0.413-0.329l-0.005-0.003c-0.155-0.081-0.308-0.127-0.446-0.153
	l-0.117-0.015c0.046-0.199,0.065-0.385,0.066-0.556c0.001-0.484-0.148-0.852-0.253-1.052l0.033-0.031
	c0.189-0.183,0.35-0.357,0.485-0.533l0.026-0.035c0.109-0.156,0.18-0.316,0.226-0.462c0.039-0.126,0.058-0.24,0.07-0.344l0.001,0
	l0.001-0.006l0.001-0.015l0.004-0.032h-0.003l0.002-0.036h0.001l0.001-0.021l0.001-0.067l-0.001-0.136
	c-0.01-0.235-0.053-0.54-0.207-0.871c-0.077-0.165-0.183-0.334-0.325-0.491c-0.141-0.157-0.317-0.299-0.519-0.412l0.001,0
	l-0.04-0.024c-0.42-0.618-0.9-1.098-1.325-1.461c-0.221-0.189-0.427-0.346-0.602-0.474c-0.174-0.128-0.32-0.228-0.402-0.289
	l0.001,0.001c-0.187-0.137-0.326-0.22-0.393-0.257c-0.153-0.093-0.267-0.168-0.336-0.219l-0.09-0.077l-0.005-0.007l-0.015-0.055
	l-0.022-0.214c-0.002-0.045-0.003-0.096-0.003-0.153c0-0.146,0.006-0.33,0.019-0.553c0.028-0.499,0.085-1.188,0.143-2.121
	c0.012-0.185,0.018-0.364,0.018-0.537c0-0.103-0.002-0.204-0.006-0.303c-0.018-0.423-0.072-0.806-0.161-1.153l0-0.002l-0.066-0.233
	l0-0.001l0-0.001l-0.043-0.127l0.001,0.002l-0.057-0.152l-0.001-0.002l-0.04-0.097l0-0.001l0-0.001l-0.114-0.243l-0.012-0.023
	l-0.023-0.041l-0.016-0.028c-0.085-0.14-0.175-0.268-0.269-0.387c-0.047-0.215-0.13-0.532-0.267-0.893
	c-0.121-0.318-0.284-0.67-0.516-1.018l-0.272-0.355l0.033-0.034c0.047-0.049,1.16-1.214,2.031-2.726
	c0.78-1.354,1.061-2.456,1.06-3.34c-0.001-0.956-0.332-1.658-0.716-2.151l-0.021-0.026l-0.022-0.025
	c-0.713-0.792-1.682-1.269-2.881-1.418c-0.275-0.034-0.554-0.05-0.833-0.05c-2.246,0-4.539,0.997-5.193,1.306l-1.338-1.478
	l-0.005-0.006c-0.118-0.13-0.25-0.246-0.391-0.348c-0.142-0.102-0.294-0.19-0.453-0.264c-0.32-0.148-0.671-0.241-1.044-0.288
	C18.746,0.012,18.544,0,18.337,0c-0.588,0-1.224,0.094-1.901,0.268c-1.371,0.354-2.91,1.038-4.519,2.003
	c-1.608,0.966-3.284,2.213-4.911,3.697c-1.988,1.814-3.631,3.731-4.828,5.551c-0.598,0.91-1.085,1.796-1.446,2.636
	c-0.361,0.841-0.599,1.635-0.69,2.371C0.015,16.743,0,16.955,0,17.162c0,0.302,0.029,0.593,0.093,0.869
	C0.14,18.234,0.207,18.43,0.293,18.615z M9.817,20.107l-0.042,0.075c-0.041,0.073-0.109,0.194-0.188,0.336L9.463,20.74L9.376,20.9
	l-0.014,0.025l-0.005,0.01l-0.033,0.061L9.054,21.48l0,0.001l-0.014,0.03l-0.047,0.105l-0.029,0.065v0L8.96,21.689L8.959,21.69
	l-0.049,0.108l-0.003,0.008l0,0.001v0l0,0.001l-0.078,0.19l-0.003,0.006l-0.052,0.128L8.77,22.143l-0.11,0.299l-0.005,0.015
	c-0.042,0.119-0.081,0.242-0.118,0.365l-0.012,0.043l-0.006,0.021l-0.006,0.021l-0.064,0.229l-0.003,0.011L8.444,23.15l0,0.002
	l-0.027,0.114l-0.002,0.009l-0.036,0.154l-0.01,0.042l-0.007,0.035L8.36,23.51l-0.005,0.025l-0.008,0.041l-0.02,0.107l-0.002,0.009
	l-0.006,0.032v0l0,0.002l-0.017,0.088l-0.014,0.095l-0.01,0.064L8.251,24.18L8.23,24.428l-0.01,0.119l-0.002,0.02l0.004-0.017
	l0-0.002l0.037-0.145l0.03-0.102c0.032-0.104,0.074-0.228,0.129-0.358l0.063-0.14l0.005-0.011l0.006-0.011l0.001-0.003l0-0.001
	l0.001-0.001l0.047-0.088l0.019-0.035l0.011-0.021l0,0l0.004-0.006v0l0.089-0.138L8.68,23.47l0.081-0.1l0.026-0.029l0.076-0.07
	l0.029-0.026l0.002-0.002l-0.001,0.002l-0.003,0.013l-0.005,0.019l-0.002,0.006L8.881,23.3l-0.016,0.069l-0.008,0.035l-0.001,0.002
	l-0.009,0.04l0,0.001l0,0.001l-0.018,0.08l-0.014,0.064L8.812,23.6l-0.019,0.086l-0.012,0.055l-0.001,0.005l-0.014,0.063
	l-0.001,0.004l-0.008,0.038L8.75,23.889l-0.005,0.027L8.69,24.184l-0.062,0.329l-0.013,0.074l-0.009,0.05l-0.002,0.009l-0.01,0.056
	c-0.025,0.144-0.05,0.293-0.073,0.443l-0.007,0.048c-0.02,0.133-0.038,0.267-0.054,0.4l-0.006,0.045
	c-0.015,0.13-0.029,0.26-0.039,0.385c0,0,0.13-0.375,0.273-0.644l0.06-0.104l0.154-0.163l0.007,0.061
	c0.027,0.287,0.065,0.568,0.114,0.842L9.02,26.015l0.011,0.058l0.038,0.208c0.119,0.634,0.26,1.259,0.26,1.259
	c-0.214,0.16-0.573,0.317-0.979,0.435c-0.135,0.039-0.276,0.074-0.418,0.103l-0.274,0.049l-0.309,0.036l-0.221,0.013l-0.162-0.001
	c-0.226-0.003-0.449-0.022-0.666-0.057l-0.003-0.001l-0.21-0.039l-0.001,0l-0.006-0.002l-0.205-0.049l-0.01-0.003l-0.103-0.03
	l-0.094-0.027l-0.013-0.004l-0.19-0.065l-0.017-0.006L5.267,27.82L5.246,27.81l-0.174-0.079L5.049,27.72l-0.165-0.085L4.856,27.62
	L4.7,27.53l-0.032-0.019l-0.147-0.094l-0.035-0.024l-0.138-0.098l-0.037-0.028l-0.13-0.102l-0.04-0.033L4.02,27.028l-0.043-0.039
	l-0.112-0.106l-0.045-0.045l-0.103-0.107l-0.046-0.05l-0.095-0.108L3.53,26.516l-0.087-0.109l-0.047-0.064l-0.079-0.109l-0.047-0.07
	l-0.071-0.108L3.152,25.98l-0.064-0.109l-0.045-0.083l-0.056-0.107l-0.043-0.09l-0.025-0.053l-0.025-0.053l-0.04-0.096L2.81,25.284
	l-0.027-0.075l-0.01-0.028l-0.037-0.104l-0.034-0.108l-0.031-0.102l-0.008-0.032l-0.007-0.026l-0.009-0.034l-0.006-0.023l-0.025-0.1
	l-0.025-0.124l-0.019-0.096l-0.02-0.134l-0.011-0.075l0,0l0-0.003l-0.002-0.011l-0.015-0.149L2.52,24.015l-0.004-0.033l-0.009-0.192
	L2.505,23.75l0.001-0.247l0.01-0.199l0.002-0.031l0.027-0.248c0.057-0.419,0.171-0.82,0.335-1.194l0.014-0.033l0.081-0.17
	c0.08-0.16,0.168-0.315,0.265-0.463l0.162-0.231l0.147-0.187c0.177-0.214,0.374-0.41,0.588-0.588l0.009-0.008
	c0.248-0.205,0.518-0.385,0.807-0.534l0.099-0.048l0.081-0.039l0.292-0.121c0.291-0.11,0.598-0.19,0.915-0.237l0.032-0.005
	c0.176-0.025,0.355-0.041,0.538-0.045l0.122,0.001l0.251,0.013l0.089,0.009l0.09,0.009l0.184,0.031l0.229,0.052l0.006,0.001
	l0.323,0.089l0.099,0.03c0.125,0.042,0.246,0.088,0.361,0.135l0.274,0.12c0.272,0.126,0.495,0.251,0.648,0.344
	c0.135,0.081,0.216,0.138,0.227,0.145l0.003,0.002l0.001,0.001h0L9.817,20.107z M28.768,13.058l0.001,0.002l0.021,0.076l0.002,0.009
	l0.018,0.069l0.001,0.007l0.051,0.227l0.002,0.011l0.006,0.031l0.002,0.013l0.004,0.022l0.002,0.014l0.003,0.014l0.002,0.01
	l0.001,0.007l0.001,0.006v0l0.1,0.114l0.034,0.043l0.075,0.098l0.017,0.023l0.014,0.021l0.101,0.155l0.023,0.041l0.083,0.176v0.001
	v0l0.003,0.007l0.015,0.038l0.013,0.031l0.004,0.011l0.037,0.1l0.001,0.003l0.015,0.042l0.005,0.015l0.015,0.043l0.014,0.048
	l0.038,0.134l0,0v0l0,0l0,0l0,0l0.027,0.116l0.025,0.122l0.021,0.111l0.031,0.23l0.01,0.097l0.016,0.228l0.003,0.031l0.001,0.029
	l0.004,0.31l-0.001,0.079l-0.013,0.347c-0.058,0.925-0.114,1.608-0.143,2.128c-0.013,0.234-0.021,0.434-0.021,0.608
	c0,0.9,0.209,1.096,0.939,1.541c0,0,0.121,0.063,0.311,0.203c0.403,0.295,1.412,0.94,2.145,2.049l0.059,0.089l0.006,0.009
	l0.139,0.094l0.116,0.07l0.114,0.075l0.165,0.148c0.243,0.27,0.29,0.611,0.29,0.831c0,0.024-0.001,0.046-0.002,0.067v0.001
	l-0.011,0.017c-2.825,2.545-5.934,3.289-8.297,3.433c-0.008,0-0.016,0.001-0.024,0.001c-0.013,0.001-0.027,0.002-0.04,0.002
	c-0.308,0.017-0.602,0.025-0.882,0.025c-0.001,0-0.001,0-0.002,0c-0.001,0-0.002,0-0.003,0c-0.213,0-0.416-0.005-0.61-0.012
	c-0.066-0.003-0.124-0.007-0.187-0.01c-0.125-0.006-0.251-0.012-0.367-0.021c-0.072-0.005-0.134-0.011-0.202-0.017
	c-0.097-0.008-0.195-0.016-0.284-0.025c-0.07-0.007-0.131-0.014-0.196-0.021c-0.058-0.006-0.122-0.013-0.175-0.019
	c-0.012-0.002-0.024-0.003-0.036-0.004c-0.007-0.001-0.014-0.002-0.022-0.003c-0.006-0.001-0.013-0.002-0.019-0.002l-0.067-0.009
	c-0.202-0.026-0.367-0.049-0.485-0.064l-0.142-0.015c-0.032-0.002-0.063-0.003-0.095-0.003c-0.143,0-0.279,0.022-0.408,0.062
	c-0.321,0.1-0.596,0.318-0.803,0.605c-0.255,0.355-0.405,0.816-0.412,1.298l0,0l0,0c0,0.004,0,0.008,0,0.012
	c0,0.07,0.008,0.14,0.019,0.21c0.008,0.051,0.016,0.103,0.024,0.154l0.025,0.223c0.049,0.199,0.126,0.396,0.232,0.585l0.025,0.046
	l0.079,0.122l0.12,0.161c0.495,0.61,1.56,1.064,2.98,1.241c0.004,0,0.009,0,0.013,0.001c0.003,0,0.006,0.001,0.009,0.001
	c0.009,0.001,0.017,0.002,0.026,0.003c0.012,0.001,0.023,0.003,0.035,0.004c0.281,0.032,0.591,0.04,0.898,0.05
	c0.061,0.002,0.117,0.009,0.179,0.01c0.066,0.001,0.123,0.011,0.191,0.011c0.173,0,0.357-0.012,0.537-0.02
	c0.128-0.005,0.251-0.005,0.381-0.014c0,0,0,0,0,0c0.105-0.007,0.214-0.022,0.321-0.032c0.065-0.006,0.131-0.014,0.197-0.021
	c0.144-0.015,0.284-0.024,0.43-0.044c0.02-0.003,0.041-0.006,0.061-0.008c0.009-0.001,0.018-0.002,0.027-0.003
	c3.595-0.65,5.304-1.812,6.094-2.628l0.159-0.173c0.283-0.326,0.41-0.577,0.457-0.686l0.007-0.015l0.017-0.044L33.507,28.7
	l0.001-0.002l-0.02,0.019l-0.011,0.01c-0.287,0.274-0.624,0.54-0.995,0.793c-1.625,1.11-3.898,1.97-5.509,2.186l-0.006,0.001
	l-0.006,0.001c-0.364,0.058-0.727,0.101-1.083,0.13c-0.109,0.009-0.212,0.007-0.32,0.013c-0.244,0.014-0.49,0.03-0.726,0.03
	c-0.002,0-0.003,0-0.005,0c-0.001,0-0.001,0-0.002,0c-0.082,0-0.155-0.011-0.235-0.013c-0.358-0.008-0.713-0.021-1.044-0.062
	c-0.005-0.001-0.01-0.001-0.015-0.002c-0.594-0.074-1.129-0.203-1.571-0.372c-0.489-0.186-0.866-0.422-1.082-0.689
	c-0.243-0.297-0.366-0.633-0.4-0.961l-0.006-0.323c0.015-0.227,0.069-0.442,0.151-0.628l0.043-0.092
	c0.013-0.026,0.039-0.064,0.059-0.097c0.019-0.031,0.031-0.057,0.056-0.091c0.027-0.039,0.068-0.078,0.103-0.117
	c0.029-0.032,0.051-0.065,0.085-0.096c0.066-0.06,0.147-0.111,0.234-0.155c0.012-0.006,0.02-0.016,0.032-0.021
	c0.103-0.045,0.219-0.074,0.351-0.074c0.021,0,0.042,0.001,0.064,0.002l0.111,0.012l0.193,0.025c0.103,0.014,0.223,0.03,0.36,0.047
	l0.047,0.005l0.004,0c0.01,0.001,0.019,0.001,0.029,0.003c0.02,0.002,0.039,0.005,0.059,0.007c0.009,0.001,0.018,0.002,0.027,0.003
	c0.005,0.001,0.01,0.001,0.015,0.002c0,0,0,0,0,0c0.015,0.002,0.03,0.003,0.045,0.005c0.023,0.003,0.045,0.001,0.069,0.004
	c0.012,0.001,0.023,0.001,0.034,0.002c0.155,0.016,0.31,0.03,0.464,0.043c0.11,0.009,0.221,0.023,0.331,0.03
	c0.345,0.021,0.687,0.032,1.026,0.032c0.104,0,0.205-0.01,0.308-0.011c0.009,0,0.018-0.001,0.027-0.001
	c0.274-0.006,0.548-0.011,0.817-0.031c0.018-0.001,0.037-0.001,0.055-0.002c0.15-0.011,0.296-0.035,0.445-0.051
	c0.001,0,0.003,0,0.004,0c0.187-0.02,0.376-0.033,0.56-0.059c0.002,0,0.005-0.001,0.007-0.001c0.026-0.004,0.052-0.008,0.078-0.011
	c0.019-0.003,0.037-0.005,0.055-0.008h0c0.008-0.001,0.017-0.002,0.025-0.003c2.069-0.317,3.979-1.055,5.677-2.204l0.267-0.186l0,0
	l0.055,0.105c0.102,0.208,0.224,0.55,0.225,0.986c0,0.091-0.005,0.185-0.016,0.284l-0.039,0.234l-0.047,0.187
	c0,0,0.092,0.089,0.204,0.27c0.087,0.14,0.185,0.336,0.263,0.587l-0.007-0.025l0.018-0.001l0.116-0.006l0.254,0.011l0.261,0.076
	l0.073,0.041l0.111,0.091l0.048,0.055l0.008,0.012l0.023,0.036l0.003,0.006c0.084,0.143,0.099,0.297,0.099,0.384
	c0,0.044-0.004,0.071-0.004,0.071l-0.001,0c-0.003,0.217-0.065,0.459-0.255,0.733l-0.037,0.049
	c-0.085,0.116-0.192,0.238-0.329,0.365l-0.007,0.017l-0.114,0.236l-0.013,0.028l-0.044,0.088l-0.099,0.191l-0.051,0.097l-0.138,0.25
	L33.27,31.34l-0.077,0.129l-0.103,0.166l-0.049,0.076l-0.214,0.316L32.778,32.1l-0.015,0.022l-0.163,0.221l-0.017,0.022
	c-0.227,0.301-0.478,0.601-0.757,0.894c-0.211,0.222-0.439,0.441-0.682,0.653l-0.044,0.037l-0.001,0.001l-0.001,0
	c-0.245,0.205-0.497,0.393-0.751,0.573c-0.152,0.106-0.305,0.208-0.46,0.305l-0.005,0.003c-0.206,0.13-0.414,0.253-0.623,0.367
	l-0.044,0.024c-0.299,0.161-0.601,0.306-0.907,0.438c-0.505,0.22-1.018,0.401-1.531,0.548c-0.341,0.098-0.682,0.181-1.021,0.25
	c-0.102,0.021-0.203,0.032-0.305,0.051c-0.237,0.043-0.475,0.088-0.709,0.118c-0.034,0.004-0.066,0.005-0.099,0.01
	c-0.301,0.037-0.601,0.067-0.896,0.086c-0.043,0.003-0.083,0.002-0.126,0.004c-0.283,0.015-0.565,0.026-0.84,0.026
	c-0.001,0-0.001,0-0.002,0c-0.001,0-0.002,0-0.003,0c-0.142,0-0.276-0.009-0.415-0.013c-0.19-0.005-0.383-0.006-0.568-0.018
	c-0.084-0.005-0.162-0.016-0.245-0.023c-0.231-0.018-0.462-0.036-0.682-0.063c-0.169-0.021-0.325-0.049-0.486-0.075
	c-0.123-0.02-0.254-0.035-0.372-0.057c-0.206-0.038-0.396-0.082-0.586-0.127c-0.063-0.015-0.133-0.027-0.193-0.042
	c-0.98-0.245-1.713-0.562-2.068-0.851l0.462,0.828l-0.269-0.208c-0.32-0.305-0.77-0.859-1.107-1.294l-0.108-0.14l-0.002-0.002
	l-0.084-0.111l-0.027-0.036l-0.141-0.186l-0.058-0.06l-0.058-0.06l0.022,0.222c0.081,0.328,0.32,0.828,0.321,0.831l0,0.001l0,0l0,0
	c-0.207-0.255-0.407-0.55-0.589-0.845c-0.152-0.246-0.291-0.492-0.411-0.714l-0.086-0.162c-0.082-0.156-0.152-0.295-0.207-0.407
	l-0.142-0.185c-0.001,0.028-0.001,0.056-0.001,0.084c0.001,0.416,0.111,0.788,0.224,1.06l0.045,0.104l0.003,0.005l0.042,0.087
	l0.004,0.007l0.037,0.073l0.002,0.004l0.112,0.189l0,0l-0.237-0.255l-0.071-0.082l-0.15-0.174l-0.079-0.098l-0.128-0.16
	l-0.077-0.103l-0.114-0.156l-0.073-0.104l-0.105-0.157l-0.065-0.102l-0.1-0.164l-0.056-0.095l-0.1-0.182l-0.041-0.077
	c-0.089-0.173-0.17-0.345-0.241-0.517l-0.031-0.08l-0.069-0.178l-0.034-0.096l-0.054-0.16l-0.031-0.102l-0.044-0.154l-0.027-0.103
	l-0.037-0.153l-0.022-0.101l-0.031-0.157l-0.017-0.095l-0.025-0.17l-0.011-0.079l-0.025-0.247l-0.001-0.017l-0.002-0.027
	l-0.012-0.202l-0.004-0.199l0-0.011l0.005-0.256l0.004-0.08l0.012-0.176l0.008-0.088l0.019-0.172l0.01-0.078l0.038-0.239
	l0.001-0.007l0.048-0.234l0.018-0.076l0.04-0.161l0.022-0.082l0.047-0.158l0.022-0.071l0.076-0.221
	c0.047-0.127,0.098-0.252,0.152-0.373c0.339-0.759,0.81-1.393,1.32-1.842c-0.078-0.125-0.153-0.249-0.227-0.373
	c-0.265-0.446-0.5-0.881-0.706-1.303l-0.006,0.106l0.039,1.032l0.007,0.184l-0.105-0.208c-0.275-0.701-0.572-2.557-0.572-2.557
	c-0.169,0.113-0.191,1.112-0.191,1.116c-0.116-0.551-0.162-1.198-0.178-1.734c-0.004-0.128-0.006-0.248-0.007-0.36l0-0.305
	l0.001-0.119l0-0.027l-0.004-0.019l-0.034-0.179l-0.121,0.253l-0.024,0.059l-0.048,0.136c-0.059,0.184-0.094,0.362-0.114,0.524
	l-0.019,0.21c-0.004,0.067-0.005,0.129-0.005,0.184c0,0.181,0.015,0.295,0.015,0.295c-0.029-0.151-0.055-0.3-0.078-0.447
	l-0.021-0.14c-0.026-0.168-0.047-0.334-0.066-0.497l-0.011-0.104l-0.004-0.045l-0.017-0.185c-0.012-0.147-0.023-0.294-0.029-0.437
	l-0.002-0.023c-0.006-0.144-0.009-0.285-0.009-0.425l0-0.05l0.001-0.214l0.007-0.183l0.001-0.029
	c0.005-0.124,0.013-0.247,0.023-0.368c0.011-0.132,0.023-0.263,0.039-0.391l0.022-0.152c0.037-0.256,0.083-0.506,0.14-0.745
	l0.008-0.031l0.045-0.177c0.059-0.221,0.127-0.435,0.202-0.642c0.15-0.414,0.332-0.8,0.54-1.161l0.012-0.02
	c0.1-0.173,0.206-0.34,0.318-0.501c0.151-0.217,0.313-0.421,0.482-0.618l0.111-0.131l0.094-0.099l0.231-0.243l0.099-0.093
	c0.907-0.871,1.987-1.52,3.082-2.01c0.152-0.068,0.305-0.133,0.457-0.195c0.213-0.086,0.425-0.169,0.636-0.245
	c0.271-0.097,0.539-0.185,0.803-0.266c0.714-0.219,1.392-0.382,1.986-0.509l0.175-0.037c0.213-0.176,0.467-0.354,0.753-0.512
	c0.414-0.229,0.898-0.413,1.441-0.472l0.051-0.004l0.085-0.006l0.058-0.004l0.068-0.005l-0.085,0.022l-0.081,0.027l-0.034,0.012
	l-0.107,0.046c-0.218,0.102-0.504,0.295-0.698,0.654l-0.001,0.001l0.079-0.01l0.017-0.007l0.099-0.041
	c0.263-0.107,0.736-0.284,1.227-0.389l0.051-0.011l0.018-0.004l0.061-0.012l0.095-0.015l0.291-0.036c0,0-0.167,0.07-0.335,0.165
	c-0.134,0.076-0.268,0.166-0.317,0.249c0.21-0.042,0.431-0.06,0.651-0.062l0.01,0c0.005,0,0.01,0,0.015,0c0.005,0,0.01,0,0.015,0
	c0.002,0,0.003,0,0.005,0c0.159,0,0.317,0.011,0.474,0.026l0.043,0.004l0.106,0.01l0.219,0.031c0.213,0.034,0.415,0.078,0.596,0.125
	l0.041,0.01c0.218,0.058,0.402,0.12,0.538,0.174l0.076,0.032l0.144,0.076l-0.005-0.005l-0.001,0l-0.001-0.001l0.002,0.001
	l0.014,0.01l0.077,0.055l0.01,0.008l0.003,0.002l0.086,0.068l0.011,0.01l0.178,0.173l0.025,0.024l0.005,0.005l0.123,0.149
	l0.051,0.062l0.052,0.075l0.101,0.15l0.054,0.091l0.08,0.142l0.048,0.096l0.067,0.141l0.041,0.094l0.057,0.14l0.033,0.086
	l0.051,0.146l0.023,0.068L28.768,13.058z M21.585,28.089C21.585,28.089,21.585,28.089,21.585,28.089
	c0.021,0,0.043,0.001,0.064,0.002C21.628,28.09,21.606,28.089,21.585,28.089z M21.179,27.649c0.128-0.04,0.263-0.062,0.404-0.062
	c0.001,0,0.002,0,0.003,0c0,0,0.001,0,0.001,0c0.031,0,0.062,0.001,0.094,0.003c-0.032-0.002-0.064-0.003-0.095-0.003
	C21.444,27.586,21.307,27.608,21.179,27.649z M22.793,27.724c0.456,0.047,1.026,0.087,1.68,0.087
	C23.818,27.811,23.248,27.771,22.793,27.724z M25.387,27.785c0.004,0,0.009-0.001,0.013-0.001c0.008,0,0.016-0.001,0.025-0.001
	C25.412,27.784,25.399,27.784,25.387,27.785z M25.496,31.855c0.128-0.007,0.253-0.005,0.383-0.016
	C25.749,31.85,25.625,31.848,25.496,31.855z M1.057,16.652c0.075-0.608,0.282-1.319,0.615-2.093c0.499-1.161,1.281-2.462,2.3-3.8
	C4.474,10.1,5.034,9.432,5.646,8.766c0.63-0.687,1.315-1.371,2.05-2.041c2.106-1.921,4.294-3.429,6.26-4.407
	c0.983-0.489,1.909-0.846,2.736-1.058c0.005-0.001,0.01-0.003,0.015-0.004c0.012-0.003,0.025-0.006,0.037-0.01
	c0.01-0.002,0.019-0.005,0.029-0.007c0.015-0.004,0.03-0.007,0.045-0.011c0.001,0,0.003-0.001,0.004-0.001
	c0.56-0.136,1.072-0.203,1.517-0.203c0.001,0,0.003,0,0.004,0c0,0,0.001,0,0.001,0c0.148,0,0.288,0.007,0.42,0.022
	c0.017,0.002,0.034,0.004,0.051,0.006c0.285,0.035,0.531,0.104,0.739,0.2l0.592-0.134l0.109-0.025l0.022-0.005l0.123,0.143
	l0.1,0.116l1.149,1.334l0.054,0.063l0.108,0.126l0.017,0.02l0.137,0.159l0.302,0.351l0.072-0.034
	c0.166-0.077,0.329-0.151,0.489-0.222l0.284-0.123l0.185-0.077c0.008-0.003,0.015-0.006,0.023-0.009
	c0.013-0.005,0.025-0.01,0.038-0.015c0.005-0.002,0.01-0.004,0.015-0.006c0.003-0.001,0.006-0.002,0.008-0.003
	c0.24-0.094,0.515-0.194,0.815-0.292c0.9-0.294,2.028-0.565,3.124-0.566c0.002,0,0.004,0,0.006,0c0,0,0.001,0,0.001,0
	c0.245,0,0.488,0.014,0.727,0.043c0.006,0.001,0.012,0.001,0.018,0.002c0.345,0.044,0.681,0.124,0.997,0.245l0.102,0.063
	l0.201,0.069c0.359,0.177,0.689,0.416,0.974,0.733c0.367,0.472,0.517,1.01,0.518,1.575c0.002,1.971-1.814,4.253-2.537,5.084
	c-0.112,0.129-0.198,0.223-0.247,0.275l-0.01-0.036c-0.067-0.21-0.157-0.403-0.263-0.582c-0.088-0.149-0.188-0.287-0.295-0.416
	l-0.175-0.196l-0.049-0.049l-0.256-0.233l-0.257-0.199l-0.121-0.084l-0.232-0.147l-0.24-0.135l-0.094-0.048l-0.033-0.017
	c-0.226-0.112-0.419-0.189-0.545-0.235l-0.084-0.029l-0.065-0.021L25.347,7.71l0.088,0.106c0.115,0.144,0.213,0.305,0.261,0.475
	c0,0-0.16-0.113-0.449-0.271l-0.068-0.037l-0.28-0.142c-0.316-0.152-0.718-0.32-1.19-0.464c-0.179-0.055-0.367-0.106-0.565-0.151
	l0.305,0.222c0.137,0.118,0.261,0.258,0.346,0.423c0,0-0.356-0.148-0.946-0.258c-0.116-0.022-0.253-0.038-0.386-0.055
	c-0.07-0.009-0.131-0.021-0.205-0.028c-0.206-0.02-0.427-0.033-0.662-0.033c-0.202,0-0.414,0.009-0.634,0.029l-0.267,0.031
	l-0.258,0.039l0.131,0.038l0.203,0.072c0.185,0.072,0.396,0.174,0.579,0.316l0.266,0.272c0,0-0.312-0.079-0.829-0.118
	c-0.148-0.011-0.313-0.019-0.492-0.021c-0.022,0-0.044,0-0.066,0c-0.159,0-0.329,0.005-0.508,0.016
	c-0.304,0.02-0.634,0.059-0.983,0.127c-0.253,0.049-0.517,0.114-0.787,0.197c-0.406,0.125-0.827,0.29-1.253,0.511l0.173-0.031
	c0.172-0.027,0.339-0.044,0.504-0.054l0.257-0.009l0.063,0l0.249,0.006L18.2,8.94l-0.323,0.127l-0.238,0.099
	c-0.268,0.115-0.573,0.254-0.907,0.423c-0.201,0.101-0.412,0.212-0.633,0.334c-0.271,0.15-0.556,0.317-0.851,0.501
	c-0.217,0.136-0.44,0.281-0.668,0.436c-1.025,0.699-2.145,1.606-3.259,2.769c-0.267,0.279-0.534,0.574-0.799,0.884
	c-0.777,0.907-1.538,1.946-2.247,3.136c-0.121,0.204-0.241,0.412-0.36,0.625l-0.034,0.064l-0.162-0.036
	c-0.224-0.047-0.438-0.079-0.635-0.095l-0.03-0.002c-0.123-0.009-0.24-0.013-0.35-0.013c-0.065,0-0.127,0.001-0.188,0.004
	L6.49,18.196l-0.045,0.005l-0.04,0.004l-0.098,0.012l-0.122,0.017l-0.138,0.023l-0.06,0.01L5.929,18.28l-0.14,0.031l-0.113,0.026
	L5.557,18.37l-0.025,0.007l-0.103,0.029l-0.05,0.015l-0.032,0.011L5.263,18.46l-0.077,0.026l-0.238,0.091l-0.034,0.015l-0.093,0.04
	l-0.106,0.047l-0.07,0.034l-0.125,0.061l-0.004,0.003l-0.029,0.016L4.41,18.833l-0.145,0.081l-0.079,0.048l-0.136,0.085
	l-0.079,0.052l-0.129,0.09l-0.078,0.057l-0.122,0.093l-0.01,0.008l-0.068,0.055l-0.113,0.096l-0.08,0.07l-0.034,0.03l-0.072,0.069
	l-0.074,0.071l-0.116,0.119L3.03,19.901l-0.011,0.012l-0.119,0.134l-0.009,0.01l-0.137-0.143l-1.274-1.335
	c-0.126-0.139-0.224-0.302-0.299-0.491l-0.092-0.287c-0.044-0.19-0.067-0.403-0.067-0.638C1.024,17.002,1.035,16.832,1.057,16.652z"
	/>
<polygon fill="#C8C7C7" points="5.635,28.944 5.634,28.944 5.631,28.943 "/>
<polygon fill="#C8C7C7" points="30.204,13.871 30.204,13.872 30.204,13.873 "/>
<polygon fill="#C8C7C7" points="4.207,28.339 4.207,28.339 4.207,28.339 "/>
<polygon fill="#C8C7C7" points="2.539,26.776 2.539,26.777 2.539,26.776 "/>
<polygon fill="#C8C7C7" points="2.54,26.778 2.54,26.778 2.539,26.777 "/>
<path fill="#B2B6BC" d="M22.462,7.557c-0.07-0.009-0.131-0.021-0.205-0.028C22.331,7.537,22.392,7.548,22.462,7.557z"/>
<path fill="#B5B6B6" d="M29.118,2.392L29.106,2.39l-0.003-0.001l-0.046-0.01c-0.282-0.071-0.581-0.108-0.898-0.115l-0.342,0.004
	C27.06,2.3,26.197,2.476,25.197,2.796c-0.52,0.167-1.08,0.378-1.675,0.628l-0.318,0.134l-0.36,0.16l-0.088,0.039l-0.044,0.02
	l-0.085,0.04l-0.312,0.146l-0.087,0.041l-0.05,0.024l-0.272,0.132l-0.01,0.005l-0.019,0.009l-0.088,0.043l-0.007,0.003l-0.049,0.025
	l-0.13,0.066l-0.098,0.05l-0.052,0.026c-0.209,0.107-0.417,0.216-0.625,0.329l-0.001,0l-0.197,0.109l-0.329,0.185l-0.135,0.078
	L19.907,5.24l-0.262,0.156l-0.139,0.085l-0.245,0.15c-0.163,0.102-0.326,0.205-0.487,0.31c-0.506,0.327-1.005,0.668-1.498,1.021v0
	c-1.124,0.806-2.213,1.675-3.259,2.578c-1.722,1.487-3.325,3.066-4.771,4.607l0.256-0.298L9.333,14c0,0,0-0.001,0-0.001
	c0-0.026,0.36-0.464,1.01-1.165c0.331-0.356,0.736-0.779,1.207-1.252c0.871-0.916,1.792-1.828,2.76-2.705
	c0.916-0.831,1.872-1.63,2.862-2.376l0.147-0.11c0.378-0.281,0.761-0.553,1.148-0.817c0.235-0.16,0.471-0.316,0.708-0.468
	l-2.744-3.127L16.42,3.112l1.318,1.585l0.23,0.276l0.031,0.037l0.187,0.224c-0.381,0.165-0.772,0.351-1.17,0.557
	c-0.183,0.094-0.367,0.192-0.552,0.294l-0.198,0.112c-0.696,0.395-1.41,0.845-2.131,1.35c-1.071,0.75-2.156,1.616-3.221,2.587
	c-0.823,0.751-1.585,1.52-2.279,2.291C7.53,13.651,6.6,14.881,5.873,16.054c-0.592,0.955-1.049,1.872-1.354,2.716l-0.002,0.005
	l0.004-0.003l0.125-0.061l0.07-0.034l0.106-0.047l0.093-0.04l0.034-0.015l0.238-0.091l0.077-0.026l0.083-0.027l0.032-0.011
	l0.05-0.015l0.103-0.029l0.025-0.007l0.119-0.032l0.113-0.026l0.14-0.031l0.058-0.012l0.06-0.01l0.138-0.023l0.122-0.017
	l0.098-0.012l0.04-0.004l0.045-0.005l0.025-0.001c0.06-0.002,0.123-0.004,0.188-0.004c0.11,0,0.227,0.004,0.35,0.013l0.03,0.002
	c0.197,0.016,0.411,0.047,0.635,0.095l0.162,0.036l0.034-0.064c0.119-0.213,0.239-0.421,0.36-0.625
	c0.709-1.189,1.47-2.229,2.247-3.136c0.265-0.31,0.532-0.604,0.799-0.884c1.114-1.163,2.235-2.069,3.259-2.769
	c0.228-0.156,0.451-0.301,0.668-0.436c0.296-0.185,0.58-0.352,0.851-0.501c0.22-0.122,0.432-0.233,0.633-0.334
	c0.335-0.168,0.639-0.308,0.907-0.423l0.238-0.099L18.2,8.94l-0.258-0.02l-0.249-0.006l-0.063,0l-0.257,0.009
	c-0.164,0.01-0.332,0.027-0.504,0.054l-0.173,0.031c0.426-0.221,0.847-0.386,1.253-0.511c0.27-0.083,0.534-0.148,0.787-0.197
	c0.349-0.068,0.679-0.107,0.983-0.127c0.179-0.011,0.349-0.016,0.508-0.016c0.022,0,0.044,0,0.066,0
	c0.179,0.002,0.344,0.009,0.492,0.021c0.517,0.039,0.829,0.118,0.829,0.118l-0.266-0.272c-0.183-0.142-0.394-0.244-0.579-0.316
	l-0.203-0.072l-0.131-0.038l0.258-0.039l0.267-0.031c0.22-0.021,0.432-0.029,0.634-0.029c0.236,0,0.457,0.013,0.662,0.033
	c0.074,0.007,0.135,0.019,0.205,0.028c0.133,0.017,0.27,0.033,0.386,0.055c0.591,0.109,0.946,0.258,0.946,0.258
	c-0.084-0.164-0.209-0.304-0.346-0.423l-0.305-0.222c0.198,0.046,0.386,0.097,0.565,0.151c0.472,0.144,0.874,0.312,1.19,0.464
	l0.28,0.142l0.068,0.037c0.289,0.158,0.449,0.271,0.449,0.271c-0.048-0.17-0.147-0.331-0.261-0.475L25.347,7.71l0.014,0.006
	l0.065,0.021l0.084,0.029c0.126,0.046,0.318,0.123,0.545,0.235l0.033,0.017l0.094,0.048l0.24,0.135l0.232,0.147l0.121,0.084
	l0.257,0.199l0.256,0.233l0.049,0.049l0.175,0.196c0.107,0.128,0.207,0.267,0.295,0.416c0.106,0.179,0.196,0.372,0.263,0.582
	l0.01,0.036c0.049-0.052,0.135-0.147,0.247-0.275c0.723-0.831,2.539-3.114,2.537-5.084c-0.001-0.564-0.15-1.103-0.518-1.575
	c-0.285-0.317-0.615-0.556-0.974-0.733l-0.201-0.069L29.145,2.4L29.118,2.392z"/>
<polygon fill="#B5B6B6" points="21.702,2.745 21.648,2.681 20.499,1.348 20.399,1.232 20.276,1.089 21.81,2.871 "/>
<polygon fill="#B5B6B6" points="20.254,1.093 20.145,1.118 20.276,1.089 "/>
<path fill="#D0D1D1" d="M28.686,12.794l-0.051-0.146l-0.033-0.086l-0.057-0.14l-0.041-0.094l-0.067-0.141l-0.048-0.096l-0.08-0.142
	l-0.054-0.091l-0.101-0.15l-0.052-0.075l-0.051-0.062l-0.123-0.149l-0.005-0.005l-0.025-0.024l-0.178-0.173l-0.011-0.01
	l-0.086-0.068l-0.003-0.002l-0.01-0.008l-0.077-0.055l-0.014-0.01l0.005,0.005l-0.144-0.076l-0.076-0.032
	c-0.136-0.054-0.32-0.116-0.538-0.174l-0.041-0.01c-0.181-0.047-0.382-0.091-0.596-0.125l-0.219-0.031l-0.106-0.01l-0.043-0.004
	c-0.158-0.015-0.318-0.026-0.479-0.026c-0.005,0-0.01,0-0.015,0c-0.005,0-0.01,0-0.015,0l-0.01,0
	c-0.22,0.002-0.441,0.02-0.651,0.062c0.049-0.082,0.183-0.173,0.317-0.249c0.167-0.094,0.335-0.165,0.335-0.165l-0.291,0.036
	l-0.095,0.015l-0.061,0.012l-0.018,0.004l-0.051,0.011c-0.491,0.105-0.964,0.281-1.227,0.389l-0.099,0.041l-0.017,0.007l-0.079,0.01
	l0.001-0.001c0.194-0.359,0.48-0.552,0.698-0.654l0.107-0.046l0.034-0.012l0.081-0.027l0.085-0.022l-0.068,0.005l-0.058,0.004
	l-0.085,0.006l-0.051,0.004c-0.543,0.059-1.027,0.243-1.441,0.472c-0.286,0.158-0.539,0.336-0.753,0.512l-0.175,0.037
	c-0.594,0.127-1.273,0.29-1.986,0.509c-0.264,0.081-0.532,0.169-0.803,0.266c-0.211,0.076-0.423,0.158-0.636,0.245
	c-0.152,0.062-0.305,0.127-0.457,0.195c-1.096,0.489-2.175,1.138-3.082,2.01l-0.099,0.093l-0.231,0.243l-0.094,0.099l-0.111,0.131
	c-0.169,0.197-0.332,0.401-0.482,0.618c-0.112,0.161-0.218,0.328-0.318,0.501l-0.012,0.02c-0.208,0.361-0.389,0.747-0.54,1.161
	c-0.075,0.207-0.143,0.421-0.202,0.642l-0.045,0.177l-0.008,0.031c-0.057,0.24-0.103,0.489-0.14,0.745l-0.022,0.152
	c-0.016,0.128-0.029,0.259-0.039,0.391c-0.01,0.121-0.017,0.244-0.023,0.368l-0.001,0.029l-0.007,0.183l-0.001,0.214l0,0.05
	c0,0.14,0.003,0.281,0.009,0.425l0.002,0.023c0.006,0.143,0.016,0.289,0.029,0.437l0.017,0.185l0.004,0.045l0.011,0.104
	c0.018,0.163,0.04,0.329,0.066,0.497l0.021,0.14c0.024,0.147,0.049,0.296,0.078,0.447c0,0-0.016-0.114-0.015-0.295
	c0-0.055,0.002-0.117,0.005-0.184l0.019-0.21c0.02-0.162,0.055-0.34,0.114-0.524l0.048-0.136l0.024-0.059l0.121-0.253l0.034,0.179
	l0.004,0.019l0,0.027l-0.001,0.119l0,0.305c0.001,0.112,0.003,0.233,0.007,0.36c0.016,0.536,0.063,1.183,0.178,1.734
	c0-0.004,0.022-1.002,0.191-1.116c0,0,0.297,1.856,0.572,2.557l0.105,0.208l-0.007-0.184l-0.039-1.032l0.006-0.106
	c0.206,0.423,0.441,0.857,0.706,1.303c0.074,0.123,0.149,0.248,0.227,0.373c-0.51,0.449-0.982,1.083-1.32,1.842
	c-0.054,0.121-0.105,0.246-0.152,0.373l-0.076,0.221l-0.022,0.071l-0.047,0.158l-0.022,0.082l-0.04,0.161l-0.018,0.076l-0.048,0.234
	l-0.001,0.007l-0.038,0.239l-0.01,0.078l-0.019,0.172l-0.008,0.088l-0.012,0.176l-0.004,0.08l-0.005,0.256l0,0.011l0.004,0.199
	l0.012,0.202l0.002,0.027l0.001,0.017l0.025,0.247l0.011,0.079l0.025,0.17l0.017,0.095l0.031,0.157l0.022,0.101l0.037,0.153
	l0.027,0.103l0.044,0.154l0.031,0.102l0.054,0.16l0.034,0.096l0.069,0.178l0.031,0.08c0.072,0.172,0.152,0.344,0.241,0.517
	l0.041,0.077l0.1,0.182l0.056,0.095l0.1,0.164l0.065,0.102l0.105,0.157l0.073,0.104l0.114,0.156l0.077,0.103l0.128,0.16l0.079,0.098
	l0.15,0.174l0.071,0.082l0.237,0.255l0,0l-0.112-0.189l-0.002-0.004l-0.037-0.073l-0.004-0.007l-0.042-0.087l-0.003-0.005
	l-0.045-0.104c-0.113-0.273-0.224-0.644-0.224-1.06c0-0.028,0-0.056,0.001-0.084l0.142,0.185c0.055,0.112,0.125,0.251,0.207,0.407
	l0.086,0.162c0.12,0.221,0.259,0.468,0.411,0.714c0.182,0.295,0.382,0.59,0.589,0.845c-0.002-0.003-0.241-0.503-0.321-0.831
	l-0.022-0.222l0.058,0.06l0.058,0.06l0.141,0.186l0.027,0.036l0.084,0.111l0.002,0.002l0.108,0.14
	c0.338,0.434,0.787,0.989,1.107,1.294l0.269,0.208l-0.462-0.828c0.355,0.289,1.089,0.606,2.068,0.851
	c0.061,0.015,0.131,0.027,0.193,0.042c0.19,0.044,0.38,0.089,0.586,0.127c0.119,0.022,0.249,0.038,0.372,0.057
	c0.161,0.026,0.317,0.054,0.486,0.075c0.219,0.027,0.451,0.045,0.682,0.063c0.083,0.007,0.161,0.017,0.245,0.023
	c0.184,0.012,0.378,0.013,0.568,0.018c0.14,0.004,0.275,0.013,0.417,0.013c0.276,0,0.558-0.011,0.842-0.026
	c0.042-0.002,0.083-0.001,0.126-0.004c0.295-0.018,0.595-0.049,0.896-0.086c0.033-0.004,0.066-0.005,0.099-0.01
	c0.235-0.031,0.472-0.075,0.709-0.118c0.102-0.018,0.203-0.03,0.305-0.051c0.34-0.069,0.681-0.152,1.021-0.25
	c0.513-0.147,1.026-0.328,1.531-0.548c-0.498,0.203-0.98,0.368-1.447,0.499c-0.011,0.003-0.023,0.006-0.034,0.01
	c-0.01,0.003-0.019,0.005-0.029,0.008c0,0-0.001,0-0.001,0c-0.3,0.082-0.584,0.128-0.871,0.181
	c-0.139,0.026-0.286,0.068-0.423,0.088c-0.427,0.061-0.839,0.091-1.235,0.091c-0.001,0-0.002,0-0.002,0c-0.001,0-0.002,0-0.003,0
	c-0.385,0-0.755-0.028-1.111-0.082c-0.106-0.016-0.202-0.049-0.305-0.07c-0.243-0.048-0.488-0.094-0.717-0.166
	c-0.125-0.039-0.237-0.098-0.357-0.144c-0.193-0.074-0.391-0.142-0.572-0.233c-0.126-0.063-0.239-0.145-0.36-0.216
	c-0.153-0.091-0.314-0.172-0.457-0.275c-0.005-0.003-0.01-0.007-0.015-0.01c-0.008-0.006-0.016-0.012-0.024-0.018l0.011,0.023
	l0.461,0.764c-0.351-0.134-1.453-1.504-1.453-1.504c-0.008,0.015-0.012,0.035-0.012,0.06c0.001,0.212,0.271,0.735,0.271,0.735
	c-0.417-0.464-0.799-1.134-0.991-1.494l-0.13-0.252c-0.005,0.05-0.007,0.1-0.007,0.149c-0.001,0.643,0.365,1.119,0.365,1.119
	c-1.123-1.163-1.387-2.816-1.446-3.367c-0.062-0.331-0.105-0.631-0.13-0.843l-0.089-0.196c-0.129,0.298-0.166,0.596-0.166,0.842
	c0,0.342,0.072,0.584,0.072,0.584c-0.233-0.62-0.365-1.209-0.419-1.766c-0.02-0.203-0.029-0.403-0.029-0.597
	c0-0.125,0.004-0.248,0.012-0.369v0c0.03-0.487,0.119-0.944,0.248-1.37c-0.13,0.426-0.218,0.883-0.248,1.37l-0.011-0.148
	l-0.01-0.218c-0.001-0.053-0.002-0.105-0.002-0.156c0-0.381,0.031-0.677,0.031-0.677h0l-0.001,0.002l-0.092,0.139l-0.022,0.038
	l-0.073,0.148l0,0l-0.003,0.006l-0.042,0.109v0l-0.01,0.028l-0.013,0.04l-0.038,0.131l-0.002,0.009l-0.03,0.131v0.001l-0.004,0.019
	l-0.001,0.009l-0.018,0.11l-0.001,0.009l-0.012,0.096l-0.001,0.008l-0.008,0.087l0,0.007L16.3,29.214l0,0.007l-0.002,0.061l0,0.007
	l-0.001,0.045l0,0.007l0,0.025v0.008l0,0.01c-0.053-0.218-0.075-0.446-0.075-0.673c-0.001-1.052,0.461-2.097,0.461-2.097
	l-0.003,0.003l-0.113,0.104l-0.033,0.033l-0.077,0.082l-0.03,0.034l-0.089,0.11l-0.097,0.136l0,0l-0.011,0.018l-0.041,0.066
	l-0.099,0.173l-0.002,0.004v0l-0.056,0.113l-0.01,0.023l-0.046,0.106l-0.006,0.015l-0.036,0.094l-0.006,0.015l-0.032,0.093
	l-0.006,0.018l-0.026,0.084l0,0l-0.021,0.074l-0.004,0.014l-0.014,0.058l-0.002,0.009l-0.009,0.04l-0.002,0.006l-0.006,0.028
	l-0.001,0.006l-0.002,0.008c-0.006-0.088-0.009-0.174-0.009-0.259c-0.001-0.637,0.163-1.182,0.428-1.645l0.119-0.192l0.132-0.185
	l0.042-0.053l0.106-0.129l0.043-0.049l0.033-0.035l0.299-0.298l0.187-0.159c0.508-0.411,1.081-0.708,1.586-0.917
	c0.189-0.078,0.369-0.144,0.532-0.199c0.145-0.049,0.276-0.089,0.39-0.121l0.201-0.054l0.039-0.026
	c-0.328-0.105-0.644-0.224-0.946-0.357c-0.778-0.362-1.851-1.036-2.504-2.164c-0.171-0.297-0.316-0.623-0.416-0.986v0l-0.035-0.145
	l-0.037-0.152c-0.029-0.142-0.049-0.285-0.064-0.428l-0.011-0.154l-0.004-0.055c-0.006-0.107-0.01-0.214-0.01-0.321
	c0-0.094,0.003-0.189,0.009-0.283l0.021-0.224c0.015-0.138,0.035-0.275,0.062-0.411c0.025-0.131,0.055-0.26,0.09-0.388l0.009-0.037
	l0.108-0.338l0.075-0.197c0.089-0.224,0.192-0.442,0.311-0.653c0.112-0.198,0.237-0.39,0.373-0.573
	c0.409-0.549,0.924-1.02,1.523-1.365l0.228-0.093l0.071-0.025l0.156-0.052l0.082-0.024l0.144-0.038l0.084-0.019l0.145-0.029
	l0.077-0.013l0.021-0.003l0.141-0.019l0.057-0.007l0.217-0.016l0.045-0.001l0.169-0.004l0.038,0.001l0.041,0.001l0.135,0.004
	l0.085,0.005l0.089,0.006l0.039,0.003l0.086,0.008l0.129,0.015l0.005,0.001l0.075,0.009l0.148,0.022l0.059,0.009l0.199,0.035
	l0.085,0.017l0.011,0.002l0.016,0.003l0.093,0.018l0.097,0.021l0.062,0.013l-0.001,0l0.086,0.02
	c0.146,0.033,0.292,0.067,0.436,0.102l0.269,0.065c0.213,0.051,0.425,0.1,0.635,0.141l0.086,0.015l0.242,0.041
	c0.233,0.035,0.465,0.054,0.696,0.054c0.002,0,0.004,0,0.005,0c0.006,0,0.013,0,0.019,0c0.147-0.001,0.293-0.007,0.44-0.027
	l0.257-0.051l0.021-0.005l0.237-0.076l0.031-0.012l0.223-0.096l0.036-0.017l0.214-0.112l0.037-0.02l0.208-0.124l0.035-0.022
	l0.205-0.134l0.032-0.022l0.2-0.137l0.234-0.162h0l0.007-0.004l0.001-0.001l0.124-0.085l0.022-0.015l0.109-0.073l0.036-0.023
	l0.097-0.062l0.042-0.026l0.093-0.055l0.043-0.025l0.094-0.051l0.04-0.021l0.104-0.05l0.03-0.014l0.269-0.102l0.03-0.008
	l0.103-0.026l0.045-0.008l0.052-0.008l0.037-0.005l0.051-0.005l0.084-0.004l0.055,0l0.082,0.005L28.2,13.24l0.082,0.015l0.056,0.012
	l0.085,0.026l0.054,0.019l0.094,0.041l0.047,0.021l0.143,0.08l0.124,0.122l0,0v0l-0.001-0.006l-0.001-0.007l-0.002-0.01
	l-0.003-0.014l-0.002-0.014l-0.004-0.022l-0.002-0.013l-0.006-0.031l-0.002-0.011l-0.051-0.227l-0.001-0.007l-0.018-0.069
	l-0.002-0.009l-0.021-0.076l-0.001-0.002l-0.059-0.195L28.686,12.794z"/>
<polygon fill="#D0D1D1" points="16.116,35.27 16.115,35.269 16.116,35.27 "/>
<path fill="#D0D1D1" d="M9.818,20.102L9.815,20.1c-0.01-0.007-0.092-0.063-0.227-0.145c-0.154-0.093-0.377-0.218-0.648-0.344
	l-0.274-0.12c-0.115-0.047-0.236-0.093-0.361-0.135l-0.099-0.03l-0.323-0.089l-0.006-0.001l-0.229-0.052l-0.184-0.031l-0.09-0.009
	l-0.089-0.009l-0.251-0.013L6.911,19.12c-0.183,0.004-0.362,0.02-0.538,0.045L6.341,19.17c-0.317,0.048-0.624,0.128-0.915,0.237
	l-0.292,0.121l-0.081,0.039l-0.099,0.048c-0.289,0.149-0.559,0.329-0.807,0.534l-0.009,0.008c-0.214,0.177-0.411,0.374-0.588,0.588
	l-0.147,0.187l-0.162,0.231c-0.097,0.148-0.186,0.303-0.265,0.463l-0.081,0.17L2.881,21.83c-0.164,0.375-0.278,0.776-0.335,1.194
	l-0.027,0.248l-0.002,0.031l-0.01,0.199L2.505,23.75l0.002,0.039l0.009,0.192l0.004,0.033l0.004,0.044l0.015,0.149l0.002,0.011
	l0,0.003l0,0l0.011,0.075l0.02,0.134l0.019,0.096l0.025,0.124l0.025,0.1l0.006,0.023l0.009,0.034l0.007,0.026l0.008,0.032
	l0.031,0.102l0.034,0.108l0.037,0.104l0.01,0.028l0.027,0.075l0.043,0.105l0.04,0.096l0.025,0.053l0.025,0.053l0.043,0.09
	l0.056,0.107l0.045,0.083l0.064,0.109l0.046,0.076l0.071,0.108l0.047,0.07l0.079,0.109l0.047,0.064l0.087,0.109l0.047,0.057
	l0.095,0.108l0.046,0.05l0.103,0.107l0.045,0.045l0.112,0.106l0.043,0.039l0.121,0.104l0.04,0.033l0.13,0.102l0.037,0.028
	l0.138,0.098l0.035,0.024l0.147,0.094L4.7,27.53l0.156,0.09l0.027,0.015l0.165,0.085l0.024,0.011l0.174,0.079l0.021,0.009
	l0.181,0.072l0.017,0.006l0.19,0.065l0.013,0.004l0.094,0.027l0.103,0.03l0.01,0.003l0.205,0.049l0.006,0.002l0.001,0l0.21,0.039
	L6.3,28.118c0.217,0.035,0.439,0.055,0.666,0.057l0.162,0.001l0.221-0.013l0.309-0.036l0.274-0.049
	c0.142-0.029,0.282-0.064,0.418-0.103c0.406-0.118,0.764-0.275,0.979-0.435c0,0-0.141-0.625-0.26-1.259L9.03,26.073L9.02,26.015
	l-0.085,0.038l-0.022,0.01l-0.315,0.12l-0.104,0.033L8.474,26.22l-0.263,0.052l-0.107,0.009l-0.187,0.015L7.715,26.29l-0.134-0.011
	c-0.197-0.021-0.386-0.068-0.568-0.132c-0.189-0.066-0.368-0.153-0.533-0.26c-0.292-0.188-0.542-0.435-0.736-0.722
	c-0.092-0.136-0.173-0.281-0.238-0.436l-0.092-0.258l-0.078-0.358l-0.014-0.101l-0.002-0.029l0-0.004l-0.013-0.185l0.006-0.239
	l0.007-0.061l0.008-0.08l0.001-0.007l0.01-0.075l0.03-0.149l0.001-0.003l0.006-0.032l0.006-0.025l0.057-0.199l0,0v0l0,0l0.028-0.076
	l0.078-0.188l0.026-0.055c0.062-0.126,0.133-0.246,0.214-0.36l0-0.001l0,0l0.005-0.007l0.005-0.007l0.041-0.053l0.002-0.003
	l0.003-0.004l0.061-0.078l0.02-0.023l0.127-0.134l0.076-0.074l0.155-0.135l0.06-0.047l0.102-0.07l0.087-0.056l0.096-0.056
	l0.031-0.016l0.089-0.046l0.076-0.037l0.201-0.079l0.07-0.021l0.154-0.043l0.08-0.018l0.045-0.008l0.115-0.02l0.073-0.01
	l0.237-0.017l0.159,0.002l0.188,0.015l0.316,0.058l0.026,0.006c0.161,0.042,0.316,0.098,0.464,0.169l0.024,0.012l0.013,0.006
	l0.068,0.034l0-0.001l0.269-0.484l0.033-0.061l0.005-0.01L9.376,20.9l0.088-0.16l0.123-0.222c0.079-0.142,0.147-0.263,0.188-0.336
	l0.042-0.075l0.002-0.004L9.818,20.102L9.818,20.102z"/>
<polygon fill="#D0D1D1" points="27.519,11.069 27.52,11.069 27.518,11.068 "/>
<path fill="#D0D1D1" d="M1.182,18.088c0.075,0.189,0.172,0.352,0.299,0.491l1.274,1.335l0.137,0.143l0.009-0.01l0.119-0.134
	l0.011-0.012l0.045-0.046l0.116-0.119l0.074-0.071l0.072-0.069l0.034-0.03l0.08-0.07l0.113-0.096l0.068-0.055l0.01-0.008
	l0.122-0.093l0.078-0.057l0.129-0.09l0.079-0.052l0.136-0.085l0.079-0.048l0.145-0.081l0.077-0.042l0.029-0.016l0.002-0.005
	c0.305-0.844,0.762-1.761,1.354-2.716c0.728-1.173,1.657-2.404,2.761-3.629c0.694-0.771,1.456-1.54,2.279-2.291
	c1.065-0.97,2.15-1.836,3.221-2.587c0.721-0.505,1.435-0.955,2.131-1.35l0.198-0.112c0.186-0.103,0.369-0.2,0.552-0.294
	c0.398-0.206,0.789-0.392,1.17-0.557l-0.187-0.224l-0.031-0.037l-0.23-0.276L16.42,3.112l0.444,2
	c-1.009,0.511-2.056,1.141-3.117,1.884c-1.095,0.768-2.202,1.651-3.288,2.641c-0.812,0.741-1.566,1.499-2.256,2.261L5.646,8.766
	C5.034,9.432,4.474,10.1,3.972,10.759c-1.02,1.338-1.801,2.64-2.3,3.8c-0.333,0.774-0.539,1.484-0.615,2.093
	c-0.023,0.18-0.034,0.35-0.034,0.511c0,0.235,0.023,0.448,0.067,0.638L1.182,18.088z"/>
<polygon fill="#F7F8F8" points="29.492,14.719 29.492,14.719 29.492,14.719 "/>
<polygon fill="#F7F8F8" points="33.28,23.285 33.166,23.211 33.05,23.141 33.249,23.266 "/>
<polygon fill="#F7F8F8" points="26.443,21.094 26.439,21.092 26.446,21.097 "/>
<path fill="#F7F8F8" d="M28.038,21.109c0,0.068,0.014,0.127,0.036,0.177c-0.001-0.002,0-0.005-0.001-0.007
	c-0.018-0.047-0.029-0.103-0.029-0.166l0.029-0.198c0.002-0.007,0.004-0.014,0.007-0.021c0.001-0.003,0.002-0.006,0.003-0.009
	c0.001-0.003,0.002-0.005,0.003-0.008c-0.005,0.013-0.014,0.02-0.018,0.034L28.038,21.109z"/>
<path fill="#F7F8F8" d="M29.629,20.96c-0.152,0.011-0.302,0.022-0.451,0.035l-0.052,0.004l-0.019,0.002l-0.092,0.008l-0.357,0.032
	c0.001-0.031,0.002-0.064,0.002-0.098c0-0.357-0.066-0.818-0.341-1.159l-0.071-0.086c-0.214-0.216-0.533-0.365-1.003-0.376
	l-0.033-0.292c-0.003-0.057-0.005-0.113-0.005-0.168c0-0.617,0.202-1.105,0.481-1.122l0.164,0.044l-0.17-0.048
	c-0.279,0.017-0.482,0.505-0.482,1.122c0,0.055,0.002,0.111,0.005,0.168l0.033,0.292l-0.091,0.002
	c-0.121,0.001-0.248,0.009-0.389,0.029c-1.312,0.176-2.078,1.788-2.337,2.438l-0.099,0.028l-0.198,0.056l-0.152,0.045l-0.179,0.055
	l-0.16,0.051l-0.16,0.052l-0.164,0.056l-0.145,0.05l-0.167,0.061l-0.13,0.049l-0.17,0.065L22.583,22.4l-0.171,0.07l-0.104,0.044
	l-0.172,0.075l-0.093,0.041l-0.172,0.08l-0.083,0.039l-0.171,0.084l-0.073,0.037l-0.168,0.087l-0.067,0.036l-0.165,0.09
	l-0.059,0.033l-0.162,0.093l-0.055,0.033l-0.157,0.096l-0.051,0.032l-0.15,0.097l-0.049,0.032l-0.143,0.097l-0.047,0.033
	l-0.136,0.097l-0.046,0.034l-0.127,0.096l-0.021,0.016l-0.002,0.001l0,0l-0.008-0.014l-0.039,0.026
	c-0.097,0.065-0.373,0.262-0.728,0.58c-0.118,0.106-0.245,0.225-0.377,0.358l-0.064,0.063l-0.167,0.176l-0.231,0.262l-0.003,0.004
	l-0.184,0.226l-0.028,0.035l-0.175,0.234l-0.033,0.046l-0.035,0.052l-0.136,0.199l-0.026,0.04c-0.117,0.182-0.229,0.374-0.334,0.576
	l-0.023,0.044l-0.142,0.297l-0.026,0.057l-0.128,0.313l-0.018,0.049l-0.117,0.345c-0.13,0.427-0.218,0.883-0.248,1.37v0
	c-0.008,0.121-0.012,0.244-0.012,0.369c0,0.195,0.009,0.394,0.029,0.597c0.054,0.557,0.187,1.146,0.419,1.766
	c0,0-0.072-0.241-0.072-0.584c0-0.246,0.038-0.544,0.166-0.842l0.089,0.196c0.025,0.212,0.068,0.512,0.13,0.843
	c0.06,0.551,0.323,2.204,1.446,3.367c0,0-0.367-0.476-0.365-1.119c0-0.049,0.002-0.098,0.007-0.149l0.13,0.252
	c0.192,0.36,0.574,1.029,0.991,1.494c0,0-0.271-0.524-0.271-0.735c0-0.025,0.004-0.046,0.012-0.06c0,0,1.102,1.371,1.453,1.504
	l-0.461-0.764l-0.011-0.023c0.156,0.113,0.329,0.204,0.496,0.303c0.121,0.071,0.234,0.153,0.36,0.216
	c0.182,0.091,0.379,0.159,0.572,0.233c0.12,0.046,0.233,0.104,0.357,0.144c0.229,0.072,0.474,0.118,0.717,0.166
	c0.104,0.021,0.199,0.054,0.305,0.07c0.356,0.053,0.727,0.082,1.113,0.082c0.397,0,0.81-0.03,1.237-0.091
	c0.136-0.019,0.283-0.062,0.423-0.088c0.308-0.057,0.613-0.109,0.936-0.199c0.467-0.13,0.95-0.296,1.447-0.499
	c0.305-0.132,0.608-0.277,0.907-0.438l0.043-0.06c0.132-0.183,0.25-0.391,0.349-0.628l0.001-0.001l0.006-0.016
	c0.079-0.191,0.144-0.401,0.192-0.631c0.043-0.208,0.073-0.431,0.086-0.674c0,0-0.271,0.068-0.666,0.107
	c-0.018,0.002-0.035,0.003-0.053,0.005c0,0,0,0,0,0c-0.006,0.001-0.012,0.001-0.018,0.002c-0.142,0.013-0.297,0.021-0.461,0.021
	c0,0-0.001,0-0.001,0c-0.002,0-0.004,0-0.006,0c-0.122,0-0.247-0.005-0.375-0.016c-0.015-0.001-0.031-0.005-0.046-0.006
	c-0.114-0.011-0.229-0.025-0.344-0.048c-0.043-0.008-0.085-0.023-0.128-0.034c-0.087-0.021-0.174-0.04-0.259-0.069
	c-0.048-0.016-0.092-0.041-0.139-0.06c-0.074-0.03-0.149-0.057-0.22-0.095c-0.007-0.004-0.013-0.007-0.02-0.011
	c0,0,0.852-0.001,2.06-0.295c0.547-0.133,1.169-0.329,1.816-0.612c0.291-0.127,0.587-0.269,0.885-0.433
	c0.596-0.329,1.198-0.74,1.772-1.251l0.119-0.105l0.007-0.017c0.137-0.128,0.243-0.249,0.329-0.365l0.037-0.049
	c0.19-0.274,0.252-0.516,0.255-0.733l0.001,0c0,0,0.004-0.027,0.004-0.071c0-0.087-0.014-0.241-0.099-0.384l-0.003-0.006
	l-0.023-0.036l-0.008-0.012l-0.048-0.055l-0.111-0.091l-0.073-0.041l-0.261-0.076l-0.254-0.011l-0.116,0.006l-0.018,0.001
	l0.007,0.025l0.018,0.068l0.009,0.037l0.045,0.197L33.507,28.7l0.001-0.001l-0.017,0.044l-0.007,0.015
	c-0.047,0.109-0.174,0.359-0.457,0.686l-0.159,0.173c-0.789,0.816-2.499,1.978-6.094,2.628c-0.028,0.004-0.056,0.008-0.084,0.012
	c-0.008,0.001-0.016,0.002-0.024,0.003c-0.01,0.001-0.019,0.003-0.029,0.004c-0.197,0.026-0.386,0.04-0.578,0.058
	c-0.106,0.01-0.216,0.025-0.321,0.032c-0.315,0.022-0.622,0.034-0.919,0.034h0c-0.001,0-0.002,0-0.002,0
	c-0.13,0-0.241-0.017-0.367-0.021c-0.307-0.01-0.617-0.017-0.898-0.05c-0.012-0.001-0.023-0.003-0.035-0.004
	c-0.005-0.001-0.01,0-0.015-0.001c-0.011-0.001-0.023-0.003-0.034-0.004c-1.421-0.177-2.485-0.631-2.98-1.241l-0.12-0.161
	l-0.079-0.122l-0.025-0.046c-0.107-0.188-0.183-0.385-0.232-0.585l-0.025-0.223c-0.008-0.051-0.016-0.103-0.024-0.154
	c-0.01-0.07-0.019-0.14-0.019-0.21c0-0.004,0-0.008,0-0.012l0,0l0,0c0.007-0.482,0.157-0.944,0.412-1.298
	c0.207-0.288,0.481-0.505,0.803-0.605c0.129-0.04,0.266-0.062,0.408-0.062c0.031,0,0.063,0.001,0.095,0.003l0.142,0.015
	c0.118,0.015,0.283,0.038,0.485,0.064c0.404-0.065,0.924-0.156,1.518-0.279c1.527-0.314,3.546-0.833,5.353-1.634
	c1.087-0.482,2.095-1.067,2.874-1.769l0.25-0.234c0.225-0.226,0.427-0.464,0.6-0.714l-0.059-0.089
	c-0.733-1.11-1.742-1.754-2.145-2.049c-0.365,0.016-0.72,0.036-1.065,0.06L29.629,20.96z M28.492,21.064L28.492,21.064l-0.013,0.055
	c-0.001,0.003-0.002,0.005-0.002,0.007c0,0,0,0.001,0,0.001c0,0.002-0.001,0.003-0.001,0.005c-0.003,0.009-0.006,0.018-0.009,0.027
	c-0.02,0.054-0.049,0.092-0.078,0.131c-0.009,0.012-0.015,0.03-0.024,0.041c-0.042,0.045-0.089,0.074-0.135,0.077
	c-0.003,0-0.006,0-0.009,0c0,0,0,0-0.001,0c-0.017,0-0.035-0.004-0.051-0.011c0,0-0.001,0-0.001-0.001
	c-0.001-0.001-0.003-0.001-0.004-0.002c-0.002-0.001-0.004-0.002-0.006-0.003l-0.054,0.072c-0.007,0.009-0.015,0.019-0.022,0.028
	c-0.029,0.035-0.063,0.058-0.096,0.087c-0.023,0.02-0.045,0.045-0.069,0.063c-0.042,0.029-0.087,0.05-0.132,0.071
	c-0.022,0.01-0.043,0.025-0.066,0.034c-0.059,0.022-0.119,0.036-0.179,0.047c-0.01,0.002-0.021,0.006-0.031,0.008
	c-0.07,0.011-0.139,0.016-0.207,0.016c-0.002,0-0.004,0-0.007,0c-0.001,0-0.001,0-0.002,0c-0.108,0-0.209-0.012-0.299-0.027
	c-0.037-0.006-0.061-0.013-0.093-0.02c-0.039-0.009-0.084-0.017-0.114-0.025c-0.002-0.001-0.004-0.001-0.006-0.002c0,0,0,0,0,0
	c-0.004-0.001-0.009-0.002-0.013-0.004c-0.003-0.001-0.006-0.002-0.009-0.003l-0.088-0.029l-0.001,0.002
	c-0.001,0.001-0.002,0.002-0.003,0.003c-0.002,0.002-0.004,0.003-0.006,0.005c-0.051,0.042-0.121,0.063-0.2,0.063
	c-0.001,0-0.001,0-0.002,0c-0.002,0-0.003,0-0.005,0c-0.09-0.001-0.192-0.029-0.291-0.083c-0.003-0.001-0.005-0.003-0.008-0.004
	c0,0,0,0,0,0c-0.003-0.002-0.007-0.004-0.01-0.006c-0.004-0.003-0.009-0.005-0.013-0.008c-0.003-0.002-0.006-0.004-0.009-0.005
	l-0.222-0.222v0l-0.038-0.334l0.049-0.057c0.003-0.002,0.006-0.005,0.009-0.007c0.001-0.001,0.002-0.002,0.003-0.003
	c-0.005,0.003-0.013,0.002-0.018,0.006l-0.025-0.021l0.023-0.085c0.079-0.253,0.388-0.994,1.307-1.083
	c0.006-0.001,0.013-0.001,0.019-0.002c0.005,0,0.009-0.001,0.013-0.001c0.051-0.004,0.1-0.006,0.147-0.006c0,0,0,0,0.001,0
	c0.001,0,0.001,0,0.002,0c0.12,0,0.207,0.028,0.299,0.05c0.045,0.011,0.105,0.009,0.144,0.024c0.103,0.039,0.178,0.095,0.246,0.153
	c0.012,0.01,0.031,0.016,0.042,0.026c0.069,0.066,0.117,0.137,0.154,0.206c0.003,0.005,0.008,0.01,0.011,0.014
	c0.038,0.073,0.061,0.142,0.076,0.196c0.001,0.003,0.001,0.005,0.002,0.008c0,0.002,0.001,0.004,0.002,0.006l0.018,0.099
	c-0.018-0.009-0.038-0.014-0.057-0.014c-0.049,0-0.099,0.029-0.145,0.077c-0.009,0.01-0.015,0.029-0.024,0.041
	c-0.024,0.033-0.045,0.073-0.063,0.117c0.056-0.138,0.148-0.23,0.234-0.232c0.001,0,0.002,0,0.002,0c0,0,0,0,0.001,0
	c0.019,0,0.038,0.005,0.057,0.014c0.076,0.038,0.118,0.149,0.118,0.28C28.507,20.967,28.502,21.015,28.492,21.064z"/>
<path fill="#F7F8F8" d="M26.113,20.991c0.003,0,0.005,0,0.008,0c-0.004,0-0.009-0.004-0.013-0.004c-0.073,0-0.134,0.024-0.184,0.059
	c0.05-0.035,0.114-0.054,0.187-0.055C26.112,20.991,26.112,20.991,26.113,20.991z"/>
<path fill="#F7F8F8" d="M28.096,21.314c-0.004-0.007-0.011-0.01-0.015-0.018c0.016,0.032,0.032,0.065,0.057,0.082
	C28.12,21.364,28.109,21.337,28.096,21.314z"/>
<path fill="#F7F8F8" d="M16.124,19.522l0.032-0.181l0.012-0.064l0.069-0.296l0.082-0.284l0.027-0.089l0.011-0.036
	c0.07-0.203,0.151-0.404,0.244-0.602l0.006-0.012l0.092-0.181c0.087-0.168,0.183-0.333,0.287-0.496l0.032-0.05
	c0.196-0.298,0.42-0.585,0.673-0.854c0.165-0.175,0.341-0.344,0.529-0.503c0.465-0.393,0.965-0.702,1.48-0.93l0.221-0.092
	l0.166-0.063l0.059-0.02c0.356-0.123,0.715-0.208,1.073-0.255l0.027-0.003c0.123-0.015,0.246-0.027,0.368-0.034l0.001,0
	l-0.062-0.013l-0.097-0.021l-0.093-0.018l-0.016-0.003l-0.011-0.002l-0.085-0.017l-0.199-0.035l-0.059-0.009l-0.148-0.022
	l-0.075-0.009l-0.005-0.001l-0.129-0.015l-0.086-0.008l-0.039-0.003l-0.089-0.006l-0.085-0.005l-0.135-0.004l-0.041-0.001
	l-0.038-0.001l-0.169,0.004l-0.045,0.001l-0.217,0.016l-0.057,0.007l-0.141,0.019l-0.021,0.003l-0.077,0.013l-0.145,0.029
	l-0.084,0.019l-0.144,0.038l-0.082,0.024l-0.156,0.052l-0.071,0.025l-0.228,0.093c-0.599,0.345-1.114,0.816-1.523,1.365
	c-0.136,0.183-0.261,0.375-0.373,0.573c-0.119,0.21-0.222,0.429-0.311,0.653l-0.075,0.197l-0.108,0.338l-0.009,0.037
	c-0.035,0.128-0.065,0.258-0.09,0.388c-0.026,0.136-0.047,0.274-0.062,0.411l-0.021,0.224c-0.006,0.094-0.009,0.188-0.009,0.283
	c0,0.107,0.003,0.214,0.01,0.321l0.004,0.055l0.011,0.154c0.015,0.143,0.035,0.286,0.064,0.428l0.037,0.152l0.035,0.145v0
	l0.003-0.166C16.072,19.965,16.09,19.744,16.124,19.522z"/>
<path fill="#F7F8F8" d="M28.761,13.452l-0.143-0.08l-0.047-0.021l-0.094-0.041l-0.054-0.019l-0.085-0.026l-0.056-0.012L28.2,13.24
	l-0.056-0.006l-0.082-0.005l-0.055,0l-0.084,0.004l-0.051,0.005l-0.037,0.005l-0.052,0.008l-0.045,0.008l-0.103,0.026l-0.03,0.008
	l-0.269,0.102l-0.03,0.014l-0.104,0.05l-0.04,0.021L27.07,13.53l-0.043,0.025l-0.093,0.055l-0.042,0.026l-0.097,0.062l-0.036,0.023
	l-0.109,0.073l-0.022,0.015l-0.124,0.085l-0.001,0.001L26.497,13.9h0c0.231-0.07,0.459-0.118,0.681-0.144l0.254-0.02
	c0.016-0.001,0.031-0.001,0.047-0.001c0.023-0.001,0.047-0.001,0.07-0.001c0.001,0,0.001,0,0.002,0c0.001,0,0.003,0,0.004,0
	c0.126,0,0.25,0.008,0.371,0.025c0.011,0.001,0.022,0.003,0.033,0.005c0.307,0.046,0.595,0.144,0.853,0.301l0.084,0.054l0.077,0.055
	l0.009,0.006l0.026,0.019l0.007,0.005l0.034,0.025c0.173,0.14,0.321,0.306,0.445,0.49l-0.038-0.134l-0.014-0.048l-0.015-0.043
	l-0.005-0.015l-0.015-0.042l-0.001-0.003l-0.037-0.1l-0.004-0.011l-0.013-0.031l-0.015-0.038l-0.003-0.007v0v-0.001l-0.083-0.176
	l-0.023-0.041l-0.101-0.155l-0.014-0.021l-0.017-0.023l-0.075-0.098l-0.034-0.043l-0.1-0.114l0,0L28.761,13.452z"/>
<polygon fill="#F7F8F8" points="5.837,22.178 5.796,22.23 5.791,22.237 5.796,22.23 "/>
<path fill="#F7F8F8" d="M8.431,25.62l-0.057-0.067l-0.036-0.045l-0.057-0.075L8.264,25.41l-0.069-0.099L8.111,25.18l-0.07-0.118
	l-0.127-0.241l-0.103-0.227l-0.052-0.131L7.751,24.44l-0.005-0.013l-0.003-0.008l-0.041-0.115l-0.051-0.16l-0.023,0.253
	l-0.001,0.015l-0.001,0.021l-0.004,0.101l-0.001,0.035l0.001,0.196l0.016,0.21l0.044,0.319l0.019,0.089l0.006,0.03l-0.017-0.02
	l-0.033-0.039l-0.037-0.046l-0.067-0.088l-0.016-0.022c-0.143-0.199-0.352-0.535-0.52-0.991l-0.003-0.01
	c-0.047-0.127-0.091-0.262-0.129-0.407l-0.013,0.259l0.004,0.208c0.008,0.207,0.033,0.419,0.083,0.633l-0.03-0.034l-0.035-0.042
	c-0.068-0.084-0.183-0.237-0.309-0.453c-0.105-0.18-0.217-0.404-0.315-0.67l-0.003-0.008l-0.008-0.022l-0.065-0.194l-0.04-0.135h0
	c-0.007,0.09-0.01,0.182-0.01,0.276c0,0.031,0,0.062,0.001,0.093l0,0.023l0,0.012c0.005,0.195,0.027,0.394,0.068,0.596l0.016,0.084
	l-0.028-0.031L6.18,24.362L6.153,24.33l-0.182-0.249l-0.145-0.237l-0.009-0.016L5.81,23.815L5.78,23.76
	c-0.067-0.125-0.134-0.266-0.198-0.424l-0.061-0.16l-0.007-0.019l-0.007-0.018l-0.054-0.166l-0.016-0.048l0,0l-0.057,0.199
	L5.375,23.15l-0.006,0.032l-0.001,0.003l-0.03,0.149l-0.01,0.075l-0.001,0.007l-0.008,0.08l-0.007,0.061l-0.006,0.239l0.013,0.185
	l0,0.004l0.002,0.029l0.014,0.101l0.078,0.358l0.092,0.258c0.065,0.154,0.146,0.299,0.238,0.436
	c0.194,0.288,0.444,0.534,0.736,0.722c0.166,0.107,0.344,0.193,0.533,0.26c0.181,0.064,0.37,0.111,0.568,0.132l0.134,0.011
	l0.203,0.006l0.187-0.015l0.107-0.009l0.263-0.052l0.019-0.004l0.104-0.033l0.315-0.12l0.022-0.01l0.085-0.038l0.003-0.001
	c-0.05-0.274-0.087-0.555-0.114-0.842l-0.007-0.061l-0.154,0.163l-0.06,0.104c-0.144,0.27-0.273,0.644-0.273,0.644
	c0.01-0.125,0.024-0.255,0.039-0.385l-0.018-0.012L8.431,25.62z"/>
<path fill="#F7F8F8" d="M5.571,22.606c0.062-0.126,0.133-0.246,0.214-0.36C5.704,22.359,5.633,22.48,5.571,22.606L5.546,22.66
	l-0.078,0.188l0.079-0.188L5.571,22.606z"/>
<polygon fill="#F7F8F8" points="6.821,21.397 6.745,21.434 6.656,21.48 6.745,21.434 "/>
<polygon fill="#C8C7C7" points="2.542,26.782 2.542,26.78 2.54,26.778 "/>
<path fill="#F2F2F2" d="M29.014,14.203l-0.007-0.005l-0.026-0.019l-0.009-0.006l-0.077-0.055l-0.084-0.054
	c-0.258-0.157-0.545-0.255-0.853-0.301c-0.011-0.002-0.022-0.003-0.033-0.005c-0.122-0.016-0.247-0.025-0.375-0.025
	c-0.001,0-0.001,0-0.002,0c-0.023,0-0.047,0-0.07,0.001c-0.016,0-0.031,0.001-0.047,0.001l-0.254,0.02
	c-0.222,0.026-0.45,0.074-0.681,0.144l-0.234,0.162l-0.2,0.137l-0.032,0.022l-0.205,0.134l-0.035,0.022l-0.208,0.124l-0.037,0.02
	l-0.214,0.112l-0.036,0.017l-0.223,0.096l-0.031,0.012l-0.237,0.076l-0.021,0.005l-0.257,0.051c-0.146,0.02-0.293,0.026-0.44,0.027
	c-0.006,0-0.013,0-0.019,0c-0.002,0-0.004,0-0.005,0c-0.231,0-0.463-0.02-0.696-0.054l-0.242-0.041l-0.086-0.015
	c-0.21-0.041-0.422-0.09-0.635-0.141L22.137,14.6c-0.144-0.035-0.29-0.069-0.436-0.102l-0.086-0.02
	c-0.122,0.007-0.245,0.019-0.368,0.034l-0.027,0.003c-0.358,0.047-0.717,0.132-1.073,0.255l-0.059,0.02l-0.166,0.063L19.7,14.946
	c-0.515,0.227-1.015,0.537-1.48,0.93c-0.188,0.159-0.365,0.328-0.529,0.503c-0.253,0.269-0.477,0.556-0.673,0.854l-0.032,0.05
	c-0.105,0.162-0.2,0.327-0.287,0.496l-0.092,0.181l-0.006,0.012c-0.093,0.198-0.174,0.399-0.244,0.602l-0.011,0.036l-0.027,0.089
	l-0.082,0.284l-0.069,0.296l-0.012,0.064l-0.032,0.181c-0.034,0.222-0.052,0.443-0.057,0.663l-0.003,0.166
	c0.1,0.362,0.245,0.689,0.416,0.986c0.653,1.128,1.726,1.802,2.504,2.164c0.302,0.133,0.618,0.253,0.946,0.357l0.008,0.014l0,0
	l0.002-0.001l0.021-0.016l0.127-0.096l0.046-0.034l0.136-0.097l0.047-0.033l0.143-0.097l0.049-0.032l0.15-0.097l0.051-0.032
	l0.157-0.096l0.055-0.033l0.162-0.093l0.059-0.033l0.165-0.09l0.067-0.036l0.168-0.087l0.073-0.037l0.171-0.084l0.083-0.039
	l0.172-0.08l0.093-0.041l0.172-0.075l0.104-0.044l0.171-0.07l0.117-0.046l0.17-0.065l0.13-0.049l0.167-0.061l0.145-0.05l0.164-0.056
	l0.16-0.052l0.16-0.051l0.179-0.055l0.152-0.045l0.198-0.056l0.099-0.028c0.258-0.65,1.024-2.261,2.337-2.438
	c0.141-0.02,0.269-0.028,0.389-0.029l0.091-0.002l-0.033-0.292c-0.003-0.057-0.005-0.113-0.005-0.168
	c0-0.617,0.202-1.105,0.482-1.122l0.17,0.048c0.155,0.094,0.267,0.311,0.291,0.401c0.089,0.211,0.152,0.481,0.17,0.78
	c0.003,0.056,0.005,0.11,0.005,0.164c0,0.21-0.025,0.405-0.066,0.572l-0.005-0.003l0.071,0.086c0.275,0.341,0.341,0.803,0.341,1.159
	c0,0.034-0.001,0.066-0.002,0.098l0.357-0.032l0.092-0.008l0.019-0.002l0.052-0.004c0.148-0.012,0.299-0.024,0.451-0.035l0.007,0
	c0.345-0.024,0.699-0.044,1.065-0.06c-0.19-0.14-0.311-0.203-0.311-0.203c-0.73-0.445-0.939-0.641-0.939-1.541
	c0-0.174,0.008-0.375,0.021-0.608c0.029-0.519,0.085-1.202,0.143-2.128l0.013-0.347l0.001-0.079l-0.004-0.31l-0.001-0.029
	l-0.003-0.031l-0.016-0.228l-0.01-0.097l-0.031-0.23l-0.021-0.111l-0.025-0.122l-0.027-0.116l0,0l0,0l0,0l0,0
	c-0.124-0.185-0.272-0.35-0.445-0.49L29.014,14.203z M21.229,16.431c-0.449,0.162-1.028,0.471-1.596,1.055
	c-0.292,0.3-0.581,0.674-0.847,1.138c-0.107,0.187-0.211,0.387-0.311,0.605c0,0-0.014-0.114-0.014-0.3c0-0.034,0-0.071,0.002-0.11
	c0.006-0.182,0.026-0.413,0.079-0.663l0.057-0.227l0.023-0.078c0.093-0.297,0.24-0.605,0.465-0.883
	c0.278-0.344,0.676-0.641,1.248-0.815l0.225-0.06c0,0,0.229-0.045,0.534-0.045c0.001,0,0.002,0,0.002,0c0,0,0.001,0,0.001,0
	c0.078,0,0.162,0.003,0.247,0.01l0.092,0.009l0.248,0.045c0.125,0.031,0.249,0.075,0.362,0.137
	C22.046,16.25,21.714,16.255,21.229,16.431z M23.218,21.445c-0.382,0.086-0.739,0.18-1.068,0.282
	c-0.171-0.286-0.304-0.696-0.359-1.16c-0.018-0.151-0.026-0.299-0.026-0.44c0-0.72,0.222-1.278,0.56-1.32
	c0.002,0,0.003,0,0.005-0.001c0.012-0.001,0.023-0.002,0.035-0.002c0,0,0,0,0,0c0.001,0,0.002,0,0.002,0
	c0.026,0,0.051,0.011,0.077,0.017c0.023,0.005,0.046,0.005,0.068,0.015c0.027,0.012,0.054,0.033,0.081,0.051
	c0.021,0.014,0.042,0.022,0.062,0.039c0.027,0.023,0.052,0.054,0.078,0.083c0.019,0.021,0.039,0.037,0.058,0.061
	c0.023,0.03,0.045,0.067,0.067,0.102c0.02,0.03,0.04,0.056,0.059,0.09c0.017,0.03,0.032,0.066,0.048,0.099
	c0.022,0.044,0.045,0.086,0.065,0.134c0.008,0.02,0.015,0.043,0.022,0.063c0.026,0.066,0.051,0.133,0.073,0.206
	c0.013,0.043,0.023,0.09,0.034,0.135c0.014,0.054,0.03,0.107,0.041,0.163c0.021,0.104,0.039,0.212,0.052,0.323
	c0.018,0.151,0.027,0.297,0.027,0.438C23.281,21.051,23.259,21.261,23.218,21.445z M28.928,15.971l-0.249-0.204
	c-0.106-0.076-0.212-0.137-0.316-0.187c-0.042-0.02-0.082-0.031-0.123-0.048c-0.061-0.024-0.122-0.053-0.181-0.07
	c-0.042-0.012-0.08-0.017-0.121-0.026c-0.055-0.012-0.111-0.028-0.164-0.035c-0.041-0.005-0.076-0.005-0.115-0.008
	c-0.048-0.004-0.099-0.01-0.143-0.01c-0.091,0-0.173,0.006-0.247,0.016c-0.031,0.004-0.054,0.01-0.082,0.015
	c-0.037,0.007-0.079,0.013-0.109,0.02c-0.028,0.007-0.045,0.013-0.066,0.019c-0.019,0.006-0.044,0.012-0.058,0.017
	c-0.026,0.009-0.043,0.016-0.045,0.017c0,0,0,0,0,0c0.288-0.322,0.781-0.439,0.781-0.439c0.117-0.024,0.225-0.035,0.324-0.035
	c0.001,0,0.002,0,0.002,0c0.001,0,0.001,0,0.002,0c0.086,0,0.158,0.018,0.232,0.034c0.034,0.007,0.074,0.006,0.105,0.015
	c0.1,0.031,0.189,0.075,0.266,0.128l0.233,0.219l0.019,0.025l0.044,0.063c0.226,0.342,0.262,0.738,0.262,0.738L28.928,15.971z"/>
<path fill="#F2F2F2" d="M31.92,31.668c-0.298,0.164-0.594,0.306-0.885,0.433c-0.648,0.282-1.269,0.478-1.816,0.612
	c-1.208,0.294-2.06,0.295-2.06,0.295c0.077,0.042,0.159,0.073,0.24,0.106c0.047,0.019,0.091,0.044,0.139,0.06
	c0.085,0.029,0.172,0.048,0.259,0.069c0.043,0.01,0.085,0.025,0.128,0.034c0.115,0.022,0.23,0.037,0.344,0.048
	c0.015,0.001,0.031,0.005,0.046,0.006c0.13,0.011,0.258,0.016,0.381,0.016c0.192,0,0.373-0.011,0.534-0.028
	c0.395-0.039,0.666-0.107,0.666-0.107c-0.012,0.243-0.043,0.466-0.086,0.674c-0.048,0.231-0.114,0.44-0.192,0.631l-0.006,0.016
	l-0.001,0.001c-0.098,0.237-0.217,0.445-0.349,0.628l-0.043,0.06l0.044-0.024c0.209-0.114,0.417-0.237,0.623-0.367l0.005-0.003
	c0.155-0.097,0.308-0.199,0.46-0.305c0.254-0.179,0.506-0.368,0.751-0.573l0.001,0l0.001-0.001l0.044-0.037
	c0.243-0.212,0.471-0.431,0.682-0.653c0.279-0.294,0.53-0.594,0.757-0.894l0.017-0.022l0.163-0.221l0.015-0.022l0.049-0.074
	l0.214-0.316l0.049-0.076l0.103-0.166l0.077-0.129l0.082-0.139l0.138-0.25l0.051-0.097l0.099-0.191l0.044-0.088l0.013-0.028
	l0.114-0.236l-0.119,0.105C33.118,30.928,32.516,31.339,31.92,31.668z"/>
<path fill="#F2F2F2" d="M17.051,27.446l0.128-0.313l0.026-0.057l0.142-0.297l0.023-0.044c0.105-0.202,0.217-0.394,0.334-0.576
	l0.026-0.04l0.136-0.199l0.035-0.052l0.033-0.046l0.175-0.234l0.028-0.035l0.184-0.226l0.003-0.004l0.231-0.262l0.167-0.176
	l0.064-0.063c0.132-0.133,0.259-0.252,0.377-0.358c0.355-0.318,0.632-0.514,0.728-0.58l-0.201,0.054
	c-0.114,0.032-0.245,0.072-0.39,0.121c-0.163,0.055-0.342,0.121-0.532,0.199c-0.505,0.209-1.078,0.507-1.586,0.917l-0.187,0.159
	l-0.299,0.298l-0.033,0.035l-0.043,0.049l-0.106,0.129l-0.042,0.053l-0.132,0.185l-0.119,0.192c-0.266,0.464-0.43,1.008-0.428,1.645
	c0,0.085,0.003,0.171,0.009,0.259l0.002-0.008l0.001-0.006l0.006-0.028l0.002-0.006l0.009-0.04l0.002-0.009l0.014-0.058l0.004-0.014
	l0.021-0.074l0,0l0.026-0.084l0.006-0.018l0.032-0.093l0.006-0.015l0.036-0.094l0.006-0.015l0.046-0.106l0.01-0.023l0.056-0.113v0
	l0.002-0.004l0.099-0.173l0.041-0.066l0.011-0.018l0,0l0.097-0.136l0.089-0.11l0.03-0.034l0.077-0.082l0.033-0.033l0.113-0.104
	l0.003-0.003c0,0-0.462,1.045-0.461,2.097c0,0.228,0.022,0.455,0.075,0.673l0-0.01v-0.008l0-0.025l0-0.007l0.001-0.045l0-0.007
	L16.3,29.22l0-0.007l0.005-0.076l0-0.007l0.008-0.087l0.001-0.008l0.012-0.096l0.001-0.009l0.018-0.11l0.001-0.009l0.004-0.019
	v-0.001l0.03-0.131l0.002-0.009l0.038-0.131l0.013-0.04l0.01-0.028v0l0.042-0.109l0.003-0.006l0,0l0.073-0.148l0.022-0.038
	l0.092-0.139l0.001-0.002h0c0,0-0.031,0.296-0.031,0.677c0,0.051,0,0.103,0.002,0.156l0.01,0.218l0.011,0.148
	c0.03-0.487,0.119-0.944,0.248-1.37l0.117-0.345L17.051,27.446z"/>
<path fill="#FAF0E3" d="M28.158,20.741c0.009-0.012,0.015-0.031,0.024-0.041C28.172,20.711,28.167,20.729,28.158,20.741z"/>
<path fill="#F2F2F2" d="M28.081,21.296c-0.002-0.004-0.005-0.006-0.007-0.01c-0.022-0.05-0.036-0.109-0.036-0.177l0.028-0.198
	c0.004-0.014,0.013-0.021,0.018-0.034c0.001-0.002,0.001-0.003,0.002-0.005c0,0,0,0,0,0c0.002-0.005,0.006-0.008,0.008-0.013
	c0.018-0.044,0.039-0.084,0.063-0.117c0.009-0.012,0.014-0.031,0.024-0.041c0.045-0.049,0.096-0.077,0.145-0.077
	c0.02,0,0.039,0.004,0.057,0.014l-0.018-0.099c0-0.002-0.001-0.004-0.002-0.006c-0.001-0.002-0.001-0.005-0.002-0.008
	c-0.014-0.054-0.037-0.123-0.076-0.196c-0.002-0.005-0.008-0.01-0.011-0.014c-0.037-0.069-0.085-0.14-0.154-0.206
	c-0.011-0.01-0.03-0.016-0.042-0.026c-0.068-0.058-0.143-0.114-0.246-0.153c-0.039-0.015-0.1-0.013-0.144-0.024
	c-0.093-0.023-0.181-0.05-0.301-0.05c0,0,0,0-0.001,0c-0.047,0-0.096,0.002-0.147,0.006c-0.004,0-0.009,0.001-0.013,0.001
	c-0.006,0.001-0.013,0.001-0.019,0.002c-0.919,0.089-1.228,0.83-1.307,1.083l-0.023,0.085l0.025,0.021
	c0.004-0.004,0.013-0.002,0.018-0.006c0,0,0,0,0,0c0.001-0.001,0.003,0,0.004-0.001c0.05-0.035,0.111-0.059,0.184-0.059
	c0.004,0,0.009,0.004,0.013,0.004c0,0,0.001,0,0.001,0c0.092,0.002,0.197,0.032,0.297,0.09c0.006,0.004,0.013,0.008,0.019,0.011
	c0.001,0.001,0.003,0,0.004,0.001l0.003,0.003l0.002,0.001l0.216,0.21l0,0l0.044,0.345l-0.042,0.052l0.088,0.029
	c0.036,0.01,0.092,0.022,0.143,0.033c0.032,0.007,0.056,0.014,0.093,0.02c0.09,0.015,0.193,0.027,0.301,0.027
	c0.07,0,0.142-0.005,0.214-0.016c0.011-0.002,0.021-0.006,0.031-0.008c0.06-0.011,0.12-0.025,0.179-0.047
	c0.023-0.008,0.044-0.023,0.066-0.034c0.045-0.021,0.09-0.041,0.132-0.071c0.025-0.017,0.046-0.042,0.069-0.063
	c0.041-0.035,0.082-0.068,0.118-0.114l0.054-0.072c-0.006-0.004-0.012-0.008-0.018-0.012C28.113,21.36,28.097,21.328,28.081,21.296z
	"/>
<path fill="#F2F2F2" d="M32.054,23.986c-0.779,0.702-1.787,1.287-2.874,1.769c-1.807,0.8-3.826,1.319-5.353,1.634
	c-0.595,0.123-1.115,0.214-1.518,0.279l0.067,0.009c0.076,0.009,0.166,0.019,0.251,0.029c0.065,0.007,0.125,0.014,0.196,0.021
	c0.088,0.009,0.187,0.017,0.284,0.025c0.068,0.006,0.13,0.012,0.202,0.017c0.115,0.008,0.242,0.014,0.367,0.021
	c0.063,0.003,0.122,0.008,0.187,0.01c0.195,0.007,0.4,0.012,0.614,0.012c0.299,0,0.616-0.008,0.948-0.029
	c2.363-0.144,5.473-0.887,8.297-3.433l0.011-0.017v-0.001c0.001-0.021,0.002-0.043,0.002-0.067c0-0.221-0.047-0.561-0.29-0.831
	l-0.165-0.148l-0.031-0.019l-0.199-0.125l-0.139-0.094l-0.006-0.009c-0.174,0.25-0.375,0.487-0.6,0.714L32.054,23.986z"/>
<path fill="#F2F2F2" d="M8.972,21.441l-0.024-0.012c-0.148-0.071-0.303-0.127-0.464-0.169l-0.026-0.006l-0.316-0.058L7.954,21.18
	l-0.159-0.002l-0.237,0.017l-0.073,0.01l-0.115,0.02l-0.045,0.008l-0.08,0.018l-0.154,0.043l-0.07,0.021l-0.201,0.079l-0.076,0.037
	L6.656,21.48l-0.031,0.016L6.53,21.552l-0.087,0.056l-0.102,0.07l-0.06,0.047L6.126,21.86L6.05,21.934l-0.127,0.134l-0.02,0.023
	L5.842,22.17l-0.003,0.004l-0.002,0.003L5.796,22.23l-0.005,0.007l-0.005,0.007l0,0l0,0.001c-0.081,0.114-0.152,0.234-0.214,0.36
	L5.546,22.66l-0.079,0.188l-0.028,0.076l0,0v0l0.016,0.048l0.054,0.166l0.007,0.018l0.007,0.019l0.061,0.16
	c0.064,0.158,0.131,0.299,0.198,0.424l0.03,0.055l0.007,0.013l0.009,0.016l0.145,0.237l0.182,0.249l0.026,0.032l0.019,0.022
	l0.028,0.031L6.21,24.331c-0.041-0.202-0.062-0.401-0.068-0.596l0-0.012l0-0.023c-0.001-0.031-0.001-0.062-0.001-0.093
	c0-0.093,0.003-0.185,0.01-0.276h0l0.04,0.135l0.065,0.194l0.008,0.022l0.003,0.008c0.098,0.266,0.21,0.49,0.315,0.67
	c0.125,0.216,0.24,0.369,0.309,0.453l0.035,0.042l0.03,0.034c-0.05-0.214-0.075-0.426-0.083-0.633l-0.004-0.208l0.013-0.259
	c0.038,0.146,0.082,0.28,0.129,0.407l0.003,0.01c0.168,0.456,0.376,0.792,0.52,0.991l0.016,0.022l0.067,0.088l0.037,0.046
	l0.033,0.039l0.017,0.02l-0.006-0.03l-0.019-0.089l-0.044-0.319l-0.016-0.21l-0.001-0.196l0.001-0.035l0.004-0.101l0.001-0.021
	l0.001-0.015l0.023-0.253l0.051,0.16l0.041,0.115l0.003,0.008l0.005,0.013l0.008,0.023l0.052,0.131l0.103,0.227l0.127,0.241
	l0.07,0.118l0.084,0.131l0.069,0.099l0.016,0.022l0.057,0.075l0.036,0.045l0.057,0.067l0.005,0.005l0.018,0.012l0.006-0.045
	c0.016-0.133,0.035-0.267,0.054-0.4l0.007-0.048c0.023-0.15,0.047-0.299,0.073-0.443l0.01-0.056l0.002-0.009l0.009-0.05l0.013-0.074
	l0.062-0.329l0.055-0.268l0.005-0.027l0.008-0.038l0.008-0.038l0.001-0.004l0.014-0.063l0.001-0.005l0.012-0.055L8.812,23.6
	l0.002-0.007l0.014-0.064l0.018-0.08l0-0.001l0-0.001l0.009-0.04l0.001-0.002l0.008-0.035L8.881,23.3l0.004-0.016l0.002-0.006
	l0.005-0.019l0.003-0.013l0.001-0.002l-0.002,0.002l-0.029,0.026l-0.076,0.07L8.761,23.37l-0.081,0.1l-0.014,0.017l-0.089,0.138v0
	l-0.004,0.006l0,0l-0.011,0.021l-0.019,0.035l-0.047,0.088l-0.001,0.001l0,0.001L8.493,23.78l-0.006,0.011l-0.005,0.011l-0.063,0.14
	c-0.055,0.13-0.097,0.254-0.129,0.358l-0.03,0.102l-0.037,0.145l0,0.002l-0.004,0.017l0.002-0.02l0.01-0.119l0.021-0.249
	l0.028-0.206l0.01-0.064l0.014-0.095l0.017-0.088l0-0.002v0l0.006-0.032l0.002-0.009l0.02-0.107l0.008-0.041L8.36,23.51l0.001-0.004
	l0.007-0.035l0.01-0.042l0.036-0.154l0.002-0.009l0.027-0.114l0-0.002l0.001-0.003l0.003-0.011l0.064-0.229l0.006-0.021l0.006-0.021
	l0.012-0.043c0.037-0.124,0.076-0.246,0.118-0.365l0.005-0.015l0.11-0.299l0.004-0.011l0.052-0.128l0.003-0.006l0.078-0.19l0-0.001
	v0l0-0.001l0.003-0.008l0.049-0.108l0.001-0.001l0.004-0.007v0l0.029-0.065l0.047-0.105l0.014-0.03l-0.068-0.034L8.972,21.441z"/>
<path fill="#F2F2F2" d="M21.132,29.833c0.482,0.207,1.045,0.334,1.467,0.41c0.228,0.042,0.451,0.065,0.674,0.09
	c0.093,0.01,0.189,0.028,0.281,0.036c0.299,0.025,0.592,0.036,0.877,0.036c0.251,0,0.495-0.008,0.732-0.023
	c0.196-0.017,0.387-0.031,0.572-0.049c0.186-0.024,0.366-0.048,0.54-0.07c0.34-0.057,0.653-0.113,0.947-0.178
	c0.147-0.027,0.283-0.068,0.412-0.103c0.129-0.037,0.251-0.066,0.363-0.106c0.223-0.077,0.417-0.139,0.568-0.205
	c0.292-0.125,0.454-0.21,0.454-0.244c0-0.001,0-0.002,0-0.003c0,0,0-0.001,0-0.001v0c0,0,0-0.001,0-0.001v0c0,0,0,0,0-0.001
	c0,0,0-0.001-0.001-0.001h0c0,0,0,0-0.001-0.001l0,0c0,0,0,0-0.001-0.001c0,0,0,0,0,0c0,0,0,0-0.001-0.001c0,0,0,0,0,0
	c0,0-0.001,0-0.001-0.001c0,0,0,0,0,0c0,0,0,0-0.001-0.001c0,0,0,0,0,0c0,0-0.001,0-0.001,0c0,0,0,0,0,0c0,0-0.001,0-0.001,0
	c0,0,0,0,0,0c0,0-0.001,0-0.001,0c0,0,0,0,0,0c0,0-0.001,0-0.001,0c0,0,0,0,0,0c0,0-0.001,0-0.001,0c0,0,0,0,0,0
	c0,0-0.001,0-0.001,0c0,0,0,0-0.001,0c0,0-0.001,0-0.001,0c0,0,0,0,0,0c0,0-0.001,0-0.001,0c0,0,0,0,0,0c0,0-0.001,0-0.001,0
	c0,0,0,0,0,0c0,0-0.001,0-0.001,0c0,0,0,0,0,0c0,0-0.001,0-0.001,0c0,0,0,0-0.001,0c0,0-0.001,0-0.001,0c0,0,0,0-0.001,0
	c0,0-0.001,0-0.002,0c0,0,0,0,0,0c-0.001,0-0.001,0-0.002,0c0,0,0,0,0,0c-0.001,0-0.001,0-0.002,0c0,0,0,0,0,0
	c-0.001,0-0.001,0-0.002,0c0,0,0,0,0,0c-0.001,0-0.001,0-0.002,0c0,0,0,0,0,0c-0.001,0-0.001,0-0.002,0c0,0,0,0,0,0
	c-0.001,0-0.001,0-0.002,0c0,0,0,0,0,0c-0.001,0-0.002,0-0.003,0c0,0,0,0,0,0c-0.001,0-0.002,0-0.003,0c-0.001,0-0.002,0-0.003,0
	c-0.001,0-0.002,0-0.003,0c-0.023,0-0.052,0.002-0.089,0.007c-0.004,0.001-0.008,0.001-0.012,0.002
	c-0.075,0.01-0.175,0.029-0.3,0.057c-0.001,0-0.003,0.001-0.004,0.001c-0.006,0.001-0.011,0.002-0.017,0.004
	c-0.001,0-0.003,0.001-0.004,0.001c-0.007,0.002-0.014,0.003-0.021,0.005c-0.005,0.001-0.01,0.002-0.014,0.003
	c-0.161,0.038-0.355,0.07-0.579,0.121c-0.111,0.026-0.234,0.042-0.361,0.067c-0.128,0.022-0.263,0.05-0.405,0.066
	c-0.281,0.04-0.602,0.076-0.943,0.116c-0.168,0.014-0.342,0.028-0.52,0.043c-0.18,0.009-0.365,0.018-0.555,0.027
	c-0.016,0-0.032,0.001-0.047,0.001c-0.119,0.003-0.241,0.005-0.364,0.005c0,0-0.001,0-0.001,0c-0.002,0-0.003,0-0.005,0
	c-0.621,0-1.283-0.043-1.956-0.161c-0.006-0.001-0.013-0.002-0.019-0.003c-0.019-0.003-0.037-0.007-0.056-0.01
	c-0.45-0.079-1.05-0.283-1.482-0.529l-0.016-0.009c0.255-0.902,1.195-1.03,1.195-1.03l-0.023-0.007l-0.004,0l-0.047-0.005
	c-0.137-0.017-0.257-0.033-0.36-0.047l-0.193-0.025l-0.111-0.012c-0.022-0.001-0.043-0.002-0.064-0.002
	c-0.131,0-0.248,0.028-0.351,0.074c-0.012,0.005-0.02,0.015-0.032,0.021c-0.087,0.043-0.167,0.094-0.234,0.155
	c-0.034,0.031-0.056,0.064-0.085,0.096c-0.035,0.04-0.076,0.079-0.103,0.117c-0.024,0.034-0.037,0.06-0.056,0.091
	c-0.02,0.033-0.046,0.071-0.059,0.097l-0.043,0.092c-0.082,0.186-0.136,0.401-0.151,0.628l0.006,0.323
	c0.034,0.328,0.156,0.664,0.4,0.961c0.216,0.267,0.593,0.503,1.082,0.689C21.533,31.164,21.159,30.652,21.132,29.833z"/>
<path fill="#C8C7C7" d="M27.207,18.862c0,0.055,0.002,0.111,0.005,0.168l0.033,0.292c0.47,0.011,0.789,0.16,1.003,0.376l0.005,0.003
	c0.042-0.168,0.066-0.362,0.066-0.572c0-0.054-0.002-0.108-0.005-0.164c-0.018-0.299-0.081-0.569-0.17-0.78
	c-0.024-0.091-0.136-0.307-0.291-0.401l-0.164-0.044C27.409,17.758,27.207,18.245,27.207,18.862z"/>
<path fill="#C8C7C7" d="M28.332,20.627c-0.001,0-0.002,0-0.002,0c-0.087,0.002-0.178,0.093-0.234,0.232
	c-0.002,0.005-0.006,0.008-0.008,0.013c0,0,0,0,0,0c-0.001,0.002-0.001,0.003-0.002,0.005c-0.001,0.003-0.002,0.005-0.003,0.008
	c-0.001,0.003-0.002,0.006-0.003,0.009c-0.002,0.007-0.005,0.014-0.007,0.021l-0.029,0.198c0,0.062,0.011,0.118,0.029,0.166
	c0.001,0.002,0,0.005,0.001,0.007c0.002,0.004,0.005,0.006,0.007,0.01c0.004,0.008,0.011,0.011,0.015,0.018
	c0.018,0.032,0.037,0.065,0.065,0.079c0.019,0.009,0.038,0.014,0.057,0.014c0.049,0,0.099-0.029,0.144-0.077
	c0.01-0.01,0.015-0.029,0.024-0.041c0.035-0.047,0.07-0.1,0.091-0.171l0.013-0.054v0c0.01-0.049,0.015-0.097,0.015-0.143
	c0-0.132-0.042-0.242-0.118-0.28C28.37,20.631,28.351,20.627,28.332,20.627z"/>
<path fill="#C8C7C7" d="M26.665,21.308L26.665,21.308l-0.216-0.211l-0.002-0.001c-0.002-0.002-0.005-0.003-0.007-0.005
	c-0.006-0.004-0.013-0.008-0.019-0.011c-0.101-0.058-0.205-0.088-0.297-0.09c0,0-0.001,0-0.001,0c-0.003,0-0.006,0-0.008,0
	c-0.001,0-0.001,0-0.002,0c-0.073,0-0.137,0.019-0.187,0.055c-0.001,0.001-0.003,0-0.004,0.001c0,0,0,0,0,0
	c-0.001,0.001-0.002,0.002-0.003,0.003c-0.003,0.002-0.006,0.005-0.009,0.007l-0.049,0.057l0.038,0.334v0l0.222,0.222
	c0.112,0.071,0.232,0.106,0.335,0.106c0.085,0,0.159-0.024,0.211-0.07l0.001-0.002l0.042-0.052L26.665,21.308z"/>
<path fill="#CCC5C1" d="M21.202,28.185c0.012-0.006,0.02-0.016,0.032-0.021C21.222,28.169,21.214,28.179,21.202,28.185z"/>
<path fill="#CCC5C1" d="M20.725,28.644c0.019-0.031,0.031-0.057,0.056-0.091C20.756,28.587,20.744,28.613,20.725,28.644z"/>
<path fill="#CCC5C1" d="M20.884,28.435c0.029-0.032,0.051-0.065,0.085-0.096C20.935,28.37,20.913,28.403,20.884,28.435z"/>
<path fill="#EAEAEA" d="M21.684,16.113l-0.248-0.045l-0.092-0.009c-0.086-0.008-0.17-0.01-0.249-0.01c-0.001,0-0.002,0-0.002,0
	c-0.305,0-0.534,0.045-0.534,0.045l-0.225,0.06c-0.572,0.173-0.97,0.471-1.248,0.815c-0.225,0.278-0.372,0.586-0.465,0.883
	l-0.023,0.078l-0.057,0.227c-0.053,0.25-0.073,0.48-0.079,0.663c-0.001,0.039-0.002,0.076-0.002,0.11c0,0.186,0.014,0.3,0.014,0.3
	c0.099-0.218,0.204-0.418,0.311-0.605c0.266-0.464,0.555-0.838,0.847-1.138c0.568-0.585,1.148-0.893,1.596-1.055
	c0.485-0.175,0.817-0.181,0.817-0.181C21.933,16.188,21.809,16.144,21.684,16.113z"/>
<path fill="#F6E6D6" d="M26.91,15.488c0.002-0.001,0.019-0.008,0.045-0.017C26.925,15.481,26.909,15.488,26.91,15.488
	C26.909,15.488,26.91,15.488,26.91,15.488z"/>
<path fill="#F6E6D6" d="M27.269,15.4c-0.031,0.004-0.054,0.01-0.082,0.015C27.216,15.41,27.238,15.404,27.269,15.4z"/>
<path fill="#F6E6D6" d="M28.24,15.533c0.041,0.017,0.081,0.027,0.123,0.048C28.321,15.56,28.281,15.549,28.24,15.533z"/>
<path fill="#F6E6D6" d="M27.775,15.402c-0.041-0.006-0.076-0.005-0.115-0.008C27.699,15.397,27.734,15.396,27.775,15.402z"/>
<path fill="#F6E6D6" d="M27.079,15.436c-0.028,0.007-0.045,0.013-0.066,0.019C27.034,15.448,27.051,15.442,27.079,15.436z"/>
<path fill="#F6E6D6" d="M27.938,15.437c0.041,0.009,0.079,0.014,0.121,0.026C28.017,15.45,27.979,15.446,27.938,15.437z"/>
<path fill="#EAEAEA" d="M28.875,15.435l-0.019-0.025l-0.233-0.219c-0.078-0.053-0.166-0.098-0.266-0.128
	c-0.031-0.01-0.072-0.008-0.105-0.015c-0.075-0.015-0.147-0.034-0.234-0.034c-0.001,0-0.002,0-0.002,0
	c-0.099,0-0.207,0.011-0.324,0.035c0,0-0.493,0.116-0.781,0.439c0,0,0.016-0.007,0.045-0.017c0.013-0.005,0.039-0.011,0.058-0.017
	c0.022-0.006,0.038-0.012,0.066-0.019c0.03-0.007,0.072-0.014,0.109-0.02c0.028-0.005,0.05-0.011,0.082-0.015
	c0.074-0.01,0.156-0.016,0.247-0.016c0.045,0,0.095,0.006,0.143,0.01c0.039,0.003,0.074,0.002,0.115,0.008
	c0.052,0.007,0.109,0.023,0.164,0.035c0.041,0.009,0.079,0.014,0.121,0.026c0.059,0.017,0.12,0.045,0.181,0.07
	c0.041,0.017,0.081,0.027,0.123,0.048c0.104,0.05,0.209,0.112,0.316,0.187l0.249,0.204l0.253,0.265c0,0-0.036-0.396-0.262-0.738
	L28.875,15.435z"/>
<path fill="#C8C7C7" d="M23.202,20.063c-0.012-0.057-0.027-0.109-0.041-0.163c-0.012-0.045-0.021-0.092-0.034-0.135
	c-0.022-0.073-0.048-0.139-0.073-0.206c-0.008-0.02-0.014-0.043-0.022-0.063c-0.02-0.048-0.043-0.09-0.065-0.134
	c-0.016-0.033-0.031-0.069-0.048-0.099c-0.019-0.033-0.039-0.06-0.059-0.09c-0.022-0.034-0.044-0.072-0.067-0.102
	c-0.019-0.024-0.039-0.04-0.058-0.061c-0.026-0.028-0.052-0.06-0.078-0.083c-0.02-0.017-0.041-0.026-0.062-0.039
	c-0.027-0.018-0.053-0.039-0.081-0.051c-0.023-0.01-0.045-0.01-0.068-0.015c-0.026-0.006-0.053-0.017-0.079-0.017c0,0,0,0,0,0
	c-0.012,0-0.023,0.001-0.035,0.002c-0.002,0-0.003,0-0.005,0.001c-0.338,0.042-0.56,0.599-0.56,1.32c0,0.141,0.009,0.289,0.026,0.44
	c0.055,0.464,0.188,0.874,0.359,1.16c0.329-0.102,0.686-0.196,1.068-0.282c0.041-0.184,0.063-0.394,0.063-0.621
	c0-0.141-0.009-0.288-0.027-0.438C23.241,20.275,23.223,20.167,23.202,20.063z"/>
<path fill="#F1F0F0" d="M19.428,1.28l0.006,0.049v0L19.428,1.28l0.178,1.554l-0.443-0.221l-1.816-0.929l-0.93,0.277l0.014,0.017
	l2.744,3.127l0.026-0.016l0.036-0.022l0.257-0.162l0.09-0.057c0.124-0.076,0.249-0.151,0.374-0.226l-1.165-1.335l1.886,0.922
	l0.007-0.004l0.17-0.093l-0.174-1.347l0.856,0.99l0.011-0.005l0.215-0.106l0.022-0.011l0.035-0.017l0.037-0.018l0.091-0.045
	l0.018-0.009l0.301-0.142L21.964,3.05l-0.137-0.159l-0.017-0.02l-1.534-1.782l-0.131,0.029l-0.592,0.134l0,0L19.428,1.28z"/>
<path fill="#D9D9D8" d="M10.46,9.637c1.086-0.99,2.193-1.873,3.288-2.641c1.061-0.743,2.108-1.374,3.117-1.884l-0.444-2l0.012-1.133
	l-0.014-0.017l0.93-0.277l1.816,0.929l0-0.005l-0.051-0.628l0.317-0.701l0.125-0.028l0,0c-0.207-0.096-0.454-0.165-0.739-0.2
	c-0.017-0.002-0.034-0.004-0.051-0.006c-0.132-0.015-0.273-0.022-0.42-0.022c0,0-0.001,0-0.001,0c-0.001,0-0.003,0-0.004,0
	c-0.445,0-0.957,0.067-1.517,0.203c-0.001,0-0.003,0.001-0.004,0.001c-0.015,0.004-0.03,0.007-0.045,0.011
	c-0.01,0.002-0.019,0.005-0.029,0.007c-0.012,0.003-0.025,0.006-0.037,0.01c-0.005,0.001-0.01,0.003-0.015,0.004
	c-0.826,0.212-1.753,0.569-2.736,1.058c-1.966,0.978-4.154,2.486-6.26,4.407c-0.735,0.67-1.42,1.354-2.05,2.041l2.558,3.133
	C8.894,11.136,9.648,10.378,10.46,9.637z"/>
<polygon fill="#B5B6B6" points="19.428,1.28 19.112,1.981 19.163,2.609 19.163,2.614 19.606,2.834 "/>
<polygon fill="#B5B6B6" points="19.434,1.329 19.428,1.28 19.434,1.33 "/>
<path fill="#B5B6B6" d="M20.023,4.583l0.049-0.029l0.057-0.033c0.183-0.107,0.366-0.211,0.55-0.313l-1.886-0.922l1.165,1.335
	l0.019-0.012L20.023,4.583z"/>
<polygon fill="#B5B6B6" points="21.099,3.982 21.431,3.809 21.47,3.789 21.479,3.784 21.53,3.759 21.532,3.758 21.538,3.755 
	20.682,2.765 20.856,4.112 20.869,4.105 "/>
</svg>
