<?xml version="1.0" encoding="utf-8"?>
<!-- Generator: Adobe Illustrator 18.1.0, SVG Export Plug-In . SVG Version: 6.00 Build 0)  -->
<!DOCTYPE svg PUBLIC "-//W3C//DTD SVG 1.1//EN" "http://www.w3.org/Graphics/SVG/1.1/DTD/svg11.dtd">
<svg version="1.1" id="Layer_1" xmlns="http://www.w3.org/2000/svg" xmlns:xlink="http://www.w3.org/1999/xlink" x="0px" y="0px"
	 width="156.209px" height="40px" viewBox="0 0 156.209 40" enable-background="new 0 0 156.209 40" xml:space="preserve">
<path fill="#D1D2D3" d="M29.882,27.982c0-1.852,5.129-9.438,5.129-13.926c0-4.488-4.63-7.301-11.326-0.178
	c0,0,0.605-4.523-4.239-4.523c-3.989,0-6.767,3.989-7.622,4.63c0.641-3.099,1.603-5.841-5.093-3.811c0,0-0.285,0.178-0.57,0.712
	c-0.53,0.994-5.984,16.312-5.984,17.523c0,1.211-1.852,4.773,6.411,2.137c0,0,4.06-16.17,9.047-16.17
	c0.729,0,0.997,0.402,0.997,0.926c0,3.453-5.984,9.83-5.984,14.496c0,2.559,5.022,2.173,6.874,0.748
	c0.819-4.416,5.449-15.956,9.795-15.956c0.739,0,0.997,0.499,0.997,1.068c0,2.271-6.803,8.965-6.803,13.285
	c0,5.271,9.581,1.318,9.581,1.318S29.882,29.834,29.882,27.982z"/>
<path fill="#D1D2D3" d="M52.499,25.916c0-2.458,2.956-11.219,5.449-15.422c0,0-2.149-1.199-6.459-1.199
	c-7.693,0-17.571,6.613-17.571,16.194c0,10.934,10.78,4.369,11.706,1.247c0,0-1.496,5.236,2.386,5.236
	c3.882,0,6.233-2.244,6.233-2.244S52.499,28.623,52.499,25.916z M42.241,26.415c-4.167,0,0.605-13.784,8.085-13.784
	C50.326,12.631,46.408,26.415,42.241,26.415z"/>
<path fill="#D1D2D3" d="M66.013,8.182c2.166,0,4.401-1.62,4.993-3.618c0.591-1.998-0.685-3.618-2.851-3.618
	c-2.166,0-4.401,1.62-4.993,3.618C62.571,6.562,63.847,8.182,66.013,8.182z"/>
<path fill="#D1D2D3" d="M63.967,24.206c1.745-4.523,4.773-11.362,4.773-13.285c0-1.803-3.725-1.102-6.451-0.303
	c-0.344,0.101-0.641,0.326-0.777,0.659c-1.189,2.909-6.128,12.736-6.128,17.132c0,4.986,6.09,3.597,9.047,1.531
	C64.43,29.941,62.222,28.73,63.967,24.206z"/>
<path fill="#D1D2D3" d="M74.545,26.735c-4.701,0,7.8-17.167,7.8-23.756c0-5.734-10.115-1.425-10.115-1.425s1.282,0.534,1.282,2.956
	c0,7.159-7.658,18.414-7.658,24.041s9.759,4.238,10.436-2.493C76.291,26.058,75.614,26.735,74.545,26.735z"/>
<path fill="#E7E7E7" d="M116.502,13.272c-2.244,0-3.49,1.425-3.49,1.425s1.781,0.142,1.781,3.348c0,8.548-7.729,11.718-7.729,5.414
	c0-7.48,6.34-11.433,9.047-11.433c2.707,0,3.206,0.712,3.206,0.712s-0.214-3.669-5.271-3.669c-12.608,0-19.803,22.83-8.156,22.83
	c10.258,0,13.891-12.395,13.891-14.567S118.746,13.272,116.502,13.272z"/>
<path fill="#E7E7E7" d="M139.225,13.521c0-2.066-1.068-4.167-4.523-4.167c-7.337,0-15.422,7.408-15.422,15.6
	c0,13.784,20.978,5.093,16.776-3.17c0,0-2.636,4.523-7.729,4.523c-1.408,0-2.108-1.11-2.259-2.67
	C128.173,23.374,139.225,21.417,139.225,13.521z M126.218,21.113c0.668-3.515,3.07-7.521,6.169-7.521
	C136.045,13.593,131.964,20.797,126.218,21.113z"/>
<path fill="#E7E7E7" d="M89.077,14.02c0.071-0.142,1.068-3.669-0.249-4.31c-1.318-0.641-3.74-0.214-5.663,0.677
	c0,0-2.066,6.696-4.131,11.86s-4.238,11.611-4.238,14.532s2.386,4.666,9.189,1.638c0,0-1.14-0.748-1.14-3.455
	c0-0.751,0.242-2.216,0.666-4.029c6.032,1.345,17.285-4.91,17.285-15.703C100.795,4.297,90.466,11.349,89.077,14.02z M84.199,28.28
	c1.719-6.084,4.837-13.797,7.941-13.797C96.443,14.483,91.466,27.808,84.199,28.28z"/>
<path fill="#E7E7E7" d="M150.458,12.032c1.094-2.593,1.981-4.946,1.981-6.097c0-1.715-2.624-1.478-5.478-0.532
	c-0.324,0.107-0.611,0.329-0.735,0.647c-0.405,1.038-1.338,3.063-2.431,5.487c-1.703-0.416-2.718-0.901-2.718-0.901
	s-2.265,2.934,1.011,4.747c-1.999,4.605-3.931,9.534-3.931,11.815c0,4.737,3.953,4.737,5.556,4.737c2.6,0,10.436-2.849,8.299-8.69
	c0,0-1.531,2.564-4.345,2.564c-2.782,0-0.969-5.081,0.76-9.086c9.255,0.318,7.682-6.052,7.682-6.052
	C154.121,11.47,152.212,11.873,150.458,12.032z"/>
</svg>
