<?xml version="1.0" encoding="utf-8"?>
<!-- Generator: Adobe Illustrator 18.1.0, SVG Export Plug-In . SVG Version: 6.00 Build 0)  -->
<!DOCTYPE svg PUBLIC "-//W3C//DTD SVG 1.1//EN" "http://www.w3.org/Graphics/SVG/1.1/DTD/svg11.dtd">
<svg version="1.1" id="Layer_1" xmlns="http://www.w3.org/2000/svg" xmlns:xlink="http://www.w3.org/1999/xlink" x="0px" y="0px"
	 width="241.682px" height="40px" viewBox="0 0 241.682 40" enable-background="new 0 0 241.682 40" xml:space="preserve">
<path fill="#E7E7E7" d="M241.674,4.168c-0.182,0.005-0.545,0.012-0.727,0.016c-0.305,0.548-0.649,1.074-1.022,1.581
	c-0.352-0.522-0.691-1.048-1.012-1.588c-0.26,0-0.515,0-0.765,0c0.012,1.156,0.002,2.313-0.002,3.47
	c0.205,0.026,0.418,0.049,0.63,0.071c0.035-0.812,0.066-1.626,0.127-2.436c0.34,0.498,0.505,1.23,1.095,1.492
	c0.382-0.47,0.689-0.996,1.017-1.506c0.012,0.802,0.012,1.607,0.012,2.41c0.161,0.005,0.481,0.014,0.642,0.019
	C241.7,6.519,241.66,5.343,241.674,4.168z"/>
<path fill="#E7E7E7" d="M234.839,4.784c0.347,0.007,0.701,0.014,1.057,0.019c0,0.961-0.002,1.919,0,2.879c0.177,0,0.533,0,0.711,0
	c-0.007-0.965-0.002-1.928,0.019-2.894c0.349,0.005,0.701,0.009,1.06,0.012c0.002-0.156,0.005-0.474,0.007-0.633
	c-0.946-0.002-1.891,0.005-2.834,0.005C234.856,4.326,234.844,4.633,234.839,4.784z"/>
<path fill="#D1D2D3" d="M47.179,8.612c0.006,4.104-0.027,8.209-0.017,12.313c-4.667-4.605-9.353-9.193-14.038-13.783
	c-0.856,0.002-1.711,0.012-2.565-0.009c-0.041,9.306-0.05,18.612-0.079,27.918c2.448-0.002,4.891,0.019,7.338,0.009
	c0.017-4.546,0.038-9.091,0.032-13.639c4.656,4.564,9.32,9.117,13.946,13.71c0.864,0.028,1.73,0.007,2.596,0.021
	c0.031-9.278,0.025-18.556,0.08-27.831c-2.407,0.012-4.815,0.005-7.222-0.007C47.218,7.748,47.179,8.178,47.179,8.612z"/>
<path fill="#D1D2D3" d="M56.475,13.708c2.275,0,4.552,0.014,6.827,0.014c0.01,7.147-0.015,14.296-0.046,21.44
	c2.343,0.021,4.686-0.012,7.029,0.036c0.03-7.154,0.036-14.308,0.065-21.459c2.26,0.012,4.522,0.021,6.782,0.023
	c0.013-2.107,0.015-4.215,0.023-6.318c-6.888-0.026-13.778-0.043-20.666-0.026C56.491,9.514,56.494,11.612,56.475,13.708z"/>
<path fill="#E7E7E7" d="M221.025,7.758c-2.809,0.03-5.617-0.066-8.421,0.033c-0.036,2.12-0.024,4.239-0.029,6.358
	c2.282,0.054,4.583-0.128,6.856,0.116c-0.038,7.116-0.149,14.232-0.111,21.35c2.372-0.04,4.744,0.002,7.116-0.014
	c-0.021-7.116,0.016-14.232,0.016-21.348c2.263-0.172,4.536,0.014,6.802-0.085c0.023-2.108-0.019-4.215,0.016-6.32
	C229.189,7.906,225.111,7.708,221.025,7.758z"/>
<path fill="#D1D2D3" d="M22.576,9.001c-3.105-2.084-7.01-2.79-10.686-2.259c-3.12,0.489-6.146,1.926-8.289,4.277
	c-2.413,2.577-3.56,6.139-3.596,9.625c-0.077,3.155,0.672,6.41,2.526,9.004c1.846,2.62,4.688,4.463,7.779,5.251
	c4.077,1.053,8.626,0.444,12.161-1.893c2.687-1.742,4.659-4.517,5.471-7.614c0.858-3.264,0.776-6.8-0.348-9.993
	C26.67,12.799,24.888,10.512,22.576,9.001z M19.572,26.125c-1.922,2.379-5.503,3.089-8.237,1.78
	c-1.944-0.864-3.337-2.733-3.795-4.789c-0.424-1.902-0.317-3.963,0.489-5.754c0.842-1.879,2.61-3.3,4.624-3.729
	c2.031-0.484,4.282-0.021,5.923,1.277c1.49,1.154,2.368,2.955,2.596,4.803C21.441,21.935,21.048,24.371,19.572,26.125z"/>
<path fill="#D1D2D3" d="M97.26,25.402c4.724-3.148,5.459-10.491,1.771-14.704c-1.791-2.103-4.563-3.179-7.292-3.217
	c-4.175-0.021-8.352-0.031-12.528-0.028c-0.019,9.254-0.029,18.508-0.072,27.763c2.37-0.009,4.739,0.002,7.11,0.014
	c0.006-2.726,0.014-5.452,0.016-8.178c1.238-0.009,2.477-0.016,3.716,0.036c1.552,2.728,3.143,5.44,4.713,8.157
	c2.66,0.019,5.32,0.016,7.98,0.028c-0.031-0.446,0.073-0.937-0.195-1.326C100.745,31.095,98.976,28.265,97.26,25.402z M93.73,19.497
	c-0.501,0.807-1.431,1.312-2.379,1.279c-1.69,0.005-3.381-0.012-5.068-0.014c0.012-2.327,0.026-4.656,0.014-6.981
	c1.749,0.017,3.499-0.035,5.245,0.031c0.899,0.012,1.757,0.517,2.221,1.284C94.559,16.415,94.559,18.194,93.73,19.497z"/>
<path fill="#E7E7E7" d="M146.222,7.578c-3.824,0.161-7.656-0.191-11.478,0.057c0.021,9.247-0.035,18.492-0.035,27.739
	c2.379-0.007,4.76,0.012,7.137,0.016c0.014-2.353-0.04-4.711,0.062-7.061c1.716,0.002,3.432-0.019,5.15-0.007
	c2.464-0.014,4.98-0.833,6.788-2.549c4.248-4.102,4.229-11.832-0.203-15.79C151.65,8.15,148.868,7.503,146.222,7.578z
	 M149.734,19.426c-0.319,1.234-1.305,2.45-2.669,2.483c-1.714,0.059-3.434,0.031-5.143-0.078c-0.031-2.624-0.026-5.247-0.009-7.869
	c1.645,0,3.29-0.028,4.935,0.014c0.828-0.005,1.673,0.309,2.19,0.975C150,16.209,150.114,17.935,149.734,19.426z"/>
<path fill="#E7E7E7" d="M181.865,9.865c-3.135-2.367-7.222-3.269-11.091-2.761c-3.248,0.42-6.396,1.914-8.601,4.366
	c-2.334,2.445-3.441,5.853-3.576,9.183c-0.134,3.267,0.595,6.653,2.488,9.363c1.799,2.549,4.513,4.432,7.529,5.233
	c3.653,1.024,7.708,0.708,11.109-1.01c2.624-1.31,4.814-3.505,6.03-6.186c1.428-3.071,1.678-6.599,1.109-9.908
	C186.271,14.907,184.52,11.846,181.865,9.865z M178.719,25.752c-1.699,2.952-5.778,4.005-8.792,2.535
	c-2.117-0.956-3.55-3.092-3.88-5.362c-0.229-1.699-0.137-3.495,0.599-5.07c0.81-1.938,2.653-3.363,4.687-3.807
	c2.299-0.517,4.871,0.175,6.509,1.897C180.279,18.525,180.447,22.745,178.719,25.752z"/>
<path fill="#E7E7E7" d="M207.327,25.695c0.517-0.411,1.038-0.826,1.487-1.315c3.606-3.802,3.45-10.538-0.429-14.093
	c-1.858-1.808-4.508-2.547-7.048-2.561c-4.036,0.002-8.074-0.014-12.112-0.017c-0.033,9.273-0.04,18.546-0.063,27.817
	c2.367,0.024,4.739,0.012,7.111,0.04c0.059-2.714-0.023-5.431,0.057-8.14c1.197-0.153,2.412-0.028,3.618-0.052
	c1.615,2.719,3.184,5.464,4.749,8.209c2.672-0.033,5.343,0.005,8.015-0.009c0.167-1.199-0.696-2.103-1.251-3.061
	C210.093,30.236,208.644,28.003,207.327,25.695z M203.68,19.872c-0.449,0.604-1.14,1.112-1.919,1.119
	c-1.78,0.052-3.562,0.012-5.344,0.021c-0.163-2.306-0.108-4.628-0.014-6.937c1.716,0.043,3.437-0.059,5.152,0.05
	c1.02,0.04,1.973,0.699,2.4,1.621C204.572,17.05,204.452,18.662,203.68,19.872z"/>
<path fill="#D1D2D3" d="M120.25,7.208c-1.036-0.012-2.075-0.012-3.111,0c-4.095,8.846-8.207,17.687-12.311,26.529
	c-0.243,0.477-0.269,1.017-0.321,1.539c2.341,0.012,4.685,0.019,7.029,0.016c0.496-1.166,1.074-2.296,1.591-3.455
	c3.663-0.05,7.326-0.002,10.987,0.005c0.51,1.168,1.102,2.299,1.588,3.481c2.332,0.019,4.669,0.043,7.005,0.017
	c-0.029-0.42,0.035-0.862-0.123-1.26C128.49,25.114,124.326,16.181,120.25,7.208z M115.473,25.768
	c1.015-2.443,2.072-4.869,3.158-7.286c1.083,2.419,2.119,4.859,3.189,7.283C119.705,25.778,117.591,25.752,115.473,25.768z"/>
</svg>
