<?xml version="1.0" encoding="utf-8"?>
<!-- Generator: Adobe Illustrator 19.1.0, SVG Export Plug-In . SVG Version: 6.00 Build 0)  -->
<svg version="1.1" id="Layer_1" xmlns="http://www.w3.org/2000/svg" xmlns:xlink="http://www.w3.org/1999/xlink" x="0px" y="0px"
	 viewBox="0 0 366.5 252.2" style="enable-background:new 0 0 366.5 252.2;" xml:space="preserve">
<style type="text/css">
	.st0{fill:#D2D2D2;}
	.st1{fill:#FFFFFF;}
</style>
<path class="st0" d="M90,0c2.8,0,5.6,0,8.4,0c1.6,0.2,3.3,0.3,4.9,0.6c18.1,2.6,33,10.8,44.8,24.7c0.6,0.7,1.2,1.4,1.7,2.1
	c15.1-14.8,33-21.6,54-18.9c21,2.8,36.5,14.2,47.3,32.2c0.4-0.1,0.7-0.2,1-0.4c13-5.5,26.4-7.4,40.4-5.5c18.3,2.4,34,10.4,46.4,24
	c18.5,20.3,24.9,44.2,19.2,71c-8.8,41-48.6,67.2-89.8,59.6c-0.8-0.1-1.2,0-1.6,0.7c-2.7,4.7-6,9-10,12.6
	C242,216,225,220.7,205.7,217c-4.5-0.9-8.8-2.4-12.9-4.4c-0.2,0.3-0.3,0.5-0.4,0.8c-3.4,7.6-7.9,14.5-14,20.1
	c-19.1,17.8-41.4,23-66.1,14.9c-18.9-6.2-31.9-19.3-39.4-37.7c-0.3-0.8-0.6-1.1-1.5-0.9c-13.8,2.5-27,0.8-39.3-6
	c-16.6-9.1-26.9-23.1-30.8-41.6c-0.6-2.7-0.8-5.4-1.2-8.2c0-2.6,0-5.3,0-7.9c0.2-1.8,0.4-3.6,0.7-5.3c2.5-15.5,9.8-28.3,22-38.2
	c2.3-1.9,4.8-3.5,7.2-5.2c-0.1-0.3-0.2-0.6-0.3-0.9C23,80.2,22.2,63.5,28.2,47C37.3,22,55.3,6.7,81.4,1.2C84.2,0.6,87.1,0.4,90,0z
	 M195.4,107.6c-0.1,0.6-0.1,0.9-0.1,1.2c-1.3,7.4-2.6,14.9-4,22.3c-0.6,3.1-1.3,6.2-2.3,9.1c-0.9,2.7-2.9,3.7-5.7,3.4
	c-0.6-0.1-1.2-0.2-1.7-0.4c-0.8-0.3-1.3-0.2-1.5,0.7c-0.3,1.1-0.7,2.2-1.2,3.2c-0.4,0.9,0,1.3,0.8,1.5c1.3,0.3,2.7,0.6,4,0.6
	c5.1,0.1,9.2-1.2,11.8-7.3c0.8-1.9,1.4-3.9,1.8-5.9c1.7-9,3.3-18.1,4.8-27.1c0.2-1,0.4-1.4,1.5-1.3c1.7,0.1,3.4,0,5.2,0
	c0.8,0,1.2-0.3,1.3-1.1c0.1-1,0.3-2,0.5-3.1c0.2-1.5,0.2-1.5-1.3-1.6c-1.9,0-3.9,0-6,0c0.5-1.7,0.8-3.3,1.3-4.8c0.7-1.8,2-3.2,4-3.3
	c1.2-0.1,2.5,0.1,3.8,0.2c0.6,0,1.1,0.3,1.4-0.5c0.4-1.2,0.9-2.5,1.4-3.7c0.2-0.7,0.1-1.1-0.7-1.3c-2.8-0.7-5.5-0.7-8.3-0.1
	c-4.5,1-6.9,4.3-8.3,8.5c-0.5,1.6-0.8,3.4-1.3,5.1c-1.4,0-2.7,0-4.1,0c-0.4,0-1.1,0.3-1.1,0.6c-0.4,1.6-0.6,3.2-1,5.1
	C192,107.6,193.6,107.6,195.4,107.6z M101,114.2c-0.4,0-0.7,0-1-0.1c-3.3-0.5-6.5-0.6-9.8,0.1c-5,1-10,4.4-9.4,11.8
	c0.3,3.3,1.8,5.8,4.8,7.4c2.3,1.2,4.8,1.6,7.4,1.7c4.7,0.2,9.2-0.7,13.7-1.7c0.8-0.2,1.1-0.5,1.1-1.4c0-4.2,0-8.4,0-12.6
	c0-2.9,0-5.8-0.2-8.7c-0.4-4.6-3.1-7.6-7.5-8.7c-3.5-0.9-7.1-0.8-10.7-0.1c-2,0.4-3.9,1.2-5.9,1.9c-0.9,0.3-1.1,0.9-0.7,1.8
	c0.4,0.9,0.8,1.8,1.1,2.8c0.3,1,0.7,1.1,1.6,0.6c3.1-1.5,6.4-2.2,9.9-1.9C99.4,107.5,101.6,109.1,101,114.2z M301.6,120
	c0.4,0,0.9,0,1.3,0c6.3,0,12.6,0,18.8,0c1,0,1.4-0.3,1.4-1.3c0-1.4,0.1-2.8,0-4.2c-0.4-7.4-5-12.9-12.7-13.2
	c-6.9-0.3-12.8,3.3-14.9,9.7c-1.5,4.6-1.6,9.3-0.3,13.9c1.1,3.9,3.5,6.8,7.2,8.5c3.5,1.6,7.2,1.9,11,1.6c2.6-0.2,5.2-0.6,7.7-1.7
	c0.8-0.4,1-0.8,0.7-1.6c-0.4-1-0.8-2.1-1.1-3.2c-0.2-0.7-0.7-0.9-1.4-0.6c-2.9,1.2-5.9,1.4-8.9,1.3
	C304.9,129.3,301.4,125.7,301.6,120z M134.5,120c0.5,0,0.9,0,1.4,0c6.2,0,12.5,0,18.7,0c1.1,0,1.5-0.4,1.5-1.4c0-1.8,0-3.6-0.2-5.4
	c-0.6-6.3-5-11.6-12.6-11.9c-6.9-0.3-12.7,3.3-14.8,9.8c-1.5,4.5-1.6,9-0.3,13.5c1.3,4.6,4.2,7.8,8.8,9.4c3,1.1,6.2,1.3,9.3,1
	c2.7-0.2,5.4-0.6,7.9-1.8c0.7-0.3,1-0.7,0.6-1.5c-0.4-1-0.8-2.1-1.1-3.1c-0.2-0.8-0.7-1-1.4-0.7c-2.9,1.2-5.9,1.4-9,1.3
	C137.8,129.2,134.3,125.5,134.5,120z M241.4,118.4c-0.1,0-0.2,0-0.3-0.1c0-0.7-0.1-1.4-0.1-2.2c-0.5-8.6-5.9-14.4-14.3-14.8
	c-7-0.3-12.9,3.7-14.8,10.4c-1.2,4.1-1.2,8.3-0.2,12.4c1,4.2,3.3,7.5,7.3,9.4c2.5,1.3,5.2,1.7,8,1.5c6-0.3,10.9-3.3,12.8-9.2
	C240.6,123.5,240.9,120.9,241.4,118.4z M172.9,135.2c0,0.1,0,0.3,0.1,0.4c2.2-0.5,4.5-0.8,6.6-1.7c3.7-1.5,5.4-4.5,5.5-8.5
	c0.2-3.8-1.6-6.3-4.8-8c-1.6-0.8-3.4-1.4-5.1-2.1c-2-0.8-4.1-1.4-5.9-2.4c-2.2-1.2-2.1-4.1,0.1-5.3c0.8-0.5,1.9-0.7,2.8-0.8
	c3.2-0.1,6.1,0.7,9,2.1c1.3,0.6,1.3,0.6,1.9-0.8c0.3-0.8,0.6-1.7,0.9-2.5c0.5-1,0.2-1.5-0.7-2c-3.1-1.6-6.4-2.4-9.9-2.5
	c-2.7-0.1-5.3,0.3-7.6,1.7c-3.2,1.9-4.8,4.8-4.7,8.6c0,3.6,1.9,6,5,7.5c1.4,0.7,3,1.2,4.5,1.7c2,0.7,4,1.3,5.9,2.2
	c1.2,0.5,2.1,1.4,2,2.9c0,1.6-0.8,2.6-2.1,3.2c-1.6,0.9-3.4,0.8-5.1,0.6c-3-0.4-5.7-1.4-8.2-3.1c-0.8-0.6-1.4-0.5-1.7,0.5
	c-0.3,1-0.7,2.1-1.1,3c-0.4,0.9-0.1,1.4,0.7,1.8C164.7,134.2,168.7,135.3,172.9,135.2z M63.7,135.2c3.4,0.1,5.8-0.2,8-1.3
	c3.4-1.6,5.1-4.4,5.4-8.1c0.3-4-1.6-6.7-5-8.5c-1.3-0.7-2.8-1.2-4.2-1.7c-2.1-0.8-4.3-1.5-6.3-2.5c-1.2-0.5-2.1-1.6-1.9-3
	c0.2-1.5,1.2-2.6,2.6-2.9c1.3-0.3,2.7-0.5,4-0.2c2.5,0.5,4.9,1.4,7.3,2.2c0.6,0.2,1.1,0.2,1.3-0.5c0.4-1.1,0.9-2.2,1.2-3.4
	c0.1-0.4-0.2-1.2-0.5-1.3c-5-2.7-10.3-3.6-15.8-1.9c-4,1.3-6.6,4.7-6.7,8.6c-0.1,4.3,1.7,7,6.1,8.9c1.9,0.8,3.9,1.3,5.8,2
	c1.4,0.5,2.8,1,4.1,1.7c2.1,1.3,2.2,4,0.2,5.4c-1,0.7-2.3,1.1-3.5,1.2c-3.7,0.2-7-0.9-10.1-2.9c-1.6-1-1.6-1-2.2,0.8
	c-0.3,0.8-0.5,1.6-0.9,2.3c-0.5,1-0.2,1.5,0.7,2C56.6,134.2,60.5,135.3,63.7,135.2z M283.6,101.1c0,0.1,0,0.2-0.1,0.3
	c-0.4,0-0.8,0-1.2,0c-7.2,0.1-12.6,4.2-14.5,11c-0.9,3.1-1,6.3-0.5,9.5c0.8,4.9,2.8,8.9,7.4,11.4c2.1,1.2,4.5,1.6,6.9,1.8
	c3.5,0.3,6.8-0.3,10.1-1.3c0.6-0.2,0.8-0.6,0.6-1.2c-0.4-1.1-0.8-2.2-1.2-3.3c-0.3-1-0.8-1-1.7-0.8c-2.2,0.4-4.4,0.8-6.6,0.8
	c-4.1-0.1-7-2.5-8.1-6.3c-0.9-3.2-0.9-6.4,0.1-9.5c1.1-3.5,3.4-6,7.2-6.1c2.4-0.1,4.7,0.3,7.1,0.7c1,0.2,1.4,0,1.6-0.9
	c0.3-1,0.6-1.9,1-2.8c0.4-1,0.3-1.6-0.9-1.8C288.5,102,286,101.5,283.6,101.1z M114.7,111.4c0,7.2,0,14.5,0,21.7
	c0,0.8,0.1,1.4,1.1,1.3c1.3-0.1,2.6,0,3.8,0c1.7,0,1.7,0,1.7-1.7c0-14.1,0-28.2,0-42.2c0-0.3,0-0.6,0-0.8c0-0.7-0.3-1-1-1
	c-1.5,0-3,0.1-4.4,0c-1-0.1-1.3,0.3-1.3,1.3C114.7,97.1,114.7,104.3,114.7,111.4z M253.3,105.1c0-0.8,0-1.2,0-1.6
	c0.2-1.2-0.4-1.6-1.5-1.5c-1.1,0.1-2.2,0-3.4,0c-1.6,0-1.7,0.1-1.7,1.7c0,9.7,0,19.4,0,29.1c0,0.2-0.1,0.5,0,0.7
	c0.3,0.4,0.6,0.9,0.9,0.9c1.6,0.1,3.3,0,4.9,0c0.7,0,0.9-0.3,0.9-0.9c0-1.6,0-3.2,0-4.8c0.1-4.6,0.1-9.2,0.3-13.8
	c0.1-2.2,0.9-4.1,2.7-5.6c1.9-1.6,4.2-1.8,6.6-1.4c0.6,0.1,1.2,0.3,1.5-0.5c0.5-1.3,1-2.7,1.4-4.1c0.1-0.3-0.3-1.1-0.5-1.1
	c-2-0.2-4-0.5-5.9-0.4C257.1,102,255.2,103.3,253.3,105.1z"/>
<path class="st1" d="M0,154.1c0.4,2.7,0.6,5.5,1.2,8.2c3.9,18.6,14.2,32.6,30.8,41.6c12.3,6.7,25.5,8.5,39.3,6
	c0.9-0.2,1.2,0.1,1.5,0.9c7.5,18.4,20.5,31.5,39.4,37.7c24.7,8.1,47,2.9,66.1-14.9c6.1-5.7,10.6-12.5,14-20.1
	c0.1-0.2,0.2-0.5,0.4-0.8c4.2,2,8.4,3.5,12.9,4.4c19.3,3.7,36.3-1,50.8-14.3c4-3.7,7.3-7.9,10-12.6c0.4-0.7,0.9-0.9,1.6-0.7
	c41.2,7.6,81-18.6,89.8-59.6c5.8-26.8-0.6-50.7-19.2-71c-12.4-13.6-28.1-21.5-46.4-24c-13.9-1.9-27.4,0-40.4,5.5
	c-0.3,0.1-0.7,0.3-1,0.4c-10.9-18-26.3-29.4-47.3-32.2c-21-2.8-38.9,4-54,18.9c-0.6-0.7-1.1-1.4-1.7-2.1
	c-11.8-13.9-26.7-22.2-44.8-24.7c-1.6-0.2-3.2-0.4-4.9-0.6c89.4,0,178.7,0,268.1,0c0,84.1,0,168.2,0,252.2c-122.2,0-244.3,0-366.5,0
	C0,219.5,0,186.8,0,154.1z"/>
<path class="st1" d="M90,0c-2.9,0.4-5.8,0.6-8.6,1.2C55.3,6.7,37.3,22,28.2,47c-6,16.6-5.2,33.2,1.4,49.6c0.1,0.3,0.2,0.6,0.3,0.9
	c-2.4,1.7-4.9,3.3-7.2,5.2c-12.2,9.9-19.5,22.7-22,38.2c-0.3,1.8-0.5,3.5-0.7,5.3C0,97.5,0,48.8,0,0C30,0,60,0,90,0z"/>
<path class="st0" d="M101.1,124.3c0,1.3,0,2.6,0,3.8c0,0.3-0.2,0.9-0.4,0.9c-3.1,0.6-6.3,1.2-9.4,0.3c-2.2-0.7-3.5-2-3.6-3.9
	c-0.2-3,0.7-4.6,3.1-5.6c2.5-1,5.1-0.9,7.7-0.6c2.7,0.3,2.7,0.4,2.7,3.2C101.1,123,101.1,123.6,101.1,124.3z"/>
<path class="st0" d="M301.8,114.8c-0.3-4.1,3-7.8,7.3-7.9c4.3-0.1,7.2,2.7,7.4,7.9C311.6,114.8,306.7,114.8,301.8,114.8z"/>
<path class="st0" d="M134.7,114.8c-0.1-4.4,3.4-8.1,7.6-8c4.2,0.1,7.2,3.4,7,8C144.4,114.8,139.6,114.8,134.7,114.8z"/>
<path class="st0" d="M234,118.3c0.1,2.8-0.3,5.5-1.7,8c-1.5,2.7-4,3.5-6.9,3.3c-2.6-0.2-4.6-1.3-5.7-3.7c-1.6-3.3-1.8-6.9-1.3-10.4
	c0.3-1.8,0.9-3.7,1.7-5.4c2.2-4.2,9.9-4.1,12.2,0.3C233.7,112.8,234.1,115.5,234,118.3z"/>
</svg>
