<?xml version="1.0" encoding="utf-8"?>
<!-- Generator: Adobe Illustrator 18.1.0, SVG Export Plug-In . SVG Version: 6.00 Build 0)  -->
<!DOCTYPE svg PUBLIC "-//W3C//DTD SVG 1.1//EN" "http://www.w3.org/Graphics/SVG/1.1/DTD/svg11.dtd">
<svg version="1.1" id="Layer_1" xmlns="http://www.w3.org/2000/svg" xmlns:xlink="http://www.w3.org/1999/xlink" x="0px" y="0px"
	 width="174.046px" height="40px" viewBox="0 0 174.046 40" enable-background="new 0 0 174.046 40" xml:space="preserve">
<path fill="#D1D2D3" d="M99.805,25.955c-0.11-0.809-0.158-1.62-0.157-2.436c0.003-4.443,0.001-8.886,0.001-13.329
	c0-0.113,0.004-0.226-0.003-0.339c-0.003-0.06-0.025-0.119-0.046-0.208c-1.22,0-2.434,0-3.704,0c0,2.322,0,4.598,0,6.873
	c-0.041,0-0.058,0.005-0.064-0.001c-0.052-0.053-0.105-0.106-0.153-0.164c-0.329-0.4-0.7-0.755-1.134-1.037
	c-0.445-0.289-0.924-0.487-1.458-0.567c-0.392-0.058-0.773-0.029-1.16,0.011c-0.516,0.054-1.01,0.186-1.477,0.408
	c-0.735,0.348-1.295,0.892-1.735,1.57c-0.721,1.111-1.059,2.349-1.154,3.651c-0.066,0.912-0.041,1.826,0.119,2.736
	c0.158,0.899,0.45,1.742,0.907,2.531c0.54,0.93,1.333,1.553,2.331,1.922c0.773,0.286,1.577,0.393,2.398,0.375
	c1.062-0.024,1.904-0.472,2.539-1.319c0.034-0.045,0.054-0.119,0.148-0.095c0.169,0.339,0.341,0.683,0.504,1.01
	c0.826,0.053,3.177,0.032,3.458-0.03c0-0.072,0.007-0.146-0.001-0.219C99.915,26.85,99.866,26.401,99.805,25.955z M95.919,22.939
	c0.003,0.168-0.034,0.32-0.106,0.469c-0.187,0.384-0.396,0.753-0.691,1.068c-0.466,0.497-1.031,0.682-1.701,0.572
	c-0.26-0.043-0.517-0.084-0.763-0.185c-0.588-0.241-0.95-0.673-1.12-1.278c-0.16-0.57-0.228-1.152-0.235-1.742
	c-0.005-0.351-0.005-0.702,0-1.053c0.008-0.59,0.069-1.175,0.238-1.742c0.203-0.68,0.622-1.159,1.32-1.369
	c0.665-0.2,1.233-0.057,1.707,0.452c0.318,0.34,0.59,0.714,0.828,1.114c0.102,0.172,0.188,0.357,0.311,0.514
	c0.182,0.233,0.226,0.488,0.214,0.774c-0.015,0.375-0.004,0.752-0.004,1.128C95.917,22.087,95.912,22.513,95.919,22.939z"/>
<path fill="#D1D2D3" d="M136.123,16.55c-0.582-0.836-1.368-1.38-2.353-1.643c-0.328-0.088-0.662-0.126-0.998-0.17
	c-0.803-0.105-1.546,0.055-2.231,0.48c-0.506,0.314-0.931,0.72-1.3,1.186c-0.039,0.049-0.098,0.081-0.174,0.141
	c0-0.181,0-0.319,0-0.457c0-2.008,0.001-4.017-0.002-6.025c0-0.132,0.034-0.273-0.041-0.404c-1.225,0-2.439,0-3.646,0
	c-0.102,0.152-0.062,0.307-0.062,0.454c-0.002,4.519-0.002,9.037-0.002,13.556c0,0.74-0.053,1.477-0.152,2.211
	c-0.062,0.459-0.113,0.92-0.163,1.38c-0.01,0.093,0.003,0.189,0.006,0.279c0.495,0.046,3.162,0.035,3.465-0.014
	c0.157-0.323,0.32-0.658,0.507-1.042c0.06,0.068,0.087,0.094,0.109,0.124c0.662,0.904,1.547,1.366,2.672,1.342
	c0.3-0.006,0.6-0.035,0.898-0.068c0.617-0.068,1.195-0.262,1.742-0.555c0.772-0.414,1.354-1.023,1.833-1.745
	c0.755-1.139,1.094-2.41,1.175-3.757c0.055-0.916-0.012-1.828-0.209-2.728C136.996,18.18,136.66,17.322,136.123,16.55z
	 M133.651,21.711c-0.01,0.605-0.103,1.198-0.309,1.768c-0.147,0.406-0.355,0.78-0.694,1.057c-0.589,0.482-1.261,0.655-2.006,0.466
	c-0.434-0.11-0.749-0.406-1.004-0.754c-0.184-0.251-0.332-0.53-0.482-0.805c-0.122-0.223-0.168-0.465-0.156-0.725
	c0.016-0.351,0.004-0.703,0.004-1.054c0-0.402,0.004-0.803-0.002-1.205c-0.003-0.181,0.029-0.345,0.125-0.502
	c0.256-0.416,0.496-0.843,0.759-1.255c0.21-0.331,0.492-0.603,0.804-0.837c0.551-0.414,1.135-0.331,1.703-0.055
	c0.552,0.269,0.868,0.744,1.027,1.327c0.149,0.546,0.221,1.104,0.23,1.67C133.656,21.109,133.656,21.41,133.651,21.711z"/>
<path fill="#D1D2D3" d="M70.144,20.009c-0.124-0.846-0.33-1.668-0.668-2.457c-0.544-1.27-1.49-2.09-2.801-2.482
	c-1.078-0.322-2.179-0.427-3.306-0.322c-0.693,0.065-1.359,0.209-2.001,0.471c-1.01,0.411-1.801,1.083-2.369,2.01
	c-0.738,1.203-1.078,2.526-1.125,3.928c-0.014,0.413,0.003,0.825,0.051,1.238c0.108,0.933,0.358,1.817,0.821,2.636
	c0.49,0.866,1.133,1.588,1.995,2.106c0.859,0.516,1.804,0.74,2.789,0.799c0.65,0.039,1.302,0.018,1.953-0.043
	c0.575-0.054,1.145-0.124,1.709-0.241c0.663-0.138,1.315-0.315,1.936-0.589c0.075-0.033,0.141-0.087,0.205-0.127
	c-0.15-0.462-1.062-2.521-1.221-2.764c-0.024-0.001-0.052-0.01-0.073-0.002c-0.094,0.035-0.188,0.07-0.278,0.113
	c-0.887,0.424-1.81,0.738-2.789,0.856c-0.498,0.06-1,0.068-1.496-0.049c-1.003-0.237-1.731-1.066-1.829-2.132
	c0.362-0.005,0.722-0.002,1.082-0.002c0.351,0,0.703,0,1.054,0c0.364,0,0.728,0,1.092,0s0.728,0,1.092,0s0.728,0,1.092,0
	c0.351,0,0.703,0,1.054,0c0.364,0,0.728,0.004,1.092-0.001c0.361-0.005,0.723,0.025,1.112-0.026
	c0.011-0.087,0.025-0.136,0.023-0.185c-0.011-0.3-0.035-0.6-0.037-0.9C70.298,21.226,70.233,20.617,70.144,20.009z M61.643,20.14
	c0-0.105-0.016-0.217,0.003-0.323c0.048-0.257,0.101-0.515,0.173-0.766c0.227-0.793,0.8-1.215,1.567-1.403
	c0.471-0.115,0.944-0.069,1.405,0.069c0.487,0.146,0.869,0.437,1.133,0.873c0.284,0.469,0.423,0.982,0.458,1.55
	C66.008,20.196,61.971,20.194,61.643,20.14z"/>
<path fill="#D1D2D3" d="M173.432,17.981c-0.23-0.629-0.538-1.213-0.997-1.71c-0.608-0.657-1.368-1.045-2.219-1.275
	c-0.521-0.141-1.054-0.203-1.592-0.253c-1.051-0.097-2.076-0.002-3.077,0.327c-1.228,0.404-2.187,1.151-2.842,2.274
	c-0.356,0.61-0.617,1.26-0.793,1.943c-0.198,0.769-0.254,1.554-0.247,2.347c0.008,0.952,0.171,1.87,0.544,2.745
	c0.463,1.085,1.143,2.002,2.142,2.653c0.905,0.59,1.921,0.846,2.987,0.904c0.903,0.049,1.802-0.008,2.7-0.127
	c0.949-0.126,1.868-0.355,2.76-0.696c0.114-0.043,0.221-0.103,0.328-0.153c-0.204-0.608-1.083-2.575-1.254-2.806
	c-0.065,0.024-0.135,0.046-0.203,0.075c-0.323,0.137-0.641,0.286-0.969,0.41c-0.933,0.354-1.891,0.588-2.899,0.521
	c-0.235-0.016-0.474-0.054-0.701-0.119c-0.801-0.229-1.289-0.788-1.565-1.55c-0.062-0.17-0.142-0.343-0.118-0.565
	c2.868,0,5.724,0,8.589,0c0.023-0.082,0.036-0.105,0.036-0.129c-0.003-0.827,0.031-1.654-0.076-2.48
	C173.864,19.521,173.708,18.738,173.432,17.981z M165.597,20.179c-0.047,0-0.095-0.017-0.164-0.031
	c-0.013-0.665,0.131-1.27,0.533-1.799c0.322-0.423,0.79-0.598,1.284-0.715c0.45-0.107,0.896-0.044,1.33,0.087
	c0.57,0.171,0.972,0.549,1.238,1.077c0.211,0.418,0.305,0.867,0.361,1.382C168.622,20.18,167.11,20.18,165.597,20.179z"/>
<path fill="#D1D2D3" d="M121.165,16.383c-0.344-0.636-0.86-1.062-1.529-1.324c-0.567-0.222-1.159-0.318-1.76-0.353
	c-0.349-0.02-0.704-0.022-1.051,0.019c-0.534,0.063-0.997,0.31-1.428,0.63c-0.426,0.316-0.792,0.694-1.164,1.067
	c-0.051,0.051-0.094,0.12-0.213,0.083c-0.165-0.45-0.337-0.917-0.507-1.382c-0.084-0.013-0.145-0.03-0.207-0.03
	c-1.054,0.001-2.109,0.004-3.163,0.008c-0.021,0-0.042,0.024-0.085,0.05c0.006,0.099,0.004,0.211,0.02,0.32
	c0.053,0.372,0.107,0.743,0.169,1.114c0.083,0.495,0.141,0.991,0.135,1.495c-0.006,0.565-0.002,1.13-0.002,1.695
	c0,2.46-0.001,4.921,0.002,7.381c0,0.131-0.046,0.276,0.064,0.409c1.149,0,2.303,0,3.458,0c0.05,0,0.1-0.005,0.15-0.01
	c0.011-0.001,0.022-0.01,0.031-0.017c0.01-0.007,0.019-0.017,0.051-0.046c0-0.103,0-0.227,0-0.351c0-1.469,0-2.937,0-4.406
	c0-0.816,0-1.632,0-2.448c0-0.151,0.005-0.295,0.085-0.436c0.322-0.568,0.643-1.133,1.07-1.634c0.422-0.494,0.937-0.73,1.592-0.664
	c0.657,0.066,1.039,0.386,1.165,1.029c0.046,0.232,0.068,0.472,0.069,0.709c0.005,2.611,0.003,5.222,0.003,7.833
	c0,0.135,0.007,0.27,0.011,0.399c0.304,0.051,3.241,0.064,3.755,0.015c0-0.157,0-0.293,0-0.429c0-2.36-0.001-4.72,0.001-7.08
	c0.001-0.628-0.038-1.251-0.135-1.872C121.657,17.531,121.467,16.94,121.165,16.383z"/>
<path fill="#D1D2D3" d="M84.238,16.88c-0.172-0.437-0.411-0.831-0.739-1.168c-0.397-0.407-0.895-0.641-1.433-0.789
	c-0.644-0.178-1.303-0.244-1.971-0.235c-0.595,0.008-1.135,0.171-1.627,0.503c-0.47,0.318-0.901,0.68-1.285,1.097
	c-0.09,0.098-0.171,0.212-0.31,0.271c-0.203-0.482-0.324-0.983-0.536-1.429c-0.049-0.017-0.072-0.033-0.096-0.033
	c-1.067-0.002-2.134-0.004-3.201-0.002c-0.056,0-0.111,0.031-0.175,0.05c0.086,0.567,0.177,1.108,0.249,1.652
	c0.049,0.372,0.098,0.747,0.101,1.121c0.011,1.669,0.005,3.339,0.005,5.008c0,1.431-0.001,2.862,0.001,4.293
	c0,0.107,0.015,0.215,0.023,0.317c0.493,0.048,3.418,0.036,3.73-0.015c0.004-0.129,0.013-0.264,0.013-0.399
	c0.001-2.146,0.001-4.293,0.001-6.439c0-0.722-0.001-0.722,0.357-1.341c0.258-0.446,0.545-0.872,0.895-1.252
	c0.449-0.489,1.011-0.621,1.646-0.517c0.494,0.081,0.806,0.363,0.956,0.844c0.095,0.307,0.097,0.618,0.098,0.931
	c0.002,1.607,0.001,3.213,0.001,4.82c0,1.004-0.001,2.008,0.001,3.013c0,0.122-0.035,0.253,0.07,0.369c1.206,0,2.42,0,3.667,0
	c0.007-0.101,0.014-0.163,0.014-0.225c0.001-2.686,0.004-5.372-0.001-8.059C84.688,18.444,84.539,17.647,84.238,16.88z"/>
<path fill="#D1D2D3" d="M158.811,24.598c0.008-3.013,0.004-6.027,0.004-9.04c0-0.136,0-0.273,0-0.411
	c-0.073-0.023-0.12-0.051-0.167-0.051c-1.155,0-2.31,0.002-3.464,0.006c-0.034,0-0.067,0.03-0.125,0.057c0,0.129,0,0.266,0,0.402
	c0,1.72,0,3.44,0,5.16c0,0.565,0.003,1.13-0.002,1.695c-0.001,0.11-0.006,0.234-0.056,0.327c-0.309,0.574-0.598,1.161-1.006,1.675
	c-0.055,0.069-0.11,0.137-0.168,0.202c-0.457,0.509-1.034,0.589-1.653,0.418c-0.462-0.127-0.736-0.467-0.824-0.934
	c-0.048-0.257-0.064-0.523-0.065-0.784c-0.005-2.586-0.003-5.173-0.003-7.759c0-0.137,0-0.273,0-0.412
	c-0.07-0.024-0.117-0.053-0.163-0.053c-1.142-0.003-2.285-0.003-3.427-0.001c-0.047,0-0.093,0.028-0.166,0.051
	c0,0.139,0,0.275,0,0.411c0,2.473,0.003,4.947-0.002,7.42c-0.001,0.554,0.045,1.102,0.146,1.645
	c0.118,0.634,0.325,1.234,0.672,1.783c0.376,0.596,0.901,1,1.557,1.244c0.804,0.298,1.638,0.343,2.484,0.3
	c0.037-0.002,0.076-0.004,0.112-0.013c0.644-0.158,1.23-0.428,1.707-0.902c0.222-0.221,0.438-0.449,0.66-0.671
	c0.086-0.086,0.179-0.165,0.299-0.274c0.208,0.508,0.336,1.002,0.542,1.46c1.162,0,2.301,0,3.47,0
	c-0.094-0.602-0.195-1.156-0.264-1.715C158.856,25.425,158.81,25.015,158.811,24.598z"/>
<path fill="#D1D2D3" d="M53.375,20.535c-0.573-0.278-1.179-0.488-1.793-0.672c-0.612-0.183-1.223-0.371-1.804-0.642
	c-0.231-0.108-0.448-0.228-0.598-0.44c-0.222-0.315-0.156-0.713,0.168-0.922c0.145-0.094,0.31-0.176,0.477-0.215
	c0.555-0.128,1.117-0.132,1.68-0.041c0.56,0.091,1.095,0.261,1.609,0.5c0.282,0.131,0.568,0.252,0.847,0.375
	c0.169-0.233,1.166-2.608,1.264-3c-0.052-0.025-0.105-0.06-0.163-0.077c-1.167-0.348-2.353-0.612-3.569-0.693
	c-0.902-0.061-1.805-0.029-2.699,0.134c-0.72,0.131-1.414,0.333-2.036,0.735c-0.683,0.441-1.131,1.052-1.331,1.843
	c-0.186,0.732-0.173,1.462-0.011,2.196c0.284,1.288,1.033,2.208,2.202,2.789c0.573,0.285,1.177,0.493,1.796,0.662
	c0.579,0.158,1.155,0.334,1.728,0.514c0.165,0.052,0.319,0.143,0.472,0.226c0.116,0.063,0.179,0.176,0.205,0.303
	c0.066,0.319-0.069,0.602-0.364,0.751c-0.26,0.131-0.539,0.202-0.828,0.229c-0.953,0.089-1.874-0.027-2.756-0.42
	c-0.458-0.204-0.923-0.391-1.386-0.581c-0.076-0.031-0.162-0.036-0.237-0.052c-0.312,0.604-1.202,2.78-1.247,3.055
	c0.307,0.091,0.618,0.183,0.929,0.274c0.964,0.282,1.946,0.493,2.946,0.565c1.088,0.078,2.181,0.073,3.262-0.134
	c0.568-0.109,1.124-0.262,1.64-0.526c0.664-0.339,1.205-0.807,1.529-1.499c0.381-0.817,0.431-1.671,0.259-2.536
	C55.311,21.958,54.518,21.089,53.375,20.535z"/>
<path fill="#D1D2D3" d="M144.022,9.655c-1.224,0-2.426,0-3.653,0c-0.05,0.367-0.047,17.567,0.001,17.881
	c0.292,0.056,0.592,0.021,0.889,0.026c0.314,0.006,0.627,0.001,0.941,0.001c0.301,0,0.603,0.006,0.904-0.002
	c0.309-0.007,0.621,0.032,0.955-0.031c0-0.162,0-0.311,0-0.459c0-5.635,0-11.269,0-16.904c0-0.1,0.004-0.201-0.002-0.301
	C144.053,9.797,144.034,9.727,144.022,9.655z"/>
<path fill="#D1D2D3" d="M106.897,15.16c-0.326-0.052-3.301-0.057-3.707-0.002c0,0.168,0,0.317,0,0.466c0,3.815,0,7.63,0,11.445
	c0,0.088-0.004,0.176,0.001,0.263c0.004,0.07,0.019,0.14,0.033,0.232c0.423,0,0.823,0,1.223,0c0.414,0,0.828,0.005,1.242-0.001
	c0.398-0.006,0.797,0.027,1.189-0.02c0.06-0.407,0.086-9.743,0.036-12.172C106.914,15.299,106.903,15.227,106.897,15.16z"/>
<path fill="#D1D2D3" d="M106.985,9.991c-0.007-0.01-0.019-0.016-0.04-0.034c-0.022-0.005-0.057-0.019-0.093-0.019
	c-1.215,0.001-2.431,0.004-3.646,0.007c-0.011,0-0.022,0.009-0.033,0.015c-0.01,0.007-0.02,0.016-0.036,0.029
	c-0.006,0.029-0.02,0.064-0.02,0.1c-0.001,0.952-0.002,1.905,0,2.857c0,0.057,0.027,0.114,0.04,0.165
	c0.517,0.046,3.52,0.032,3.802-0.017c0.009-0.009,0.024-0.017,0.026-0.027c0.008-0.049,0.019-0.098,0.018-0.148
	c-0.002-0.965-0.005-1.929-0.009-2.894C106.996,10.013,106.992,10,106.985,9.991z"/>
<path fill="#D1D2D3" d="M11.532,7.459h24.047C31.913,2.911,26.297,0,20,0H0v20c0,11.046,8.954,20,20,20
	c7.009,0,13.175-3.606,16.746-9.064H11.532V7.459z"/>
<path fill="#D1D2D3" d="M29.089,22.099l-14.233-5.701v11.247h23.629C39.461,25.29,40,22.708,40,20c0-0.766-0.045-1.521-0.128-2.264
	L29.089,22.099z"/>
<path fill="#D1D2D3" d="M14.856,12.907l14.233,5.701l10.145-4.105c-0.366-1.282-0.857-2.512-1.458-3.675h-22.92V12.907z"/>
</svg>
