<?xml version="1.0" encoding="utf-8"?>
<!-- Generator: Adobe Illustrator 18.1.1, SVG Export Plug-In . SVG Version: 6.00 Build 0)  -->
<!DOCTYPE svg PUBLIC "-//W3C//DTD SVG 1.1//EN" "http://www.w3.org/Graphics/SVG/1.1/DTD/svg11.dtd">
<svg version="1.1" xmlns="http://www.w3.org/2000/svg" xmlns:xlink="http://www.w3.org/1999/xlink" x="0px" y="0px" width="150px"
	 height="86px" viewBox="0 0 150 86" enable-background="new 0 0 150 86" xml:space="preserve">
<g id="Layer_1">
	<rect fill="#EFF2E9" width="150" height="63"/>
	<path opacity="0.25" d="M139.601,13H62.647c-0.773,0-1.399-0.448-1.399-1v0c0-0.552,0.626-1,1.399-1h76.954
		c0.773,0,1.399,0.448,1.399,1v0C141,12.552,140.374,13,139.601,13z"/>
	<path opacity="0.1" d="M139.601,22H62.647c-0.773,0-1.399-0.448-1.399-1v0c0-0.552,0.626-1,1.399-1h76.954
		c0.773,0,1.399,0.448,1.399,1v0C141,21.552,140.374,22,139.601,22z"/>
	<path opacity="0.1" d="M139.601,31H62.647c-0.773,0-1.399-0.448-1.399-1v0c0-0.552,0.626-1,1.399-1h76.954
		c0.773,0,1.399,0.448,1.399,1v0C141,30.552,140.374,31,139.601,31z"/>
	<path opacity="0.1" d="M139.601,40H62.647c-0.773,0-1.399-0.448-1.399-1l0,0c0-0.552,0.626-1,1.399-1h76.954
		c0.773,0,1.399,0.448,1.399,1l0,0C141,39.552,140.374,40,139.601,40z"/>
	<path opacity="0.1" d="M139.601,49H62.647c-0.773,0-1.399-0.448-1.399-1l0,0c0-0.552,0.626-1,1.399-1h76.954
		c0.773,0,1.399,0.448,1.399,1l0,0C141,48.552,140.374,49,139.601,49z"/>
	<polygon fill="#D3D4CD" points="0,86 150,86 150,59 146.043,63 142.085,59 138.134,63 134.184,59 130.235,63 126.284,59 
		122.334,63 118.383,59 114.435,63 110.488,59 106.539,63 102.593,59 98.645,63 94.702,59 90.755,63 86.807,59 82.859,63 78.911,59 
		74.964,63 71.017,59 67.069,63 63.123,59 59.175,63 55.229,59 51.283,63 47.336,59 43.39,63 39.446,59 35.5,63 31.552,59 
		27.607,63 23.664,59 19.72,63 15.774,59 11.828,63 7.884,59 3.942,63 0,59 	"/>
	<path fill="#FFFFFF" d="M102,79H10c-0.552,0-1-0.448-1-1v-7c0-0.552,0.448-1,1-1h92c0.552,0,1,0.448,1,1v7
		C103,78.552,102.552,79,102,79z"/>
	<path fill="#E85A34" d="M140,79h-30c-0.552,0-1-0.448-1-1v-7c0-0.552,0.448-1,1-1h30c0.552,0,1,0.448,1,1v7
		C141,78.552,140.552,79,140,79z"/>
	<rect fill="#E85A34" width="150" height="2"/>
	<circle opacity="0.2" cx="30.454" cy="30.369" r="19.973"/>
	<g>
		<polygon fill="none" points="40.295,23.445 20.611,23.445 30.453,30.771 		"/>
		<path fill="#FFFFFF" d="M41.373,22.38H40.59H20.316h-0.78c-0.587,0-1.065,0.478-1.065,1.065v13.848
			c0,0.587,0.478,1.065,1.065,1.065h0.271h21.292h0.274c0.587,0,1.065-0.478,1.065-1.065V23.445
			C42.438,22.858,41.96,22.38,41.373,22.38z M40.295,23.445l-9.842,7.325l-9.842-7.325H40.295z M19.536,36.766V23.92l8.594,6.449
			L19.536,36.766z M20.611,37.293l8.411-6.26l1.113,0.829c0.094,0.07,0.206,0.105,0.318,0.105c0.112,0,0.224-0.035,0.318-0.105
			l1.113-0.829l8.411,6.26H20.611z M32.776,30.369c0.085-0.067,8.597-6.453,8.597-6.453l0.001,12.852L32.776,30.369z"/>
	</g>
</g>
<g id="Layer_2" display="none">
</g>
</svg>
