<?xml version="1.0" encoding="utf-8"?>
<!-- Generator: Adobe Illustrator 18.1.1, SVG Export Plug-In . SVG Version: 6.00 Build 0)  -->
<!DOCTYPE svg PUBLIC "-//W3C//DTD SVG 1.1//EN" "http://www.w3.org/Graphics/SVG/1.1/DTD/svg11.dtd">
<svg version="1.1" xmlns="http://www.w3.org/2000/svg" xmlns:xlink="http://www.w3.org/1999/xlink" x="0px" y="0px" width="150px"
	 height="86px" viewBox="0 0 150 86" enable-background="new 0 0 150 86" xml:space="preserve">
<g id="Layer_1">
	<rect y="63" fill="#F1632D" width="150" height="23"/>
	<rect fill="#C44219" width="150" height="63"/>
	<path opacity="0.5" fill="#FFFFFF" d="M140,13H68c-0.552,0-1-0.448-1-1v0c0-0.552,0.448-1,1-1h72c0.552,0,1,0.448,1,1v0
		C141,12.552,140.552,13,140,13z"/>
	<path opacity="0.3" fill="#FFFFFF" d="M140,22H68c-0.552,0-1-0.448-1-1v0c0-0.552,0.448-1,1-1h72c0.552,0,1,0.448,1,1v0
		C141,21.552,140.552,22,140,22z"/>
	<path opacity="0.3" fill="#FFFFFF" d="M140,31H68c-0.552,0-1-0.448-1-1v0c0-0.552,0.448-1,1-1h72c0.552,0,1,0.448,1,1v0
		C141,30.552,140.552,31,140,31z"/>
	<path opacity="0.3" fill="#FFFFFF" d="M140,40H68c-0.552,0-1-0.448-1-1l0,0c0-0.552,0.448-1,1-1h72c0.552,0,1,0.448,1,1l0,0
		C141,39.552,140.552,40,140,40z"/>
	<path opacity="0.3" fill="#FFFFFF" d="M140,49H68c-0.552,0-1-0.448-1-1l0,0c0-0.552,0.448-1,1-1h72c0.552,0,1,0.448,1,1l0,0
		C141,48.552,140.552,49,140,49z"/>
	<path fill="#FFFFFF" d="M102,79H10c-0.552,0-1-0.448-1-1v-7c0-0.552,0.448-1,1-1h92c0.552,0,1,0.448,1,1v7
		C103,78.552,102.552,79,102,79z"/>
	<path fill="#353637" d="M140,79h-30c-0.552,0-1-0.448-1-1v-7c0-0.552,0.448-1,1-1h30c0.552,0,1,0.448,1,1v7
		C141,78.552,140.552,79,140,79z"/>
	<g>
		<g>
			<g>
				<path fill="#C4562D" d="M28.462,11.433L10.033,26.14c-0.442,0.33-0.702,0.85-0.702,1.401v25.017
					c0,0.852,0.691,1.543,1.543,1.543H30.78V10.617C29.96,10.617,29.139,10.889,28.462,11.433z"/>
			</g>
			<g>
				<path fill="#9E3322" d="M51.527,26.14L33.098,11.433c-0.677-0.544-1.498-0.815-2.318-0.815v43.484h19.905
					c0.852,0,1.543-0.691,1.543-1.543V27.541C52.228,26.99,51.968,26.47,51.527,26.14z"/>
			</g>
		</g>
		<g opacity="0.2">
			<polygon fill="#231F20" points="13.421,24.736 30.935,10.309 49.682,24.736 49.682,51.353 13.421,51.353 			"/>
		</g>
		<g>
			<polygon fill="#F5E7DD" points="11.492,11.543 45.996,9.439 48.365,50.725 13.861,52.828 			"/>
			<polygon fill="#DECDC1" points="15.045,10.665 49.584,12.01 48.07,53.335 13.53,51.99 			"/>
			<rect x="13.649" y="12.694" opacity="0.05" width="34.564" height="41.353"/>
			<rect x="13.418" y="12" fill="#FFFFFF" width="34.564" height="41.353"/>
			<rect x="17.047" y="15.703" fill="#353637" width="27.157" height="3.395"/>
			<rect x="17.047" y="24.653" opacity="0.1" width="27.157" height="0.926"/>
			<rect x="17.047" y="27.43" opacity="0.1" width="27.157" height="0.926"/>
			<rect x="17.047" y="30.208" opacity="0.1" width="27.157" height="0.926"/>
			<rect x="17.047" y="32.985" opacity="0.1" width="27.157" height="0.926"/>
			<rect x="17.047" y="35.763" opacity="0.1" width="27.157" height="0.926"/>
			<rect x="17.047" y="38.54" opacity="0.1" width="27.157" height="0.926"/>
			<rect x="17.047" y="20.332" fill="#912F1F" width="27.157" height="0.926"/>
		</g>
		<path opacity="0.1" d="M51.436,26.59l-1.621,0.479c-0.411,0.121-0.795,0.319-1.132,0.584L31.089,38.546L12.877,27.653
			c-0.337-0.264-0.721-0.462-1.132-0.584l-1.621-0.479c-0.395-0.117-0.792,0.18-0.792,0.592v24.48c0,0.852,0.146,1.852,0.999,1.852
			H51.23c0.852,0,0.999-0.999,0.999-1.852v-24.48C52.228,26.77,51.832,26.473,51.436,26.59z"/>
		<path fill="#DC4426" d="M51.436,26.59l-1.621,0.479c-0.411,0.121-0.795,0.319-1.132,0.584l-17.44,11.973L51.23,54.131
			c0.852,0,0.999-0.999,0.999-1.852V27.182C52.228,26.77,51.832,26.473,51.436,26.59z"/>
		<path opacity="0.04" d="M32.018,39.094l-1.816,1.213l20.483,13.793l0.405,0.03c0.779,0,1.138-0.579,1.138-1.573v-0.51
			L32.018,39.094z"/>
		<path fill="#F1632D" d="M10.124,26.59l1.621,0.479c0.411,0.121,0.795,0.319,1.132,0.584l18.366,11.973L10.331,54.131
			c-0.852,0-0.999-0.999-0.999-1.852V27.182C9.332,26.77,9.728,26.473,10.124,26.59z"/>
		<path fill="#E65125" d="M9.778,53.238l21.465-13.611l20.539,13.611c0.205,0.41-0.093,0.893-0.552,0.893H10.331
			C9.872,54.131,9.573,53.648,9.778,53.238z"/>
	</g>
</g>
<g id="Layer_2" display="none">
</g>
</svg>
