<?xml version="1.0" encoding="utf-8"?>
<!-- Generator: Adobe Illustrator 18.1.1, SVG Export Plug-In . SVG Version: 6.00 Build 0)  -->
<!DOCTYPE svg PUBLIC "-//W3C//DTD SVG 1.1//EN" "http://www.w3.org/Graphics/SVG/1.1/DTD/svg11.dtd">
<svg version="1.1" xmlns="http://www.w3.org/2000/svg" xmlns:xlink="http://www.w3.org/1999/xlink" x="0px" y="0px" width="150px"
	 height="86px" viewBox="0 0 150 86" enable-background="new 0 0 150 86" xml:space="preserve">
<g id="Layer_1">
	<rect fill="#92C927" width="150" height="63"/>
	<path opacity="0.6" fill="#FFFFFF" d="M136.702,14H65.298C64.581,14,64,13.552,64,13v0c0-0.552,0.581-1,1.298-1h71.404
		c0.717,0,1.298,0.448,1.298,1v0C138,13.552,137.419,14,136.702,14z"/>
	<path opacity="0.45" fill="#FFFFFF" d="M136.702,23H65.298C64.581,23,64,22.552,64,22v0c0-0.552,0.581-1,1.298-1h71.404
		c0.717,0,1.298,0.448,1.298,1v0C138,22.552,137.419,23,136.702,23z"/>
	<path opacity="0.45" fill="#FFFFFF" d="M136.702,32H65.298C64.581,32,64,31.552,64,31v0c0-0.552,0.581-1,1.298-1h71.404
		c0.717,0,1.298,0.448,1.298,1v0C138,31.552,137.419,32,136.702,32z"/>
	<path opacity="0.45" fill="#FFFFFF" d="M136.702,41H65.298C64.581,41,64,40.552,64,40l0,0c0-0.552,0.581-1,1.298-1h71.404
		c0.717,0,1.298,0.448,1.298,1l0,0C138,40.552,137.419,41,136.702,41z"/>
	<path opacity="0.45" fill="#FFFFFF" d="M136.702,50H65.298C64.581,50,64,49.552,64,49l0,0c0-0.552,0.581-1,1.298-1h71.404
		c0.717,0,1.298,0.448,1.298,1l0,0C138,49.552,137.419,50,136.702,50z"/>
	<rect y="61" fill="#F0F0F0" width="150" height="25"/>
	<path opacity="0.2" d="M103,77H12c-0.552,0-1-0.448-1-1v-7c0-0.552,0.448-1,1-1h91c0.552,0,1,0.448,1,1v7
		C104,76.552,103.552,77,103,77z"/>
	<path fill="#3B3B3B" d="M138,77h-27c-0.552,0-1-0.448-1-1v-7c0-0.552,0.448-1,1-1h27c0.552,0,1,0.448,1,1v7
		C139,76.552,138.552,77,138,77z"/>
	<g>
		<path fill="#719C28" d="M147,3v80H3V3H147 M150,0H0v86h150V0L150,0z"/>
	</g>
	<g>
		<circle opacity="0.2" cx="31.955" cy="29.75" r="17.987"/>
		<g>
			<defs>
				<path id="SVGID_45_" d="M50.845,42.712c-0.013-0.073-0.029-0.15-0.052-0.24l-1.808-6.935c0.617-1.817,0.957-3.762,0.957-5.787
					c0-9.934-8.053-17.987-17.987-17.987c-5.295,0-10.055,2.289-13.347,5.931l-5.118-0.789c-0.093-0.014-0.176,0.013-0.241,0.064
					c-0.053,0.035-0.091,0.086-0.114,0.145c-0.001,0.002-0.001,0.004-0.002,0.006c-0.007,0.018-0.012,0.036-0.015,0.055
					c-0.001,0.005-0.003,0.009-0.004,0.013l-1.755,11.394c-0.013,0.087-0.02,0.158-0.021,0.221c-0.031,0.163,0.076,0.335,0.26,0.363
					l0.173,0.027l0,0h0l2.203,0.339c-0.001,0.073-0.005,0.144-0.005,0.217c0,9.934,8.053,17.987,17.987,17.987
					c0.686,0,1.362-0.042,2.027-0.117c0.01,0.014,0.022,0.027,0.032,0.041l0.338-0.088c1.477-0.197,2.897-0.573,4.239-1.106
					l8.655-2.257l3.301-0.863C50.834,43.272,50.967,42.956,50.845,42.712z"/>
			</defs>
			<clipPath id="SVGID_2_">
				<use xlink:href="#SVGID_45_"  overflow="visible"/>
			</clipPath>
			<g opacity="0.9" clip-path="url(#SVGID_2_)">
				<path fill="#EFE2D0" d="M34.019,20.108l-0.851,0.19c-0.213,0.029-0.418,0.098-0.605,0.203l-9.63,3.838l9.101,7.976
					c0.422,0.065,0.512-0.037,0.577-0.459l1.755-11.394C34.398,20.257,34.224,20.08,34.019,20.108z"/>
				<path fill="#EFE2D0" d="M13.552,16.955l0.755,0.437c0.194,0.091,0.369,0.219,0.516,0.376l8.298,6.6l-11.35,4.825
					c-0.422-0.065-0.477-0.189-0.412-0.611l1.755-11.394C13.146,16.984,13.365,16.867,13.552,16.955z"/>
				<path opacity="0.02" d="M11.602,28.714l11.461-4.981l9.349,8.187c0.07,0.219-0.114,0.435-0.342,0.4l-20.262-3.122
					C11.58,29.164,11.469,28.902,11.602,28.714z"/>
				<path fill="#F9EDDB" d="M11.388,28.681l11.55-4.341l9.625,7.604c0.072,0.219-0.115,0.435-0.346,0.4l-20.619-3.176
					C11.367,29.131,11.254,28.869,11.388,28.681z"/>
				<path opacity="0.03" d="M34.314,20.583l-11.091,5.785c-0.389,0.203-0.866,0.131-1.178-0.179l-8.917-8.87
					c-0.072-0.219,0.115-0.435,0.347-0.4l20.629,3.178C34.335,20.133,34.449,20.395,34.314,20.583z"/>
				<path fill="#FFF5E6" d="M34.291,20.563L23.3,25.657c-0.374,0.174-0.819,0.106-1.125-0.171l-9.029-8.18
					c-0.072-0.219,0.115-0.435,0.346-0.4l20.589,3.172C34.312,20.113,34.425,20.375,34.291,20.563z"/>
			</g>
			<g opacity="0.5" clip-path="url(#SVGID_2_)">
				<path fill="#EFE2D0" d="M45.451,14.665l-0.318,0.199c-0.082,0.042-0.156,0.099-0.217,0.169l-3.361,2.934l4.835,1.938
					c0.181-0.034,0.203-0.088,0.169-0.269l-0.915-4.877C45.627,14.672,45.531,14.625,45.451,14.665z"/>
				<path fill="#EFE2D0" d="M36.691,16.309l0.369,0.07c0.092,0.009,0.181,0.036,0.263,0.079l4.312,1.494l-3.918,3.581
					c-0.181,0.034-0.221-0.009-0.255-0.189l-0.915-4.877C36.531,16.379,36.603,16.3,36.691,16.309z"/>
				<path opacity="0.02" d="M37.58,21.362l3.941-3.66l4.965,1.988c0.06,0.079,0.016,0.193-0.082,0.211l-8.672,1.628
					C37.635,21.548,37.553,21.457,37.58,21.362z"/>
				<path fill="#F9EDDB" d="M37.489,21.379l4.069-3.413l4.994,1.712c0.061,0.079,0.015,0.193-0.084,0.212l-8.825,1.657
					C37.544,21.565,37.461,21.475,37.489,21.379z"/>
				<path opacity="0.03" d="M45.639,14.816l-3.676,3.933c-0.129,0.138-0.333,0.177-0.504,0.096l-4.887-2.327
					c-0.061-0.079-0.015-0.193,0.084-0.212l8.829-1.657C45.583,14.63,45.667,14.72,45.639,14.816z"/>
				<path fill="#FFF5E6" d="M45.627,14.811l-3.734,3.639c-0.127,0.124-0.318,0.16-0.481,0.091l-4.835-2.031
					c-0.061-0.079-0.015-0.193,0.083-0.212l8.812-1.654C45.571,14.625,45.655,14.715,45.627,14.811z"/>
			</g>
			<g clip-path="url(#SVGID_2_)">
				<path fill="#EEE6D9" d="M45.923,26.069l-1.021,0.74c-0.266,0.16-0.499,0.369-0.687,0.616L33.633,38.044l16.657,5.368
					c0.598-0.156,0.659-0.342,0.503-0.94l-4.205-16.133C46.512,26.05,46.179,25.914,45.923,26.069z"/>
				<path fill="#EEE6D9" d="M16.944,33.622l1.253,0.148c0.31,0.01,0.616,0.079,0.901,0.202L33.9,37.975L21.6,50.89
					c-0.598,0.156-0.742,0.023-0.898-0.575l-4.205-16.133C16.422,33.893,16.646,33.613,16.944,33.622z"/>
				<path opacity="0.02" d="M21.1,50.352l12.357-13.186l17.106,5.506c0.219,0.25,0.098,0.644-0.224,0.728l-28.689,7.478
					C21.329,50.961,21.031,50.677,21.1,50.352z"/>
				<path fill="#F9F1E6" d="M20.798,50.43l12.843-12.388l17.139,4.573c0.222,0.25,0.097,0.644-0.231,0.729l-29.193,7.61
					C21.028,51.04,20.727,50.756,20.798,50.43z"/>
				<path opacity="0.03" d="M46.587,26.53L35.181,40.571c-0.4,0.493-1.075,0.67-1.666,0.438l-16.924-6.66
					c-0.222-0.25-0.097-0.644,0.231-0.729l29.207-7.613C46.357,25.92,46.658,26.204,46.587,26.53z"/>
				<path fill="#FFF8F0" d="M46.545,26.516L34.876,39.583c-0.397,0.445-1.027,0.61-1.592,0.418L16.606,34.32
					c-0.221-0.25-0.097-0.644,0.23-0.729l29.151-7.599C46.315,25.907,46.616,26.19,46.545,26.516z"/>
			</g>
		</g>
	</g>
</g>
<g id="Layer_2" display="none">
</g>
</svg>
