<?xml version="1.0" encoding="utf-8"?>
<!-- Generator: Adobe Illustrator 18.1.1, SVG Export Plug-In . SVG Version: 6.00 Build 0)  -->
<!DOCTYPE svg PUBLIC "-//W3C//DTD SVG 1.1//EN" "http://www.w3.org/Graphics/SVG/1.1/DTD/svg11.dtd">
<svg version="1.1" xmlns="http://www.w3.org/2000/svg" xmlns:xlink="http://www.w3.org/1999/xlink" x="0px" y="0px" width="150px"
	 height="86px" viewBox="0 0 150 86" enable-background="new 0 0 150 86" xml:space="preserve">
<g id="Layer_1">
	<rect fill="#FFFFFF" width="150" height="86"/>
	<g>
		<polygon fill="none" points="100.583,0 14.583,86 19.065,86 105.065,0 		"/>
		<polygon fill="none" points="107.854,0 21.854,86 26.336,86 112.336,0 		"/>
		<polygon fill="none" points="93.311,0 7.311,86 11.794,86 97.794,0 		"/>
		<polygon fill="none" points="86.04,0 0.04,86 4.523,86 90.523,0 		"/>
		<polygon fill="none" points="129.667,0 43.667,86 48.149,86 134.149,0 		"/>
		<polygon fill="none" points="136.938,0 50.938,86 55.42,86 141.42,0 		"/>
		<polygon fill="none" points="115.125,0 29.125,86 33.607,86 119.607,0 		"/>
		<polygon fill="none" points="144.209,0 58.209,86 62.691,86 148.691,0 		"/>
		<polygon fill="none" points="78.769,0 0,78.769 0,83.251 83.251,0 		"/>
		<polygon fill="none" points="122.396,0 36.396,86 40.878,86 126.878,0 		"/>
		<polygon fill="none" points="71.498,0 0,71.498 0,75.98 75.98,0 		"/>
		<polygon fill="none" points="21.56,0 0,21.56 0,25.082 25.082,0 		"/>
		<polygon fill="none" points="14.289,0 0,14.289 0,18.771 18.771,0 		"/>
		<polygon fill="none" points="7.018,0 0,7.018 0,11.5 11.5,0 		"/>
		<polygon fill="none" points="0,0 0,4.229 4.229,0 		"/>
		<polygon fill="none" points="27.871,0 0,27.871 0,32.354 32.354,0 		"/>
		<polygon fill="none" points="56.956,0 0,56.956 0,61.438 61.438,0 		"/>
		<polygon fill="none" points="150,1.48 65.48,86 69.963,86 150,5.963 		"/>
		<polygon fill="none" points="35.143,0 0,35.143 0,39.625 39.625,0 		"/>
		<polygon fill="none" points="64.227,0 0,64.227 0,68.709 68.709,0 		"/>
		<polygon fill="none" points="49.685,0 0,49.685 0,54.167 54.167,0 		"/>
		<polygon fill="none" points="42.414,0 0,42.414 0,46.896 46.896,0 		"/>
		<polygon fill="none" points="150,30.565 94.565,86 99.047,86 150,35.047 		"/>
		<polygon fill="none" points="150,59.649 123.649,86 128.131,86 150,64.131 		"/>
		<polygon fill="none" points="150,23.294 87.294,86 91.776,86 150,27.776 		"/>
		<polygon fill="none" points="150,45.107 109.107,86 113.589,86 150,49.589 		"/>
		<polygon fill="none" points="150,37.836 101.836,86 106.318,86 150,42.318 		"/>
		<polygon fill="none" points="150,52.378 116.378,86 120.86,86 150,56.86 		"/>
		<polygon fill="none" points="150,16.023 80.023,86 84.505,86 150,20.505 		"/>
		<polygon fill="none" points="150,66.92 130.92,86 135.403,86 150,71.403 		"/>
		<polygon fill="none" points="150,8.751 72.751,86 77.234,86 150,13.234 		"/>
		<polygon fill="none" points="150,74.192 138.192,86 142.674,86 150,78.674 		"/>
		<polygon fill="none" points="145.463,86 150,86 150,81.463 		"/>
		<polygon fill="#4251DB" points="150,71.403 135.403,86 138.192,86 150,74.192 		"/>
		<polygon fill="#E85A34" points="150,64.131 128.131,86 130.92,86 150,66.92 		"/>
		<polygon fill="#4251DB" points="150,56.86 120.86,86 123.649,86 150,59.649 		"/>
		<polygon fill="#E85A34" points="150,49.589 113.589,86 116.378,86 150,52.378 		"/>
		<polygon fill="#4251DB" points="150,42.318 106.318,86 109.107,86 150,45.107 		"/>
		<polygon fill="#E85A34" points="150,35.047 99.047,86 101.836,86 150,37.836 		"/>
		<polygon fill="#4251DB" points="150,27.776 91.776,86 94.565,86 150,30.565 		"/>
		<polygon fill="#E85A34" points="150,20.505 84.505,86 87.294,86 150,23.294 		"/>
		<polygon fill="#4251DB" points="150,13.234 77.234,86 80.023,86 150,16.023 		"/>
		<polygon fill="#E85A34" points="150,5.963 69.963,86 72.751,86 150,8.751 		"/>
		<polygon fill="#4251DB" points="150,0 148.691,0 62.691,86 65.48,86 150,1.48 		"/>
		<polygon fill="#E85A34" points="141.42,0 55.42,86 58.209,86 144.209,0 		"/>
		<polygon fill="#4251DB" points="134.149,0 48.149,86 50.938,86 136.938,0 		"/>
		<polygon fill="#E85A34" points="126.878,0 40.878,86 43.667,86 129.667,0 		"/>
		<polygon fill="#4251DB" points="119.607,0 33.607,86 36.396,86 122.396,0 		"/>
		<polygon fill="#E85A34" points="112.336,0 26.336,86 29.125,86 115.125,0 		"/>
		<polygon fill="#E85A34" points="97.794,0 11.794,86 14.583,86 100.583,0 		"/>
		<polygon fill="#E85A34" points="83.251,0 0,83.251 0,86 0.04,86 86.04,0 		"/>
		<polygon fill="#E85A34" points="68.709,0 0,68.709 0,71.498 71.498,0 		"/>
		<polygon fill="#4251DB" points="46.896,0 0,46.896 0,49.685 49.685,0 		"/>
		<polygon fill="#4251DB" points="105.065,0 19.065,86 21.854,86 107.854,0 		"/>
		<polygon fill="#4251DB" points="90.523,0 4.523,86 7.311,86 93.311,0 		"/>
		<polygon fill="#4251DB" points="75.98,0 0,75.98 0,78.769 78.769,0 		"/>
		<polygon fill="#4251DB" points="61.438,0 0,61.438 0,64.227 64.227,0 		"/>
		<polygon fill="#4251DB" points="32.354,0 0,32.354 0,35.143 35.143,0 		"/>
		<polygon fill="#E85A34" points="39.625,0 0,39.625 0,42.414 42.414,0 		"/>
		<polygon fill="#E85A34" points="54.167,0 0,54.167 0,56.956 56.956,0 		"/>
		<polygon fill="#E85A34" points="25.082,0 0,25.082 0,27.871 27.871,0 		"/>
		<polygon fill="#4251DB" points="4.229,0 0,4.229 0,7.018 7.018,0 		"/>
		<polygon fill="#4251DB" points="18.771,0 0,18.771 0,21.56 21.56,0 		"/>
		<polygon fill="#E85A34" points="11.5,0 0,11.5 0,14.289 14.289,0 		"/>
		<polygon fill="#E85A34" points="150,78.674 142.674,86 145.463,86 150,81.463 		"/>
	</g>
	<rect x="2" y="2" fill="#FFFFFF" width="146" height="61"/>
	<rect x="2" y="60" fill="#FFFFFF" width="146" height="24"/>
	<path opacity="0.25" d="M140,14H59.209c-0.552,0-1-0.448-1-1v0c0-0.552,0.448-1,1-1H140c0.552,0,1,0.448,1,1v0
		C141,13.552,140.552,14,140,14z"/>
	<path opacity="0.1" d="M140,23H59.209c-0.552,0-1-0.448-1-1v0c0-0.552,0.448-1,1-1H140c0.552,0,1,0.448,1,1v0
		C141,22.552,140.552,23,140,23z"/>
	<path opacity="0.1" d="M140,32H59.209c-0.552,0-1-0.448-1-1v0c0-0.552,0.448-1,1-1H140c0.552,0,1,0.448,1,1v0
		C141,31.552,140.552,32,140,32z"/>
	<path opacity="0.1" d="M140,41H59.209c-0.552,0-1-0.448-1-1l0,0c0-0.552,0.448-1,1-1H140c0.552,0,1,0.448,1,1l0,0
		C141,40.552,140.552,41,140,41z"/>
	<path opacity="0.1" d="M140,50H59.209c-0.552,0-1-0.448-1-1l0,0c0-0.552,0.448-1,1-1H140c0.552,0,1,0.448,1,1l0,0
		C141,49.552,140.552,50,140,50z"/>
	<path opacity="0.15" fill="#222229" d="M102,76H10c-0.552,0-1-0.448-1-1v-7c0-0.552,0.448-1,1-1h92c0.552,0,1,0.448,1,1v7
		C103,75.552,102.552,76,102,76z"/>
	<path fill="#4251DB" d="M140,76h-30c-0.552,0-1-0.448-1-1v-7c0-0.552,0.448-1,1-1h30c0.552,0,1,0.448,1,1v7
		C141,75.552,140.552,76,140,76z"/>
	<circle opacity="0.2" cx="28.975" cy="30.833" r="20.288"/>
	<g>
		<polygon fill="none" points="38.971,23.799 18.976,23.799 28.974,31.24 		"/>
		<path fill="#FFFFFF" d="M40.066,22.717H39.27H18.677h-0.793c-0.597,0-1.082,0.485-1.082,1.082v14.067
			c0,0.597,0.485,1.082,1.082,1.082h0.276h21.628h0.279c0.597,0,1.082-0.485,1.082-1.082V23.799
			C41.148,23.203,40.663,22.717,40.066,22.717z M38.971,23.799l-9.997,7.441l-9.997-7.441H38.971z M17.884,37.33V24.282l8.729,6.551
			L17.884,37.33z M18.976,37.866l8.543-6.359l1.131,0.842c0.096,0.071,0.209,0.107,0.323,0.107c0.114,0,0.227-0.036,0.323-0.107
			l1.131-0.842l8.543,6.359H18.976z M31.334,30.833c0.086-0.068,8.733-6.555,8.733-6.555l0.001,13.055L31.334,30.833z"/>
	</g>
</g>
<g id="Layer_2" display="none">
</g>
</svg>
