<?xml version="1.0" encoding="utf-8"?>
<!-- Generator: Adobe Illustrator 18.1.1, SVG Export Plug-In . SVG Version: 6.00 Build 0)  -->
<!DOCTYPE svg PUBLIC "-//W3C//DTD SVG 1.1//EN" "http://www.w3.org/Graphics/SVG/1.1/DTD/svg11.dtd">
<svg version="1.1" xmlns="http://www.w3.org/2000/svg" xmlns:xlink="http://www.w3.org/1999/xlink" x="0px" y="0px" width="150px"
	 height="86px" viewBox="0 0 150 86" enable-background="new 0 0 150 86" xml:space="preserve">
<g id="Layer_1">
	<rect fill="#F0F0F0" width="150" height="86"/>
	<rect x="99" fill="#5741BD" width="51" height="86"/>
	<path fill="#FF8D14" d="M140,68h-30c-0.552,0-1-0.448-1-1v-7c0-0.552,0.448-1,1-1h30c0.552,0,1,0.448,1,1v7
		C141,67.552,140.552,68,140,68z"/>
	<path fill="#FFFFFF" d="M140,53h-30c-0.552,0-1-0.448-1-1v-7c0-0.552,0.448-1,1-1h30c0.552,0,1,0.448,1,1v7
		C141,52.552,140.552,53,140,53z"/>
	<path fill="#FFFFFF" d="M140,38h-30c-0.552,0-1-0.448-1-1v-7c0-0.552,0.448-1,1-1h30c0.552,0,1,0.448,1,1v7
		C141,37.552,140.552,38,140,38z"/>
	<path fill="#FFFFFF" d="M140,23.312h-30c-0.552,0-1-0.448-1-1v-7c0-0.552,0.448-1,1-1h30c0.552,0,1,0.448,1,1v7
		C141,22.865,140.552,23.312,140,23.312z"/>
	<path opacity="0.25" d="M89.097,57H11.43c-0.552,0-1-0.448-1-1l0,0c0-0.552,0.448-1,1-1h77.667c0.552,0,1,0.448,1,1l0,0
		C90.097,56.552,89.649,57,89.097,57z"/>
	<path opacity="0.1" d="M89.097,66H11.43c-0.552,0-1-0.448-1-1l0,0c0-0.552,0.448-1,1-1h77.667c0.552,0,1,0.448,1,1l0,0
		C90.097,65.552,89.649,66,89.097,66z"/>
	<path opacity="0.1" d="M89.097,75H11.43c-0.552,0-1-0.448-1-1l0,0c0-0.552,0.448-1,1-1h77.667c0.552,0,1,0.448,1,1l0,0
		C90.097,74.552,89.649,75,89.097,75z"/>
	<circle opacity="0.2" cx="50.24" cy="27.381" r="17.838"/>
	<g>
		<polygon fill="none" points="59.029,21.197 41.449,21.197 50.239,27.74 		"/>
		<path fill="#FFFFFF" d="M59.992,20.246h-0.7H41.186h-0.697c-0.525,0-0.951,0.427-0.951,0.951v12.368
			c0,0.525,0.427,0.951,0.951,0.951h0.242h19.016h0.245c0.525,0,0.951-0.427,0.951-0.951V21.197
			C60.943,20.673,60.517,20.246,59.992,20.246z M59.029,21.197l-8.79,6.542l-8.79-6.542H59.029z M40.489,33.094V21.622l7.675,5.76
			L40.489,33.094z M41.449,33.565l7.512-5.591l0.994,0.74c0.084,0.063,0.184,0.094,0.284,0.094s0.2-0.031,0.284-0.094l0.994-0.74
			l7.512,5.591H41.449z M52.314,27.381c0.076-0.06,7.678-5.763,7.678-5.763l0.001,11.478L52.314,27.381z"/>
	</g>
</g>
<g id="Layer_2" display="none">
</g>
</svg>
