<?xml version="1.0" encoding="utf-8"?>
<!-- Generator: Adobe Illustrator 18.1.1, SVG Export Plug-In . SVG Version: 6.00 Build 0)  -->
<!DOCTYPE svg PUBLIC "-//W3C//DTD SVG 1.1//EN" "http://www.w3.org/Graphics/SVG/1.1/DTD/svg11.dtd">
<svg version="1.1" xmlns="http://www.w3.org/2000/svg" xmlns:xlink="http://www.w3.org/1999/xlink" x="0px" y="0px" width="150px"
	 height="86px" viewBox="0 0 150 86" enable-background="new 0 0 150 86" xml:space="preserve">
<g id="Layer_1">
	<rect y="63" fill="#4B5B7D" width="150" height="23"/>
	<rect fill="#6083AB" width="150" height="63"/>
	<path opacity="0.5" fill="#FFFFFF" d="M140,13H67c-0.552,0-1-0.448-1-1v0c0-0.552,0.448-1,1-1h73c0.552,0,1,0.448,1,1v0
		C141,12.552,140.552,13,140,13z"/>
	<path opacity="0.3" fill="#FFFFFF" d="M140,22H67c-0.552,0-1-0.448-1-1v0c0-0.552,0.448-1,1-1h73c0.552,0,1,0.448,1,1v0
		C141,21.552,140.552,22,140,22z"/>
	<path opacity="0.3" fill="#FFFFFF" d="M140,31H67c-0.552,0-1-0.448-1-1v0c0-0.552,0.448-1,1-1h73c0.552,0,1,0.448,1,1v0
		C141,30.552,140.552,31,140,31z"/>
	<path opacity="0.3" fill="#FFFFFF" d="M140,40H67c-0.552,0-1-0.448-1-1l0,0c0-0.552,0.448-1,1-1h73c0.552,0,1,0.448,1,1l0,0
		C141,39.552,140.552,40,140,40z"/>
	<path opacity="0.3" fill="#FFFFFF" d="M140,49H67c-0.552,0-1-0.448-1-1l0,0c0-0.552,0.448-1,1-1h73c0.552,0,1,0.448,1,1l0,0
		C141,48.552,140.552,49,140,49z"/>
	<path fill="#FFFFFF" d="M102,79H10c-0.552,0-1-0.448-1-1v-7c0-0.552,0.448-1,1-1h92c0.552,0,1,0.448,1,1v7
		C103,78.552,102.552,79,102,79z"/>
	<path fill="#74C7A5" d="M140,79h-30c-0.552,0-1-0.448-1-1v-7c0-0.552,0.448-1,1-1h30c0.552,0,1,0.448,1,1v7
		C141,78.552,140.552,79,140,79z"/>
	<rect fill="#74C7A5" width="150" height="2"/>
	<g>
		<g>
			<path fill="#6FD4E8" d="M11.453,44.207c-0.298,0-0.551-0.252-0.551-0.551V16.011c0-0.298,0.252-0.551,0.551-0.551h42.808
				c0.298,0,0.551,0.252,0.551,0.551v27.645c0,0.298-0.252,0.551-0.551,0.551H11.453z"/>
			<path fill="#4B5B7D" d="M53.074,17.198V42.47H12.64V17.198H53.074 M54.261,13.723H11.453c-1.258,0-2.288,1.03-2.288,2.288v27.645
				c0,1.258,1.03,2.288,2.288,2.288h42.808c1.258,0,2.288-1.03,2.288-2.288V16.011C56.549,14.753,55.52,13.723,54.261,13.723
				L54.261,13.723z"/>
		</g>
		<g>
			<rect x="27.487" y="46.021" fill="#2D3C5C" width="10.74" height="8.768"/>
			<path fill="#4B5B7D" d="M44.229,54.79H21.485v-0.169c0-1.477,1.197-2.674,2.674-2.674h17.396c1.477,0,2.674,1.197,2.674,2.674
				V54.79z"/>
		</g>
		<g>
			<g opacity="0.05">
				<rect x="14.575" y="21.305" width="1.856" height="21.165"/>
			</g>
			<path fill="#F0EBE6" d="M16.43,19.093v20.849c0,1.396-1.131,2.527-2.527,2.527h20.217c1.39,0,2.527-1.137,2.527-2.527V25.411
				l-6.002-6.318L16.43,19.093z"/>
			<rect x="27.487" y="26.359" fill="#D3CFC9" width="6.634" height="1.264"/>
			<rect x="18.958" y="26.359" fill="#E57C58" width="6.95" height="6.95"/>
			<rect x="27.487" y="29.202" fill="#D3CFC9" width="6.634" height="1.264"/>
			<rect x="27.487" y="32.045" fill="#D3CFC9" width="6.634" height="1.264"/>
			<rect x="18.958" y="34.888" fill="#C2BEB9" width="15.163" height="1.264"/>
			<rect x="18.958" y="37.731" fill="#C2BEB9" width="15.163" height="1.264"/>
			<rect x="18.958" y="40.574" fill="#C2BEB9" width="15.163" height="1.264"/>
			<rect x="18.958" y="22.568" fill="#B7B3AE" width="15.163" height="2.211"/>
			<polygon fill="#FFFFFF" points="30.646,25.411 36.648,25.411 30.646,19.093 			"/>
			<polygon opacity="0.05" points="36.648,25.411 30.646,25.411 36.648,30.782 			"/>
		</g>
		<g>
			<g opacity="0.1">
				<rect x="23.736" y="13.723" width="1.856" height="28.747"/>
			</g>
			<path fill="#FFFAF5" d="M25.591,9.301v30.642c0,1.396-1.131,2.527-2.527,2.527h24.008c1.39,0,2.527-1.137,2.527-2.527V15.619
				l-6.002-6.318L25.591,9.301z"/>
			<rect x="38.859" y="16.566" fill="#D3CFC9" width="8.213" height="1.264"/>
			<rect x="28.119" y="16.566" fill="#FFAB4A" width="9.161" height="9.793"/>
			<rect x="38.859" y="19.409" fill="#D3CFC9" width="8.213" height="1.264"/>
			<rect x="38.859" y="22.252" fill="#D3CFC9" width="8.213" height="1.264"/>
			<rect x="38.859" y="25.095" fill="#D3CFC9" width="8.213" height="1.264"/>
			<rect x="28.119" y="27.938" fill="#D3CFC9" width="18.954" height="1.264"/>
			<rect x="28.119" y="30.782" fill="#D3CFC9" width="18.954" height="1.264"/>
			<rect x="28.119" y="33.625" fill="#D3CFC9" width="9.161" height="1.264"/>
			<rect x="28.119" y="36.468" fill="#D3CFC9" width="9.161" height="1.264"/>
			<rect x="28.119" y="39.311" fill="#D3CFC9" width="9.161" height="1.264"/>
			<rect x="28.119" y="12.775" fill="#B7B3AE" width="18.954" height="2.211"/>
			<polygon fill="#FFFFFF" points="43.597,15.619 49.599,15.619 43.597,9.301 			"/>
			<polygon opacity="0.1" points="49.599,15.619 43.597,15.619 49.599,20.989 			"/>
			<rect x="38.859" y="33.625" fill="#74C7A5" width="8.213" height="6.95"/>
		</g>
	</g>
</g>
<g id="Layer_2" display="none">
</g>
</svg>
