<?xml version="1.0" encoding="utf-8"?>
<!-- Generator: Adobe Illustrator 18.1.1, SVG Export Plug-In . SVG Version: 6.00 Build 0)  -->
<!DOCTYPE svg PUBLIC "-//W3C//DTD SVG 1.1//EN" "http://www.w3.org/Graphics/SVG/1.1/DTD/svg11.dtd">
<svg version="1.1" xmlns="http://www.w3.org/2000/svg" xmlns:xlink="http://www.w3.org/1999/xlink" x="0px" y="0px" width="150px"
	 height="86px" viewBox="0 0 150 86" enable-background="new 0 0 150 86" xml:space="preserve">
<g id="Layer_1">
	<rect fill="#FFB040" width="150" height="63"/>
	<g>
		<g>
			<polygon fill="#C4C6CF" points="78.251,38.833 68.533,38.833 69.433,33.674 77.351,33.674 			"/>
			<path fill="#FFFFFF" d="M80.77,38.833H66.013v-0.03c0-0.878,0.712-1.589,1.589-1.589h11.578c0.878,0,1.589,0.712,1.589,1.589
				V38.833z"/>
		</g>
		<g opacity="0.7">
			<path fill="#E0D9CD" d="M106.475,11.418l-0.338,0.299c-0.089,0.065-0.165,0.149-0.223,0.247l-3.399,4.247l6.131,1.919
				c0.208-0.067,0.223-0.14,0.146-0.372l-2.071-6.242C106.685,11.405,106.561,11.356,106.475,11.418z"/>
			<path fill="#E0D9CD" d="M96.406,14.663l0.452,0.045c0.111,0.001,0.223,0.024,0.329,0.07l5.421,1.406l-3.93,5.16
				c-0.208,0.067-0.264,0.017-0.341-0.215l-2.071-6.242C96.229,14.773,96.299,14.662,96.406,14.663z"/>
			<path fill="#EDE7DF" d="M98.375,21.172l4.143-4.96l6.275,1.604c0.088,0.095,0.057,0.25-0.057,0.287L98.592,21.37
				C98.479,21.407,98.361,21.299,98.375,21.172z"/>
			<path fill="#FFF8F0" d="M106.713,11.586l-3.7,5.212c-0.126,0.178-0.345,0.248-0.553,0.179l-6.15-2.04
				c-0.088-0.095-0.057-0.25,0.056-0.286l10.129-3.263C106.609,11.351,106.727,11.459,106.713,11.586z"/>
		</g>
		<g opacity="0.7">
			<path fill="#E0D9CD" d="M51.263,20.895l-0.439,0.104c-0.109,0.015-0.216,0.053-0.314,0.112l-5.004,2.135l4.495,4.59
				c0.215,0.039,0.263-0.018,0.305-0.258l1.128-6.48C51.454,20.982,51.369,20.881,51.263,20.895z"/>
			<path fill="#E0D9CD" d="M40.857,18.991l0.377,0.253c0.098,0.053,0.185,0.127,0.257,0.217l4.112,3.803l-5.903,2.688
				c-0.215-0.039-0.24-0.11-0.199-0.35l1.128-6.48C40.648,19.005,40.763,18.94,40.857,18.991z"/>
			<path fill="#EDE7DF" d="M39.513,25.658l5.996-2.411l4.77,4.381c0.032,0.125-0.068,0.247-0.185,0.226l-10.483-1.918
				C39.494,25.914,39.441,25.764,39.513,25.658z"/>
			<path fill="#FFF8F0" d="M51.393,21.155l-5.725,2.843c-0.195,0.097-0.421,0.056-0.572-0.103l-4.454-4.706
				c-0.032-0.125,0.068-0.247,0.185-0.226l10.468,1.915C51.413,20.899,51.466,21.049,51.393,21.155z"/>
		</g>
		<g opacity="0.6">
			<path fill="#E0D9CD" d="M115.517,24.67l-0.324-0.02c-0.079-0.012-0.16-0.008-0.239,0.012l-3.889,0.431l2.143,4.094
				c0.14,0.072,0.185,0.042,0.263-0.115l2.122-4.228C115.631,24.77,115.593,24.682,115.517,24.67z"/>
			<path fill="#E0D9CD" d="M108.746,21.199l0.207,0.253c0.056,0.057,0.101,0.126,0.132,0.202l2.042,3.472l-4.623,0.626
				c-0.14-0.072-0.143-0.126-0.064-0.282l2.122-4.228C108.6,21.165,108.692,21.144,108.746,21.199z"/>
			<path fill="#EDE7DF" d="M106.437,25.511l4.63-0.416l2.376,4.007c-0.004,0.093-0.098,0.156-0.174,0.117l-6.821-3.497
				C106.37,25.683,106.365,25.569,106.437,25.511z"/>
			<path fill="#FFF8F0" d="M115.553,24.877l-4.533,0.769c-0.154,0.026-0.302-0.049-0.373-0.19l-2.09-4.166
				c0.004-0.093,0.098-0.156,0.174-0.117l6.812,3.492C115.62,24.704,115.625,24.819,115.553,24.877z"/>
		</g>
		<g opacity="0.6">
			<path fill="#E0D9CD" d="M39.45,12.593l-0.215,0.243c-0.058,0.054-0.105,0.121-0.138,0.196l-2.051,3.332l4.546,0.827
				c0.142-0.066,0.147-0.12,0.071-0.278l-2.03-4.273C39.598,12.565,39.506,12.541,39.45,12.593z"/>
			<path fill="#E0D9CD" d="M32.549,15.799l0.327-0.008c0.079-0.009,0.161-0.002,0.241,0.021l3.994,0.524l-2.349,4.031
				c-0.142,0.066-0.187,0.035-0.262-0.123l-2.03-4.273C32.433,15.894,32.473,15.808,32.549,15.799z"/>
			<path fill="#EDE7DF" d="M34.531,20.271l2.518-3.907l4.621,0.59c0.071,0.06,0.063,0.173-0.015,0.21l-6.952,3.23
				C34.625,20.43,34.532,20.364,34.531,20.271z"/>
			<path fill="#FFF8F0" d="M39.635,12.692l-2.18,4.048c-0.074,0.138-0.224,0.208-0.379,0.177l-4.57-0.913
				c-0.071-0.06-0.063-0.173,0.015-0.209l6.942-3.225C39.54,12.533,39.633,12.599,39.635,12.692z"/>
		</g>
		<g opacity="0.6">
			<path fill="#E0D9CD" d="M94.678,23.755l-0.195,0.26c-0.053,0.059-0.095,0.129-0.122,0.207l-1.78,3.485l4.598,0.464
				c0.137-0.077,0.137-0.131,0.049-0.283l-2.363-4.098C94.824,23.715,94.73,23.699,94.678,23.755z"/>
			<path fill="#E0D9CD" d="M88.053,27.498l0.325-0.034c0.078-0.016,0.16-0.015,0.242,0.001l4.023,0.206l-2.022,4.205
				c-0.137,0.077-0.184,0.05-0.271-0.102l-2.363-4.098C87.945,27.602,87.978,27.513,88.053,27.498z"/>
			<path fill="#EDE7DF" d="M90.383,31.799l2.201-4.095l4.653,0.222c0.076,0.054,0.077,0.168,0.002,0.21l-6.674,3.771
				C90.49,31.95,90.392,31.891,90.383,31.799z"/>
			<path fill="#FFF8F0" d="M94.87,23.839l-1.852,4.208c-0.063,0.143-0.207,0.225-0.364,0.206l-4.628-0.547
				c-0.076-0.054-0.077-0.168-0.002-0.21l6.664-3.766C94.763,23.688,94.861,23.747,94.87,23.839z"/>
		</g>
		<g opacity="0.6">
			<path fill="#E0D9CD" d="M118.925,15.901l-0.145,0.12c-0.038,0.026-0.071,0.06-0.096,0.1l-1.473,1.721l2.526,0.883
				c0.087-0.025,0.095-0.055,0.066-0.153l-0.776-2.626C119.012,15.899,118.961,15.877,118.925,15.901z"/>
			<path fill="#E0D9CD" d="M114.69,17.114l0.188,0.025c0.046,0.002,0.092,0.013,0.136,0.033l2.237,0.659l-1.706,2.094
				c-0.087,0.025-0.11,0.003-0.139-0.094l-0.776-2.626C114.614,17.157,114.645,17.112,114.69,17.114z"/>
			<path fill="#EDE7DF" d="M115.42,19.85l1.792-2.008l2.59,0.754c0.035,0.041,0.02,0.105-0.027,0.118l-4.267,1.221
				C115.46,19.949,115.412,19.903,115.42,19.85z"/>
			<path fill="#FFF8F0" d="M119.021,15.975l-1.611,2.119c-0.055,0.072-0.147,0.099-0.233,0.067l-2.532-0.933
				c-0.035-0.041-0.02-0.105,0.027-0.118l4.26-1.219C118.982,15.875,119.029,15.922,119.021,15.975z"/>
		</g>
		<g opacity="0.4">
			<path fill="#E0D9CD" d="M128.214,24.183l-0.125,0.011c-0.031,0-0.061,0.006-0.091,0.018l-1.458,0.388l1.052,1.437
				c0.057,0.019,0.073,0.005,0.094-0.059l0.565-1.734C128.262,24.215,128.243,24.183,128.214,24.183z"/>
			<path fill="#E0D9CD" d="M125.433,23.249l0.094,0.084c0.025,0.018,0.046,0.042,0.062,0.07l0.978,1.206l-1.726,0.504
				c-0.057-0.019-0.062-0.04-0.041-0.104l0.565-1.734C125.375,23.245,125.409,23.232,125.433,23.249z"/>
			<path fill="#EDE7DF" d="M124.801,25.026l1.741-0.425l1.136,1.391c0.004,0.036-0.028,0.065-0.06,0.055l-2.801-0.941
				C124.785,25.095,124.777,25.052,124.801,25.026z"/>
			<path fill="#FFF8F0" d="M128.239,24.26l-1.683,0.554c-0.057,0.019-0.118-0.001-0.153-0.051l-1.036-1.468
				c-0.004-0.036,0.028-0.065,0.06-0.055l2.797,0.939C128.254,24.19,128.263,24.233,128.239,24.26z"/>
		</g>
		<g opacity="0.4">
			<path fill="#E0D9CD" d="M19.842,17.924l-0.079,0.097c-0.022,0.022-0.039,0.048-0.05,0.078l-0.744,1.312l1.763,0.256
				c0.054-0.027,0.055-0.048,0.024-0.108l-0.841-1.618C19.899,17.911,19.863,17.903,19.842,17.924z"/>
			<path fill="#E0D9CD" d="M17.228,19.254l0.126-0.008c0.03-0.005,0.062-0.003,0.093,0.005l1.546,0.147l-0.849,1.585
				c-0.054,0.027-0.072,0.016-0.103-0.044L17.2,19.321C17.185,19.292,17.199,19.259,17.228,19.254z"/>
			<path fill="#EDE7DF" d="M18.053,20.949l0.916-1.54l1.788,0.163c0.028,0.022,0.027,0.066-0.003,0.081l-2.634,1.34
				C18.092,21.009,18.055,20.985,18.053,20.949z"/>
			<path fill="#FFF8F0" d="M19.915,17.959l-0.784,1.59c-0.027,0.054-0.083,0.083-0.144,0.073l-1.773-0.288
				c-0.028-0.022-0.027-0.066,0.003-0.081l2.63-1.338C19.876,17.899,19.913,17.924,19.915,17.959z"/>
		</g>
		<g opacity="0.6">
			<path fill="#E0D9CD" d="M30.326,21.741l-0.188-0.003c-0.046-0.005-0.093,0-0.138,0.013l-2.238,0.352l1.347,2.312
				c0.083,0.038,0.108,0.019,0.149-0.073l1.116-2.501C30.394,21.796,30.37,21.746,30.326,21.741z"/>
			<path fill="#E0D9CD" d="M26.319,19.911l0.126,0.141c0.034,0.031,0.062,0.07,0.081,0.114l1.272,1.955l-2.657,0.483
				c-0.083-0.038-0.086-0.069-0.044-0.162l1.116-2.501C26.233,19.896,26.286,19.881,26.319,19.911z"/>
			<path fill="#EDE7DF" d="M25.097,22.466l2.667-0.362l1.479,2.255c0,0.054-0.053,0.093-0.098,0.072l-4.037-1.843
				C25.063,22.567,25.057,22.501,25.097,22.466z"/>
			<path fill="#FFF8F0" d="M30.352,21.859l-2.601,0.564c-0.089,0.019-0.176-0.02-0.22-0.1l-1.318-2.354
				c0-0.054,0.053-0.093,0.098-0.072l4.031,1.841C30.386,21.758,30.392,21.824,30.352,21.859z"/>
		</g>
		<g opacity="0.6">
			<path fill="#E0D9CD" d="M56.53,26.028l-0.152,0.11c-0.04,0.023-0.074,0.055-0.103,0.093l-1.58,1.623l2.464,1.043
				c0.089-0.019,0.098-0.049,0.076-0.148l-0.606-2.671C56.617,26.031,56.568,26.006,56.53,26.028z"/>
			<path fill="#E0D9CD" d="M52.226,26.966l0.186,0.037c0.046,0.005,0.091,0.019,0.133,0.042l2.19,0.802l-1.838,1.98
				c-0.089,0.019-0.11-0.004-0.133-0.103l-0.606-2.671C52.148,27.004,52.181,26.961,52.226,26.966z"/>
			<path fill="#EDE7DF" d="M52.778,29.743l1.918-1.888l2.536,0.919c0.033,0.043,0.014,0.106-0.035,0.116l-4.336,0.944
				C52.812,29.845,52.767,29.795,52.778,29.743z"/>
			<path fill="#FFF8F0" d="M56.622,26.108l-1.744,2.011c-0.059,0.068-0.153,0.089-0.236,0.052l-2.466-1.094
				c-0.033-0.043-0.014-0.106,0.035-0.116l4.33-0.943C56.588,26.006,56.633,26.055,56.622,26.108z"/>
		</g>
		<g>
			<path fill="#E0D9CD" d="M103.777,19.316l-0.616,0.062c-0.152,0.001-0.303,0.034-0.447,0.096l-7.19,1.998l5.282,7.054
				c0.285,0.092,0.361,0.023,0.461-0.296l2.705-8.607C104.021,19.469,103.923,19.315,103.777,19.316z"/>
			<path fill="#E0D9CD" d="M89.971,14.846l0.467,0.412c0.123,0.09,0.228,0.206,0.31,0.341l4.904,5.914L87.139,24.1
				c-0.285-0.092-0.307-0.193-0.207-0.512l2.705-8.607C89.685,14.827,89.853,14.759,89.971,14.846z"/>
			<path fill="#EDE7DF" d="M86.939,23.668l8.589-2.195l5.694,6.819c0.022,0.176-0.137,0.324-0.293,0.273l-13.908-4.503
				C86.866,24.012,86.821,23.798,86.939,23.668z"/>
			<path fill="#FFF8F0" d="M103.907,19.693l-8.299,2.831c-0.283,0.096-0.583,0-0.759-0.244l-5.205-7.204
				c-0.021-0.176,0.137-0.324,0.293-0.274l13.888,4.497C103.98,19.348,104.025,19.562,103.907,19.693z"/>
		</g>
		<g>
			<path fill="#E0D9CD" d="M62.806,20.757l-0.61-0.106c-0.146-0.04-0.301-0.049-0.456-0.028l-7.462-0.007l3.193,8.214
				c0.25,0.165,0.341,0.119,0.523-0.161l4.918-7.563C62.999,20.969,62.946,20.795,62.806,20.757z"/>
			<path fill="#E0D9CD" d="M50.708,12.742l0.339,0.523c0.094,0.12,0.164,0.259,0.207,0.412l3.135,7.014l-8.895,0.205
				c-0.25-0.165-0.244-0.269-0.061-0.549l4.918-7.563C50.438,12.647,50.617,12.626,50.708,12.742z"/>
			<path fill="#EDE7DF" d="M45.418,20.425l8.863,0.194l3.653,8.099c-0.027,0.175-0.219,0.275-0.355,0.185l-12.187-8.074
				C45.255,20.737,45.269,20.519,45.418,20.425z"/>
			<path fill="#FFF8F0" d="M62.829,21.155l-8.754,0.497c-0.298,0.017-0.561-0.157-0.666-0.439l-3.078-8.338
				c0.027-0.175,0.219-0.275,0.355-0.185l12.169,8.063C62.992,20.843,62.978,21.06,62.829,21.155z"/>
		</g>
		<g>
			<path fill="#4F535E" d="M56.937,32.656c-0.521,0-0.945-0.419-0.945-0.934V11.434c0-0.515,0.424-0.934,0.945-0.934h32.909
				c0.521,0,0.945,0.419,0.945,0.934v20.289c0,0.515-0.424,0.934-0.945,0.934H56.937z"/>
			<path fill="#EFEFEF" d="M89.791,11.5v20.156H56.992V11.5H89.791 M89.846,9.5H56.937c-1.07,0-1.945,0.87-1.945,1.934v20.288
				c0,1.064,0.875,1.934,1.945,1.934h32.909c1.07,0,1.945-0.87,1.945-1.934V11.434C91.791,10.37,90.916,9.5,89.846,9.5L89.846,9.5z"
				/>
		</g>
		<g>
			<g opacity="0.05">
				<rect x="60.123" y="19.812" width="1.057" height="12.057"/>
			</g>
			<path fill="#DBD7D2" d="M61.18,18.552V30.43c0,0.795-0.645,1.44-1.44,1.44h11.517c0.792,0,1.44-0.648,1.44-1.44v-8.278
				l-3.419-3.599L61.18,18.552z"/>
			<rect x="67.479" y="22.691" fill="#D3CFC9" width="3.779" height="0.72"/>
			<rect x="62.62" y="22.691" fill="#E57C58" width="3.959" height="3.959"/>
			<rect x="67.479" y="24.311" fill="#D3CFC9" width="3.779" height="0.72"/>
			<rect x="67.479" y="25.931" fill="#D3CFC9" width="3.779" height="0.72"/>
			<rect x="62.62" y="27.55" fill="#C2BEB9" width="8.638" height="0.72"/>
			<rect x="62.62" y="29.17" fill="#C2BEB9" width="8.638" height="0.72"/>
			<rect x="62.62" y="20.532" fill="#B7B3AE" width="8.638" height="1.26"/>
			<polygon fill="#FFFFFF" points="69.278,22.152 72.698,22.152 69.278,18.552 			"/>
			<polygon opacity="0.05" points="72.698,22.152 69.278,22.152 72.698,25.211 			"/>
		</g>
		<g>
			<g opacity="0.05">
				<rect x="74.16" y="19.812" width="1.057" height="12.057"/>
			</g>
			<path fill="#DBD7D2" d="M75.217,18.552V30.43c0,0.795-0.645,1.44-1.44,1.44h11.517c0.792,0,1.44-0.648,1.44-1.44v-8.278
				l-3.419-3.599L75.217,18.552z"/>
			<rect x="76.657" y="22.691" fill="#C2BEB9" width="3.959" height="0.72"/>
			<rect x="76.657" y="24.311" fill="#C2BEB9" width="3.959" height="0.72"/>
			<rect x="76.657" y="25.931" fill="#C2BEB9" width="3.959" height="0.72"/>
			<rect x="76.657" y="27.55" fill="#C2BEB9" width="8.638" height="0.72"/>
			<rect x="76.657" y="29.17" fill="#C2BEB9" width="8.638" height="0.72"/>
			<rect x="76.657" y="20.532" fill="#B7B3AE" width="8.638" height="1.26"/>
			<polygon fill="#FFFFFF" points="83.315,22.152 86.734,22.152 83.315,18.552 			"/>
			<polygon opacity="0.05" points="86.734,22.152 83.315,22.152 86.734,25.211 			"/>
			<rect x="81.336" y="22.691" fill="#639DC7" width="3.959" height="3.959"/>
		</g>
		<g>
			<g opacity="0.1">
				<rect x="65.882" y="18.552" width="1.057" height="13.317"/>
			</g>
			<g opacity="0.1">
				<rect x="78.996" y="18.552" width="2.497" height="13.317"/>
			</g>
			<path fill="#F5F0EB" d="M66.939,12.974V30.43c0,0.795-0.645,1.44-1.44,1.44h13.677c0.792,0,1.44-0.648,1.44-1.44V16.573
				l-3.419-3.599L66.939,12.974z"/>
			<rect x="74.497" y="17.113" fill="#D3CFC9" width="4.679" height="0.72"/>
			<rect x="68.379" y="17.113" fill="#F59C36" width="5.219" height="5.579"/>
			<rect x="74.497" y="18.732" fill="#D3CFC9" width="4.679" height="0.72"/>
			<rect x="74.497" y="20.352" fill="#D3CFC9" width="4.679" height="0.72"/>
			<rect x="74.497" y="21.972" fill="#D3CFC9" width="4.679" height="0.72"/>
			<rect x="68.379" y="23.591" fill="#D3CFC9" width="10.798" height="0.72"/>
			<rect x="68.379" y="25.211" fill="#D3CFC9" width="10.798" height="0.72"/>
			<rect x="68.379" y="26.831" fill="#D3CFC9" width="5.219" height="0.72"/>
			<rect x="68.379" y="28.45" fill="#D3CFC9" width="5.219" height="0.72"/>
			<rect x="68.379" y="30.07" fill="#D3CFC9" width="5.219" height="0.72"/>
			<rect x="68.379" y="14.953" fill="#B7B3AE" width="10.798" height="1.26"/>
			<polygon fill="#FFFFFF" points="77.197,16.573 80.616,16.573 77.197,12.974 			"/>
			<polygon opacity="0.05" points="80.616,16.573 77.197,16.573 80.616,19.632 			"/>
			<rect x="74.497" y="26.831" fill="#74C7A5" width="4.679" height="3.959"/>
		</g>
		<polygon opacity="0.15" points="69.433,34 77.351,34 77.711,35.905 		"/>
	</g>
	<rect y="63" fill="#F0F0F0" width="150" height="23"/>
	<path opacity="0.6" fill="#FFFFFF" d="M140,46H10c-0.552,0-1-0.448-1-1l0,0c0-0.552,0.448-1,1-1h130c0.552,0,1,0.448,1,1l0,0
		C141,45.552,140.552,46,140,46z"/>
	<path opacity="0.45" fill="#FFFFFF" d="M140,55H10c-0.552,0-1-0.448-1-1l0,0c0-0.552,0.448-1,1-1h130c0.552,0,1,0.448,1,1l0,0
		C141,54.552,140.552,55,140,55z"/>
	<path opacity="0.2" d="M102,79H10c-0.552,0-1-0.448-1-1v-7c0-0.552,0.448-1,1-1h92c0.552,0,1,0.448,1,1v7
		C103,78.552,102.552,79,102,79z"/>
	<path fill="#3B3B3B" d="M140,79h-30c-0.552,0-1-0.448-1-1v-7c0-0.552,0.448-1,1-1h30c0.552,0,1,0.448,1,1v7
		C141,78.552,140.552,79,140,79z"/>
</g>
<g id="Layer_2" display="none">
</g>
</svg>
