<?xml version="1.0" encoding="utf-8"?>
<!-- Generator: Adobe Illustrator 18.1.1, SVG Export Plug-In . SVG Version: 6.00 Build 0)  -->
<!DOCTYPE svg PUBLIC "-//W3C//DTD SVG 1.1//EN" "http://www.w3.org/Graphics/SVG/1.1/DTD/svg11.dtd">
<svg version="1.1" xmlns="http://www.w3.org/2000/svg" xmlns:xlink="http://www.w3.org/1999/xlink" x="0px" y="0px" width="150px"
	 height="86px" viewBox="0 0 150 86" enable-background="new 0 0 150 86" xml:space="preserve">
<g id="Layer_1">
	<rect fill="#AFE2DE" width="150" height="63"/>
	<rect y="61" fill="#244654" width="150" height="25"/>
	<path fill="#F1622E" d="M140,78h-30c-0.552,0-1-0.448-1-1v-7c0-0.552,0.448-1,1-1h30c0.552,0,1,0.448,1,1v7
		C141,77.552,140.552,78,140,78z"/>
	<path opacity="0.25" d="M140,14H62.333c-0.552,0-1-0.448-1-1v0c0-0.552,0.448-1,1-1H140c0.552,0,1,0.448,1,1v0
		C141,13.552,140.552,14,140,14z"/>
	<path opacity="0.1" d="M140,23H62.333c-0.552,0-1-0.448-1-1v0c0-0.552,0.448-1,1-1H140c0.552,0,1,0.448,1,1v0
		C141,22.552,140.552,23,140,23z"/>
	<path opacity="0.1" d="M140,32H62.333c-0.552,0-1-0.448-1-1v0c0-0.552,0.448-1,1-1H140c0.552,0,1,0.448,1,1v0
		C141,31.552,140.552,32,140,32z"/>
	<path opacity="0.1" d="M140,41H62.333c-0.552,0-1-0.448-1-1l0,0c0-0.552,0.448-1,1-1H140c0.552,0,1,0.448,1,1l0,0
		C141,40.552,140.552,41,140,41z"/>
	<path opacity="0.1" d="M140,50H62.333c-0.552,0-1-0.448-1-1l0,0c0-0.552,0.448-1,1-1H140c0.552,0,1,0.448,1,1l0,0
		C141,49.552,140.552,50,140,50z"/>
	<g>
		<circle opacity="0.2" cx="30.1" cy="31.099" r="21.099"/>
		<g>
			<defs>
				<path id="SVGID_25_" d="M30.1,10.171c-4.403,0-8.49,0.829-11.872,3.829H13v3.033c-2,3.552-4.672,8.833-4.672,14.066
					c0,11.653,9.783,21.099,21.436,21.099s21.267-9.361,21.267-21.013C51.031,19.532,41.753,10.171,30.1,10.171z"/>
			</defs>
			<clipPath id="SVGID_2_">
				<use xlink:href="#SVGID_25_"  overflow="visible"/>
			</clipPath>
			<g clip-path="url(#SVGID_2_)">
				<g>
					<path fill="#C8872E" d="M46.869,30.007c-0.484-0.969-1.151-1.835-1.963-2.552l-13.115-9.96c-1.235-0.991-2.992-0.991-4.226,0
						l-13.115,9.96c-0.812,0.717-1.478,1.583-1.963,2.552l-0.465,0.931c-0.137,0.273-0.208,0.575-0.208,0.881v19.228
						c0,0.777,0.63,1.407,1.407,1.407h32.914c0.777,0,1.407-0.63,1.407-1.407V31.818c0-0.306-0.071-0.607-0.208-0.881L46.869,30.007
						z"/>
				</g>
				<g>
					<polygon fill="#FEF4DE" points="14.909,13.657 37.977,13.657 44.447,20.092 44.447,45.446 14.909,45.446 					"/>
					<rect x="18.285" y="17.033" fill="#8392B0" width="9.002" height="2.251"/>
					<rect x="29.256" y="24.066" fill="#D3CFC9" width="11.815" height="0.844"/>
					<rect x="29.256" y="26.598" fill="#D3CFC9" width="11.815" height="0.844"/>
					<rect x="29.256" y="29.13" fill="#D3CFC9" width="11.815" height="0.844"/>
					<rect x="29.256" y="31.662" fill="#D3CFC9" width="11.815" height="0.844"/>
					<rect x="18.285" y="41.789" fill="#E0E0E0" width="11.253" height="0.844"/>
					<rect x="18.285" y="45.446" fill="#E0E0E0" width="11.253" height="0.844"/>
					<rect x="18.285" y="47.978" fill="#E0E0E0" width="11.253" height="2.813"/>
					<rect x="18.285" y="34.194" fill="#D3CFC9" width="22.787" height="0.844"/>
					<rect x="18.285" y="36.725" fill="#D3CFC9" width="22.787" height="0.844"/>
					<rect x="18.285" y="39.257" fill="#D3CFC9" width="22.224" height="0.844"/>
					<rect x="18.285" y="24.066" fill="#D05F60" width="9.002" height="8.44"/>
					<rect x="18.285" y="20.971" fill="#B7B3AE" width="22.787" height="1.125"/>
				</g>
				<path opacity="0.1" fill="#231F20" d="M12.536,31.404l1.477,0.077c0.375,0.113,1.15,0.297,1.458,0.543l27.944,20.455H13.221
					c-0.777,0-1.407-0.643-1.407-1.435V31.955C11.814,31.571,12.176,31.296,12.536,31.404z"/>
				<path opacity="0.1" fill="#231F20" d="M46.82,31.404l-1.477,0.077c-0.375,0.113-1.15,0.297-1.458,0.543L15.94,52.479h30.195
					c0.777,0,1.407-0.643,1.407-1.435V31.955C47.542,31.571,47.18,31.296,46.82,31.404z"/>
				<path fill="#FCB84D" d="M12.536,31.594l1.477,0.437c0.375,0.111,0.725,0.291,1.032,0.532l28.37,19.917H13.221
					c-0.777,0-1.407-0.63-1.407-1.407V32.133C11.814,31.757,12.176,31.487,12.536,31.594z"/>
				<path fill="#FCB84D" d="M46.82,31.594l-1.477,0.437c-0.375,0.111-0.725,0.291-1.032,0.532L15.94,52.479h30.195
					c0.777,0,1.407-0.63,1.407-1.407V32.133C47.542,31.757,47.18,31.487,46.82,31.594z"/>
				<g opacity="0.15">
					<path fill="#231F20" d="M12.221,51.341l0.724-1.475c0.181-0.369,0.439-0.695,0.755-0.953l13.864-9.883
						c1.235-1.009,2.992-1.009,4.226,0l13.864,9.883c0.316,0.259,0.574,0.584,0.755,0.953l0.724,1.475
						c0.187,0.381-0.085,0.829-0.503,0.829H12.725C12.306,52.171,12.034,51.722,12.221,51.341z"/>
				</g>
				<path fill="#FBC05F" d="M12.221,51.665l0.724-1.448c0.181-0.363,0.439-0.682,0.755-0.936l13.864-9.534
					c1.235-0.991,2.992-0.991,4.226,0l13.864,9.534c0.316,0.254,0.574,0.573,0.755,0.936l0.724,1.448
					c0.187,0.374-0.085,0.814-0.503,0.814H12.725C12.306,52.479,12.034,52.039,12.221,51.665z"/>
				<polygon fill="#FFFBF3" points="38,20.092 44.443,20.092 37.977,13.657 				"/>
				<polygon opacity="0.1" points="44.447,20.092 38.005,20.092 44.447,25.44 				"/>
			</g>
		</g>
		<path opacity="0.05" d="M50.618,26.185c0.194,1.141,0.3,2.311,0.3,3.507c0,11.497-9.32,20.818-20.818,20.818
			S9.282,41.19,9.282,29.692c0-1.196,0.106-2.366,0.3-3.507c-0.376,1.577-0.581,3.221-0.581,4.914
			c0,11.653,9.446,21.099,21.099,21.099s21.099-9.446,21.099-21.099C51.199,29.406,50.994,27.763,50.618,26.185z"/>
	</g>
	<path fill="#FFFFFF" d="M100.5,78H10c-0.552,0-1-0.448-1-1v-7c0-0.552,0.448-1,1-1h90.5c0.552,0,1,0.448,1,1v7
		C101.5,77.552,101.052,78,100.5,78z"/>
</g>
<g id="Layer_2" display="none">
</g>
</svg>
