<?xml version="1.0" encoding="utf-8"?>
<!-- Generator: Adobe Illustrator 18.1.1, SVG Export Plug-In . SVG Version: 6.00 Build 0)  -->
<!DOCTYPE svg PUBLIC "-//W3C//DTD SVG 1.1//EN" "http://www.w3.org/Graphics/SVG/1.1/DTD/svg11.dtd">
<svg version="1.1" xmlns="http://www.w3.org/2000/svg" xmlns:xlink="http://www.w3.org/1999/xlink" x="0px" y="0px" width="150px"
	 height="86px" viewBox="0 0 150 86" enable-background="new 0 0 150 86" xml:space="preserve">
<g id="Layer_1" display="none">
	<rect display="inline" fill="#F0F0F0" width="150" height="86"/>
	<path display="inline" opacity="0.25" d="M90,57.5H10c-0.552,0-1-0.448-1-1l0,0c0-0.552,0.448-1,1-1h80c0.552,0,1,0.448,1,1l0,0
		C91,57.052,90.552,57.5,90,57.5z"/>
	<path display="inline" opacity="0.1" d="M90,66.5H10c-0.552,0-1-0.448-1-1l0,0c0-0.552,0.448-1,1-1h80c0.552,0,1,0.448,1,1l0,0
		C91,66.052,90.552,66.5,90,66.5z"/>
	<path display="inline" opacity="0.1" d="M90,75.5H10c-0.552,0-1-0.448-1-1l0,0c0-0.552,0.448-1,1-1h80c0.552,0,1,0.448,1,1l0,0
		C91,75.052,90.552,75.5,90,75.5z"/>
	<g display="inline">
		<g>
			<polygon fill="#31343B" points="57.121,46.833 44.89,46.833 46.022,40.34 55.988,40.34 			"/>
			<path fill="#4F535E" d="M60.292,46.833H41.719v-0.038c0-1.105,0.896-2,2-2h14.572c1.105,0,2,0.896,2,2V46.833z"/>
		</g>
		<g opacity="0.7">
			<path fill="#D9D3CD" d="M80.764,28.344l-0.437,0.127c-0.109,0.021-0.215,0.065-0.31,0.129l-4.932,2.404l4.76,4.396
				c0.218,0.029,0.264-0.032,0.294-0.276l0.808-6.584C80.961,28.422,80.87,28.324,80.764,28.344z"/>
			<path fill="#D9D3CD" d="M70.186,26.953l0.393,0.236c0.101,0.049,0.192,0.118,0.269,0.205l4.334,3.622l-5.81,3.006
				c-0.218-0.029-0.248-0.099-0.218-0.343l0.808-6.584C69.977,26.978,70.089,26.906,70.186,26.953z"/>
			<path fill="#EDE7DF" d="M69.17,33.736l5.917-2.732l5.027,4.171c0.039,0.125-0.056,0.253-0.175,0.237l-10.656-1.401
				C69.163,33.995,69.103,33.846,69.17,33.736z"/>
			<path fill="#EBE4DC" d="M80.908,28.6l-5.623,3.153c-0.192,0.107-0.421,0.078-0.581-0.075l-4.724-4.515
				c-0.039-0.124,0.056-0.253,0.175-0.237l10.641,1.399C80.915,28.341,80.976,28.489,80.908,28.6z"/>
		</g>
		<g opacity="0.5">
			<path fill="#D9D3CD" d="M24.061,20.847l-0.291-0.27c-0.065-0.072-0.145-0.132-0.236-0.174l-4.009-2.611l-1.154,5.53
				c0.076,0.176,0.142,0.183,0.338,0.096l5.286-2.347C24.091,21.029,24.123,20.917,24.061,20.847z"/>
			<path fill="#D9D3CD" d="M20.359,12.313l0,0.399c0.009,0.097-0.002,0.197-0.033,0.293l-0.766,4.865l-4.853-2.997
				c-0.076-0.176-0.037-0.23,0.159-0.317l5.286-2.347C20.246,12.167,20.35,12.219,20.359,12.313z"/>
			<path fill="#EDE7DF" d="M14.831,14.594l4.696,3.2l-0.866,5.629c-0.076,0.085-0.214,0.072-0.256-0.025l-3.73-8.598
				C14.634,14.705,14.718,14.593,14.831,14.594z"/>
			<path fill="#EBE4DC" d="M23.934,21.069l-4.879-2.791c-0.166-0.095-0.247-0.28-0.204-0.469l1.258-5.557
				c0.076-0.085,0.214-0.072,0.256,0.025l3.724,8.585C24.131,20.959,24.047,21.071,23.934,21.069z"/>
		</g>
		<g opacity="0.6">
			<path fill="#D9D3CD" d="M90.977,31.976l-0.216-0.013c-0.052-0.008-0.107-0.005-0.16,0.008l-2.593,0.288l1.428,2.73
				c0.093,0.048,0.123,0.028,0.176-0.076l1.415-2.819C91.053,32.042,91.028,31.983,90.977,31.976z"/>
			<path fill="#D9D3CD" d="M86.463,29.661l0.138,0.168c0.037,0.038,0.067,0.084,0.088,0.135l1.362,2.315l-3.082,0.417
				c-0.093-0.048-0.095-0.084-0.043-0.188l1.415-2.819C86.366,29.639,86.427,29.625,86.463,29.661z"/>
			<path fill="#EDE7DF" d="M84.924,32.536l3.087-0.277l1.584,2.672c-0.002,0.062-0.065,0.104-0.116,0.078l-4.548-2.331
				C84.879,32.651,84.876,32.575,84.924,32.536z"/>
			<path fill="#EBE4DC" d="M91.001,32.113l-3.022,0.513c-0.103,0.017-0.201-0.033-0.248-0.127l-1.393-2.777
				c0.002-0.062,0.065-0.104,0.116-0.078l4.541,2.328C91.046,31.998,91.049,32.074,91.001,32.113z"/>
		</g>
		<g opacity="0.6">
			<path fill="#D9D3CD" d="M23.454,34.025l-0.109,0.114c-0.029,0.025-0.053,0.057-0.07,0.093l-1.058,1.579l2.191,0.487
				c0.07-0.029,0.073-0.055,0.04-0.134l-0.905-2.112C23.527,34.014,23.482,34.001,23.454,34.025z"/>
			<path fill="#D9D3CD" d="M20.045,35.451l0.159,0.002c0.039-0.003,0.078,0.002,0.116,0.015l1.928,0.33l-1.216,1.912
				c-0.07,0.029-0.091,0.014-0.125-0.065l-0.905-2.112C19.986,35.494,20.007,35.453,20.045,35.451z"/>
			<path fill="#EDE7DF" d="M20.922,37.658l1.296-1.849l2.231,0.374c0.033,0.03,0.027,0.085-0.011,0.101l-3.435,1.436
				C20.965,37.737,20.921,37.703,20.922,37.658z"/>
			<path fill="#EBE4DC" d="M23.542,34.076L22.407,36c-0.039,0.066-0.113,0.097-0.187,0.079l-2.201-0.529
				c-0.033-0.03-0.027-0.085,0.011-0.101l3.43-1.434C23.499,33.998,23.543,34.031,23.542,34.076z"/>
		</g>
		<g opacity="0.6">
			<path fill="#D9D3CD" d="M16.627,25.496l-0.265,0.002c-0.065-0.006-0.13,0.002-0.194,0.023l-3.137,0.569l1.972,3.208
				c0.118,0.05,0.153,0.024,0.208-0.108l1.488-3.556C16.724,25.571,16.689,25.502,16.627,25.496z"/>
			<path fill="#D9D3CD" d="M10.927,23.054l0.183,0.194c0.049,0.043,0.089,0.096,0.118,0.157l1.855,2.708L9.36,26.881
				c-0.118-0.05-0.123-0.094-0.068-0.226l1.488-3.556C10.806,23.035,10.88,23.013,10.927,23.054z"/>
			<path fill="#EDE7DF" d="M9.292,26.689l3.74-0.598l2.156,3.124c0.002,0.076-0.071,0.133-0.135,0.105l-5.742-2.46
				C9.247,26.833,9.237,26.741,9.292,26.689z"/>
			<path fill="#EBE4DC" d="M16.667,25.662l-3.642,0.88c-0.124,0.03-0.248-0.023-0.313-0.134l-1.933-3.269
				c-0.002-0.076,0.071-0.133,0.135-0.105l5.733,2.456C16.712,25.518,16.722,25.611,16.667,25.662z"/>
		</g>
		<g>
			<path fill="#D9D3CD" d="M80.221,11.347l-0.467,0.604c-0.128,0.137-0.227,0.3-0.293,0.482l-4.309,8.138l10.802,1.252
				c0.324-0.177,0.326-0.304,0.126-0.664l-5.417-9.726C80.564,11.259,80.344,11.216,80.221,11.347z"/>
			<path fill="#D9D3CD" d="M64.502,19.926l0.766-0.069c0.185-0.034,0.378-0.03,0.568,0.012l9.459,0.623l-4.904,9.824
				c-0.324,0.177-0.434,0.111-0.634-0.249l-5.417-9.726C64.243,20.166,64.324,19.959,64.502,19.926z"/>
			<path fill="#EDE7DF" d="M69.835,30.127l5.32-9.558l10.942,0.683c0.176,0.13,0.174,0.397-0.003,0.494l-15.835,8.642
				C70.082,30.485,69.852,30.344,69.835,30.127z"/>
			<path fill="#EBE4DC" d="M80.669,11.551l-4.504,9.838c-0.153,0.335-0.495,0.522-0.863,0.473L64.43,20.414
				c-0.176-0.13-0.174-0.397,0.003-0.494l15.812-8.63C80.422,11.193,80.651,11.335,80.669,11.551z"/>
		</g>
		<g opacity="0.9">
			<path fill="#D9D3CD" d="M43.045,26.114l-0.803-0.139c-0.193-0.052-0.396-0.064-0.601-0.036l-9.823,0.001l4.214,10.808
				c0.329,0.217,0.449,0.156,0.689-0.213l6.463-9.963C43.3,26.394,43.23,26.164,43.045,26.114z"/>
			<path fill="#D9D3CD" d="M27.11,15.581l0.447,0.688c0.124,0.157,0.217,0.341,0.273,0.542l4.136,9.228L20.257,26.32
				c-0.329-0.217-0.321-0.353-0.082-0.723l6.463-9.963C26.754,15.456,26.99,15.429,27.11,15.581z"/>
			<path fill="#EDE7DF" d="M20.156,25.701l11.667,0.242l4.82,10.655c-0.035,0.231-0.288,0.363-0.468,0.244L20.122,26.231
				C19.942,26.112,19.961,25.826,20.156,25.701z"/>
			<path fill="#EBE4DC" d="M43.076,26.638l-11.522,0.666c-0.393,0.023-0.739-0.206-0.877-0.577l-4.064-10.971
				c0.035-0.231,0.288-0.363,0.467-0.244l16.03,10.596C43.291,26.227,43.272,26.514,43.076,26.638z"/>
		</g>
		<g>
			<path fill="#78D688" d="M30.296,39.317c-0.799,0-1.448-0.644-1.448-1.434V12.349c0-0.791,0.649-1.435,1.448-1.435h41.419
				c0.799,0,1.448,0.644,1.448,1.435v25.535c0,0.79-0.649,1.434-1.448,1.434H30.296z"/>
			<path fill="#4F535E" d="M71.715,11.915c0.243,0,0.448,0.199,0.448,0.434v25.535c0,0.235-0.205,0.434-0.448,0.434H30.296
				c-0.243,0-0.448-0.199-0.448-0.434V12.349c0-0.235,0.205-0.434,0.448-0.434H71.715 M71.715,9.915H30.296
				c-1.346,0-2.448,1.095-2.448,2.434v25.535c0,1.339,1.102,2.434,2.448,2.434h41.419c1.346,0,2.448-1.095,2.448-2.434V12.349
				C74.163,11.01,73.061,9.915,71.715,9.915L71.715,9.915z"/>
		</g>
		<g>
			<g opacity="0.05">
				<rect x="34.305" y="22.893" width="1.331" height="15.175"/>
			</g>
			<path fill="#DBD7D2" d="M35.636,21.308v14.949c0,1.001-0.811,1.812-1.812,1.812H48.32c0.997,0,1.812-0.815,1.812-1.812V25.838
				l-4.303-4.53L35.636,21.308z"/>
			<rect x="43.563" y="26.517" fill="#D3CFC9" width="4.756" height="0.906"/>
			<rect x="37.448" y="26.517" fill="#E57C58" width="4.983" height="4.983"/>
			<rect x="43.563" y="28.556" fill="#D3CFC9" width="4.756" height="0.906"/>
			<rect x="43.563" y="30.594" fill="#D3CFC9" width="4.756" height="0.906"/>
			<rect x="37.448" y="32.633" fill="#C2BEB9" width="10.872" height="0.906"/>
			<rect x="37.448" y="34.671" fill="#C2BEB9" width="10.872" height="0.906"/>
			<rect x="37.448" y="23.799" fill="#B7B3AE" width="10.872" height="1.585"/>
			<polygon fill="#FFFFFF" points="45.828,25.838 50.132,25.838 45.828,21.308 			"/>
			<polygon opacity="0.05" points="50.132,25.838 45.828,25.838 50.132,29.688 			"/>
		</g>
		<g>
			<g opacity="0.05">
				<rect x="51.972" y="22.893" width="1.331" height="15.175"/>
			</g>
			<path fill="#DBD7D2" d="M53.303,21.308v14.949c0,1.001-0.811,1.812-1.812,1.812h14.496c0.997,0,1.812-0.815,1.812-1.812V25.838
				l-4.303-4.53L53.303,21.308z"/>
			<rect x="55.115" y="26.517" fill="#C2BEB9" width="4.983" height="0.906"/>
			<rect x="55.115" y="28.556" fill="#C2BEB9" width="4.983" height="0.906"/>
			<rect x="55.115" y="30.594" fill="#C2BEB9" width="4.983" height="0.906"/>
			<rect x="55.114" y="32.633" fill="#C2BEB9" width="10.872" height="0.906"/>
			<rect x="55.114" y="34.671" fill="#C2BEB9" width="10.872" height="0.906"/>
			<rect x="55.114" y="23.799" fill="#B7B3AE" width="10.872" height="1.585"/>
			<polygon fill="#FFFFFF" points="63.495,25.838 67.798,25.838 63.495,21.308 			"/>
			<polygon opacity="0.05" points="67.798,25.838 63.495,25.838 67.798,29.688 			"/>
			<rect x="61.003" y="26.517" fill="#639DC7" width="4.983" height="4.983"/>
		</g>
		<g>
			<g opacity="0.1">
				<rect x="41.553" y="21.308" width="1.331" height="16.761"/>
			</g>
			<g opacity="0.1">
				<rect x="58.059" y="21.308" width="3.143" height="16.761"/>
			</g>
			<path fill="#F5F0EB" d="M42.884,14.286v21.97c0,1.001-0.811,1.812-1.812,1.812h17.214c0.997,0,1.812-0.815,1.812-1.812v-17.44
				l-4.303-4.53L42.884,14.286z"/>
			<rect x="52.396" y="19.496" fill="#D3CFC9" width="5.889" height="0.906"/>
			<rect x="44.696" y="19.496" fill="#F59C36" width="6.568" height="7.021"/>
			<rect x="52.396" y="21.534" fill="#D3CFC9" width="5.889" height="0.906"/>
			<rect x="52.396" y="23.573" fill="#D3CFC9" width="5.889" height="0.906"/>
			<rect x="52.396" y="25.611" fill="#D3CFC9" width="5.889" height="0.906"/>
			<rect x="44.696" y="27.65" fill="#D3CFC9" width="13.59" height="0.906"/>
			<rect x="44.696" y="29.688" fill="#D3CFC9" width="13.59" height="0.906"/>
			<rect x="44.696" y="31.727" fill="#D3CFC9" width="6.568" height="0.906"/>
			<rect x="44.696" y="33.765" fill="#D3CFC9" width="6.568" height="0.906"/>
			<rect x="44.696" y="35.804" fill="#D3CFC9" width="6.568" height="0.906"/>
			<rect x="44.696" y="16.778" fill="#B7B3AE" width="13.59" height="1.585"/>
			<polygon fill="#FFFFFF" points="55.794,18.816 60.097,18.816 55.794,14.286 			"/>
			<polygon opacity="0.05" points="60.097,18.816 55.794,18.816 60.097,22.667 			"/>
			<rect x="52.396" y="31.727" fill="#74C7A5" width="5.889" height="4.983"/>
		</g>
		<polygon opacity="0.15" points="46.022,41 55.988,41 56.441,43.397 		"/>
	</g>
	<rect x="100" display="inline" fill="#FFB040" width="50" height="86"/>
	<path display="inline" fill="#FFFFFF" d="M140,63h-30c-0.552,0-1-0.448-1-1v-7c0-0.552,0.448-1,1-1h30c0.552,0,1,0.448,1,1v7
		C141,62.552,140.552,63,140,63z"/>
	<path display="inline" opacity="0.2" d="M140,48h-30c-0.552,0-1-0.448-1-1v-7c0-0.552,0.448-1,1-1h30c0.552,0,1,0.448,1,1v7
		C141,47.552,140.552,48,140,48z"/>
	<path display="inline" opacity="0.2" d="M140,33h-30c-0.552,0-1-0.448-1-1v-7c0-0.552,0.448-1,1-1h30c0.552,0,1,0.448,1,1v7
		C141,32.552,140.552,33,140,33z"/>
	
		<rect x="97.172" y="40.172" transform="matrix(0.7071 0.7071 -0.7071 0.7071 59.6949 -58.1163)" display="inline" fill="#F0F0F0" width="5.657" height="5.657"/>
</g>
<g id="Layer_2">
	<rect fill="#F0F0F0" width="150" height="86"/>
	<path opacity="0.25" d="M90,57.5H10c-0.552,0-1-0.448-1-1l0,0c0-0.552,0.448-1,1-1h80c0.552,0,1,0.448,1,1l0,0
		C91,57.052,90.552,57.5,90,57.5z"/>
	<path opacity="0.1" d="M90,66.5H10c-0.552,0-1-0.448-1-1l0,0c0-0.552,0.448-1,1-1h80c0.552,0,1,0.448,1,1l0,0
		C91,66.052,90.552,66.5,90,66.5z"/>
	<path opacity="0.1" d="M90,75.5H10c-0.552,0-1-0.448-1-1l0,0c0-0.552,0.448-1,1-1h80c0.552,0,1,0.448,1,1l0,0
		C91,75.052,90.552,75.5,90,75.5z"/>
	<g>
		<g>
			<polygon fill="#31343B" points="57.121,46.833 44.89,46.833 46.022,40.34 55.988,40.34 			"/>
			<path fill="#4F535E" d="M60.292,46.833H41.719v-0.038c0-1.105,0.896-2,2-2h14.572c1.105,0,2,0.896,2,2V46.833z"/>
		</g>
		<g opacity="0.7">
			<path fill="#D9D3CD" d="M80.764,28.344l-0.437,0.127c-0.109,0.021-0.215,0.065-0.31,0.129l-4.932,2.404l4.76,4.396
				c0.218,0.029,0.264-0.032,0.294-0.276l0.808-6.584C80.961,28.422,80.87,28.324,80.764,28.344z"/>
			<path fill="#D9D3CD" d="M70.186,26.953l0.393,0.236c0.101,0.049,0.192,0.118,0.269,0.205l4.334,3.622l-5.81,3.006
				c-0.218-0.029-0.248-0.099-0.218-0.343l0.808-6.584C69.977,26.978,70.089,26.906,70.186,26.953z"/>
			<path fill="#EDE7DF" d="M69.17,33.736l5.917-2.732l5.027,4.171c0.039,0.125-0.056,0.253-0.175,0.237l-10.656-1.401
				C69.163,33.995,69.103,33.846,69.17,33.736z"/>
			<path fill="#EBE4DC" d="M80.908,28.6l-5.623,3.153c-0.192,0.107-0.421,0.078-0.581-0.075l-4.724-4.515
				c-0.039-0.124,0.056-0.253,0.175-0.237l10.641,1.399C80.915,28.341,80.976,28.489,80.908,28.6z"/>
		</g>
		<g opacity="0.5">
			<path fill="#D9D3CD" d="M24.061,20.847l-0.291-0.27c-0.065-0.072-0.145-0.132-0.236-0.174l-4.009-2.611l-1.154,5.53
				c0.076,0.176,0.142,0.183,0.338,0.096l5.286-2.347C24.091,21.029,24.123,20.917,24.061,20.847z"/>
			<path fill="#D9D3CD" d="M20.359,12.313l0,0.399c0.009,0.097-0.002,0.197-0.033,0.293l-0.766,4.865l-4.853-2.997
				c-0.076-0.176-0.037-0.23,0.159-0.317l5.286-2.347C20.246,12.167,20.35,12.219,20.359,12.313z"/>
			<path fill="#EDE7DF" d="M14.831,14.594l4.696,3.2l-0.866,5.629c-0.076,0.085-0.214,0.072-0.256-0.025l-3.73-8.598
				C14.634,14.705,14.718,14.593,14.831,14.594z"/>
			<path fill="#EBE4DC" d="M23.934,21.069l-4.879-2.791c-0.166-0.095-0.247-0.28-0.204-0.469l1.258-5.557
				c0.076-0.085,0.214-0.072,0.256,0.025l3.724,8.585C24.131,20.959,24.047,21.071,23.934,21.069z"/>
		</g>
		<g opacity="0.6">
			<path fill="#D9D3CD" d="M90.977,31.976l-0.216-0.013c-0.052-0.008-0.107-0.005-0.16,0.008l-2.593,0.288l1.428,2.73
				c0.093,0.048,0.123,0.028,0.176-0.076l1.415-2.819C91.053,32.042,91.028,31.983,90.977,31.976z"/>
			<path fill="#D9D3CD" d="M86.463,29.661l0.138,0.168c0.037,0.038,0.067,0.084,0.088,0.135l1.362,2.315l-3.082,0.417
				c-0.093-0.048-0.095-0.084-0.043-0.188l1.415-2.819C86.366,29.639,86.427,29.625,86.463,29.661z"/>
			<path fill="#EDE7DF" d="M84.924,32.536l3.087-0.277l1.584,2.672c-0.002,0.062-0.065,0.104-0.116,0.078l-4.548-2.331
				C84.879,32.651,84.876,32.575,84.924,32.536z"/>
			<path fill="#EBE4DC" d="M91.001,32.113l-3.022,0.513c-0.103,0.017-0.201-0.033-0.248-0.127l-1.393-2.777
				c0.002-0.062,0.065-0.104,0.116-0.078l4.541,2.328C91.046,31.998,91.049,32.074,91.001,32.113z"/>
		</g>
		<g opacity="0.6">
			<path fill="#D9D3CD" d="M23.454,34.025l-0.109,0.114c-0.029,0.025-0.053,0.057-0.07,0.093l-1.058,1.579l2.191,0.487
				c0.07-0.029,0.073-0.055,0.04-0.134l-0.905-2.112C23.527,34.014,23.482,34.001,23.454,34.025z"/>
			<path fill="#D9D3CD" d="M20.045,35.451l0.159,0.002c0.039-0.003,0.078,0.002,0.116,0.015l1.928,0.33l-1.216,1.912
				c-0.07,0.029-0.091,0.014-0.125-0.065l-0.905-2.112C19.986,35.494,20.007,35.453,20.045,35.451z"/>
			<path fill="#EDE7DF" d="M20.922,37.658l1.296-1.849l2.231,0.374c0.033,0.03,0.027,0.085-0.011,0.101l-3.435,1.436
				C20.965,37.737,20.921,37.703,20.922,37.658z"/>
			<path fill="#EBE4DC" d="M23.542,34.076L22.407,36c-0.039,0.066-0.113,0.097-0.187,0.079l-2.201-0.529
				c-0.033-0.03-0.027-0.085,0.011-0.101l3.43-1.434C23.499,33.998,23.543,34.031,23.542,34.076z"/>
		</g>
		<g opacity="0.6">
			<path fill="#D9D3CD" d="M16.627,25.496l-0.265,0.002c-0.065-0.006-0.13,0.002-0.194,0.023l-3.137,0.569l1.972,3.208
				c0.118,0.05,0.153,0.024,0.208-0.108l1.488-3.556C16.724,25.571,16.689,25.502,16.627,25.496z"/>
			<path fill="#D9D3CD" d="M10.927,23.054l0.183,0.194c0.049,0.043,0.089,0.096,0.118,0.157l1.855,2.708L9.36,26.881
				c-0.118-0.05-0.123-0.094-0.068-0.226l1.488-3.556C10.806,23.035,10.88,23.013,10.927,23.054z"/>
			<path fill="#EDE7DF" d="M9.292,26.689l3.74-0.598l2.156,3.124c0.002,0.076-0.071,0.133-0.135,0.105l-5.742-2.46
				C9.247,26.833,9.237,26.741,9.292,26.689z"/>
			<path fill="#EBE4DC" d="M16.667,25.662l-3.642,0.88c-0.124,0.03-0.248-0.023-0.313-0.134l-1.933-3.269
				c-0.002-0.076,0.071-0.133,0.135-0.105l5.733,2.456C16.712,25.518,16.722,25.611,16.667,25.662z"/>
		</g>
		<g>
			<path fill="#D9D3CD" d="M80.221,11.347l-0.467,0.604c-0.128,0.137-0.227,0.3-0.293,0.482l-4.309,8.138l10.802,1.252
				c0.324-0.177,0.326-0.304,0.126-0.664l-5.417-9.726C80.564,11.259,80.344,11.216,80.221,11.347z"/>
			<path fill="#D9D3CD" d="M64.502,19.926l0.766-0.069c0.185-0.034,0.378-0.03,0.568,0.012l9.459,0.623l-4.904,9.824
				c-0.324,0.177-0.434,0.111-0.634-0.249l-5.417-9.726C64.243,20.166,64.324,19.959,64.502,19.926z"/>
			<path fill="#EDE7DF" d="M69.835,30.127l5.32-9.558l10.942,0.683c0.176,0.13,0.174,0.397-0.003,0.494l-15.835,8.642
				C70.082,30.485,69.852,30.344,69.835,30.127z"/>
			<path fill="#EBE4DC" d="M80.669,11.551l-4.504,9.838c-0.153,0.335-0.495,0.522-0.863,0.473L64.43,20.414
				c-0.176-0.13-0.174-0.397,0.003-0.494l15.812-8.63C80.422,11.193,80.651,11.335,80.669,11.551z"/>
		</g>
		<g opacity="0.9">
			<path fill="#D9D3CD" d="M43.045,26.114l-0.803-0.139c-0.193-0.052-0.396-0.064-0.601-0.036l-9.823,0.001l4.214,10.808
				c0.329,0.217,0.449,0.156,0.689-0.213l6.463-9.963C43.3,26.394,43.23,26.164,43.045,26.114z"/>
			<path fill="#D9D3CD" d="M27.11,15.581l0.447,0.688c0.124,0.157,0.217,0.341,0.273,0.542l4.136,9.228L20.257,26.32
				c-0.329-0.217-0.321-0.353-0.082-0.723l6.463-9.963C26.754,15.456,26.99,15.429,27.11,15.581z"/>
			<path fill="#EDE7DF" d="M20.156,25.701l11.667,0.242l4.82,10.655c-0.035,0.231-0.288,0.363-0.468,0.244L20.122,26.231
				C19.942,26.112,19.961,25.826,20.156,25.701z"/>
			<path fill="#EBE4DC" d="M43.076,26.638l-11.522,0.666c-0.393,0.023-0.739-0.206-0.877-0.577l-4.064-10.971
				c0.035-0.231,0.288-0.363,0.467-0.244l16.03,10.596C43.291,26.227,43.272,26.514,43.076,26.638z"/>
		</g>
		<g>
			<path fill="#78D688" d="M30.296,39.317c-0.799,0-1.448-0.644-1.448-1.434V12.349c0-0.791,0.649-1.435,1.448-1.435h41.419
				c0.799,0,1.448,0.644,1.448,1.435v25.535c0,0.79-0.649,1.434-1.448,1.434H30.296z"/>
			<path fill="#4F535E" d="M71.715,11.915c0.243,0,0.448,0.199,0.448,0.434v25.535c0,0.235-0.205,0.434-0.448,0.434H30.296
				c-0.243,0-0.448-0.199-0.448-0.434V12.349c0-0.235,0.205-0.434,0.448-0.434H71.715 M71.715,9.915H30.296
				c-1.346,0-2.448,1.095-2.448,2.434v25.535c0,1.339,1.102,2.434,2.448,2.434h41.419c1.346,0,2.448-1.095,2.448-2.434V12.349
				C74.163,11.01,73.061,9.915,71.715,9.915L71.715,9.915z"/>
		</g>
		<g>
			<g opacity="0.05">
				<rect x="34.305" y="22.893" width="1.331" height="15.175"/>
			</g>
			<path fill="#DBD7D2" d="M35.636,21.308v14.949c0,1.001-0.811,1.812-1.812,1.812H48.32c0.997,0,1.812-0.815,1.812-1.812V25.838
				l-4.303-4.53L35.636,21.308z"/>
			<rect x="43.563" y="26.517" fill="#D3CFC9" width="4.756" height="0.906"/>
			<rect x="37.448" y="26.517" fill="#E57C58" width="4.983" height="4.983"/>
			<rect x="43.563" y="28.556" fill="#D3CFC9" width="4.756" height="0.906"/>
			<rect x="43.563" y="30.594" fill="#D3CFC9" width="4.756" height="0.906"/>
			<rect x="37.448" y="32.633" fill="#C2BEB9" width="10.872" height="0.906"/>
			<rect x="37.448" y="34.671" fill="#C2BEB9" width="10.872" height="0.906"/>
			<rect x="37.448" y="23.799" fill="#B7B3AE" width="10.872" height="1.585"/>
			<polygon fill="#FFFFFF" points="45.828,25.838 50.132,25.838 45.828,21.308 			"/>
			<polygon opacity="0.05" points="50.132,25.838 45.828,25.838 50.132,29.688 			"/>
		</g>
		<g>
			<g opacity="0.05">
				<rect x="51.972" y="22.893" width="1.331" height="15.175"/>
			</g>
			<path fill="#DBD7D2" d="M53.303,21.308v14.949c0,1.001-0.811,1.812-1.812,1.812h14.496c0.997,0,1.812-0.815,1.812-1.812V25.838
				l-4.303-4.53L53.303,21.308z"/>
			<rect x="55.115" y="26.517" fill="#C2BEB9" width="4.983" height="0.906"/>
			<rect x="55.115" y="28.556" fill="#C2BEB9" width="4.983" height="0.906"/>
			<rect x="55.115" y="30.594" fill="#C2BEB9" width="4.983" height="0.906"/>
			<rect x="55.114" y="32.633" fill="#C2BEB9" width="10.872" height="0.906"/>
			<rect x="55.114" y="34.671" fill="#C2BEB9" width="10.872" height="0.906"/>
			<rect x="55.114" y="23.799" fill="#B7B3AE" width="10.872" height="1.585"/>
			<polygon fill="#FFFFFF" points="63.495,25.838 67.798,25.838 63.495,21.308 			"/>
			<polygon opacity="0.05" points="67.798,25.838 63.495,25.838 67.798,29.688 			"/>
			<rect x="61.003" y="26.517" fill="#639DC7" width="4.983" height="4.983"/>
		</g>
		<g>
			<g opacity="0.1">
				<rect x="41.553" y="21.308" width="1.331" height="16.761"/>
			</g>
			<g opacity="0.1">
				<rect x="58.059" y="21.308" width="3.143" height="16.761"/>
			</g>
			<path fill="#F5F0EB" d="M42.884,14.286v21.97c0,1.001-0.811,1.812-1.812,1.812h17.214c0.997,0,1.812-0.815,1.812-1.812v-17.44
				l-4.303-4.53L42.884,14.286z"/>
			<rect x="52.396" y="19.496" fill="#D3CFC9" width="5.889" height="0.906"/>
			<rect x="44.696" y="19.496" fill="#F59C36" width="6.568" height="7.021"/>
			<rect x="52.396" y="21.534" fill="#D3CFC9" width="5.889" height="0.906"/>
			<rect x="52.396" y="23.573" fill="#D3CFC9" width="5.889" height="0.906"/>
			<rect x="52.396" y="25.611" fill="#D3CFC9" width="5.889" height="0.906"/>
			<rect x="44.696" y="27.65" fill="#D3CFC9" width="13.59" height="0.906"/>
			<rect x="44.696" y="29.688" fill="#D3CFC9" width="13.59" height="0.906"/>
			<rect x="44.696" y="31.727" fill="#D3CFC9" width="6.568" height="0.906"/>
			<rect x="44.696" y="33.765" fill="#D3CFC9" width="6.568" height="0.906"/>
			<rect x="44.696" y="35.804" fill="#D3CFC9" width="6.568" height="0.906"/>
			<rect x="44.696" y="16.778" fill="#B7B3AE" width="13.59" height="1.585"/>
			<polygon fill="#FFFFFF" points="55.794,18.816 60.097,18.816 55.794,14.286 			"/>
			<polygon opacity="0.05" points="60.097,18.816 55.794,18.816 60.097,22.667 			"/>
			<rect x="52.396" y="31.727" fill="#74C7A5" width="5.889" height="4.983"/>
		</g>
		<polygon opacity="0.15" points="46.022,41 55.988,41 56.441,43.397 		"/>
	</g>
	<rect x="100" fill="#9C30FF" width="50" height="86"/>
	<path fill="#FFFFFF" d="M140,63h-30c-0.552,0-1-0.448-1-1v-7c0-0.552,0.448-1,1-1h30c0.552,0,1,0.448,1,1v7
		C141,62.552,140.552,63,140,63z"/>
	<path opacity="0.2" d="M140,48h-30c-0.552,0-1-0.448-1-1v-7c0-0.552,0.448-1,1-1h30c0.552,0,1,0.448,1,1v7
		C141,47.552,140.552,48,140,48z"/>
	<path opacity="0.2" d="M140,33h-30c-0.552,0-1-0.448-1-1v-7c0-0.552,0.448-1,1-1h30c0.552,0,1,0.448,1,1v7
		C141,32.552,140.552,33,140,33z"/>
	
		<rect x="97.172" y="40.172" transform="matrix(0.7071 0.7071 -0.7071 0.7071 59.6949 -58.1163)" fill="#F0F0F0" width="5.657" height="5.657"/>
</g>
</svg>
