<?xml version="1.0" encoding="utf-8"?>
<!-- Generator: Adobe Illustrator 18.1.1, SVG Export Plug-In . SVG Version: 6.00 Build 0)  -->
<!DOCTYPE svg PUBLIC "-//W3C//DTD SVG 1.1//EN" "http://www.w3.org/Graphics/SVG/1.1/DTD/svg11.dtd">
<svg version="1.1" xmlns="http://www.w3.org/2000/svg" xmlns:xlink="http://www.w3.org/1999/xlink" x="0px" y="0px" width="150px"
	 height="86px" viewBox="0 0 150 86" enable-background="new 0 0 150 86" xml:space="preserve">
<g id="Layer_1">
	<rect y="63" fill="#3B3B3B" width="150" height="23"/>
	<rect fill="#F56D3B" width="150" height="63"/>
	<circle opacity="0.2" cx="32.355" cy="32" r="23.355"/>
	<g>
		<defs>
			<circle id="SVGID_1_" cx="32.355" cy="32" r="23.355"/>
		</defs>
		<clipPath id="SVGID_2_">
			<use xlink:href="#SVGID_1_"  overflow="visible"/>
		</clipPath>
		<g clip-path="url(#SVGID_2_)">
			<path fill="#DDD8D2" d="M15.539,29.197V59.01c0,1.929,1.541,3.507,3.425,3.507l0,0c1.884,0,3.425-1.578,3.425-3.507V29.197
				H15.539z"/>
			<g opacity="0.05">
				<rect x="19.899" y="29.197" width="2.491" height="33.32"/>
			</g>
			<path fill="#F5F0EB" d="M22.39,18.921v39.66c0,0,28.338-0.112,28.338,0V27.934l-8.091-9.013H22.39z"/>
			<rect x="38.272" y="29.197" fill="#D3CFC9" width="9.342" height="1.868"/>
			<rect x="38.272" y="33.246" fill="#D3CFC9" width="9.342" height="1.868"/>
			<rect x="38.272" y="37.294" fill="#D3CFC9" width="9.342" height="1.868"/>
			<rect x="26.127" y="41.342" fill="#D3CFC9" width="21.176" height="1.868"/>
			<rect x="26.127" y="45.39" fill="#D3CFC9" width="21.176" height="1.868"/>
			<rect x="26.127" y="49.439" fill="#D3CFC9" width="21.176" height="1.868"/>
			<rect x="26.127" y="53.487" fill="#D3CFC9" width="21.176" height="1.868"/>
			<rect x="26.127" y="57.535" fill="#D3CFC9" width="21.176" height="1.868"/>
			<rect x="26.127" y="29.197" fill="#F59C36" width="9.654" height="9.965"/>
			<rect x="26.127" y="23.903" fill="#B7B3AE" width="18.996" height="3.085"/>
			<polygon fill="#FFFFFF" points="42.667,27.934 50.728,27.934 42.638,18.921 			"/>
			<polygon opacity="0.05" points="50.734,27.934 42.673,27.934 50.734,35.425 			"/>
		</g>
	</g>
	<path opacity="0.05" d="M55.067,26.561c0.214,1.263,0.332,2.558,0.332,3.882c0,12.727-10.317,23.044-23.044,23.044
		S9.311,43.17,9.311,30.443c0-1.324,0.118-2.619,0.332-3.882C9.227,28.307,9,30.126,9,32c0,12.899,10.457,23.355,23.355,23.355
		S55.711,44.899,55.711,32C55.711,30.126,55.484,28.307,55.067,26.561z"/>
	<path opacity="0.6" fill="#FFFFFF" d="M139.702,11H68.298C67.581,11,67,10.552,67,10v0c0-0.552,0.581-1,1.298-1h71.404
		C140.419,9,141,9.448,141,10v0C141,10.552,140.419,11,139.702,11z"/>
	<path opacity="0.35" fill="#FFFFFF" d="M139.702,20H68.298C67.581,20,67,19.552,67,19v0c0-0.552,0.581-1,1.298-1h71.404
		c0.717,0,1.298,0.448,1.298,1v0C141,19.552,140.419,20,139.702,20z"/>
	<path opacity="0.35" fill="#FFFFFF" d="M139.702,29H68.298C67.581,29,67,28.552,67,28v0c0-0.552,0.581-1,1.298-1h71.404
		c0.717,0,1.298,0.448,1.298,1v0C141,28.552,140.419,29,139.702,29z"/>
	<path opacity="0.35" fill="#FFFFFF" d="M139.702,38H68.298C67.581,38,67,37.552,67,37l0,0c0-0.552,0.581-1,1.298-1h71.404
		c0.717,0,1.298,0.448,1.298,1l0,0C141,37.552,140.419,38,139.702,38z"/>
	<path opacity="0.35" fill="#FFFFFF" d="M139.702,47H68.298C67.581,47,67,46.552,67,46l0,0c0-0.552,0.581-1,1.298-1h71.404
		c0.717,0,1.298,0.448,1.298,1l0,0C141,46.552,140.419,47,139.702,47z"/>
	<path opacity="0.35" fill="#FFFFFF" d="M139.702,56H68.298C67.581,56,67,55.552,67,55l0,0c0-0.552,0.581-1,1.298-1h71.404
		c0.717,0,1.298,0.448,1.298,1l0,0C141,55.552,140.419,56,139.702,56z"/>
	<path fill="#FFFFFF" d="M102,79H10c-0.552,0-1-0.448-1-1v-7c0-0.552,0.448-1,1-1h92c0.552,0,1,0.448,1,1v7
		C103,78.552,102.552,79,102,79z"/>
	<path fill="#FFB040" d="M140,79h-30c-0.552,0-1-0.448-1-1v-7c0-0.552,0.448-1,1-1h30c0.552,0,1,0.448,1,1v7
		C141,78.552,140.552,79,140,79z"/>
</g>
<g id="Layer_2" display="none">
</g>
</svg>
