<?xml version="1.0" encoding="utf-8"?>
<!-- Generator: Adobe Illustrator 18.1.1, SVG Export Plug-In . SVG Version: 6.00 Build 0)  -->
<!DOCTYPE svg PUBLIC "-//W3C//DTD SVG 1.1//EN" "http://www.w3.org/Graphics/SVG/1.1/DTD/svg11.dtd">
<svg version="1.1" xmlns="http://www.w3.org/2000/svg" xmlns:xlink="http://www.w3.org/1999/xlink" x="0px" y="0px" width="150px"
	 height="86px" viewBox="0 0 150 86" enable-background="new 0 0 150 86" xml:space="preserve">
<g id="Layer_1" display="none">
	<rect display="inline" fill="#F0F0F0" width="150" height="63"/>
	<g display="inline">
		<g>
			<polygon fill="#31343B" points="78.381,38.833 68.434,38.833 69.355,33.553 77.46,33.553 			"/>
			<path fill="#4F535E" d="M80.959,38.833H65.855v-0.031c0-0.898,0.728-1.627,1.627-1.627h11.85c0.898,0,1.627,0.728,1.627,1.627
				V38.833z"/>
		</g>
		<g opacity="0.7">
			<path fill="#D9D3CD" d="M107.27,10.773l-0.346,0.306c-0.091,0.067-0.169,0.153-0.229,0.253l-3.479,4.347l6.276,1.964
				c0.213-0.068,0.228-0.144,0.15-0.38l-2.119-6.389C107.484,10.759,107.358,10.709,107.27,10.773z"/>
			<path fill="#D9D3CD" d="M96.963,14.094l0.463,0.046c0.114,0.001,0.228,0.025,0.336,0.071l5.549,1.439l-4.023,5.282
				c-0.213,0.068-0.27,0.017-0.349-0.22l-2.119-6.389C96.782,14.207,96.854,14.093,96.963,14.094z"/>
			<path fill="#EDE7DF" d="M98.979,20.756l4.24-5.077l6.423,1.642c0.09,0.097,0.059,0.256-0.058,0.293l-10.383,3.345
				C99.085,20.996,98.965,20.887,98.979,20.756z"/>
			<path fill="#EBE4DC" d="M107.513,10.945l-3.787,5.335c-0.129,0.182-0.353,0.254-0.566,0.184l-6.295-2.088
				c-0.09-0.097-0.059-0.256,0.058-0.293l10.368-3.34C107.407,10.704,107.527,10.814,107.513,10.945z"/>
		</g>
		<g opacity="0.7">
			<path fill="#D9D3CD" d="M50.758,20.473l-0.45,0.106c-0.112,0.016-0.221,0.055-0.321,0.115l-5.121,2.185l4.601,4.698
				c0.22,0.04,0.269-0.019,0.312-0.264l1.154-6.632C50.953,20.562,50.866,20.458,50.758,20.473z"/>
			<path fill="#D9D3CD" d="M40.107,18.524l0.386,0.259c0.1,0.054,0.189,0.13,0.263,0.222l4.209,3.892l-6.042,2.751
				c-0.22-0.04-0.246-0.113-0.203-0.359l1.154-6.632C39.893,18.539,40.011,18.472,40.107,18.524z"/>
			<path fill="#EDE7DF" d="M38.732,25.348l6.137-2.468l4.883,4.484c0.033,0.128-0.069,0.253-0.19,0.231l-10.73-1.963
				C38.711,25.61,38.657,25.456,38.732,25.348z"/>
			<path fill="#EBE4DC" d="M50.891,20.739l-5.86,2.91c-0.2,0.099-0.431,0.057-0.586-0.106l-4.559-4.817
				c-0.033-0.128,0.069-0.253,0.189-0.231l10.715,1.96C50.911,20.477,50.965,20.631,50.891,20.739z"/>
		</g>
		<g opacity="0.6">
			<path fill="#D9D3CD" d="M116.525,24.337l-0.332-0.02c-0.08-0.012-0.164-0.008-0.245,0.012l-3.98,0.442l2.193,4.191
				c0.143,0.073,0.189,0.043,0.27-0.117l2.172-4.328C116.641,24.439,116.602,24.349,116.525,24.337z"/>
			<path fill="#D9D3CD" d="M109.594,20.784l0.212,0.259c0.057,0.058,0.103,0.128,0.135,0.207l2.09,3.554l-4.732,0.64
				c-0.143-0.073-0.146-0.129-0.066-0.289l2.172-4.328C109.444,20.75,109.539,20.728,109.594,20.784z"/>
			<path fill="#EDE7DF" d="M107.231,25.197l4.739-0.426l2.432,4.102c-0.004,0.095-0.1,0.16-0.179,0.12l-6.982-3.579
				C107.162,25.374,107.157,25.257,107.231,25.197z"/>
			<path fill="#EBE4DC" d="M116.561,24.548l-4.639,0.787c-0.158,0.027-0.309-0.05-0.381-0.195l-2.139-4.264
				c0.004-0.095,0.1-0.16,0.178-0.12l6.972,3.574C116.629,24.372,116.635,24.489,116.561,24.548z"/>
		</g>
		<g opacity="0.6">
			<path fill="#D9D3CD" d="M38.667,11.975l-0.22,0.249c-0.059,0.056-0.107,0.124-0.141,0.201l-2.099,3.411l4.653,0.847
				c0.146-0.068,0.15-0.123,0.073-0.285l-2.078-4.373C38.819,11.946,38.724,11.922,38.667,11.975z"/>
			<path fill="#D9D3CD" d="M31.604,15.257l0.334-0.008c0.081-0.01,0.165-0.002,0.246,0.021l4.088,0.536l-2.404,4.126
				c-0.146,0.068-0.191,0.036-0.268-0.126l-2.078-4.373C31.484,15.354,31.526,15.266,31.604,15.257z"/>
			<path fill="#EDE7DF" d="M33.632,19.834l2.578-3.999l4.73,0.604c0.073,0.061,0.064,0.177-0.015,0.214l-7.116,3.306
				C33.729,19.997,33.633,19.929,33.632,19.834z"/>
			<path fill="#EBE4DC" d="M38.856,12.076l-2.231,4.143c-0.076,0.141-0.229,0.213-0.388,0.181l-4.678-0.934
				c-0.073-0.061-0.065-0.177,0.015-0.214l7.105-3.301C38.759,11.914,38.854,11.982,38.856,12.076z"/>
		</g>
		<g opacity="0.6">
			<path fill="#D9D3CD" d="M95.195,23.4l-0.199,0.266c-0.055,0.06-0.097,0.132-0.124,0.211l-1.822,3.567l4.706,0.475
				c0.14-0.079,0.14-0.134,0.05-0.29l-2.418-4.195C95.344,23.36,95.248,23.342,95.195,23.4z"/>
			<path fill="#D9D3CD" d="M88.414,27.232l0.333-0.035c0.08-0.016,0.164-0.015,0.247,0.001l4.118,0.21l-2.07,4.304
				c-0.14,0.079-0.188,0.051-0.277-0.104l-2.418-4.195C88.303,27.338,88.337,27.247,88.414,27.232z"/>
			<path fill="#EDE7DF" d="M90.799,31.634l2.253-4.191l4.763,0.227c0.077,0.055,0.078,0.172,0.002,0.215l-6.831,3.86
				C90.908,31.788,90.808,31.728,90.799,31.634z"/>
			<path fill="#EBE4DC" d="M95.391,23.486l-1.896,4.307c-0.065,0.147-0.212,0.23-0.372,0.211l-4.737-0.56
				c-0.077-0.056-0.078-0.172-0.002-0.215l6.821-3.854C95.282,23.332,95.382,23.392,95.391,23.486z"/>
		</g>
		<g opacity="0.6">
			<path fill="#D9D3CD" d="M120.012,15.362l-0.148,0.123c-0.039,0.027-0.072,0.061-0.099,0.102l-1.507,1.762l2.585,0.903
				c0.089-0.026,0.097-0.057,0.067-0.156l-0.795-2.688C120.102,15.359,120.05,15.336,120.012,15.362z"/>
			<path fill="#D9D3CD" d="M115.677,16.602l0.192,0.025c0.047,0.002,0.094,0.013,0.139,0.034l2.29,0.675l-1.747,2.143
				c-0.089,0.026-0.113,0.003-0.142-0.096l-0.795-2.688C115.601,16.647,115.632,16.601,115.677,16.602z"/>
			<path fill="#EDE7DF" d="M116.425,19.403l1.834-2.055l2.651,0.771c0.036,0.042,0.021,0.107-0.028,0.121l-4.367,1.25
				C116.466,19.504,116.417,19.457,116.425,19.403z"/>
			<path fill="#EBE4DC" d="M120.111,15.437l-1.649,2.169c-0.056,0.074-0.15,0.101-0.238,0.069l-2.591-0.955
				c-0.036-0.042-0.021-0.107,0.028-0.121l4.361-1.248C120.07,15.335,120.119,15.382,120.111,15.437z"/>
		</g>
		<g opacity="0.4">
			<path fill="#D9D3CD" d="M129.52,23.838l-0.128,0.011c-0.031,0-0.063,0.006-0.093,0.019l-1.492,0.397l1.077,1.471
				c0.059,0.02,0.075,0.006,0.096-0.06l0.579-1.774C129.57,23.87,129.55,23.838,129.52,23.838z"/>
			<path fill="#D9D3CD" d="M126.674,22.883l0.096,0.086c0.025,0.019,0.047,0.043,0.063,0.071l1.001,1.234l-1.767,0.516
				c-0.059-0.02-0.063-0.041-0.042-0.106l0.579-1.774C126.614,22.878,126.649,22.864,126.674,22.883z"/>
			<path fill="#EDE7DF" d="M126.027,24.701l1.782-0.435l1.163,1.424c0.004,0.036-0.029,0.067-0.061,0.056l-2.867-0.963
				C126.011,24.772,126.002,24.728,126.027,24.701z"/>
			<path fill="#EBE4DC" d="M129.546,23.917l-1.723,0.567c-0.059,0.019-0.121-0.001-0.157-0.052l-1.061-1.502
				c-0.004-0.036,0.029-0.067,0.061-0.056l2.863,0.961C129.562,23.845,129.57,23.89,129.546,23.917z"/>
		</g>
		<g opacity="0.4">
			<path fill="#D9D3CD" d="M18.597,17.431l-0.081,0.099c-0.022,0.022-0.04,0.049-0.051,0.079l-0.761,1.343l1.804,0.262
				c0.055-0.028,0.056-0.049,0.024-0.111l-0.861-1.656C18.656,17.418,18.619,17.41,18.597,17.431z"/>
			<path fill="#D9D3CD" d="M15.922,18.793l0.129-0.008c0.031-0.005,0.063-0.003,0.095,0.005l1.582,0.15l-0.869,1.623
				c-0.055,0.028-0.073,0.017-0.105-0.045l-0.861-1.656C15.877,18.832,15.892,18.798,15.922,18.793z"/>
			<path fill="#EDE7DF" d="M16.766,20.529l0.938-1.576l1.83,0.167c0.029,0.023,0.027,0.067-0.003,0.083l-2.696,1.372
				C16.806,20.59,16.768,20.565,16.766,20.529z"/>
			<path fill="#EBE4DC" d="M18.672,17.468l-0.802,1.627c-0.027,0.055-0.085,0.085-0.147,0.075l-1.815-0.295
				c-0.029-0.023-0.027-0.067,0.003-0.083l2.692-1.37C18.632,17.407,18.67,17.431,18.672,17.468z"/>
		</g>
		<g opacity="0.6">
			<path fill="#D9D3CD" d="M29.328,21.339l-0.192-0.003c-0.047-0.005-0.095,0-0.141,0.014l-2.29,0.36l1.378,2.366
				c0.085,0.039,0.11,0.02,0.153-0.075l1.142-2.56C29.398,21.394,29.373,21.343,29.328,21.339z"/>
			<path fill="#D9D3CD" d="M25.227,19.466l0.129,0.144c0.035,0.032,0.063,0.072,0.083,0.116l1.302,2.001l-2.72,0.495
				c-0.085-0.039-0.088-0.071-0.046-0.165l1.142-2.56C25.139,19.45,25.193,19.435,25.227,19.466z"/>
			<path fill="#EDE7DF" d="M23.976,22.08l2.729-0.371l1.514,2.308c0,0.055-0.054,0.095-0.1,0.074l-4.132-1.887
				C23.941,22.184,23.935,22.116,23.976,22.08z"/>
			<path fill="#EBE4DC" d="M29.355,21.46l-2.663,0.577c-0.091,0.02-0.18-0.021-0.226-0.102l-1.349-2.41
				c0-0.055,0.054-0.095,0.1-0.074l4.126,1.884C29.39,21.356,29.396,21.423,29.355,21.46z"/>
		</g>
		<g opacity="0.6">
			<path fill="#D9D3CD" d="M56.149,25.727l-0.156,0.113c-0.041,0.024-0.076,0.056-0.105,0.096l-1.618,1.661l2.521,1.068
				c0.091-0.02,0.1-0.05,0.077-0.152l-0.62-2.734C56.238,25.73,56.188,25.704,56.149,25.727z"/>
			<path fill="#D9D3CD" d="M51.743,26.686l0.19,0.038c0.047,0.005,0.093,0.02,0.136,0.043l2.242,0.821l-1.881,2.026
				c-0.091,0.02-0.113-0.004-0.136-0.105l-0.62-2.734C51.663,26.726,51.698,26.682,51.743,26.686z"/>
			<path fill="#EDE7DF" d="M52.309,29.529l1.963-1.933l2.595,0.94c0.033,0.044,0.014,0.108-0.036,0.119l-4.438,0.966
				C52.343,29.633,52.298,29.583,52.309,29.529z"/>
			<path fill="#EBE4DC" d="M56.243,25.808l-1.785,2.058c-0.061,0.07-0.157,0.091-0.242,0.053l-2.524-1.12
				c-0.033-0.044-0.014-0.108,0.036-0.119l4.432-0.965C56.208,25.704,56.254,25.754,56.243,25.808z"/>
		</g>
		<g>
			<path fill="#D9D3CD" d="M104.508,18.856l-0.631,0.063c-0.155,0.001-0.31,0.034-0.458,0.098l-7.359,2.045l5.406,7.22
				c0.291,0.094,0.369,0.023,0.472-0.303l2.769-8.809C104.757,19.013,104.657,18.855,104.508,18.856z"/>
			<path fill="#D9D3CD" d="M90.377,14.281l0.478,0.422c0.126,0.092,0.233,0.21,0.317,0.349l5.019,6.053l-8.713,2.649
				c-0.291-0.094-0.314-0.198-0.212-0.524l2.769-8.809C90.085,14.262,90.256,14.192,90.377,14.281z"/>
			<path fill="#EDE7DF" d="M87.274,23.311l8.791-2.246l5.829,6.98c0.022,0.18-0.14,0.332-0.3,0.28l-14.235-4.609
				C87.199,23.663,87.153,23.445,87.274,23.311z"/>
			<path fill="#EBE4DC" d="M104.641,19.242l-8.494,2.897c-0.289,0.099-0.597,0-0.777-0.25l-5.328-7.374
				c-0.022-0.18,0.14-0.332,0.299-0.28l14.215,4.602C104.716,18.89,104.761,19.108,104.641,19.242z"/>
		</g>
		<g>
			<path fill="#D9D3CD" d="M62.572,20.331l-0.624-0.109c-0.15-0.041-0.308-0.05-0.467-0.028l-7.638-0.007l3.268,8.407
				c0.255,0.169,0.349,0.122,0.536-0.165l5.034-7.741C62.77,20.549,62.716,20.37,62.572,20.331z"/>
			<path fill="#D9D3CD" d="M50.19,12.127l0.347,0.535c0.097,0.122,0.168,0.265,0.212,0.421l3.208,7.179l-9.105,0.21
				c-0.255-0.169-0.249-0.275-0.063-0.562l5.034-7.741C49.913,12.031,50.097,12.01,50.19,12.127z"/>
			<path fill="#EDE7DF" d="M44.775,19.991l9.072,0.198l3.739,8.289c-0.027,0.18-0.224,0.282-0.364,0.189l-12.474-8.264
				C44.608,20.311,44.623,20.088,44.775,19.991z"/>
			<path fill="#EBE4DC" d="M62.596,20.739l-8.96,0.509c-0.305,0.017-0.575-0.16-0.681-0.449l-3.151-8.534
				c0.027-0.18,0.224-0.282,0.364-0.189l12.456,8.252C62.763,20.419,62.748,20.642,62.596,20.739z"/>
		</g>
		<g>
			<path fill="#FFC15E" d="M56.565,32.534c-0.546,0-0.991-0.439-0.991-0.979V10.789c0-0.54,0.444-0.979,0.991-0.979h33.684
				c0.546,0,0.991,0.439,0.991,0.979v20.766c0,0.54-0.445,0.979-0.991,0.979H56.565z"/>
			<path fill="#4F535E" d="M90.24,10.81l0.009,20.725l-33.674,0.02L56.566,10.81H90.24 M90.249,8.81H56.566
				c-1.095,0-1.991,0.891-1.991,1.979v20.766c0,1.089,0.896,1.98,1.991,1.98h33.684c1.095,0,1.991-0.891,1.991-1.98V10.789
				C92.24,9.7,91.344,8.81,90.249,8.81L90.249,8.81z"/>
		</g>
		<g>
			<g opacity="0.05">
				<rect x="59.826" y="19.364" width="1.082" height="12.341"/>
			</g>
			<path fill="#DBD7D2" d="M60.908,18.075v12.157c0,0.814-0.66,1.474-1.474,1.474h11.788c0.81,0,1.474-0.663,1.474-1.474v-8.473
				l-3.5-3.684L60.908,18.075z"/>
			<rect x="67.355" y="22.312" fill="#D3CFC9" width="3.868" height="0.737"/>
			<rect x="62.382" y="22.311" fill="#E57C58" width="4.052" height="4.052"/>
			<rect x="67.355" y="23.969" fill="#D3CFC9" width="3.868" height="0.737"/>
			<rect x="67.355" y="25.627" fill="#D3CFC9" width="3.868" height="0.737"/>
			<rect x="62.382" y="27.285" fill="#C2BEB9" width="8.841" height="0.737"/>
			<rect x="62.382" y="28.943" fill="#C2BEB9" width="8.841" height="0.737"/>
			<rect x="62.382" y="20.101" fill="#B7B3AE" width="8.841" height="1.289"/>
			<polygon fill="#FFFFFF" points="69.197,21.759 72.697,21.759 69.197,18.075 			"/>
			<polygon opacity="0.05" points="72.697,21.759 69.197,21.759 72.697,24.89 			"/>
		</g>
		<g>
			<g opacity="0.05">
				<rect x="74.194" y="19.364" width="1.082" height="12.341"/>
			</g>
			<path fill="#DBD7D2" d="M75.276,18.075v12.157c0,0.814-0.66,1.474-1.474,1.474h11.788c0.81,0,1.474-0.663,1.474-1.474v-8.473
				l-3.5-3.684L75.276,18.075z"/>
			<rect x="76.749" y="22.312" fill="#C2BEB9" width="4.052" height="0.737"/>
			<rect x="76.749" y="23.969" fill="#C2BEB9" width="4.052" height="0.737"/>
			<rect x="76.749" y="25.627" fill="#C2BEB9" width="4.052" height="0.737"/>
			<rect x="76.749" y="27.285" fill="#C2BEB9" width="8.841" height="0.737"/>
			<rect x="76.749" y="28.943" fill="#C2BEB9" width="8.841" height="0.737"/>
			<rect x="76.749" y="20.101" fill="#B7B3AE" width="8.841" height="1.289"/>
			<polygon fill="#FFFFFF" points="83.564,21.759 87.064,21.759 83.564,18.075 			"/>
			<polygon opacity="0.05" points="87.064,21.759 83.564,21.759 87.064,24.89 			"/>
			<rect x="81.538" y="22.311" fill="#639DC7" width="4.052" height="4.052"/>
		</g>
		<g>
			<g opacity="0.1">
				<rect x="65.721" y="18.075" width="1.082" height="13.63"/>
			</g>
			<g opacity="0.1">
				<rect x="79.144" y="18.075" width="2.556" height="13.63"/>
			</g>
			<path fill="#F5F0EB" d="M66.803,12.365v17.867c0,0.814-0.66,1.474-1.474,1.474h13.999c0.81,0,1.474-0.663,1.474-1.474V16.049
				l-3.5-3.684L66.803,12.365z"/>
			<rect x="74.539" y="16.601" fill="#D3CFC9" width="4.789" height="0.737"/>
			<rect x="68.276" y="16.602" fill="#F59C36" width="5.342" height="5.71"/>
			<rect x="74.539" y="18.259" fill="#D3CFC9" width="4.789" height="0.737"/>
			<rect x="74.539" y="19.917" fill="#D3CFC9" width="4.789" height="0.737"/>
			<rect x="74.539" y="21.575" fill="#D3CFC9" width="4.789" height="0.737"/>
			<rect x="68.276" y="23.232" fill="#D3CFC9" width="11.052" height="0.737"/>
			<rect x="68.276" y="24.89" fill="#D3CFC9" width="11.052" height="0.737"/>
			<rect x="68.276" y="26.548" fill="#D3CFC9" width="5.342" height="0.737"/>
			<rect x="68.276" y="28.206" fill="#D3CFC9" width="5.342" height="0.737"/>
			<rect x="68.276" y="29.864" fill="#D3CFC9" width="5.342" height="0.737"/>
			<rect x="68.276" y="14.391" fill="#B7B3AE" width="11.052" height="1.289"/>
			<polygon fill="#FFFFFF" points="77.302,16.049 80.802,16.049 77.302,12.365 			"/>
			<polygon opacity="0.05" points="80.802,16.049 77.302,16.049 80.802,19.18 			"/>
			<rect x="74.539" y="26.548" fill="#74C7A5" width="4.789" height="4.052"/>
		</g>
		<polygon opacity="0.15" points="69.355,34 77.46,34 77.828,35.95 		"/>
	</g>
	<rect y="63" display="inline" fill="#DD4242" width="150" height="23"/>
	<path display="inline" opacity="0.25" d="M140,46H10c-0.552,0-1-0.448-1-1l0,0c0-0.552,0.448-1,1-1h130c0.552,0,1,0.448,1,1l0,0
		C141,45.552,140.552,46,140,46z"/>
	<path display="inline" opacity="0.1" d="M140,55H10c-0.552,0-1-0.448-1-1l0,0c0-0.552,0.448-1,1-1h130c0.552,0,1,0.448,1,1l0,0
		C141,54.552,140.552,55,140,55z"/>
	<path display="inline" opacity="0.2" d="M102,79H10c-0.552,0-1-0.448-1-1v-7c0-0.552,0.448-1,1-1h92c0.552,0,1,0.448,1,1v7
		C103,78.552,102.552,79,102,79z"/>
	<path display="inline" fill="#FFFFFF" d="M140,79h-30c-0.552,0-1-0.448-1-1v-7c0-0.552,0.448-1,1-1h30c0.552,0,1,0.448,1,1v7
		C141,78.552,140.552,79,140,79z"/>
</g>
<g id="Layer_2">
	<rect fill="#F0F0F0" width="150" height="63"/>
	<rect y="63" fill="#92C927" width="150" height="23"/>
	<path opacity="0.25" d="M140,46H10c-0.552,0-1-0.448-1-1l0,0c0-0.552,0.448-1,1-1h130c0.552,0,1,0.448,1,1l0,0
		C141,45.552,140.552,46,140,46z"/>
	<path opacity="0.1" d="M140,55H10c-0.552,0-1-0.448-1-1l0,0c0-0.552,0.448-1,1-1h130c0.552,0,1,0.448,1,1l0,0
		C141,54.552,140.552,55,140,55z"/>
	<path opacity="0.2" d="M102,79H10c-0.552,0-1-0.448-1-1v-7c0-0.552,0.448-1,1-1h92c0.552,0,1,0.448,1,1v7
		C103,78.552,102.552,79,102,79z"/>
	<path fill="#FFFFFF" d="M140,79h-30c-0.552,0-1-0.448-1-1v-7c0-0.552,0.448-1,1-1h30c0.552,0,1,0.448,1,1v7
		C141,78.552,140.552,79,140,79z"/>
	<g>
		<g>
			<polygon fill="#31343B" points="78.973,38.833 67.985,38.833 69.002,33 77.955,33 			"/>
			<path fill="#4F535E" d="M81.822,38.833H65.136v-0.034c0-0.992,0.805-1.797,1.797-1.797h13.091c0.992,0,1.797,0.805,1.797,1.797
				V38.833z"/>
		</g>
		<g opacity="0.7">
			<path fill="#D9D3CD" d="M110.886,7.836l-0.382,0.338c-0.101,0.074-0.187,0.169-0.253,0.28l-3.843,4.802l6.933,2.169
				c0.235-0.076,0.252-0.159,0.165-0.42l-2.341-7.058C111.123,7.821,110.983,7.765,110.886,7.836z"/>
			<path fill="#D9D3CD" d="M99.501,11.504l0.511,0.05c0.126,0.001,0.252,0.027,0.371,0.079l6.13,1.589l-4.444,5.835
				c-0.235,0.076-0.298,0.019-0.385-0.243l-2.341-7.058C99.301,11.629,99.38,11.503,99.501,11.504z"/>
			<path fill="#EDE7DF" d="M101.727,18.864l4.684-5.609l7.095,1.814c0.099,0.107,0.065,0.283-0.064,0.324l-11.47,3.695
				C101.844,19.129,101.711,19.008,101.727,18.864z"/>
			<path fill="#EBE4DC" d="M111.154,8.026l-4.183,5.894c-0.143,0.201-0.39,0.281-0.625,0.203l-6.954-2.307
				c-0.099-0.107-0.065-0.283,0.064-0.324l11.453-3.69C111.037,7.76,111.17,7.881,111.154,8.026z"/>
		</g>
		<g opacity="0.7">
			<path fill="#D9D3CD" d="M48.459,18.551l-0.497,0.117c-0.124,0.017-0.244,0.06-0.355,0.127l-5.657,2.414l5.082,5.19
				c0.243,0.044,0.297-0.021,0.344-0.292l1.275-7.326C48.674,18.65,48.578,18.534,48.459,18.551z"/>
			<path fill="#D9D3CD" d="M36.692,16.398l0.426,0.286c0.11,0.06,0.209,0.143,0.29,0.245l4.649,4.299l-6.675,3.039
				c-0.243-0.044-0.272-0.125-0.225-0.396l1.275-7.326C36.457,16.414,36.586,16.341,36.692,16.398z"/>
			<path fill="#EDE7DF" d="M35.173,23.936l6.78-2.726l5.394,4.954c0.037,0.142-0.077,0.28-0.21,0.255L35.284,24.25
				C35.151,24.225,35.091,24.056,35.173,23.936z"/>
			<path fill="#EBE4DC" d="M48.605,18.845l-6.473,3.214c-0.221,0.109-0.476,0.063-0.647-0.117l-5.036-5.321
				c-0.037-0.142,0.077-0.28,0.209-0.255l11.836,2.166C48.628,18.556,48.688,18.725,48.605,18.845z"/>
		</g>
		<g opacity="0.6">
			<path fill="#D9D3CD" d="M121.11,22.82l-0.366-0.022c-0.089-0.014-0.181-0.009-0.271,0.014l-4.397,0.488l2.423,4.629
				c0.158,0.081,0.209,0.048,0.298-0.13l2.399-4.781C121.238,22.932,121.195,22.833,121.11,22.82z"/>
			<path fill="#D9D3CD" d="M113.454,18.894l0.234,0.286c0.063,0.064,0.114,0.142,0.149,0.229l2.309,3.926l-5.228,0.707
				c-0.158-0.081-0.161-0.142-0.072-0.319l2.399-4.781C113.288,18.857,113.393,18.833,113.454,18.894z"/>
			<path fill="#EDE7DF" d="M110.843,23.77l5.235-0.47l2.686,4.531c-0.004,0.105-0.111,0.177-0.197,0.132l-7.713-3.954
				C110.767,23.965,110.761,23.836,110.843,23.77z"/>
			<path fill="#EBE4DC" d="M121.15,23.053l-5.125,0.87c-0.175,0.03-0.341-0.055-0.421-0.215l-2.363-4.71
				c0.004-0.105,0.111-0.177,0.197-0.132l7.702,3.948C121.225,22.858,121.231,22.987,121.15,23.053z"/>
		</g>
		<g opacity="0.6">
			<path fill="#D9D3CD" d="M35.102,9.164l-0.243,0.275c-0.065,0.062-0.118,0.137-0.156,0.222l-2.319,3.768l5.14,0.935
				c0.161-0.075,0.166-0.136,0.081-0.315l-2.295-4.831C35.269,9.132,35.165,9.105,35.102,9.164z"/>
			<path fill="#D9D3CD" d="M27.299,12.789l0.369-0.009c0.09-0.011,0.182-0.003,0.272,0.023l4.516,0.592l-2.656,4.558
				c-0.161,0.075-0.211,0.04-0.296-0.139l-2.295-4.831C27.168,12.896,27.213,12.799,27.299,12.789z"/>
			<path fill="#EDE7DF" d="M29.539,17.845l2.848-4.418l5.225,0.667c0.08,0.068,0.071,0.196-0.017,0.237l-7.86,3.652
				C29.646,18.025,29.541,17.95,29.539,17.845z"/>
			<path fill="#EBE4DC" d="M35.31,9.276l-2.465,4.577c-0.084,0.156-0.253,0.235-0.428,0.2l-5.168-1.032
				c-0.08-0.068-0.071-0.196,0.017-0.237l7.849-3.647C35.203,9.096,35.309,9.171,35.31,9.276z"/>
		</g>
		<g opacity="0.6">
			<path fill="#D9D3CD" d="M97.547,21.785l-0.22,0.294c-0.06,0.067-0.107,0.146-0.137,0.234l-2.013,3.94l5.198,0.525
				c0.155-0.087,0.155-0.148,0.056-0.32l-2.671-4.634C97.712,21.74,97.605,21.721,97.547,21.785z"/>
			<path fill="#D9D3CD" d="M90.057,26.017l0.367-0.038c0.089-0.018,0.181-0.017,0.273,0.002l4.549,0.233l-2.286,4.754
				c-0.155,0.087-0.208,0.056-0.307-0.115l-2.671-4.634C89.934,26.134,89.971,26.034,90.057,26.017z"/>
			<path fill="#EDE7DF" d="M92.691,30.88l2.488-4.63l5.261,0.251c0.086,0.061,0.087,0.19,0.002,0.238l-7.546,4.264
				C92.812,31.05,92.701,30.984,92.691,30.88z"/>
			<path fill="#EBE4DC" d="M97.764,21.88l-2.094,4.758c-0.071,0.162-0.234,0.254-0.411,0.233l-5.233-0.619
				c-0.085-0.061-0.087-0.19-0.002-0.237l7.535-4.258C97.643,21.709,97.754,21.776,97.764,21.88z"/>
		</g>
		<g opacity="0.6">
			<path fill="#D9D3CD" d="M124.962,12.905l-0.164,0.136c-0.043,0.029-0.08,0.068-0.109,0.113l-1.665,1.946l2.856,0.998
				c0.099-0.028,0.107-0.063,0.075-0.173l-0.878-2.97C125.061,12.902,125.004,12.876,124.962,12.905z"/>
			<path fill="#D9D3CD" d="M120.174,14.275l0.212,0.028c0.052,0.002,0.104,0.015,0.154,0.038l2.529,0.745l-1.929,2.367
				c-0.099,0.028-0.124,0.004-0.157-0.106l-0.878-2.97C120.089,14.325,120.123,14.273,120.174,14.275z"/>
			<path fill="#EDE7DF" d="M121,17.369l2.026-2.27l2.928,0.852c0.04,0.046,0.023,0.118-0.031,0.134l-4.824,1.381
				C121.045,17.481,120.991,17.429,121,17.369z"/>
			<path fill="#EBE4DC" d="M125.072,12.987l-1.822,2.396c-0.062,0.082-0.166,0.112-0.263,0.076l-2.862-1.055
				c-0.04-0.046-0.023-0.118,0.031-0.134l4.817-1.379C125.027,12.875,125.08,12.927,125.072,12.987z"/>
		</g>
		<g opacity="0.4">
			<path fill="#D9D3CD" d="M135.465,22.269l-0.141,0.013c-0.035,0-0.069,0.007-0.102,0.021l-1.648,0.439l1.19,1.625
				c0.065,0.022,0.082,0.006,0.106-0.067l0.639-1.96C135.52,22.304,135.498,22.269,135.465,22.269z"/>
			<path fill="#D9D3CD" d="M132.321,21.213l0.106,0.095c0.028,0.021,0.052,0.048,0.07,0.079l1.106,1.364l-1.952,0.57
				c-0.065-0.022-0.07-0.045-0.046-0.118l0.639-1.96C132.256,21.208,132.294,21.193,132.321,21.213z"/>
			<path fill="#EDE7DF" d="M131.606,23.222l1.968-0.48l1.285,1.573c0.004,0.04-0.032,0.074-0.068,0.062l-3.167-1.063
				C131.589,23.3,131.579,23.251,131.606,23.222z"/>
			<path fill="#EBE4DC" d="M135.494,22.355l-1.903,0.626c-0.065,0.021-0.133-0.001-0.173-0.058l-1.172-1.659
				c-0.004-0.04,0.032-0.074,0.068-0.062l3.163,1.062C135.511,22.277,135.521,22.325,135.494,22.355z"/>
		</g>
		<g opacity="0.4">
			<path fill="#D9D3CD" d="M12.932,15.191l-0.09,0.109c-0.024,0.025-0.044,0.054-0.057,0.088l-0.841,1.484l1.993,0.289
				c0.061-0.031,0.062-0.054,0.027-0.122l-0.951-1.829C12.996,15.176,12.955,15.167,12.932,15.191z"/>
			<path fill="#D9D3CD" d="M9.976,16.695l0.142-0.009c0.034-0.005,0.07-0.004,0.105,0.005l1.748,0.166l-0.96,1.793
				c-0.061,0.031-0.081,0.018-0.116-0.05l-0.951-1.829C9.926,16.738,9.943,16.7,9.976,16.695z"/>
			<path fill="#EDE7DF" d="M10.909,18.612l1.036-1.741l2.022,0.185c0.032,0.025,0.03,0.075-0.003,0.092l-2.978,1.515
				C10.952,18.68,10.911,18.653,10.909,18.612z"/>
			<path fill="#EBE4DC" d="M13.013,15.231l-0.886,1.797c-0.03,0.061-0.094,0.094-0.162,0.083L9.96,16.785
				c-0.032-0.025-0.03-0.075,0.003-0.091l2.973-1.513C12.97,15.164,13.011,15.191,13.013,15.231z"/>
		</g>
		<g opacity="0.6">
			<path fill="#D9D3CD" d="M24.786,19.507l-0.212-0.003c-0.052-0.006-0.105-0.001-0.156,0.015l-2.53,0.398l1.523,2.614
				c0.093,0.043,0.122,0.022,0.169-0.083l1.262-2.828C24.863,19.569,24.835,19.513,24.786,19.507z"/>
			<path fill="#D9D3CD" d="M20.255,17.438l0.143,0.159c0.038,0.036,0.07,0.079,0.092,0.128l1.439,2.21l-3.005,0.546
				c-0.093-0.043-0.097-0.078-0.05-0.183l1.262-2.828C20.158,17.421,20.218,17.404,20.255,17.438z"/>
			<path fill="#EDE7DF" d="M18.873,20.327l3.015-0.409l1.673,2.55c0,0.061-0.059,0.105-0.111,0.082l-4.564-2.084
				C18.834,20.441,18.827,20.367,18.873,20.327z"/>
			<path fill="#EBE4DC" d="M24.815,19.641l-2.941,0.638c-0.1,0.022-0.199-0.023-0.249-0.113l-1.491-2.662
				c0-0.061,0.059-0.105,0.111-0.082l4.558,2.081C24.854,19.526,24.86,19.601,24.815,19.641z"/>
		</g>
		<g opacity="0.6">
			<path fill="#D9D3CD" d="M54.414,24.355l-0.172,0.125c-0.045,0.026-0.084,0.062-0.116,0.106l-1.787,1.835l2.785,1.18
				c0.1-0.022,0.111-0.056,0.085-0.167l-0.685-3.02C54.512,24.358,54.457,24.33,54.414,24.355z"/>
			<path fill="#D9D3CD" d="M49.547,25.415l0.21,0.042c0.052,0.005,0.103,0.022,0.151,0.048l2.476,0.907l-2.078,2.238
				c-0.1,0.022-0.124-0.004-0.15-0.116l-0.685-3.02C49.459,25.459,49.497,25.41,49.547,25.415z"/>
			<path fill="#EDE7DF" d="M50.172,28.555l2.168-2.135l2.867,1.039c0.037,0.049,0.015,0.12-0.04,0.132l-4.903,1.068
				C50.21,28.67,50.16,28.614,50.172,28.555z"/>
			<path fill="#EBE4DC" d="M54.517,24.445l-1.972,2.273c-0.067,0.077-0.173,0.101-0.267,0.059l-2.789-1.237
				c-0.037-0.049-0.015-0.12,0.039-0.132l4.896-1.066C54.48,24.33,54.53,24.385,54.517,24.445z"/>
		</g>
		<g>
			<path fill="#D9D3CD" d="M107.835,16.765l-0.697,0.07c-0.171,0.001-0.343,0.038-0.505,0.108l-8.129,2.259l5.972,7.976
				c0.322,0.104,0.408,0.026,0.521-0.335l3.058-9.731C108.111,16.938,108,16.764,107.835,16.765z"/>
			<path fill="#D9D3CD" d="M92.225,11.711l0.528,0.466c0.139,0.102,0.258,0.232,0.35,0.386l5.545,6.687l-9.625,2.926
				c-0.322-0.104-0.347-0.219-0.234-0.579l3.058-9.731C91.902,11.69,92.091,11.613,92.225,11.711z"/>
			<path fill="#EDE7DF" d="M88.797,21.686l9.711-2.482l6.439,7.711c0.024,0.199-0.155,0.366-0.331,0.309l-15.726-5.092
				C88.714,22.075,88.664,21.834,88.797,21.686z"/>
			<path fill="#EBE4DC" d="M107.982,17.192l-9.383,3.201c-0.32,0.109-0.659,0-0.858-0.276l-5.885-8.146
				c-0.024-0.199,0.155-0.366,0.331-0.309l15.703,5.084C108.065,16.802,108.115,17.044,107.982,17.192z"/>
		</g>
		<g>
			<path fill="#D9D3CD" d="M61.509,18.394l-0.69-0.12c-0.165-0.045-0.34-0.056-0.516-0.031l-8.437-0.008l3.61,9.287
				c0.282,0.187,0.386,0.134,0.592-0.183l5.56-8.552C61.728,18.635,61.669,18.438,61.509,18.394z"/>
			<path fill="#D9D3CD" d="M47.831,9.332l0.384,0.591c0.107,0.135,0.186,0.293,0.234,0.465l3.544,7.93l-10.058,0.232
				c-0.282-0.187-0.276-0.304-0.07-0.621l5.56-8.552C47.526,9.225,47.728,9.202,47.831,9.332z"/>
			<path fill="#EDE7DF" d="M41.849,18.019l10.021,0.219l4.13,9.157c-0.03,0.198-0.247,0.311-0.402,0.209l-13.779-9.129
				C41.665,18.372,41.681,18.126,41.849,18.019z"/>
			<path fill="#EBE4DC" d="M61.536,18.845l-9.898,0.562c-0.337,0.019-0.635-0.177-0.753-0.497l-3.48-9.428
				c0.03-0.198,0.247-0.311,0.402-0.209l13.76,9.116C61.72,18.492,61.704,18.738,61.536,18.845z"/>
		</g>
		<g>
			<path fill="#FFC15E" d="M54.874,31.979c-0.661,0-1.199-0.532-1.199-1.187V7.854c0-0.654,0.538-1.187,1.199-1.187h37.21
				c0.661,0,1.199,0.532,1.199,1.187v22.939c0,0.654-0.538,1.187-1.199,1.187H54.874z"/>
			<path fill="#4F535E" d="M92.084,7.667c0.104,0,0.199,0.089,0.199,0.187v22.94c0,0.098-0.095,0.187-0.199,0.187h-37.21
				c-0.104,0-0.199-0.089-0.199-0.187V7.853c0-0.098,0.095-0.187,0.199-0.187H92.084 M92.084,5.667h-37.21
				c-1.21,0-2.199,0.984-2.199,2.187v22.94c0,1.203,0.99,2.187,2.199,2.187h37.21c1.21,0,2.199-0.984,2.199-2.187V7.853
				C94.283,6.651,93.293,5.667,92.084,5.667L92.084,5.667z"/>
		</g>
		<g>
			<g opacity="0.05">
				<rect x="58.476" y="17.326" width="1.195" height="13.633"/>
			</g>
			<path fill="#DBD7D2" d="M59.672,15.902v13.429c0,0.899-0.729,1.628-1.628,1.628h13.022c0.895,0,1.628-0.733,1.628-1.628v-9.36
				l-3.866-4.07L59.672,15.902z"/>
			<rect x="66.793" y="20.582" fill="#D3CFC9" width="4.273" height="0.814"/>
			<rect x="61.299" y="20.582" fill="#E57C58" width="4.476" height="4.476"/>
			<rect x="66.793" y="22.413" fill="#D3CFC9" width="4.273" height="0.814"/>
			<rect x="66.793" y="24.245" fill="#D3CFC9" width="4.273" height="0.814"/>
			<rect x="61.299" y="26.076" fill="#C2BEB9" width="9.767" height="0.814"/>
			<rect x="61.299" y="27.907" fill="#C2BEB9" width="9.767" height="0.814"/>
			<rect x="61.299" y="18.14" fill="#B7B3AE" width="9.767" height="1.424"/>
			<polygon fill="#FFFFFF" points="68.828,19.972 72.694,19.972 68.828,15.902 			"/>
			<polygon opacity="0.05" points="72.694,19.972 68.828,19.972 72.694,23.431 			"/>
		</g>
		<g>
			<g opacity="0.05">
				<rect x="74.347" y="17.326" width="1.195" height="13.633"/>
			</g>
			<path fill="#DBD7D2" d="M75.543,15.902v13.429c0,0.899-0.729,1.628-1.628,1.628h13.022c0.895,0,1.628-0.733,1.628-1.628v-9.36
				l-3.866-4.07L75.543,15.902z"/>
			<rect x="77.171" y="20.582" fill="#C2BEB9" width="4.476" height="0.814"/>
			<rect x="77.171" y="22.413" fill="#C2BEB9" width="4.476" height="0.814"/>
			<rect x="77.171" y="24.245" fill="#C2BEB9" width="4.476" height="0.814"/>
			<rect x="77.171" y="26.076" fill="#C2BEB9" width="9.767" height="0.814"/>
			<rect x="77.171" y="27.907" fill="#C2BEB9" width="9.767" height="0.814"/>
			<rect x="77.171" y="18.14" fill="#B7B3AE" width="9.767" height="1.424"/>
			<polygon fill="#FFFFFF" points="84.699,19.972 88.565,19.972 84.699,15.902 			"/>
			<polygon opacity="0.05" points="88.565,19.972 84.699,19.972 88.565,23.431 			"/>
			<rect x="82.461" y="20.582" fill="#639DC7" width="4.476" height="4.476"/>
		</g>
		<g>
			<g opacity="0.1">
				<rect x="64.987" y="15.902" width="1.195" height="15.057"/>
			</g>
			<g opacity="0.1">
				<rect x="79.816" y="15.902" width="2.823" height="15.057"/>
			</g>
			<path fill="#F5F0EB" d="M66.183,9.594v19.737c0,0.899-0.729,1.628-1.628,1.628h15.464c0.895,0,1.628-0.733,1.628-1.628V13.664
				l-3.866-4.07L66.183,9.594z"/>
			<rect x="74.729" y="14.274" fill="#D3CFC9" width="5.29" height="0.814"/>
			<rect x="67.811" y="14.274" fill="#F59C36" width="5.901" height="6.308"/>
			<rect x="74.729" y="16.106" fill="#D3CFC9" width="5.29" height="0.814"/>
			<rect x="74.729" y="17.937" fill="#D3CFC9" width="5.29" height="0.814"/>
			<rect x="74.729" y="19.768" fill="#D3CFC9" width="5.29" height="0.814"/>
			<rect x="67.811" y="21.599" fill="#D3CFC9" width="12.209" height="0.814"/>
			<rect x="67.811" y="23.431" fill="#D3CFC9" width="12.209" height="0.814"/>
			<rect x="67.811" y="25.262" fill="#D3CFC9" width="5.901" height="0.814"/>
			<rect x="67.811" y="27.093" fill="#D3CFC9" width="5.901" height="0.814"/>
			<rect x="67.811" y="28.925" fill="#D3CFC9" width="5.901" height="0.814"/>
			<rect x="67.811" y="11.833" fill="#B7B3AE" width="12.209" height="1.424"/>
			<polygon fill="#FFFFFF" points="77.781,13.664 81.647,13.664 77.781,9.594 			"/>
			<polygon opacity="0.05" points="81.647,13.664 77.781,13.664 81.647,17.123 			"/>
			<rect x="74.729" y="25.262" fill="#74C7A5" width="5.29" height="4.476"/>
		</g>
		<polygon opacity="0.15" points="69.002,33 77.955,33 78.362,35.154 		"/>
	</g>
</g>
</svg>
