<?xml version="1.0" encoding="utf-8"?>
<!-- Generator: Adobe Illustrator 18.1.1, SVG Export Plug-In . SVG Version: 6.00 Build 0)  -->
<!DOCTYPE svg PUBLIC "-//W3C//DTD SVG 1.1//EN" "http://www.w3.org/Graphics/SVG/1.1/DTD/svg11.dtd">
<svg version="1.1" xmlns="http://www.w3.org/2000/svg" xmlns:xlink="http://www.w3.org/1999/xlink" x="0px" y="0px" width="150px"
	 height="86px" viewBox="0 0 150 86" enable-background="new 0 0 150 86" xml:space="preserve">
<g id="Layer_1">
	<rect fill="#5A748C" width="150" height="63"/>
	<rect y="62" fill="#445E72" width="150" height="24"/>
	<path fill="#FFFFFF" d="M102,77H10c-0.552,0-1-0.448-1-1v-7c0-0.552,0.448-1,1-1h92c0.552,0,1,0.448,1,1v7
		C103,76.552,102.552,77,102,77z"/>
	<path fill="#FCB84D" d="M140,77h-30c-0.552,0-1-0.448-1-1v-7c0-0.552,0.448-1,1-1h30c0.552,0,1,0.448,1,1v7
		C141,76.552,140.552,77,140,77z"/>
	<path fill="#D3CEC5" d="M148,2h-3v1h3V2L148,2z M142,2h-3v1h3V2L142,2z M136,2h-3v1h3V2L136,2z M130,2h-3v1h3V2L130,2z M124,2h-3v1
		h3V2L124,2z M118,2h-3v1h3V2L118,2z M112,2h-3v1h3V2L112,2z M106,2h-3v1h3V2L106,2z M100,2h-3v1h3V2L100,2z M94,2h-3v1h3V2L94,2z
		 M88,2h-3v1h3V2L88,2z M82,2h-3v1h3V2L82,2z M76,2h-3v1h3V2L76,2z M70,2h-3v1h3V2L70,2z M64,2h-3v1h3V2L64,2z M58,2h-3v1h3V2L58,2z
		 M52,2h-3v1h3V2L52,2z M46,2h-3v1h3V2L46,2z M40,2h-3v1h3V2L40,2z M34,2h-3v1h3V2L34,2z M28,2h-3v1h3V2L28,2z M22,2h-3v1h3V2L22,2z
		 M16,2h-3v1h3V2L16,2z M10,2H7v1h3V2L10,2z M4,2H2v1h2V2L4,2z M3,6H2v3h1V6L3,6z M3,12H2v3h1V12L3,12z M3,18H2v3h1V18L3,18z M3,24
		H2v3h1V24L3,24z M3,30H2v3h1V30L3,30z M3,36H2v3h1V36L3,36z M3,42H2v3h1V42L3,42z M3,48H2v3h1V48L3,48z M3,54H2v3h1V54L3,54z M3,60
		H2v3h1V60L3,60z M3,66H2v3h1V66L3,66z M3,72H2v3h1V72L3,72z M3,78H2v3h1V78L3,78z M5,83H2v1h3V83L5,83z M11,83H8v1h3V83L11,83z
		 M17,83h-3v1h3V83L17,83z M23,83h-3v1h3V83L23,83z M29,83h-3v1h3V83L29,83z M35,83h-3v1h3V83L35,83z M41,83h-3v1h3V83L41,83z
		 M47,83h-3v1h3V83L47,83z M53,83h-3v1h3V83L53,83z M59,83h-3v1h3V83L59,83z M65,83h-3v1h3V83L65,83z M71,83h-3v1h3V83L71,83z
		 M77,83h-3v1h3V83L77,83z M83,83h-3v1h3V83L83,83z M89,83h-3v1h3V83L89,83z M95,83h-3v1h3V83L95,83z M101,83h-3v1h3V83L101,83z
		 M107,83h-3v1h3V83L107,83z M113,83h-3v1h3V83L113,83z M119,83h-3v1h3V83L119,83z M125,83h-3v1h3V83L125,83z M131,83h-3v1h3V83
		L131,83z M137,83h-3v1h3V83L137,83z M143,83h-3v1h3V83L143,83z M148,83h-1l0,0h-1v1h2V83L148,83z M148,77h-1v3h1V77L148,77z
		 M148,71h-1v3h1V71L148,71z M148,65h-1v3h1V65L148,65z M148,59h-1v3h1V59L148,59z M148,53h-1v3h1V53L148,53z M148,47h-1v3h1V47
		L148,47z M148,41h-1v3h1V41L148,41z M148,35h-1v3h1V35L148,35z M148,29h-1v3h1V29L148,29z M148,23h-1v3h1V23L148,23z M148,17h-1v3
		h1V17L148,17z M148,11h-1v3h1V11L148,11z M148,5h-1v3h1V5L148,5z"/>
	<path opacity="0.5" fill="#FFFFFF" d="M140.169,14H62.503c-0.552,0-1-0.448-1-1v0c0-0.552,0.448-1,1-1h77.667c0.552,0,1,0.448,1,1
		v0C141.169,13.552,140.722,14,140.169,14z"/>
	<path opacity="0.3" fill="#FFFFFF" d="M140.169,23H62.503c-0.552,0-1-0.448-1-1v0c0-0.552,0.448-1,1-1h77.667c0.552,0,1,0.448,1,1
		v0C141.169,22.552,140.722,23,140.169,23z"/>
	<path opacity="0.3" fill="#FFFFFF" d="M140.169,32H62.503c-0.552,0-1-0.448-1-1v0c0-0.552,0.448-1,1-1h77.667c0.552,0,1,0.448,1,1
		v0C141.169,31.552,140.722,32,140.169,32z"/>
	<path opacity="0.3" fill="#FFFFFF" d="M140.169,41H62.503c-0.552,0-1-0.448-1-1l0,0c0-0.552,0.448-1,1-1h77.667
		c0.552,0,1,0.448,1,1l0,0C141.169,40.552,140.722,41,140.169,41z"/>
	<path opacity="0.3" fill="#FFFFFF" d="M140.169,50H62.503c-0.552,0-1-0.448-1-1l0,0c0-0.552,0.448-1,1-1h77.667
		c0.552,0,1,0.448,1,1l0,0C141.169,49.552,140.722,50,140.169,50z"/>
	<g>
		<g>
			<g>
				<path fill="#E6A746" d="M29.809,12.101l-17.22,13.743c-0.413,0.309-0.656,0.794-0.656,1.309v23.376
					c0,0.796,0.646,1.442,1.442,1.442h18.599V11.339C31.208,11.339,30.442,11.593,29.809,12.101z"/>
			</g>
			<g>
				<path fill="#DEA144" d="M51.361,25.844l-17.22-13.743c-0.633-0.508-1.399-0.762-2.166-0.762v40.631h18.599
					c0.796,0,1.442-0.646,1.442-1.442V27.153C52.016,26.637,51.773,26.152,51.361,25.844z"/>
			</g>
		</g>
		<g opacity="0.2">
			<polygon fill="#231F20" points="15.754,24.532 32.119,11.051 49.637,24.532 49.637,49.403 15.754,49.403 			"/>
		</g>
		<g>
			<polygon fill="#E0DBD7" points="13.952,13.075 46.193,11.109 48.406,49.686 16.166,51.652 			"/>
			<polygon opacity="0.06" points="17.244,12.965 49.517,14.221 48.159,51.304 15.885,50.047 			"/>
			<polygon fill="#E0DBD7" points="16.923,11.871 49.197,13.128 47.782,51.742 15.508,50.486 			"/>
			<rect x="15.968" y="11.411" opacity="0.05" width="32.297" height="38.641"/>
			<rect x="15.752" y="10.762" fill="#F5F0EB" width="32.297" height="38.641"/>
			<rect x="19.143" y="14.223" fill="#F1632D" width="25.376" height="3.172"/>
			<rect x="19.143" y="22.585" opacity="0.1" width="25.376" height="0.865"/>
			<rect x="19.143" y="25.181" opacity="0.1" width="25.376" height="0.865"/>
			<rect x="19.143" y="27.776" opacity="0.1" width="25.376" height="0.865"/>
			<rect x="19.143" y="30.371" opacity="0.1" width="25.376" height="0.865"/>
			<rect x="19.143" y="32.966" opacity="0.1" width="25.376" height="0.865"/>
			<rect x="19.143" y="35.562" opacity="0.1" width="25.376" height="0.865"/>
			<rect x="19.143" y="18.548" fill="#B7B3AE" width="25.376" height="0.865"/>
		</g>
		<path opacity="0.1" d="M51.276,26.264l-1.514,0.447c-0.384,0.113-0.743,0.299-1.058,0.545L32.263,37.436L15.246,27.257
			c-0.315-0.247-0.674-0.432-1.058-0.545l-1.514-0.447c-0.37-0.109-0.74,0.168-0.74,0.553v22.874c0,0.796,0.137,1.73,0.933,1.73
			h38.216c0.796,0,0.933-0.934,0.933-1.73V26.817C52.016,26.432,51.646,26.155,51.276,26.264z"/>
		<path fill="#F2B04A" d="M51.276,26.264l-1.514,0.447c-0.384,0.113-0.743,0.299-1.058,0.545L32.408,38.445l18.676,13.553
			c0.796,0,0.933-0.934,0.933-1.73V26.817C52.016,26.432,51.646,26.155,51.276,26.264z"/>
		<path opacity="0.04" d="M33.132,37.948l-1.696,1.134l19.139,12.889l0.378,0.028c0.728,0,1.063-0.541,1.063-1.47v-0.477
			L33.132,37.948z"/>
		<path fill="#FFC669" d="M12.674,26.264l1.514,0.447c0.384,0.113,0.743,0.299,1.058,0.545l17.161,11.188L12.867,51.998
			c-0.796,0-0.933-0.934-0.933-1.73V26.817C11.934,26.432,12.304,26.155,12.674,26.264z"/>
		<path fill="#FCB84D" d="M12.351,51.164l20.057-12.718l19.191,12.718c0.192,0.383-0.087,0.835-0.516,0.835H12.867
			C12.438,51.998,12.159,51.547,12.351,51.164z"/>
	</g>
</g>
<g id="Layer_2" display="none">
</g>
</svg>
