<?xml version="1.0" encoding="utf-8"?>
<!-- Generator: Adobe Illustrator 18.1.1, SVG Export Plug-In . SVG Version: 6.00 Build 0)  -->
<!DOCTYPE svg PUBLIC "-//W3C//DTD SVG 1.1//EN" "http://www.w3.org/Graphics/SVG/1.1/DTD/svg11.dtd">
<svg version="1.1" xmlns="http://www.w3.org/2000/svg" xmlns:xlink="http://www.w3.org/1999/xlink" x="0px" y="0px" width="150px"
	 height="86px" viewBox="0 0 150 86" enable-background="new 0 0 150 86" xml:space="preserve">
<g id="Layer_1" display="none">
	<rect display="inline" fill="#F0F0F0" width="150" height="63"/>
	<path display="inline" opacity="0.25" d="M136.702,14H65.298C64.581,14,64,13.552,64,13v0c0-0.552,0.581-1,1.298-1h71.404
		c0.717,0,1.298,0.448,1.298,1v0C138,13.552,137.419,14,136.702,14z"/>
	<path display="inline" opacity="0.1" d="M136.702,23H65.298C64.581,23,64,22.552,64,22v0c0-0.552,0.581-1,1.298-1h71.404
		c0.717,0,1.298,0.448,1.298,1v0C138,22.552,137.419,23,136.702,23z"/>
	<path display="inline" opacity="0.1" d="M136.702,32H65.298C64.581,32,64,31.552,64,31v0c0-0.552,0.581-1,1.298-1h71.404
		c0.717,0,1.298,0.448,1.298,1v0C138,31.552,137.419,32,136.702,32z"/>
	<path display="inline" opacity="0.1" d="M136.702,41H65.298C64.581,41,64,40.552,64,40l0,0c0-0.552,0.581-1,1.298-1h71.404
		c0.717,0,1.298,0.448,1.298,1l0,0C138,40.552,137.419,41,136.702,41z"/>
	<path display="inline" opacity="0.1" d="M136.702,50H65.298C64.581,50,64,49.552,64,49l0,0c0-0.552,0.581-1,1.298-1h71.404
		c0.717,0,1.298,0.448,1.298,1l0,0C138,49.552,137.419,50,136.702,50z"/>
	<rect y="61" display="inline" fill="#DD4242" width="150" height="25"/>
	<path display="inline" opacity="0.2" d="M103,77H12c-0.552,0-1-0.448-1-1v-7c0-0.552,0.448-1,1-1h91c0.552,0,1,0.448,1,1v7
		C104,76.552,103.552,77,103,77z"/>
	<path display="inline" fill="#FFFFFF" d="M138,77h-27c-0.552,0-1-0.448-1-1v-7c0-0.552,0.448-1,1-1h27c0.552,0,1,0.448,1,1v7
		C139,76.552,138.552,77,138,77z"/>
	<g display="inline">
		<path fill="#911616" d="M147,3v80H3V3H147 M150,0H0v86h150V0L150,0z"/>
	</g>
	<g display="inline">
		<g>
			<g>
				<path fill="#E6A746" d="M30.072,14.58L14.34,27.135c-0.377,0.282-0.599,0.725-0.599,1.196v21.356
					c0,0.727,0.59,1.317,1.317,1.317h16.992V13.884C31.35,13.884,30.65,14.116,30.072,14.58z"/>
			</g>
			<g>
				<path fill="#DEA144" d="M49.762,27.135L34.03,14.58c-0.578-0.464-1.279-0.696-1.979-0.696v37.121h16.992
					c0.727,0,1.317-0.59,1.317-1.317V28.331C50.361,27.861,50.139,27.417,49.762,27.135z"/>
			</g>
		</g>
		<g opacity="0.2">
			<polygon fill="#231F20" points="17.232,25.937 32.183,13.621 48.187,25.937 48.187,48.659 17.232,48.659 			"/>
		</g>
		<g>
			<polygon fill="#E0DBD7" points="15.585,12.756 45.04,10.961 47.062,46.205 17.607,48.001 			"/>
			<polygon opacity="0.06" points="18.592,15.369 48.078,16.517 46.836,50.396 17.351,49.248 			"/>
			<polygon fill="#C7C2BF" points="18.299,11.478 47.785,12.626 46.492,47.904 17.007,46.756 			"/>
			<rect x="17.427" y="13.95" opacity="0.05" width="29.506" height="35.302"/>
			<rect x="17.229" y="13.357" fill="#F5F0EB" width="29.506" height="35.302"/>
			<rect x="20.327" y="16.518" fill="#F1632D" width="23.184" height="2.898"/>
			<rect x="20.327" y="24.159" opacity="0.1" width="23.184" height="0.79"/>
			<rect x="20.327" y="26.53" opacity="0.1" width="23.184" height="0.79"/>
			<rect x="20.327" y="28.901" opacity="0.1" width="23.184" height="0.79"/>
			<rect x="20.327" y="31.272" opacity="0.1" width="23.184" height="0.79"/>
			<rect x="20.327" y="33.643" opacity="0.1" width="23.184" height="0.79"/>
			<rect x="20.327" y="36.014" opacity="0.1" width="23.184" height="0.79"/>
			<rect x="20.327" y="20.47" fill="#B7B3AE" width="23.184" height="0.79"/>
		</g>
		<path opacity="0.1" d="M49.684,27.52l-1.384,0.409c-0.351,0.104-0.679,0.273-0.966,0.498l-15.02,9.299l-15.547-9.299
			c-0.288-0.226-0.616-0.395-0.967-0.498l-1.384-0.409c-0.338-0.1-0.676,0.153-0.676,0.505v20.898c0,0.727,0.125,1.581,0.853,1.581
			h34.914c0.727,0,0.853-0.853,0.853-1.581V28.025C50.361,27.673,50.022,27.42,49.684,27.52z"/>
		<path fill="#F2B04A" d="M49.684,27.52l-1.384,0.409c-0.351,0.104-0.679,0.273-0.967,0.498L32.446,38.648L49.508,51.03
			c0.727,0,0.853-0.853,0.853-1.581V28.025C50.361,27.673,50.022,27.42,49.684,27.52z"/>
		<path opacity="0.04" d="M33.108,38.194l-1.55,1.036l17.485,11.775l0.346,0.026c0.665,0,0.971-0.494,0.971-1.343v-0.436
			L33.108,38.194z"/>
		<path fill="#FFC669" d="M14.417,27.52l1.384,0.409c0.351,0.104,0.679,0.273,0.967,0.498l15.679,10.221L14.594,51.03
			c-0.727,0-0.853-0.853-0.853-1.581V28.025C13.741,27.673,14.08,27.42,14.417,27.52z"/>
		<path fill="#FCB84D" d="M14.122,50.268l18.324-11.62l17.533,11.62c0.175,0.35-0.08,0.763-0.471,0.763H14.594
			C14.202,51.03,13.947,50.618,14.122,50.268z"/>
	</g>
</g>
<g id="Layer_2">
	<rect fill="#F0F0F0" width="150" height="63"/>
	<g>
		<g>
			<g>
				<path fill="#E6A746" d="M30.072,14.58L14.34,27.135c-0.377,0.282-0.599,0.725-0.599,1.196v21.356
					c0,0.727,0.59,1.317,1.317,1.317h16.992V13.884C31.35,13.884,30.65,14.116,30.072,14.58z"/>
			</g>
			<g>
				<path fill="#DEA144" d="M49.762,27.135L34.03,14.58c-0.578-0.464-1.279-0.696-1.979-0.696v37.121h16.992
					c0.727,0,1.317-0.59,1.317-1.317V28.331C50.361,27.861,50.139,27.417,49.762,27.135z"/>
			</g>
		</g>
		<g opacity="0.2">
			<polygon fill="#231F20" points="17.232,25.937 32.183,13.621 48.187,25.937 48.187,48.659 17.232,48.659 			"/>
		</g>
		<g>
			<polygon fill="#E0DBD7" points="15.585,12.756 45.04,10.961 47.062,46.205 17.607,48.001 			"/>
			<polygon opacity="0.06" points="18.592,15.369 48.078,16.517 46.836,50.396 17.351,49.248 			"/>
			<polygon fill="#C7C2BF" points="18.299,11.478 47.785,12.626 46.492,47.904 17.007,46.756 			"/>
			<rect x="17.427" y="13.95" opacity="0.05" width="29.506" height="35.302"/>
			<rect x="17.229" y="13.357" fill="#F5F0EB" width="29.506" height="35.302"/>
			<rect x="20.327" y="16.518" fill="#F1632D" width="23.184" height="2.898"/>
			<rect x="20.327" y="24.159" opacity="0.1" width="23.184" height="0.79"/>
			<rect x="20.327" y="26.53" opacity="0.1" width="23.184" height="0.79"/>
			<rect x="20.327" y="28.901" opacity="0.1" width="23.184" height="0.79"/>
			<rect x="20.327" y="31.272" opacity="0.1" width="23.184" height="0.79"/>
			<rect x="20.327" y="33.643" opacity="0.1" width="23.184" height="0.79"/>
			<rect x="20.327" y="36.014" opacity="0.1" width="23.184" height="0.79"/>
			<rect x="20.327" y="20.47" fill="#B7B3AE" width="23.184" height="0.79"/>
		</g>
		<path opacity="0.1" d="M49.684,27.52l-1.384,0.409c-0.351,0.104-0.679,0.273-0.966,0.498l-15.02,9.299l-15.547-9.299
			c-0.288-0.226-0.616-0.395-0.967-0.498l-1.384-0.409c-0.338-0.1-0.676,0.153-0.676,0.505v20.898c0,0.727,0.125,1.581,0.853,1.581
			h34.914c0.727,0,0.853-0.853,0.853-1.581V28.025C50.361,27.673,50.022,27.42,49.684,27.52z"/>
		<path fill="#F2B04A" d="M49.684,27.52l-1.384,0.409c-0.351,0.104-0.679,0.273-0.967,0.498L32.446,38.648L49.508,51.03
			c0.727,0,0.853-0.853,0.853-1.581V28.025C50.361,27.673,50.022,27.42,49.684,27.52z"/>
		<path opacity="0.04" d="M33.108,38.194l-1.55,1.036l17.485,11.775l0.346,0.026c0.665,0,0.971-0.494,0.971-1.343v-0.436
			L33.108,38.194z"/>
		<path fill="#FFC669" d="M14.417,27.52l1.384,0.409c0.351,0.104,0.679,0.273,0.967,0.498l15.679,10.221L14.594,51.03
			c-0.727,0-0.853-0.853-0.853-1.581V28.025C13.741,27.673,14.08,27.42,14.417,27.52z"/>
		<path fill="#FCB84D" d="M14.122,50.268l18.324-11.62l17.533,11.62c0.175,0.35-0.08,0.763-0.471,0.763H14.594
			C14.202,51.03,13.947,50.618,14.122,50.268z"/>
	</g>
	<path opacity="0.25" d="M136.702,14H65.298C64.581,14,64,13.552,64,13v0c0-0.552,0.581-1,1.298-1h71.404
		c0.717,0,1.298,0.448,1.298,1v0C138,13.552,137.419,14,136.702,14z"/>
	<path opacity="0.1" d="M136.702,23H65.298C64.581,23,64,22.552,64,22v0c0-0.552,0.581-1,1.298-1h71.404
		c0.717,0,1.298,0.448,1.298,1v0C138,22.552,137.419,23,136.702,23z"/>
	<path opacity="0.1" d="M136.702,32H65.298C64.581,32,64,31.552,64,31v0c0-0.552,0.581-1,1.298-1h71.404
		c0.717,0,1.298,0.448,1.298,1v0C138,31.552,137.419,32,136.702,32z"/>
	<path opacity="0.1" d="M136.702,41H65.298C64.581,41,64,40.552,64,40l0,0c0-0.552,0.581-1,1.298-1h71.404
		c0.717,0,1.298,0.448,1.298,1l0,0C138,40.552,137.419,41,136.702,41z"/>
	<path opacity="0.1" d="M136.702,50H65.298C64.581,50,64,49.552,64,49l0,0c0-0.552,0.581-1,1.298-1h71.404
		c0.717,0,1.298,0.448,1.298,1l0,0C138,49.552,137.419,50,136.702,50z"/>
	<rect y="61" fill="#92C927" width="150" height="25"/>
	<path opacity="0.2" d="M103,77H12c-0.552,0-1-0.448-1-1v-7c0-0.552,0.448-1,1-1h91c0.552,0,1,0.448,1,1v7
		C104,76.552,103.552,77,103,77z"/>
	<path fill="#FFFFFF" d="M138,77h-27c-0.552,0-1-0.448-1-1v-7c0-0.552,0.448-1,1-1h27c0.552,0,1,0.448,1,1v7
		C139,76.552,138.552,77,138,77z"/>
	<g>
		<path fill="#719C28" d="M147,3v80H3V3H147 M150,0H0v86h150V0L150,0z"/>
	</g>
</g>
</svg>
