<?xml version="1.0" encoding="utf-8"?>
<!-- Generator: Adobe Illustrator 18.1.1, SVG Export Plug-In . SVG Version: 6.00 Build 0)  -->
<!DOCTYPE svg PUBLIC "-//W3C//DTD SVG 1.1//EN" "http://www.w3.org/Graphics/SVG/1.1/DTD/svg11.dtd">
<svg version="1.1" xmlns="http://www.w3.org/2000/svg" xmlns:xlink="http://www.w3.org/1999/xlink" x="0px" y="0px" width="150px"
	 height="86px" viewBox="0 0 150 86" enable-background="new 0 0 150 86" xml:space="preserve">
<g id="Layer_1" display="none">
	<rect y="63" display="inline" fill="#F56D3B" width="150" height="23"/>
	<rect display="inline" fill="#F0F0F0" width="150" height="63"/>
	<g display="inline">
		<g>
			<path fill="#6FD4E8" d="M11.453,44.207c-0.298,0-0.551-0.252-0.551-0.551V16.011c0-0.298,0.252-0.551,0.551-0.551h42.808
				c0.298,0,0.551,0.252,0.551,0.551v27.645c0,0.298-0.252,0.551-0.551,0.551H11.453z"/>
			<path fill="#4B5B7D" d="M53.074,17.198V42.47H12.64V17.198H53.074 M54.261,13.723H11.453c-1.258,0-2.288,1.03-2.288,2.288v27.645
				c0,1.258,1.03,2.288,2.288,2.288h42.808c1.258,0,2.288-1.03,2.288-2.288V16.011C56.549,14.753,55.52,13.723,54.261,13.723
				L54.261,13.723z"/>
		</g>
		<g>
			<rect x="27.487" y="46.021" fill="#2D3C5C" width="10.74" height="8.768"/>
			<path fill="#4B5B7D" d="M44.229,54.79H21.485v-0.169c0-1.477,1.197-2.674,2.674-2.674h17.396c1.477,0,2.674,1.197,2.674,2.674
				V54.79z"/>
		</g>
		<g>
			<g opacity="0.05">
				<rect x="14.575" y="21.305" width="1.856" height="21.165"/>
			</g>
			<path fill="#F0EBE6" d="M16.43,19.093v20.849c0,1.396-1.131,2.527-2.527,2.527h20.217c1.39,0,2.527-1.137,2.527-2.527V25.411
				l-6.002-6.318L16.43,19.093z"/>
			<rect x="27.487" y="26.359" fill="#D3CFC9" width="6.634" height="1.264"/>
			<rect x="18.958" y="26.359" fill="#E57C58" width="6.95" height="6.95"/>
			<rect x="27.487" y="29.202" fill="#D3CFC9" width="6.634" height="1.264"/>
			<rect x="27.487" y="32.045" fill="#D3CFC9" width="6.634" height="1.264"/>
			<rect x="18.958" y="34.888" fill="#C2BEB9" width="15.163" height="1.264"/>
			<rect x="18.958" y="37.731" fill="#C2BEB9" width="15.163" height="1.264"/>
			<rect x="18.958" y="40.574" fill="#C2BEB9" width="15.163" height="1.264"/>
			<rect x="18.958" y="22.568" fill="#B7B3AE" width="15.163" height="2.211"/>
			<polygon fill="#FFFFFF" points="30.646,25.411 36.648,25.411 30.646,19.093 			"/>
			<polygon opacity="0.05" points="36.648,25.411 30.646,25.411 36.648,30.782 			"/>
		</g>
		<g>
			<g opacity="0.1">
				<rect x="23.736" y="13.723" width="1.856" height="28.747"/>
			</g>
			<path fill="#FFFAF5" d="M25.591,9.301v30.642c0,1.396-1.131,2.527-2.527,2.527h24.008c1.39,0,2.527-1.137,2.527-2.527V15.619
				l-6.002-6.318L25.591,9.301z"/>
			<rect x="38.859" y="16.566" fill="#D3CFC9" width="8.213" height="1.264"/>
			<rect x="28.119" y="16.566" fill="#FFAB4A" width="9.161" height="9.793"/>
			<rect x="38.859" y="19.409" fill="#D3CFC9" width="8.213" height="1.264"/>
			<rect x="38.859" y="22.252" fill="#D3CFC9" width="8.213" height="1.264"/>
			<rect x="38.859" y="25.095" fill="#D3CFC9" width="8.213" height="1.264"/>
			<rect x="28.119" y="27.938" fill="#D3CFC9" width="18.954" height="1.264"/>
			<rect x="28.119" y="30.782" fill="#D3CFC9" width="18.954" height="1.264"/>
			<rect x="28.119" y="33.625" fill="#D3CFC9" width="9.161" height="1.264"/>
			<rect x="28.119" y="36.468" fill="#D3CFC9" width="9.161" height="1.264"/>
			<rect x="28.119" y="39.311" fill="#D3CFC9" width="9.161" height="1.264"/>
			<rect x="28.119" y="12.775" fill="#B7B3AE" width="18.954" height="2.211"/>
			<polygon fill="#FFFFFF" points="43.597,15.619 49.599,15.619 43.597,9.301 			"/>
			<polygon opacity="0.1" points="49.599,15.619 43.597,15.619 49.599,20.989 			"/>
			<rect x="38.859" y="33.625" fill="#74C7A5" width="8.213" height="6.95"/>
		</g>
	</g>
	<path display="inline" opacity="0.25" d="M139.702,11H68.298C67.581,11,67,10.552,67,10v0c0-0.552,0.581-1,1.298-1h71.404
		C140.419,9,141,9.448,141,10v0C141,10.552,140.419,11,139.702,11z"/>
	<path display="inline" opacity="0.1" d="M139.702,20H68.298C67.581,20,67,19.552,67,19v0c0-0.552,0.581-1,1.298-1h71.404
		c0.717,0,1.298,0.448,1.298,1v0C141,19.552,140.419,20,139.702,20z"/>
	<path display="inline" opacity="0.1" d="M139.702,29H68.298C67.581,29,67,28.552,67,28v0c0-0.552,0.581-1,1.298-1h71.404
		c0.717,0,1.298,0.448,1.298,1v0C141,28.552,140.419,29,139.702,29z"/>
	<path display="inline" opacity="0.1" d="M139.702,38H68.298C67.581,38,67,37.552,67,37l0,0c0-0.552,0.581-1,1.298-1h71.404
		c0.717,0,1.298,0.448,1.298,1l0,0C141,37.552,140.419,38,139.702,38z"/>
	<path display="inline" opacity="0.1" d="M139.702,47H68.298C67.581,47,67,46.552,67,46l0,0c0-0.552,0.581-1,1.298-1h71.404
		c0.717,0,1.298,0.448,1.298,1l0,0C141,46.552,140.419,47,139.702,47z"/>
	<path display="inline" opacity="0.1" d="M139.702,56H68.298C67.581,56,67,55.552,67,55l0,0c0-0.552,0.581-1,1.298-1h71.404
		c0.717,0,1.298,0.448,1.298,1l0,0C141,55.552,140.419,56,139.702,56z"/>
	<path display="inline" opacity="0.2" d="M102,79H10c-0.552,0-1-0.448-1-1v-7c0-0.552,0.448-1,1-1h92c0.552,0,1,0.448,1,1v7
		C103,78.552,102.552,79,102,79z"/>
	<path display="inline" fill="#FFFFFF" d="M140,79h-30c-0.552,0-1-0.448-1-1v-7c0-0.552,0.448-1,1-1h30c0.552,0,1,0.448,1,1v7
		C141,78.552,140.552,79,140,79z"/>
</g>
<g id="Layer_2">
	<rect y="63" fill="#2C94F2" width="150" height="23"/>
	<rect fill="#F0F0F0" width="150" height="63"/>
	<path opacity="0.2" d="M102,79H10c-0.552,0-1-0.448-1-1v-7c0-0.552,0.448-1,1-1h92c0.552,0,1,0.448,1,1v7
		C103,78.552,102.552,79,102,79z"/>
	<path fill="#FFFFFF" d="M140,79h-30c-0.552,0-1-0.448-1-1v-7c0-0.552,0.448-1,1-1h30c0.552,0,1,0.448,1,1v7
		C141,78.552,140.552,79,140,79z"/>
	<g>
		<g>
			<path fill="#6FD4E8" d="M11.453,44.207c-0.298,0-0.551-0.252-0.551-0.551V16.011c0-0.298,0.252-0.551,0.551-0.551h42.808
				c0.298,0,0.551,0.252,0.551,0.551v27.645c0,0.298-0.252,0.551-0.551,0.551H11.453z"/>
			<path fill="#4B5B7D" d="M53.074,17.198V42.47H12.64V17.198H53.074 M54.261,13.723H11.453c-1.258,0-2.288,1.03-2.288,2.288v27.645
				c0,1.258,1.03,2.288,2.288,2.288h42.808c1.258,0,2.288-1.03,2.288-2.288V16.011C56.549,14.753,55.52,13.723,54.261,13.723
				L54.261,13.723z"/>
		</g>
		<g>
			<rect x="27.487" y="46.021" fill="#2D3C5C" width="10.74" height="8.768"/>
			<path fill="#4B5B7D" d="M44.229,54.79H21.485v-0.169c0-1.477,1.197-2.674,2.674-2.674h17.396c1.477,0,2.674,1.197,2.674,2.674
				V54.79z"/>
		</g>
		<g>
			<g opacity="0.05">
				<rect x="14.575" y="21.305" width="1.856" height="21.165"/>
			</g>
			<path fill="#F0EBE6" d="M16.43,19.093v20.849c0,1.396-1.131,2.527-2.527,2.527h20.217c1.39,0,2.527-1.137,2.527-2.527V25.411
				l-6.002-6.318L16.43,19.093z"/>
			<rect x="27.487" y="26.359" fill="#D3CFC9" width="6.634" height="1.264"/>
			<rect x="18.958" y="26.359" fill="#E57C58" width="6.95" height="6.95"/>
			<rect x="27.487" y="29.202" fill="#D3CFC9" width="6.634" height="1.264"/>
			<rect x="27.487" y="32.045" fill="#D3CFC9" width="6.634" height="1.264"/>
			<rect x="18.958" y="34.888" fill="#C2BEB9" width="15.163" height="1.264"/>
			<rect x="18.958" y="37.731" fill="#C2BEB9" width="15.163" height="1.264"/>
			<rect x="18.958" y="40.574" fill="#C2BEB9" width="15.163" height="1.264"/>
			<rect x="18.958" y="22.568" fill="#B7B3AE" width="15.163" height="2.211"/>
			<polygon fill="#FFFFFF" points="30.646,25.411 36.648,25.411 30.646,19.093 			"/>
			<polygon opacity="0.05" points="36.648,25.411 30.646,25.411 36.648,30.782 			"/>
		</g>
		<g>
			<g opacity="0.1">
				<rect x="23.736" y="13.723" width="1.856" height="28.747"/>
			</g>
			<path fill="#FFFAF5" d="M25.591,9.301v30.642c0,1.396-1.131,2.527-2.527,2.527h24.008c1.39,0,2.527-1.137,2.527-2.527V15.619
				l-6.002-6.318L25.591,9.301z"/>
			<rect x="38.859" y="16.566" fill="#D3CFC9" width="8.213" height="1.264"/>
			<rect x="28.119" y="16.566" fill="#FFAB4A" width="9.161" height="9.793"/>
			<rect x="38.859" y="19.409" fill="#D3CFC9" width="8.213" height="1.264"/>
			<rect x="38.859" y="22.252" fill="#D3CFC9" width="8.213" height="1.264"/>
			<rect x="38.859" y="25.095" fill="#D3CFC9" width="8.213" height="1.264"/>
			<rect x="28.119" y="27.938" fill="#D3CFC9" width="18.954" height="1.264"/>
			<rect x="28.119" y="30.782" fill="#D3CFC9" width="18.954" height="1.264"/>
			<rect x="28.119" y="33.625" fill="#D3CFC9" width="9.161" height="1.264"/>
			<rect x="28.119" y="36.468" fill="#D3CFC9" width="9.161" height="1.264"/>
			<rect x="28.119" y="39.311" fill="#D3CFC9" width="9.161" height="1.264"/>
			<rect x="28.119" y="12.775" fill="#B7B3AE" width="18.954" height="2.211"/>
			<polygon fill="#FFFFFF" points="43.597,15.619 49.599,15.619 43.597,9.301 			"/>
			<polygon opacity="0.1" points="49.599,15.619 43.597,15.619 49.599,20.989 			"/>
			<rect x="38.859" y="33.625" fill="#74C7A5" width="8.213" height="6.95"/>
		</g>
	</g>
	<path opacity="0.25" d="M139.702,11H68.298C67.581,11,67,10.552,67,10v0c0-0.552,0.581-1,1.298-1h71.404
		C140.419,9,141,9.448,141,10v0C141,10.552,140.419,11,139.702,11z"/>
	<path opacity="0.1" d="M139.702,20H68.298C67.581,20,67,19.552,67,19v0c0-0.552,0.581-1,1.298-1h71.404
		c0.717,0,1.298,0.448,1.298,1v0C141,19.552,140.419,20,139.702,20z"/>
	<path opacity="0.1" d="M139.702,29H68.298C67.581,29,67,28.552,67,28v0c0-0.552,0.581-1,1.298-1h71.404
		c0.717,0,1.298,0.448,1.298,1v0C141,28.552,140.419,29,139.702,29z"/>
	<path opacity="0.1" d="M139.702,38H68.298C67.581,38,67,37.552,67,37l0,0c0-0.552,0.581-1,1.298-1h71.404
		c0.717,0,1.298,0.448,1.298,1l0,0C141,37.552,140.419,38,139.702,38z"/>
	<path opacity="0.1" d="M139.702,47H68.298C67.581,47,67,46.552,67,46l0,0c0-0.552,0.581-1,1.298-1h71.404
		c0.717,0,1.298,0.448,1.298,1l0,0C141,46.552,140.419,47,139.702,47z"/>
	<path opacity="0.1" d="M139.702,56H68.298C67.581,56,67,55.552,67,55l0,0c0-0.552,0.581-1,1.298-1h71.404
		c0.717,0,1.298,0.448,1.298,1l0,0C141,55.552,140.419,56,139.702,56z"/>
</g>
</svg>
