<?xml version="1.0" encoding="utf-8"?>
<!-- Generator: Adobe Illustrator 18.1.1, SVG Export Plug-In . SVG Version: 6.00 Build 0)  -->
<!DOCTYPE svg PUBLIC "-//W3C//DTD SVG 1.1//EN" "http://www.w3.org/Graphics/SVG/1.1/DTD/svg11.dtd">
<svg version="1.1" xmlns="http://www.w3.org/2000/svg" xmlns:xlink="http://www.w3.org/1999/xlink" x="0px" y="0px" width="150px"
	 height="86px" viewBox="0 0 150 86" enable-background="new 0 0 150 86" xml:space="preserve">
<g id="Layer_1">
	<rect y="63" fill="#273038" width="150" height="23"/>
	<rect fill="#313C46" width="150" height="63"/>
	<path opacity="0.5" fill="#FFFFFF" d="M140,13H68c-0.552,0-1-0.448-1-1v0c0-0.552,0.448-1,1-1h72c0.552,0,1,0.448,1,1v0
		C141,12.552,140.552,13,140,13z"/>
	<path opacity="0.3" fill="#FFFFFF" d="M140,22H68c-0.552,0-1-0.448-1-1v0c0-0.552,0.448-1,1-1h72c0.552,0,1,0.448,1,1v0
		C141,21.552,140.552,22,140,22z"/>
	<path opacity="0.3" fill="#FFFFFF" d="M140,31H68c-0.552,0-1-0.448-1-1v0c0-0.552,0.448-1,1-1h72c0.552,0,1,0.448,1,1v0
		C141,30.552,140.552,31,140,31z"/>
	<path opacity="0.3" fill="#FFFFFF" d="M140,40H68c-0.552,0-1-0.448-1-1l0,0c0-0.552,0.448-1,1-1h72c0.552,0,1,0.448,1,1l0,0
		C141,39.552,140.552,40,140,40z"/>
	<path opacity="0.3" fill="#FFFFFF" d="M140,49H68c-0.552,0-1-0.448-1-1l0,0c0-0.552,0.448-1,1-1h72c0.552,0,1,0.448,1,1l0,0
		C141,48.552,140.552,49,140,49z"/>
	<path fill="#FFFFFF" d="M102,79H10c-0.552,0-1-0.448-1-1v-7c0-0.552,0.448-1,1-1h92c0.552,0,1,0.448,1,1v7
		C103,78.552,102.552,79,102,79z"/>
	<path fill="#E46644" d="M140,79h-30c-0.552,0-1-0.448-1-1v-7c0-0.552,0.448-1,1-1h30c0.552,0,1,0.448,1,1v7
		C141,78.552,140.552,79,140,79z"/>
	<rect fill="#EAAA6A" width="150" height="2"/>
	<g>
		<circle opacity="0.2" cx="33.347" cy="30.872" r="20.872"/>
		<g>
			<defs>
				<path id="SVGID_27_" d="M55.267,45.913c-0.015-0.084-0.034-0.175-0.061-0.279l-2.098-8.047c0.716-2.108,1.111-4.365,1.111-6.715
					C54.219,19.344,44.874,10,33.347,10c-6.145,0-11.668,2.656-15.487,6.882l-5.939-0.915c-0.107-0.017-0.204,0.015-0.279,0.074
					c-0.061,0.041-0.106,0.1-0.133,0.168c-0.001,0.002-0.001,0.005-0.002,0.007c-0.008,0.021-0.014,0.041-0.018,0.063
					c-0.001,0.005-0.003,0.01-0.004,0.016L9.448,29.516c-0.015,0.1-0.023,0.183-0.024,0.257c-0.036,0.19,0.089,0.389,0.302,0.422
					l0.2,0.031l0,0h0l2.556,0.394c-0.001,0.084-0.006,0.167-0.006,0.252c0,11.527,9.344,20.872,20.872,20.872
					c0.796,0,1.58-0.049,2.353-0.136c0.012,0.016,0.025,0.031,0.037,0.048l0.392-0.102c1.714-0.228,3.362-0.664,4.919-1.283
					l10.043-2.62l3.831-1.001C55.255,46.563,55.409,46.196,55.267,45.913z"/>
			</defs>
			<clipPath id="SVGID_2_">
				<use xlink:href="#SVGID_27_"  overflow="visible"/>
			</clipPath>
			<g opacity="0.9" clip-path="url(#SVGID_2_)">
				<path fill="#EFE2D0" d="M35.742,19.683l-0.988,0.22c-0.247,0.033-0.485,0.113-0.703,0.235l-11.174,4.454l10.561,9.255
					c0.49,0.075,0.594-0.043,0.67-0.533l2.037-13.222C36.182,19.856,35.98,19.651,35.742,19.683z"/>
				<path fill="#EFE2D0" d="M11.992,16.024l0.876,0.508c0.225,0.106,0.429,0.254,0.599,0.436l9.629,7.659l-13.17,5.599
					c-0.49-0.075-0.554-0.219-0.478-0.709l2.037-13.222C11.521,16.057,11.775,15.922,11.992,16.024z"/>
				<path opacity="0.02" d="M9.729,29.67l13.299-5.78l10.848,9.5c0.082,0.254-0.133,0.505-0.396,0.465L9.968,30.232
					C9.704,30.191,9.575,29.887,9.729,29.67z"/>
				<path fill="#F9EDDB" d="M9.482,29.632l13.403-5.038l11.169,8.823c0.084,0.254-0.134,0.505-0.402,0.464L9.726,30.195
					C9.457,30.154,9.325,29.849,9.482,29.632z"/>
				<path opacity="0.03" d="M36.084,20.234l-12.87,6.713c-0.452,0.236-1.005,0.151-1.367-0.208L11.501,16.447
					c-0.084-0.254,0.134-0.505,0.402-0.464L35.84,19.67C36.109,19.712,36.241,20.016,36.084,20.234z"/>
				<path fill="#FFF5E6" d="M36.058,20.21l-12.753,5.911c-0.434,0.201-0.951,0.123-1.306-0.199l-10.477-9.492
					c-0.084-0.254,0.134-0.505,0.402-0.464l23.891,3.681C36.082,19.689,36.214,19.993,36.058,20.21z"/>
			</g>
			<g opacity="0.5" clip-path="url(#SVGID_2_)">
				<path fill="#EFE2D0" d="M49.008,13.367l-0.37,0.231c-0.095,0.049-0.181,0.115-0.252,0.196l-3.9,3.405l5.61,2.249
					c0.21-0.039,0.235-0.102,0.196-0.312l-1.062-5.659C49.212,13.375,49.1,13.32,49.008,13.367z"/>
				<path fill="#EFE2D0" d="M38.843,15.275l0.428,0.081c0.107,0.011,0.21,0.042,0.306,0.091l5.004,1.733l-4.547,4.155
					c-0.21,0.039-0.256-0.01-0.296-0.22l-1.062-5.659C38.657,15.356,38.741,15.265,38.843,15.275z"/>
				<path opacity="0.02" d="M39.874,21.138l4.573-4.247l5.762,2.307c0.069,0.091,0.018,0.224-0.095,0.245l-10.063,1.889
					C39.938,21.354,39.843,21.249,39.874,21.138z"/>
				<path fill="#F9EDDB" d="M39.768,21.158l4.722-3.96l5.795,1.986c0.07,0.091,0.018,0.224-0.097,0.246l-10.24,1.922
					C39.833,21.374,39.736,21.269,39.768,21.158z"/>
				<path opacity="0.03" d="M49.226,13.542l-4.266,4.564c-0.15,0.16-0.386,0.205-0.584,0.111l-5.671-2.7
					c-0.07-0.091-0.018-0.224,0.097-0.246l10.245-1.923C49.161,13.326,49.258,13.431,49.226,13.542z"/>
				<path fill="#FFF5E6" d="M49.212,13.536l-4.333,4.222c-0.148,0.144-0.368,0.186-0.558,0.106l-5.61-2.357
					c-0.07-0.091-0.018-0.224,0.097-0.246l10.226-1.919C49.147,13.321,49.244,13.426,49.212,13.536z"/>
			</g>
			<g clip-path="url(#SVGID_2_)">
				<path fill="#EEE6D9" d="M49.556,26.6l-1.185,0.859c-0.309,0.186-0.579,0.429-0.798,0.715L35.294,40.496l19.328,6.229
					c0.694-0.181,0.765-0.397,0.584-1.091l-4.88-18.721C50.239,26.578,49.853,26.421,49.556,26.6z"/>
				<path fill="#EEE6D9" d="M15.929,35.365l1.454,0.172c0.36,0.012,0.715,0.091,1.045,0.235l17.176,4.644L21.332,55.403
					c-0.694,0.181-0.861,0.026-1.042-0.667l-4.88-18.721C15.322,35.679,15.582,35.354,15.929,35.365z"/>
				<path opacity="0.02" d="M20.751,54.778L35.09,39.476l19.85,6.389c0.254,0.291,0.114,0.747-0.26,0.844L21.39,55.387
					C21.017,55.485,20.671,55.155,20.751,54.778z"/>
				<path fill="#F9F1E6" d="M20.401,54.869l14.903-14.375L55.191,45.8c0.257,0.29,0.112,0.747-0.268,0.846l-33.876,8.83
					C20.667,55.576,20.318,55.247,20.401,54.869z"/>
				<path opacity="0.03" d="M50.325,27.135L37.091,43.428c-0.465,0.572-1.248,0.778-1.933,0.508l-19.639-7.728
					c-0.257-0.29-0.112-0.747,0.268-0.846l33.892-8.834C50.059,26.428,50.408,26.756,50.325,27.135z"/>
				<path fill="#FFF8F0" d="M50.277,27.119l-13.54,15.162c-0.461,0.517-1.192,0.708-1.847,0.485l-19.353-6.592
					c-0.257-0.29-0.112-0.747,0.267-0.846l33.827-8.817C50.01,26.412,50.359,26.741,50.277,27.119z"/>
			</g>
		</g>
	</g>
</g>
<g id="Layer_2" display="none">
</g>
</svg>
