<?xml version="1.0" encoding="utf-8"?>
<!-- Generator: Adobe Illustrator 18.1.1, SVG Export Plug-In . SVG Version: 6.00 Build 0)  -->
<!DOCTYPE svg PUBLIC "-//W3C//DTD SVG 1.1//EN" "http://www.w3.org/Graphics/SVG/1.1/DTD/svg11.dtd">
<svg version="1.1" xmlns="http://www.w3.org/2000/svg" xmlns:xlink="http://www.w3.org/1999/xlink" x="0px" y="0px" width="150px"
	 height="86px" viewBox="0 0 150 86" enable-background="new 0 0 150 86" xml:space="preserve">
<g id="Layer_1">
	<rect y="61" fill="#424242" width="150" height="25"/>
	<rect fill="#363636" width="150" height="61"/>
	<path fill="#FFFFFF" d="M102,77H10c-0.552,0-1-0.448-1-1v-7c0-0.552,0.448-1,1-1h92c0.552,0,1,0.448,1,1v7
		C103,76.552,102.552,77,102,77z"/>
	<path fill="#E57C58" d="M140,77h-30c-0.552,0-1-0.448-1-1v-7c0-0.552,0.448-1,1-1h30c0.552,0,1,0.448,1,1v7
		C141,76.552,140.552,77,140,77z"/>
	<circle fill="#E57C58" cx="34.189" cy="30" r="20.5"/>
	<g>
		<path fill="#DDD9D3" d="M22.192,24.601v14.996c0,1.32,1.08,2.399,2.399,2.399l0,0c1.32,0,2.399-1.08,2.399-2.399V24.601H22.192z"
			/>
		<g opacity="0.05">
			<rect x="25.229" y="24.601" width="1.762" height="17.395"/>
		</g>
		<path fill="#F4F3F2" d="M26.991,18.003v21.594c0,1.325-1.074,2.399-2.399,2.399h19.195c1.32,0,2.399-1.08,2.399-2.399V24.002
			l-5.698-5.998L26.991,18.003z"/>
		<rect x="37.488" y="24.901" fill="#D3CFC9" width="6.298" height="1.2"/>
		<rect x="29.69" y="24.901" fill="#61AFE8" width="6.598" height="6.598"/>
		<rect x="37.488" y="27.601" fill="#D3CFC9" width="6.298" height="1.2"/>
		<rect x="37.488" y="30.3" fill="#D3CFC9" width="6.298" height="1.2"/>
		<rect x="29.39" y="32.999" fill="#D3CFC9" width="14.396" height="1.2"/>
		<rect x="29.39" y="35.698" fill="#D3CFC9" width="14.396" height="1.2"/>
		<rect x="29.39" y="38.398" fill="#D3CFC9" width="14.396" height="1.2"/>
		<rect x="29.39" y="21.302" fill="#B7B3AE" width="14.396" height="2.099"/>
		<polygon fill="#FFFFFF" points="40.487,24.002 46.185,24.002 40.487,18.003 		"/>
		<polygon opacity="0.1" points="46.185,24.002 40.487,24.002 46.185,29.1 		"/>
	</g>
	<path opacity="0.6" fill="#FFFFFF" d="M136.702,14H65.298C64.581,14,64,13.552,64,13v0c0-0.552,0.581-1,1.298-1h71.404
		c0.717,0,1.298,0.448,1.298,1v0C138,13.552,137.419,14,136.702,14z"/>
	<path opacity="0.45" fill="#FFFFFF" d="M136.702,23H65.298C64.581,23,64,22.552,64,22v0c0-0.552,0.581-1,1.298-1h71.404
		c0.717,0,1.298,0.448,1.298,1v0C138,22.552,137.419,23,136.702,23z"/>
	<path opacity="0.45" fill="#FFFFFF" d="M136.702,32H65.298C64.581,32,64,31.552,64,31v0c0-0.552,0.581-1,1.298-1h71.404
		c0.717,0,1.298,0.448,1.298,1v0C138,31.552,137.419,32,136.702,32z"/>
	<path opacity="0.45" fill="#FFFFFF" d="M136.702,41H65.298C64.581,41,64,40.552,64,40l0,0c0-0.552,0.581-1,1.298-1h71.404
		c0.717,0,1.298,0.448,1.298,1l0,0C138,40.552,137.419,41,136.702,41z"/>
	<path opacity="0.45" fill="#FFFFFF" d="M136.702,50H65.298C64.581,50,64,49.552,64,49l0,0c0-0.552,0.581-1,1.298-1h71.404
		c0.717,0,1.298,0.448,1.298,1l0,0C138,49.552,137.419,50,136.702,50z"/>
	<g>
		<path fill="#B2B2B2" d="M147,3v80H3V3H147 M150,0H0v86h150V0L150,0z"/>
	</g>
</g>
<g id="Layer_2" display="none">
</g>
</svg>
