<?xml version="1.0" encoding="utf-8"?>
<!-- Generator: Adobe Illustrator 18.1.1, SVG Export Plug-In . SVG Version: 6.00 Build 0)  -->
<!DOCTYPE svg PUBLIC "-//W3C//DTD SVG 1.1//EN" "http://www.w3.org/Graphics/SVG/1.1/DTD/svg11.dtd">
<svg version="1.1" xmlns="http://www.w3.org/2000/svg" xmlns:xlink="http://www.w3.org/1999/xlink" x="0px" y="0px" width="150px"
	 height="86px" viewBox="0 0 150 86" enable-background="new 0 0 150 86" xml:space="preserve">
<g id="Layer_1">
	<rect y="63" fill="#F0F0F0" width="150" height="23"/>
	<rect fill="#1B70D1" width="150" height="63"/>
	<path opacity="0.5" fill="#FFFFFF" d="M83.396,13h-73c-0.552,0-1-0.448-1-1v0c0-0.552,0.448-1,1-1h73c0.552,0,1,0.448,1,1v0
		C84.396,12.552,83.948,13,83.396,13z"/>
	<path opacity="0.3" fill="#FFFFFF" d="M83.396,22h-73c-0.552,0-1-0.448-1-1v0c0-0.552,0.448-1,1-1h73c0.552,0,1,0.448,1,1v0
		C84.396,21.552,83.948,22,83.396,22z"/>
	<path opacity="0.3" fill="#FFFFFF" d="M83.396,31h-73c-0.552,0-1-0.448-1-1v0c0-0.552,0.448-1,1-1h73c0.552,0,1,0.448,1,1v0
		C84.396,30.552,83.948,31,83.396,31z"/>
	<path opacity="0.3" fill="#FFFFFF" d="M83.396,40h-73c-0.552,0-1-0.448-1-1l0,0c0-0.552,0.448-1,1-1h73c0.552,0,1,0.448,1,1l0,0
		C84.396,39.552,83.948,40,83.396,40z"/>
	<path opacity="0.3" fill="#FFFFFF" d="M83.396,49h-73c-0.552,0-1-0.448-1-1l0,0c0-0.552,0.448-1,1-1h73c0.552,0,1,0.448,1,1l0,0
		C84.396,48.552,83.948,49,83.396,49z"/>
	<path opacity="0.2" d="M102,79H10c-0.552,0-1-0.448-1-1v-7c0-0.552,0.448-1,1-1h92c0.552,0,1,0.448,1,1v7
		C103,78.552,102.552,79,102,79z"/>
	<path fill="#F5795D" d="M140,79h-30c-0.552,0-1-0.448-1-1v-7c0-0.552,0.448-1,1-1h30c0.552,0,1,0.448,1,1v7
		C141,78.552,140.552,79,140,79z"/>
	<g>
		<g>
			<path fill="#5089B6" d="M97.445,51.188l-0.014-22.849c0-0.096,0.022-0.192,0.064-0.276l0.502-1.003
				c0.438-0.876,1.031-1.648,1.764-2.293l17.75-15.552c0.328-0.262,0.803-0.429,1.287-0.429c0.483,0,0.958,0.167,1.335,0.47
				l17.393,15.505c0.738,0.652,1.332,1.424,1.77,2.299l0.501,1.002c0.043,0.085,0.065,0.181,0.065,0.277v22.834l-0.015,0.014H97.445
				z"/>
			<g>
				<path fill="#E7E0D5" d="M118.798,10.286c0.093,0,0.228,0.02,0.36,0.112l17.381,15.492c0.588,0.519,1.065,1.139,1.416,1.841
					l0.408,0.816v21.141H98.931V28.546l0.408-0.816c0.351-0.702,0.827-1.321,1.407-1.833l17.686-15.495
					C118.566,10.307,118.704,10.286,118.798,10.286 M118.798,7.286c-0.805,0-1.611,0.267-2.275,0.8L98.769,23.641
					c-0.874,0.772-1.592,1.705-2.113,2.748l-0.501,1.002c-0.147,0.294-0.224,0.619-0.224,0.948v22.834
					c0,0.836,0.678,1.514,1.514,1.514h42.403c0.836,0,1.514-0.678,1.514-1.514V28.339c0-0.329-0.077-0.654-0.224-0.948l-0.501-1.002
					c-0.522-1.043-1.239-1.976-2.113-2.748L121.073,8.086C120.409,7.552,119.604,7.286,118.798,7.286L118.798,7.286z"/>
			</g>
		</g>
		<g>
			<polygon opacity="0.08" fill="#231F20" points="100.777,8.8 127.97,8.8 136.516,17.356 136.516,48.022 100.777,48.022 			"/>
			<polygon fill="#F4F4F4" points="101.08,9.406 127.733,9.406 136.214,17.886 136.214,48.477 101.08,48.477 			"/>
			<polygon fill="#FFFFFF" points="127.733,17.886 136.214,17.886 127.733,9.406 			"/>
			<rect x="104.715" y="15.766" fill="#D6CFC5" width="10.904" height="2.423"/>
			<rect x="117.738" y="24.247" fill="#D3CFC9" width="14.841" height="1.212"/>
			<rect x="117.738" y="27.275" fill="#D3CFC9" width="14.841" height="1.212"/>
			<rect x="117.738" y="30.304" fill="#D3CFC9" width="14.841" height="1.212"/>
			<rect x="117.738" y="33.333" fill="#D3CFC9" width="14.841" height="1.212"/>
			<rect x="117.738" y="36.362" fill="#D3CFC9" width="14.841" height="1.212"/>
			<rect x="117.738" y="39.39" fill="#D3CFC9" width="14.841" height="1.212"/>
			<rect x="104.715" y="24.247" fill="#F5795D" width="10.904" height="17.291"/>
			<rect x="104.715" y="20.309" fill="#5089B6" width="27.865" height="1.212"/>
		</g>
		<path opacity="0.06" fill="#231F20" d="M96.709,27.591l1.591,0.084c0.403,0.123,1.238,0.323,1.569,0.591l38.768,24.451H97.446
			c-0.836,0-1.514-0.7-1.514-1.563V28.19C95.931,27.773,96.32,27.472,96.709,27.591z"/>
		<path opacity="0.06" fill="#231F20" d="M140.585,27.591l-1.591,0.084c-0.403,0.123-1.238,0.323-1.569,0.591L98.657,52.717h41.191
			c0.836,0,1.514-0.7,1.514-1.563V28.19C141.363,27.773,140.973,27.472,140.585,27.591z"/>
		<path fill="#FFFFFF" d="M96.709,27.794l1.591,0.47c0.403,0.119,0.78,0.314,1.111,0.573l40.539,23.577H97.446
			c-0.836,0-1.514-0.678-1.514-1.514V28.375C95.931,27.971,96.32,27.68,96.709,27.794z"/>
		<path fill="#FFFFFF" d="M140.585,27.794l-1.591,0.47c-0.403,0.119-0.78,0.314-1.111,0.573L97.345,52.414h42.503
			c0.836,0,1.514-0.678,1.514-1.514V28.375C141.363,27.971,140.973,27.68,140.585,27.794z"/>
		<path fill="#EFE6DC" d="M96.709,28.097l1.591,0.47c0.403,0.119,0.78,0.314,1.111,0.573l40.741,23.577H97.446
			c-0.836,0-1.514-0.678-1.514-1.514V28.678C95.931,28.274,96.32,27.983,96.709,28.097z"/>
		<path fill="#EFE6DC" d="M140.585,28.097l-1.591,0.47c-0.403,0.119-0.78,0.314-1.111,0.573L97.143,52.717h42.705
			c0.836,0,1.514-0.678,1.514-1.514V28.678C141.363,28.274,140.973,27.983,140.585,28.097z"/>
		<g>
			<path fill="#5089B6" d="M96.712,28.097c-0.388-0.115-0.777,0.176-0.777,0.581v1.473l1.763-1.763L96.712,28.097z"/>
			<polygon fill="#F5795D" points="95.931,48.742 97.647,47.026 97.647,45.138 95.931,46.855 			"/>
			<polygon fill="#F5795D" points="95.931,41.237 97.647,39.521 97.647,37.633 95.931,39.35 			"/>
			<polygon fill="#F5795D" points="95.931,31.845 95.931,33.732 97.647,32.016 97.647,30.128 			"/>
			<path fill="#F5795D" d="M139.646,52.263c0,0.175-0.036,0.298-0.09,0.454h0.292c0.836,0,1.514-0.678,1.514-1.514v-1.964
				l-1.716,1.716V52.263z"/>
			<polygon fill="#F5795D" points="139.646,45.163 141.363,43.447 141.363,41.734 139.646,43.45 			"/>
			<polygon fill="#F5795D" points="139.646,37.659 141.363,35.942 141.363,34.229 139.646,35.945 			"/>
			<path fill="#5089B6" d="M97.446,52.717h0.202v-3.826l-1.716,1.716v0.596C95.931,52.039,96.609,52.717,97.446,52.717z"/>
			<polygon fill="#5089B6" points="95.931,44.99 97.647,43.273 97.647,41.386 95.931,43.102 			"/>
			<polygon fill="#5089B6" points="95.931,37.485 97.647,35.769 97.647,33.881 95.931,35.597 			"/>
			<polygon fill="#5089B6" points="139.646,48.916 141.363,47.2 141.363,45.486 139.646,47.203 			"/>
			<polygon fill="#5089B6" points="139.646,41.411 141.363,39.695 141.363,37.981 139.646,39.698 			"/>
			<polygon fill="#5089B6" points="139.646,33.906 141.363,32.19 141.363,30.477 139.646,32.193 			"/>
			<path fill="#F5795D" d="M140.589,28.097l-0.939,0.277v1.95l1.709-1.709C141.321,28.245,140.956,27.989,140.589,28.097z"/>
		</g>
		<g>
			<path opacity="0.06" fill="#231F20" d="M96.556,51.803l1.224-1.625c0.194-0.407,0.769-0.765,1.107-1.05l17.654-14.036
				c1.318-1.112,3.194-1.112,4.512,0l17.354,14.036c0.338,0.285,0.913,0.643,1.107,1.05l1.224,1.625
				c0.2,0.42-0.091,0.914-0.537,0.914H97.093C96.647,52.717,96.356,52.223,96.556,51.803z"/>
			<path fill="#FFFFFF" d="M96.556,51.84l1.224-1.559c0.194-0.39,0.769-0.734,1.107-1.007l17.654-13.61
				c1.318-1.067,3.194-1.067,4.512,0l17.354,13.61c0.338,0.273,0.913,0.617,1.107,1.007l1.224,1.559
				c0.2,0.403-0.091,0.877-0.537,0.877H97.093C96.647,52.717,96.356,52.243,96.556,51.84z"/>
			<path fill="#F7EFE4" d="M96.556,51.84l1.224-1.559c0.194-0.39,0.769-0.734,1.107-1.007l17.654-13.307
				c1.318-1.067,3.194-1.067,4.512,0l17.354,13.307c0.338,0.273,0.913,0.617,1.107,1.007l1.224,1.559
				c0.2,0.403-0.091,0.877-0.537,0.877H97.093C96.647,52.717,96.356,52.243,96.556,51.84z"/>
		</g>
	</g>
</g>
<g id="Layer_2" display="none">
</g>
</svg>
