<?xml version="1.0" encoding="utf-8"?>
<!-- Generator: Adobe Illustrator 18.1.1, SVG Export Plug-In . SVG Version: 6.00 Build 0)  -->
<!DOCTYPE svg PUBLIC "-//W3C//DTD SVG 1.1//EN" "http://www.w3.org/Graphics/SVG/1.1/DTD/svg11.dtd">
<svg version="1.1" xmlns="http://www.w3.org/2000/svg" xmlns:xlink="http://www.w3.org/1999/xlink" x="0px" y="0px" width="150px"
	 height="86px" viewBox="0 0 150 86" enable-background="new 0 0 150 86" xml:space="preserve">
<g id="Layer_1">
	<rect fill="#404B5C" width="150" height="63"/>
	<path opacity="0.5" fill="#FFFFFF" d="M140,40H10.386c-0.552,0-1-0.448-1-1l0,0c0-0.552,0.448-1,1-1H140c0.552,0,1,0.448,1,1l0,0
		C141,39.552,140.552,40,140,40z"/>
	<g>
		<polygon fill="#BD492A" points="142,10 122.757,10 122.757,25.564 142,25.564 136.34,17.782 		"/>
		<polygon fill="#BD492A" points="9,25.564 28.243,25.564 28.243,10 9,10 14.66,17.782 		"/>
		<polygon fill="#7E3929" points="127.002,14.245 122.757,10 122.757,14.245 		"/>
		<polygon fill="#7E3929" points="23.998,14.245 28.243,10 28.243,14.245 		"/>
		<rect x="23.998" y="14.245" fill="#E85A34" width="103.004" height="15.564"/>
		<g opacity="0.1">
			<text transform="matrix(1 0 0 1 50.516 26.0944)" font-family="'Kreon-Bold'" font-size="8.7723">SUBSCRIBE!</text>
		</g>
		<g>
			<text transform="matrix(1 0 0 1 50.516 25.529)" fill="#FDF4EE" font-family="'Kreon-Bold'" font-size="8.7723">SUBSCRIBE!</text>
		</g>
	</g>
	<rect y="48" fill="#C9C6B9" width="150" height="38"/>
	<path fill="#7D7A73" d="M139.763,78H10.406C9.63,78,9,77.552,9,77v-7c0-0.552,0.63-1,1.406-1h129.357c0.777,0,1.406,0.448,1.406,1
		v7C141.169,77.552,140.54,78,139.763,78z"/>
	<path fill="#FFFFFF" d="M139.763,65H10.406C9.63,65,9,64.552,9,64v-7c0-0.552,0.63-1,1.406-1h129.357c0.777,0,1.406,0.448,1.406,1
		v7C141.169,64.552,140.54,65,139.763,65z"/>
	<g opacity="0.55">
		<path fill="#D3CEC5" d="M148,3.5h-3v-1h3V3.5z M142,3.5h-3v-1h3V3.5z M136,3.5h-3v-1h3V3.5z M130,3.5h-3v-1h3V3.5z M124,3.5h-3v-1
			h3V3.5z M118,3.5h-3v-1h3V3.5z M112,3.5h-3v-1h3V3.5z M106,3.5h-3v-1h3V3.5z M100,3.5h-3v-1h3V3.5z M94,3.5h-3v-1h3V3.5z M88,3.5
			h-3v-1h3V3.5z M82,3.5h-3v-1h3V3.5z M76,3.5h-3v-1h3V3.5z M70,3.5h-3v-1h3V3.5z M64,3.5h-3v-1h3V3.5z M58,3.5h-3v-1h3V3.5z
			 M52,3.5h-3v-1h3V3.5z M46,3.5h-3v-1h3V3.5z M40,3.5h-3v-1h3V3.5z M34,3.5h-3v-1h3V3.5z M28,3.5h-3v-1h3V3.5z M22,3.5h-3v-1h3V3.5
			z M16,3.5h-3v-1h3V3.5z M10,3.5H7v-1h3V3.5z M4,3.5H1v-1h3V3.5z"/>
	</g>
</g>
<g id="Layer_2" display="none">
</g>
</svg>
