<?xml version="1.0" encoding="utf-8"?>
<!-- Generator: Adobe Illustrator 18.1.1, SVG Export Plug-In . SVG Version: 6.00 Build 0)  -->
<!DOCTYPE svg PUBLIC "-//W3C//DTD SVG 1.1//EN" "http://www.w3.org/Graphics/SVG/1.1/DTD/svg11.dtd">
<svg version="1.1" xmlns="http://www.w3.org/2000/svg" xmlns:xlink="http://www.w3.org/1999/xlink" x="0px" y="0px" width="150px"
	 height="86px" viewBox="0 0 150 86" enable-background="new 0 0 150 86" xml:space="preserve">
<g id="Layer_1">
	<rect fill="#FFFFFF" width="150" height="86"/>
	<g>
		<polygon fill="none" points="107.854,0 21.854,86 26.336,86 112.336,0 		"/>
		<polygon fill="none" points="115.125,0 29.125,86 33.607,86 119.607,0 		"/>
		<polygon fill="none" points="100.583,0 14.583,86 19.065,86 105.065,0 		"/>
		<polygon fill="none" points="122.396,0 36.396,86 40.878,86 126.878,0 		"/>
		<polygon fill="none" points="14.289,0 0,14.289 0,18.771 18.771,0 		"/>
		<polygon fill="none" points="21.56,0 0,21.56 0,25.082 25.082,0 		"/>
		<polygon fill="none" points="150,1.48 65.48,86 69.963,86 150,5.963 		"/>
		<polygon fill="none" points="144.209,0 58.209,86 62.691,86 148.691,0 		"/>
		<polygon fill="none" points="129.667,0 43.667,86 48.149,86 134.149,0 		"/>
		<polygon fill="none" points="136.938,0 50.938,86 55.42,86 141.42,0 		"/>
		<polygon fill="none" points="93.311,0 7.311,86 11.794,86 97.794,0 		"/>
		<polygon fill="none" points="35.143,0 0,35.143 0,39.625 39.625,0 		"/>
		<polygon fill="none" points="42.414,0 0,42.414 0,46.896 46.896,0 		"/>
		<polygon fill="none" points="150,8.751 72.751,86 77.234,86 150,13.234 		"/>
		<polygon fill="none" points="64.227,0 0,64.227 0,68.709 68.709,0 		"/>
		<polygon fill="none" points="49.685,0 0,49.685 0,54.167 54.167,0 		"/>
		<polygon fill="none" points="71.498,0 0,71.498 0,75.98 75.98,0 		"/>
		<polygon fill="none" points="86.04,0 0.04,86 4.523,86 90.523,0 		"/>
		<polygon fill="none" points="78.769,0 0,78.769 0,83.251 83.251,0 		"/>
		<polygon fill="none" points="7.018,0 0,7.018 0,11.5 11.5,0 		"/>
		<polygon fill="none" points="27.871,0 0,27.871 0,32.354 32.354,0 		"/>
		<polygon fill="none" points="56.956,0 0,56.956 0,61.438 61.438,0 		"/>
		<polygon fill="none" points="150,52.378 116.378,86 120.86,86 150,56.86 		"/>
		<polygon fill="none" points="150,59.649 123.649,86 128.131,86 150,64.131 		"/>
		<polygon fill="none" points="150,66.92 130.92,86 135.403,86 150,71.403 		"/>
		<polygon fill="none" points="150,45.107 109.107,86 113.589,86 150,49.589 		"/>
		<polygon fill="none" points="150,37.836 101.836,86 106.318,86 150,42.318 		"/>
		<polygon fill="none" points="145.463,86 150,86 150,81.463 		"/>
		<polygon fill="none" points="0,0 0,4.229 4.229,0 		"/>
		<polygon fill="none" points="150,74.192 138.192,86 142.674,86 150,78.674 		"/>
		<polygon fill="none" points="150,30.565 94.565,86 99.047,86 150,35.047 		"/>
		<polygon fill="none" points="150,16.023 80.023,86 84.505,86 150,20.505 		"/>
		<polygon fill="none" points="150,23.294 87.294,86 91.776,86 150,27.776 		"/>
		<polygon fill="#3BBC66" points="150,71.403 135.403,86 138.192,86 150,74.192 		"/>
		<polygon fill="#E85A34" points="150,64.131 128.131,86 130.92,86 150,66.92 		"/>
		<polygon fill="#3BBC66" points="150,56.86 120.86,86 123.649,86 150,59.649 		"/>
		<polygon fill="#E85A34" points="150,49.589 113.589,86 116.378,86 150,52.378 		"/>
		<polygon fill="#3BBC66" points="150,42.318 106.318,86 109.107,86 150,45.107 		"/>
		<polygon fill="#E85A34" points="150,35.047 99.047,86 101.836,86 150,37.836 		"/>
		<polygon fill="#3BBC66" points="150,27.776 91.776,86 94.565,86 150,30.565 		"/>
		<polygon fill="#E85A34" points="150,20.505 84.505,86 87.294,86 150,23.294 		"/>
		<polygon fill="#3BBC66" points="150,13.234 77.234,86 80.023,86 150,16.023 		"/>
		<polygon fill="#E85A34" points="150,5.963 69.963,86 72.751,86 150,8.751 		"/>
		<polygon fill="#3BBC66" points="150,0 148.691,0 62.691,86 65.48,86 150,1.48 		"/>
		<polygon fill="#E85A34" points="141.42,0 55.42,86 58.209,86 144.209,0 		"/>
		<polygon fill="#3BBC66" points="134.149,0 48.149,86 50.938,86 136.938,0 		"/>
		<polygon fill="#E85A34" points="126.878,0 40.878,86 43.667,86 129.667,0 		"/>
		<polygon fill="#3BBC66" points="119.607,0 33.607,86 36.396,86 122.396,0 		"/>
		<polygon fill="#E85A34" points="112.336,0 26.336,86 29.125,86 115.125,0 		"/>
		<polygon fill="#E85A34" points="97.794,0 11.794,86 14.583,86 100.583,0 		"/>
		<polygon fill="#E85A34" points="83.251,0 0,83.251 0,86 0.04,86 86.04,0 		"/>
		<polygon fill="#E85A34" points="68.709,0 0,68.709 0,71.498 71.498,0 		"/>
		<polygon fill="#3BBC66" points="46.896,0 0,46.896 0,49.685 49.685,0 		"/>
		<polygon fill="#3BBC66" points="105.065,0 19.065,86 21.854,86 107.854,0 		"/>
		<polygon fill="#3BBC66" points="90.523,0 4.523,86 7.311,86 93.311,0 		"/>
		<polygon fill="#3BBC66" points="75.98,0 0,75.98 0,78.769 78.769,0 		"/>
		<polygon fill="#3BBC66" points="61.438,0 0,61.438 0,64.227 64.227,0 		"/>
		<polygon fill="#3BBC66" points="32.354,0 0,32.354 0,35.143 35.143,0 		"/>
		<polygon fill="#E85A34" points="39.625,0 0,39.625 0,42.414 42.414,0 		"/>
		<polygon fill="#E85A34" points="54.167,0 0,54.167 0,56.956 56.956,0 		"/>
		<polygon fill="#E85A34" points="25.082,0 0,25.082 0,27.871 27.871,0 		"/>
		<polygon fill="#3BBC66" points="4.229,0 0,4.229 0,7.018 7.018,0 		"/>
		<polygon fill="#3BBC66" points="18.771,0 0,18.771 0,21.56 21.56,0 		"/>
		<polygon fill="#E85A34" points="11.5,0 0,11.5 0,14.289 14.289,0 		"/>
		<polygon fill="#E85A34" points="150,78.674 142.674,86 145.463,86 150,81.463 		"/>
	</g>
	<rect x="2" y="2" fill="#FFFFFF" width="146" height="61"/>
	<rect y="61" fill="#E85A34" width="150" height="25"/>
	<path opacity="0.1" d="M140,41H10.386c-0.552,0-1-0.448-1-1l0,0c0-0.552,0.448-1,1-1H140c0.552,0,1,0.448,1,1l0,0
		C141,40.552,140.552,41,140,41z"/>
	<path opacity="0.1" d="M140,50H10.386c-0.552,0-1-0.448-1-1l0,0c0-0.552,0.448-1,1-1H140c0.552,0,1,0.448,1,1l0,0
		C141,49.552,140.552,50,140,50z"/>
	<path fill="#FFFFFF" d="M102,78H10c-0.552,0-1-0.448-1-1v-7c0-0.552,0.448-1,1-1h92c0.552,0,1,0.448,1,1v7
		C103,77.552,102.552,78,102,78z"/>
	<path fill="#A33112" d="M140,78h-30c-0.552,0-1-0.448-1-1v-7c0-0.552,0.448-1,1-1h30c0.552,0,1,0.448,1,1v7
		C141,77.552,140.552,78,140,78z"/>
	<g>
		<polygon opacity="0.1" fill="#231F20" points="139.965,16.325 125.216,16.325 125.216,12.151 23.92,12.151 23.92,16.325 
			9.171,16.325 14.737,23.978 9.171,31.631 28.095,31.631 28.095,27.456 121.042,27.456 121.042,31.631 139.965,31.631 
			134.399,23.978 		"/>
		<polygon fill="#BD492A" points="9.171,29.683 28.095,29.683 28.095,14.377 9.171,14.377 14.737,22.03 		"/>
		<polygon fill="#BD492A" points="139.965,14.377 121.042,14.377 121.042,29.683 139.965,29.683 134.399,22.03 		"/>
		<polygon fill="#7E3929" points="23.92,25.508 28.095,29.683 28.095,25.508 		"/>
		<polygon fill="#7E3929" points="125.216,25.508 121.042,29.683 121.042,25.508 		"/>
		<rect x="23.92" y="10.203" fill="#E85A34" width="101.295" height="15.306"/>
		<text transform="matrix(1 0 0 1 45.7939 21.3344)" opacity="0.1" font-family="'Kreon-Bold'" font-size="8.6268">NEWSLETTER</text>
		<text transform="matrix(1 0 0 1 45.7939 20.7778)" fill="#FDF4EE" font-family="'Kreon-Bold'" font-size="8.6268">NEWSLETTER</text>
	</g>
</g>
<g id="Layer_2" display="none">
</g>
</svg>
