<?xml version="1.0" encoding="utf-8"?>
<!-- Generator: Adobe Illustrator 18.1.1, SVG Export Plug-In . SVG Version: 6.00 Build 0)  -->
<!DOCTYPE svg PUBLIC "-//W3C//DTD SVG 1.1//EN" "http://www.w3.org/Graphics/SVG/1.1/DTD/svg11.dtd">
<svg version="1.1" xmlns="http://www.w3.org/2000/svg" xmlns:xlink="http://www.w3.org/1999/xlink" x="0px" y="0px" width="150px"
	 height="86px" viewBox="0 0 150 86" enable-background="new 0 0 150 86" xml:space="preserve">
<g id="Layer_1">
	<rect fill="#92C927" width="150" height="63"/>
	<path opacity="0.6" fill="#FFFFFF" d="M136.702,14H65.298C64.581,14,64,13.552,64,13v0c0-0.552,0.581-1,1.298-1h71.404
		c0.717,0,1.298,0.448,1.298,1v0C138,13.552,137.419,14,136.702,14z"/>
	<path opacity="0.45" fill="#FFFFFF" d="M136.702,23H65.298C64.581,23,64,22.552,64,22v0c0-0.552,0.581-1,1.298-1h71.404
		c0.717,0,1.298,0.448,1.298,1v0C138,22.552,137.419,23,136.702,23z"/>
	<path opacity="0.45" fill="#FFFFFF" d="M136.702,32H65.298C64.581,32,64,31.552,64,31v0c0-0.552,0.581-1,1.298-1h71.404
		c0.717,0,1.298,0.448,1.298,1v0C138,31.552,137.419,32,136.702,32z"/>
	<path opacity="0.45" fill="#FFFFFF" d="M136.702,41H65.298C64.581,41,64,40.552,64,40l0,0c0-0.552,0.581-1,1.298-1h71.404
		c0.717,0,1.298,0.448,1.298,1l0,0C138,40.552,137.419,41,136.702,41z"/>
	<path opacity="0.45" fill="#FFFFFF" d="M136.702,50H65.298C64.581,50,64,49.552,64,49l0,0c0-0.552,0.581-1,1.298-1h71.404
		c0.717,0,1.298,0.448,1.298,1l0,0C138,49.552,137.419,50,136.702,50z"/>
	<g>
		<circle opacity="0.2" cx="31.833" cy="32.062" r="20.438"/>
		<g>
			<defs>
				<path id="SVGID_35_" d="M31.833,11.54c-4.265,0-8.224,1.46-11.501,3.46H16v3.436c-3,3.44-4.891,8.556-4.891,13.626
					c0,11.288,9.294,20.438,20.582,20.438S52.2,43.308,52.2,32.02C52.2,20.732,43.121,11.54,31.833,11.54z"/>
			</defs>
			<clipPath id="SVGID_2_">
				<use xlink:href="#SVGID_35_"  overflow="visible"/>
			</clipPath>
			<g clip-path="url(#SVGID_2_)">
				<g>
					<path fill="#C2C2C2" d="M48.077,31.004c-0.469-0.939-1.115-1.778-1.901-2.472l-12.704-9.648c-1.196-0.96-2.898-0.96-4.094,0
						l-12.704,9.648c-0.787,0.694-1.432,1.534-1.901,2.472l-0.451,0.901c-0.132,0.265-0.201,0.557-0.201,0.853v18.626
						c0,0.753,0.61,1.363,1.363,1.363h31.884c0.753,0,1.363-0.61,1.363-1.363V32.758c0-0.296-0.069-0.588-0.201-0.853L48.077,31.004
						z"/>
				</g>
				<g>
					<polygon fill="#FFFFFF" points="17.118,15.166 39.464,15.166 45.731,21.399 45.731,45.96 17.118,45.96 					"/>
					<rect x="20.388" y="18.436" fill="#B7B3AE" width="8.72" height="2.18"/>
					<rect x="31.016" y="25.249" fill="#D3CFC9" width="11.446" height="0.818"/>
					<rect x="31.016" y="27.701" fill="#D3CFC9" width="11.446" height="0.818"/>
					<rect x="31.016" y="30.154" fill="#D3CFC9" width="11.446" height="0.818"/>
					<rect x="31.016" y="32.607" fill="#D3CFC9" width="11.446" height="0.818"/>
					<rect x="20.388" y="42.417" fill="#E0E0E0" width="10.9" height="0.818"/>
					<rect x="20.388" y="45.96" fill="#E0E0E0" width="10.9" height="0.818"/>
					<rect x="20.388" y="48.412" fill="#E0E0E0" width="10.9" height="2.725"/>
					<rect x="20.388" y="35.059" fill="#D3CFC9" width="22.073" height="0.818"/>
					<rect x="20.388" y="37.512" fill="#D3CFC9" width="22.073" height="0.818"/>
					<rect x="20.388" y="39.964" fill="#D3CFC9" width="21.528" height="0.818"/>
					<rect x="20.388" y="25.249" fill="#5DB7FA" width="8.72" height="8.175"/>
					<rect x="20.388" y="22.251" fill="#B7B3AE" width="22.073" height="1.09"/>
				</g>
				<path opacity="0.1" fill="#231F20" d="M14.82,32.357l1.431,0.074c0.363,0.109,1.114,0.288,1.412,0.526l27.07,19.815h-29.25
					c-0.753,0-1.363-0.623-1.363-1.39V32.891C14.12,32.519,14.47,32.252,14.82,32.357z"/>
				<path opacity="0.1" fill="#231F20" d="M48.03,32.357l-1.431,0.074c-0.363,0.109-1.114,0.288-1.412,0.526l-27.07,19.815h29.25
					c0.753,0,1.363-0.623,1.363-1.39V32.891C48.729,32.519,48.379,32.252,48.03,32.357z"/>
				<path fill="#F0F0F0" d="M14.82,32.541l1.431,0.423c0.363,0.107,0.702,0.282,1,0.515l27.482,19.293h-29.25
					c-0.753,0-1.363-0.61-1.363-1.363V33.063C14.12,32.699,14.47,32.438,14.82,32.541z"/>
				<path fill="#F0F0F0" d="M48.03,32.541l-1.431,0.423c-0.363,0.107-0.702,0.282-1,0.515L18.117,52.773h29.25
					c0.753,0,1.363-0.61,1.363-1.363V33.063C48.729,32.699,48.379,32.438,48.03,32.541z"/>
				<g opacity="0.15">
					<path fill="#231F20" d="M14.514,51.67l0.702-1.429c0.176-0.358,0.425-0.673,0.732-0.923l13.43-9.574
						c1.196-0.978,2.898-0.978,4.094,0l13.43,9.574c0.306,0.25,0.556,0.565,0.732,0.923l0.702,1.429
						c0.181,0.369-0.082,0.803-0.487,0.803H15.002C14.597,52.474,14.333,52.039,14.514,51.67z"/>
				</g>
				<path fill="#F7F7F7" d="M14.514,51.984l0.702-1.403c0.176-0.351,0.425-0.661,0.732-0.906l13.43-9.236
					c1.196-0.96,2.898-0.96,4.094,0l13.43,9.236c0.306,0.246,0.556,0.555,0.732,0.906l0.702,1.403
					c0.181,0.362-0.082,0.789-0.487,0.789H15.002C14.597,52.773,14.333,52.346,14.514,51.984z"/>
				<polygon fill="#E6E6E6" points="39.486,21.399 45.727,21.399 39.464,15.166 				"/>
			</g>
		</g>
		<path opacity="0.05" d="M51.709,27.302c0.188,1.105,0.291,2.239,0.291,3.397c0,11.137-9.029,20.166-20.166,20.166
			s-20.166-9.029-20.166-20.166c0-1.158,0.103-2.292,0.291-3.397c-0.365,1.528-0.563,3.12-0.563,4.76
			c0,11.288,9.151,20.438,20.438,20.438s20.438-9.151,20.438-20.438C52.272,30.422,52.073,28.83,51.709,27.302z"/>
	</g>
	<rect y="61" fill="#3B3B3B" width="150" height="25"/>
	<path fill="#FFFFFF" d="M103,77H12c-0.552,0-1-0.448-1-1v-7c0-0.552,0.448-1,1-1h91c0.552,0,1,0.448,1,1v7
		C104,76.552,103.552,77,103,77z"/>
	<path fill="#3BB4F5" d="M138,77h-27c-0.552,0-1-0.448-1-1v-7c0-0.552,0.448-1,1-1h27c0.552,0,1,0.448,1,1v7
		C139,76.552,138.552,77,138,77z"/>
	<g>
		<path fill="#3B3B3B" d="M147,3v80H3V3H147 M150,0H0v86h150V0L150,0z"/>
	</g>
</g>
<g id="Layer_2" display="none">
</g>
</svg>
