<?xml version="1.0" encoding="utf-8"?>
<!-- Generator: Adobe Illustrator 18.1.1, SVG Export Plug-In . SVG Version: 6.00 Build 0)  -->
<!DOCTYPE svg PUBLIC "-//W3C//DTD SVG 1.1//EN" "http://www.w3.org/Graphics/SVG/1.1/DTD/svg11.dtd">
<svg version="1.1" xmlns="http://www.w3.org/2000/svg" xmlns:xlink="http://www.w3.org/1999/xlink" x="0px" y="0px" width="150px"
	 height="86px" viewBox="0 0 150 86" enable-background="new 0 0 150 86" xml:space="preserve">
<g id="Layer_1" display="none">
	<rect display="inline" fill="#F0F0F0" width="150" height="86"/>
	<path display="inline" opacity="0.25" d="M90,50H10c-0.552,0-1-0.448-1-1l0,0c0-0.552,0.448-1,1-1h80c0.552,0,1,0.448,1,1l0,0
		C91,49.552,90.552,50,90,50z"/>
	<path display="inline" opacity="0.1" d="M90,59H10c-0.552,0-1-0.448-1-1l0,0c0-0.552,0.448-1,1-1h80c0.552,0,1,0.448,1,1l0,0
		C91,58.552,90.552,59,90,59z"/>
	<path display="inline" opacity="0.1" d="M90,68H10c-0.552,0-1-0.448-1-1l0,0c0-0.552,0.448-1,1-1h80c0.552,0,1,0.448,1,1l0,0
		C91,67.552,90.552,68,90,68z"/>
	<path display="inline" opacity="0.1" d="M90,77H10c-0.552,0-1-0.448-1-1l0,0c0-0.552,0.448-1,1-1h80c0.552,0,1,0.448,1,1l0,0
		C91,76.552,90.552,77,90,77z"/>
	<g display="inline">
		<g>
			<path fill="#ADADAD" d="M18.182,32.106l-0.223-0.113l0.452-0.892l0.223,0.113L18.182,32.106z M84.53,31.621l-0.981-0.188
				l0.047-0.246l0.981,0.188L84.53,31.621z M82.566,31.245l-0.982-0.188l0.047-0.246l0.982,0.188L82.566,31.245z M80.602,30.87
				l-0.982-0.188l0.047-0.246l0.982,0.188L80.602,30.87z M78.638,30.494l-0.982-0.188l0.047-0.246l0.982,0.188L78.638,30.494z
				 M19.086,30.322l-0.223-0.113l0.452-0.892l0.223,0.113L19.086,30.322z M76.673,30.119l-0.982-0.188l0.047-0.246l0.982,0.188
				L76.673,30.119z M74.708,29.743l-0.982-0.188l0.047-0.246l0.982,0.188L74.708,29.743z M72.744,29.368l-0.982-0.188l0.047-0.246
				l0.982,0.188L72.744,29.368z M70.779,28.992l-0.982-0.188l0.047-0.246l0.982,0.188L70.779,28.992z M68.815,28.617l-0.982-0.188
				l0.047-0.246l0.982,0.188L68.815,28.617z M19.991,28.539l-0.223-0.113l0.452-0.893l0.223,0.113L19.991,28.539z M66.851,28.241
				l-0.982-0.188l0.047-0.246l0.982,0.188L66.851,28.241z M64.886,27.866l-0.982-0.188l0.047-0.246l0.982,0.188L64.886,27.866z
				 M62.922,27.49l-0.982-0.188l0.047-0.246l0.982,0.188L62.922,27.49z M60.958,27.115l-0.982-0.188l0.047-0.246l0.982,0.188
				L60.958,27.115z M20.896,26.755l-0.223-0.113l0.452-0.892l0.223,0.113L20.896,26.755z M58.993,26.739l-0.982-0.188l0.047-0.246
				l0.982,0.188L58.993,26.739z M57.028,26.364l-0.982-0.188l0.047-0.246l0.982,0.188L57.028,26.364z M55.064,25.988l-0.982-0.188
				l0.047-0.246l0.982,0.188L55.064,25.988z M53.1,25.613l-0.982-0.188l0.047-0.246l0.982,0.188L53.1,25.613z M51.135,25.237
				l-0.982-0.188l0.047-0.246l0.982,0.188L51.135,25.237z M21.8,24.971l-0.223-0.113l0.452-0.892l0.223,0.113L21.8,24.971z
				 M49.171,24.862l-0.982-0.188l0.047-0.246l0.982,0.188L49.171,24.862z M47.206,24.487l-0.982-0.188l0.047-0.246l0.982,0.188
				L47.206,24.487z M45.242,24.111l-0.982-0.188l0.047-0.246l0.982,0.188L45.242,24.111z M43.277,23.736l-0.982-0.188l0.047-0.246
				l0.982,0.188L43.277,23.736z M41.313,23.36l-0.982-0.188l0.047-0.246l0.982,0.188L41.313,23.36z M22.704,23.188l-0.223-0.113
				l0.452-0.893l0.223,0.113L22.704,23.188z M39.349,22.985l-0.982-0.188l0.047-0.246l0.982,0.188L39.349,22.985z M37.384,22.609
				l-0.982-0.188l0.047-0.246l0.982,0.188L37.384,22.609z M35.419,22.234l-0.982-0.188l0.047-0.246l0.982,0.188L35.419,22.234z
				 M33.455,21.858l-0.982-0.188l0.047-0.246l0.982,0.188L33.455,21.858z M31.491,21.483l-0.982-0.188l0.047-0.246l0.982,0.188
				L31.491,21.483z M23.608,21.403l-0.223-0.113l0.452-0.892l0.223,0.113L23.608,21.403z M29.526,21.107l-0.982-0.188l0.047-0.246
				l0.982,0.188L29.526,21.107z M27.562,20.732l-0.982-0.188l0.047-0.246l0.982,0.188L27.562,20.732z M25.597,20.356l-0.982-0.188
				l0.047-0.246l0.982,0.188L25.597,20.356z"/>
		</g>
		<g>
			<path fill="#ADADAD" d="M50.952,18.286l-0.989-0.148L50,17.89l0.989,0.148L50.952,18.286z M51.978,18.222l-0.044-0.246
				l0.985-0.174l0.043,0.246L51.978,18.222z M48.974,17.99l-0.989-0.147l0.037-0.248l0.989,0.147L48.974,17.99z M53.948,17.873
				l-0.044-0.246l0.984-0.174l0.044,0.246L53.948,17.873z M46.996,17.695l-0.989-0.148l0.037-0.248l0.989,0.148L46.996,17.695z
				 M55.917,17.524l-0.043-0.246l0.985-0.174l0.043,0.246L55.917,17.524z M45.018,17.399l-0.989-0.147l0.037-0.248l0.989,0.147
				L45.018,17.399z M57.886,17.176l-0.043-0.246l0.985-0.174l0.043,0.246L57.886,17.176z M43.039,17.104l-0.989-0.147l0.037-0.248
				l0.989,0.147L43.039,17.104z M59.856,16.827l-0.044-0.246l0.984-0.174l0.044,0.246L59.856,16.827z M41.061,16.809l-0.989-0.147
				l0.037-0.248l0.989,0.147L41.061,16.809z M39.083,16.513l-0.989-0.147l0.037-0.248l0.989,0.147L39.083,16.513z M61.825,16.479
				l-0.044-0.246l0.984-0.175l0.044,0.246L61.825,16.479z M37.105,16.218l-0.989-0.147l0.037-0.248l0.989,0.147L37.105,16.218z
				 M63.794,16.13l-0.044-0.246l0.985-0.175l0.044,0.246L63.794,16.13z M35.127,15.922l-0.989-0.147l0.037-0.248l0.989,0.147
				L35.127,15.922z M65.764,15.781l-0.044-0.246l0.985-0.175l0.044,0.246L65.764,15.781z M33.149,15.627l-0.989-0.147l0.037-0.248
				l0.989,0.147L33.149,15.627z M67.733,15.433l-0.044-0.246l0.984-0.175l0.044,0.246L67.733,15.433z M31.171,15.331l-0.989-0.147
				l0.037-0.248l0.989,0.147L31.171,15.331z M69.703,15.084l-0.044-0.246l0.984-0.175l0.044,0.246L69.703,15.084z M29.193,15.036
				l-0.989-0.147l0.037-0.248l0.989,0.147L29.193,15.036z M27.215,14.74l-0.989-0.147l0.037-0.248l0.989,0.147L27.215,14.74z
				 M71.672,14.735l-0.044-0.246l0.985-0.175l0.044,0.246L71.672,14.735z M25.237,14.445l-0.989-0.147l0.037-0.248l0.989,0.147
				L25.237,14.445z M73.641,14.387l-0.044-0.246l0.985-0.175l0.044,0.246L73.641,14.387z M23.259,14.149l-0.989-0.147l0.037-0.248
				l0.989,0.147L23.259,14.149z M75.611,14.037l-0.044-0.246l0.985-0.174l0.043,0.246L75.611,14.037z M21.281,13.854l-0.989-0.147
				l0.037-0.248l0.989,0.147L21.281,13.854z M77.579,13.688l-0.043-0.246l0.985-0.174l0.043,0.246L77.579,13.688z M19.303,13.559
				l-0.989-0.147l0.037-0.248l0.989,0.147L19.303,13.559z M79.549,13.34l-0.043-0.246l0.984-0.174l0.043,0.246L79.549,13.34z
				 M17.325,13.264l-0.989-0.147l0.037-0.248l0.989,0.147L17.325,13.264z M81.519,12.991l-0.043-0.246l0.984-0.174l0.043,0.246
				L81.519,12.991z M15.347,12.968l-0.989-0.147l0.037-0.248l0.989,0.147L15.347,12.968z M83.487,12.643l-0.043-0.246l0.985-0.174
				l0.043,0.246L83.487,12.643z"/>
		</g>
		<g>
			<path fill="#ADADAD" d="M55.724,25.857l-0.104-0.229l0.911-0.412l0.104,0.229L55.724,25.857z M57.545,25.032l-0.104-0.229
				l0.911-0.413l0.104,0.229L57.545,25.032z M59.367,24.206l-0.104-0.229l0.911-0.412l0.104,0.229L59.367,24.206z M61.189,23.381
				l-0.104-0.229l0.911-0.413l0.104,0.229L61.189,23.381z M63.01,22.555l-0.104-0.229l0.911-0.413l0.104,0.229L63.01,22.555z
				 M64.832,21.729l-0.104-0.229l0.911-0.413l0.104,0.229L64.832,21.729z M66.654,20.903l-0.104-0.229l0.911-0.413l0.104,0.229
				L66.654,20.903z M68.475,20.078l-0.104-0.229l0.911-0.413l0.104,0.229L68.475,20.078z M70.297,19.252l-0.104-0.229l0.911-0.413
				l0.104,0.229L70.297,19.252z M72.118,18.427l-0.104-0.229l0.911-0.413l0.104,0.229L72.118,18.427z M73.94,17.601l-0.104-0.229
				l0.911-0.413l0.104,0.229L73.94,17.601z M75.762,16.774l-0.104-0.229l0.91-0.412l0.104,0.229L75.762,16.774z M77.583,15.949
				l-0.104-0.229l0.911-0.413l0.104,0.229L77.583,15.949z M79.404,15.123l-0.104-0.229l0.911-0.412l0.104,0.229L79.404,15.123z
				 M81.227,14.298l-0.104-0.229l0.91-0.413l0.104,0.229L81.227,14.298z M83.048,13.472l-0.104-0.229l0.911-0.412l0.104,0.229
				L83.048,13.472z M84.869,12.646l-0.104-0.229l0.911-0.413l0.104,0.229L84.869,12.646z"/>
		</g>
		<g>
			<path fill="#ADADAD" d="M18.124,32.163l-0.105-0.227l0.907-0.422l0.105,0.227L18.124,32.163z M19.937,31.32l-0.105-0.227
				l0.907-0.422l0.105,0.227L19.937,31.32z M21.751,30.478l-0.105-0.227l0.907-0.422l0.105,0.227L21.751,30.478z M23.565,29.635
				l-0.105-0.227l0.907-0.422l0.105,0.227L23.565,29.635z M25.378,28.792l-0.105-0.227l0.907-0.422l0.105,0.227L25.378,28.792z
				 M27.192,27.949l-0.105-0.227l0.907-0.422l0.105,0.227L27.192,27.949z M29.006,27.105L28.9,26.879l0.907-0.421l0.105,0.227
				L29.006,27.105z M30.82,26.263l-0.105-0.227l0.907-0.421l0.105,0.227L30.82,26.263z M32.633,25.42l-0.105-0.227l0.907-0.421
				l0.105,0.227L32.633,25.42z M34.447,24.577l-0.105-0.227l0.907-0.421l0.105,0.227L34.447,24.577z M36.261,23.734l-0.105-0.227
				l0.907-0.421l0.105,0.227L36.261,23.734z M38.075,22.892l-0.105-0.227l0.907-0.422l0.105,0.227L38.075,22.892z M39.888,22.049
				l-0.105-0.227l0.907-0.422l0.105,0.227L39.888,22.049z M41.702,21.206l-0.105-0.227l0.907-0.422l0.105,0.227L41.702,21.206z
				 M43.516,20.363l-0.105-0.227l0.907-0.422l0.105,0.227L43.516,20.363z M45.33,19.521l-0.105-0.227l0.907-0.422l0.105,0.227
				L45.33,19.521z M47.143,18.678l-0.105-0.227l0.907-0.422l0.105,0.227L47.143,18.678z M48.957,17.834l-0.105-0.227l0.907-0.421
				l0.105,0.227L48.957,17.834z M50.771,16.991l-0.105-0.227l0.907-0.421l0.105,0.227L50.771,16.991z"/>
		</g>
		<g>
			<polygon fill="#31343B" points="56.744,40.727 46.217,40.727 47.192,35.138 55.769,35.138 			"/>
			<path fill="#4F535E" d="M59.473,40.727H43.488v-0.033c0-0.951,0.771-1.722,1.722-1.722h12.542c0.951,0,1.722,0.771,1.722,1.722
				V40.727z"/>
		</g>
		<g opacity="0.7">
			<path fill="#D9D3CD" d="M24.073,29.264l-0.476,0.112c-0.119,0.017-0.234,0.058-0.34,0.122l-5.42,2.313l4.869,4.972
				c0.233,0.043,0.285-0.02,0.33-0.28l1.222-7.019C24.279,29.358,24.187,29.248,24.073,29.264z"/>
			<path fill="#D9D3CD" d="M12.8,27.202l0.409,0.274c0.106,0.058,0.2,0.137,0.278,0.235l4.454,4.119l-6.395,2.912
				c-0.233-0.043-0.26-0.119-0.215-0.379l1.222-7.019C12.574,27.217,12.698,27.146,12.8,27.202z"/>
			<path fill="#EDE7DF" d="M11.345,34.423l6.495-2.612l5.167,4.746c0.035,0.136-0.073,0.268-0.201,0.245l-11.356-2.078
				C11.323,34.7,11.266,34.538,11.345,34.423z"/>
			<path fill="#EBE4DC" d="M24.213,29.546l-6.202,3.08c-0.211,0.105-0.456,0.061-0.62-0.112l-4.825-5.098
				c-0.035-0.136,0.073-0.268,0.201-0.245l11.34,2.075C24.235,29.269,24.292,29.431,24.213,29.546z"/>
		</g>
		<g opacity="0.7">
			<path fill="#D9D3CD" d="M90.823,9.945l-0.391,0.081c-0.097,0.011-0.192,0.042-0.281,0.092l-4.481,1.764l3.863,4.174
				c0.189,0.04,0.233-0.01,0.276-0.221l1.16-5.706C90.989,10.027,90.916,9.935,90.823,9.945z"/>
			<path fill="#D9D3CD" d="M81.661,8l0.327,0.233c0.085,0.049,0.16,0.117,0.222,0.198l3.544,3.468l-5.291,2.231
				c-0.189-0.04-0.21-0.104-0.167-0.315l1.16-5.706C81.476,8.007,81.579,7.953,81.661,8z"/>
			<path fill="#EDE7DF" d="M80.306,13.866l5.366-1.984l4.112,3.996c0.026,0.112-0.066,0.217-0.17,0.195l-9.229-1.959
				C80.282,14.092,80.239,13.958,80.306,13.866z"/>
			<path fill="#EBE4DC" d="M90.931,10.179l-5.137,2.373c-0.175,0.081-0.374,0.039-0.504-0.106l-3.824-4.276
				c-0.026-0.112,0.066-0.217,0.169-0.195l9.216,1.957C90.955,9.953,90.998,10.087,90.931,10.179z"/>
		</g>
		<g opacity="0.7">
			<path fill="#D9D3CD" d="M76.918,19.918l-0.323,0.235c-0.084,0.05-0.158,0.118-0.218,0.199l-3.352,3.458l5.243,2.205
				c0.189-0.042,0.208-0.105,0.16-0.315l-1.302-5.675C77.103,19.924,76.999,19.87,76.918,19.918z"/>
			<path fill="#D9D3CD" d="M67.771,21.933l0.395,0.077c0.098,0.01,0.194,0.04,0.284,0.089l4.66,1.693l-3.896,4.218
				c-0.189,0.042-0.234-0.008-0.282-0.218l-1.302-5.675C67.606,22.016,67.677,21.924,67.771,21.933z"/>
			<path fill="#EDE7DF" d="M68.961,27.835l4.067-4.024l5.396,1.94c0.069,0.091,0.03,0.225-0.074,0.248l-9.214,2.03
				C69.033,28.051,68.938,27.946,68.961,27.835z"/>
			<path fill="#EBE4DC" d="M77.113,20.086l-3.698,4.284c-0.126,0.146-0.325,0.19-0.502,0.112l-5.249-2.314
				c-0.069-0.091-0.03-0.225,0.074-0.248l9.201-2.027C77.041,19.87,77.136,19.975,77.113,20.086z"/>
		</g>
		<g opacity="0.6">
			<path fill="#D9D3CD" d="M16.91,8.335l-0.233,0.264c-0.063,0.059-0.113,0.131-0.149,0.213l-2.221,3.61l4.925,0.896
				c0.154-0.072,0.159-0.13,0.077-0.301L17.11,8.388C17.071,8.305,16.971,8.278,16.91,8.335z"/>
			<path fill="#D9D3CD" d="M9.435,11.808l0.354-0.009c0.086-0.01,0.174-0.003,0.261,0.022l4.327,0.568l-2.545,4.367
				c-0.154,0.072-0.203,0.038-0.284-0.133l-2.199-4.629C9.309,11.911,9.352,11.818,9.435,11.808z"/>
			<path fill="#EDE7DF" d="M11.581,16.653l2.728-4.232l5.006,0.639c0.077,0.065,0.068,0.188-0.016,0.227l-7.531,3.499
				C11.684,16.824,11.583,16.753,11.581,16.653z"/>
			<path fill="#EBE4DC" d="M17.11,8.442l-2.362,4.385c-0.08,0.149-0.243,0.225-0.41,0.192L9.387,12.03
				c-0.077-0.065-0.068-0.188,0.016-0.227l7.52-3.494C17.007,8.27,17.108,8.342,17.11,8.442z"/>
		</g>
		<g opacity="0.6">
			<path fill="#D9D3CD" d="M26.757,17.392l-0.212,0.154c-0.055,0.033-0.104,0.077-0.143,0.13l-2.206,2.265l3.438,1.456
				c0.124-0.027,0.137-0.069,0.106-0.207l-0.845-3.727C26.879,17.396,26.81,17.36,26.757,17.392z"/>
			<path fill="#D9D3CD" d="M20.75,18.699l0.259,0.051c0.064,0.007,0.127,0.027,0.186,0.059l3.056,1.119l-2.564,2.763
				c-0.124,0.027-0.154-0.005-0.185-0.143l-0.845-3.727C20.641,18.754,20.688,18.693,20.75,18.699z"/>
			<path fill="#EDE7DF" d="M21.521,22.575l2.676-2.635l3.539,1.282c0.045,0.06,0.019,0.148-0.049,0.163l-6.052,1.318
				C21.568,22.717,21.506,22.649,21.521,22.575z"/>
			<path fill="#EBE4DC" d="M26.885,17.502l-2.434,2.806c-0.083,0.096-0.213,0.124-0.33,0.073l-3.442-1.527
				c-0.045-0.06-0.019-0.148,0.049-0.163l6.043-1.316C26.838,17.36,26.9,17.429,26.885,17.502z"/>
		</g>
		<g opacity="0.6">
			<path fill="#D9D3CD" d="M87.367,29.482l-0.165,0.119c-0.043,0.025-0.081,0.06-0.111,0.101l-1.712,1.758l2.669,1.13
				c0.096-0.021,0.106-0.053,0.082-0.16l-0.656-2.893C87.462,29.485,87.408,29.458,87.367,29.482z"/>
			<path fill="#D9D3CD" d="M82.704,30.497l0.201,0.04c0.05,0.005,0.099,0.021,0.144,0.046l2.372,0.869l-1.991,2.144
				c-0.096,0.021-0.119-0.004-0.144-0.111l-0.656-2.893C82.62,30.539,82.656,30.492,82.704,30.497z"/>
			<path fill="#EDE7DF" d="M83.303,33.506l2.077-2.045l2.747,0.995c0.035,0.046,0.015,0.115-0.038,0.126l-4.697,1.023
				C83.339,33.616,83.291,33.563,83.303,33.506z"/>
			<path fill="#EBE4DC" d="M87.466,29.568l-1.889,2.178c-0.064,0.074-0.166,0.096-0.256,0.056l-2.672-1.185
				c-0.035-0.047-0.015-0.115,0.038-0.126l4.691-1.021C87.43,29.458,87.478,29.511,87.466,29.568z"/>
		</g>
		<g>
			<path fill="#BB69FF" d="M33.656,34.119c-0.61,0-1.107-0.491-1.107-1.095V11.047c0-0.604,0.497-1.095,1.107-1.095h35.649
				c0.61,0,1.107,0.491,1.107,1.095v21.978c0,0.604-0.497,1.095-1.107,1.095H33.656z"/>
			<path fill="#4F535E" d="M69.305,10.952c0.059,0,0.107,0.052,0.107,0.095v21.977c0,0.043-0.048,0.095-0.107,0.095H33.656
				c-0.059,0-0.107-0.052-0.107-0.095V11.047c0-0.043,0.048-0.095,0.107-0.095H69.305 M69.305,8.952H33.656
				c-1.159,0-2.107,0.943-2.107,2.095v21.977c0,1.152,0.948,2.095,2.107,2.095h35.649c1.159,0,2.107-0.943,2.107-2.095V11.047
				C71.412,9.895,70.464,8.952,69.305,8.952L69.305,8.952z"/>
		</g>
		<g>
			<g opacity="0.05">
				<rect x="37.107" y="20.122" width="1.145" height="13.061"/>
			</g>
			<path fill="#DBD7D2" d="M38.252,18.758v12.866c0,0.861-0.698,1.56-1.56,1.56h12.476c0.858,0,1.56-0.702,1.56-1.56v-8.967
				l-3.704-3.899L38.252,18.758z"/>
			<rect x="45.075" y="23.241" fill="#D3CFC9" width="4.094" height="0.78"/>
			<rect x="39.812" y="23.241" fill="#E57C58" width="4.289" height="4.289"/>
			<rect x="45.075" y="24.996" fill="#D3CFC9" width="4.094" height="0.78"/>
			<rect x="45.075" y="26.75" fill="#D3CFC9" width="4.094" height="0.78"/>
			<rect x="39.812" y="28.505" fill="#C2BEB9" width="9.357" height="0.78"/>
			<rect x="39.812" y="30.259" fill="#C2BEB9" width="9.357" height="0.78"/>
			<rect x="39.812" y="20.902" fill="#B7B3AE" width="9.357" height="1.365"/>
			<polygon fill="#FFFFFF" points="47.025,22.657 50.729,22.657 47.025,18.758 			"/>
			<polygon opacity="0.05" points="50.729,22.657 47.025,22.657 50.729,25.971 			"/>
		</g>
		<g>
			<g opacity="0.05">
				<rect x="52.313" y="20.122" width="1.145" height="13.061"/>
			</g>
			<path fill="#DBD7D2" d="M53.458,18.758v12.866c0,0.861-0.698,1.56-1.56,1.56h12.476c0.858,0,1.56-0.702,1.56-1.56v-8.967
				l-3.704-3.899L53.458,18.758z"/>
			<rect x="55.017" y="23.241" fill="#C2BEB9" width="4.289" height="0.78"/>
			<rect x="55.017" y="24.996" fill="#C2BEB9" width="4.289" height="0.78"/>
			<rect x="55.017" y="26.75" fill="#C2BEB9" width="4.289" height="0.78"/>
			<rect x="55.017" y="28.505" fill="#C2BEB9" width="9.357" height="0.78"/>
			<rect x="55.017" y="30.259" fill="#C2BEB9" width="9.357" height="0.78"/>
			<rect x="55.017" y="20.902" fill="#B7B3AE" width="9.357" height="1.365"/>
			<polygon fill="#FFFFFF" points="62.23,22.657 65.934,22.657 62.23,18.758 			"/>
			<polygon opacity="0.05" points="65.934,22.657 62.23,22.657 65.934,25.971 			"/>
			<rect x="60.086" y="23.241" fill="#639DC7" width="4.289" height="4.289"/>
		</g>
		<g>
			<g opacity="0.1">
				<rect x="43.345" y="18.758" width="1.145" height="14.426"/>
			</g>
			<g opacity="0.1">
				<rect x="57.552" y="18.758" width="2.705" height="14.426"/>
			</g>
			<path fill="#F5F0EB" d="M44.491,12.715v18.909c0,0.861-0.698,1.56-1.56,1.56h14.815c0.858,0,1.56-0.702,1.56-1.56v-15.01
				l-3.704-3.899L44.491,12.715z"/>
			<rect x="52.678" y="17.198" fill="#D3CFC9" width="5.068" height="0.78"/>
			<rect x="46.05" y="17.198" fill="#F59C36" width="5.653" height="6.043"/>
			<rect x="52.678" y="18.953" fill="#D3CFC9" width="5.068" height="0.78"/>
			<rect x="52.678" y="20.707" fill="#D3CFC9" width="5.068" height="0.78"/>
			<rect x="52.678" y="22.462" fill="#D3CFC9" width="5.068" height="0.78"/>
			<rect x="46.05" y="24.216" fill="#D3CFC9" width="11.696" height="0.78"/>
			<rect x="46.05" y="25.971" fill="#D3CFC9" width="11.696" height="0.78"/>
			<rect x="46.05" y="27.725" fill="#D3CFC9" width="5.653" height="0.78"/>
			<rect x="46.05" y="29.48" fill="#D3CFC9" width="5.653" height="0.78"/>
			<rect x="46.05" y="31.234" fill="#D3CFC9" width="5.653" height="0.78"/>
			<rect x="46.05" y="14.859" fill="#B7B3AE" width="11.696" height="1.365"/>
			<polygon fill="#FFFFFF" points="55.602,16.613 59.306,16.613 55.602,12.715 			"/>
			<polygon opacity="0.05" points="59.306,16.613 55.602,16.613 59.306,19.927 			"/>
			<rect x="52.678" y="27.725" fill="#74C7A5" width="5.068" height="4.289"/>
		</g>
		<polygon opacity="0.15" points="47.192,35 55.769,35 56.159,37.063 		"/>
	</g>
	<rect x="100" display="inline" fill="#F56D3B" width="50" height="86"/>
	<path display="inline" fill="#FFFFFF" d="M140,63h-30c-0.552,0-1-0.448-1-1v-7c0-0.552,0.448-1,1-1h30c0.552,0,1,0.448,1,1v7
		C141,62.552,140.552,63,140,63z"/>
	<path display="inline" opacity="0.2" d="M140,48h-30c-0.552,0-1-0.448-1-1v-7c0-0.552,0.448-1,1-1h30c0.552,0,1,0.448,1,1v7
		C141,47.552,140.552,48,140,48z"/>
	<path display="inline" opacity="0.2" d="M140,33h-30c-0.552,0-1-0.448-1-1v-7c0-0.552,0.448-1,1-1h30c0.552,0,1,0.448,1,1v7
		C141,32.552,140.552,33,140,33z"/>
</g>
<g id="Layer_2">
	<rect fill="#F0F0F0" width="150" height="86"/>
	<path opacity="0.25" d="M90,50H10c-0.552,0-1-0.448-1-1l0,0c0-0.552,0.448-1,1-1h80c0.552,0,1,0.448,1,1l0,0
		C91,49.552,90.552,50,90,50z"/>
	<path opacity="0.1" d="M90,59H10c-0.552,0-1-0.448-1-1l0,0c0-0.552,0.448-1,1-1h80c0.552,0,1,0.448,1,1l0,0
		C91,58.552,90.552,59,90,59z"/>
	<path opacity="0.1" d="M90,68H10c-0.552,0-1-0.448-1-1l0,0c0-0.552,0.448-1,1-1h80c0.552,0,1,0.448,1,1l0,0
		C91,67.552,90.552,68,90,68z"/>
	<path opacity="0.1" d="M90,77H10c-0.552,0-1-0.448-1-1l0,0c0-0.552,0.448-1,1-1h80c0.552,0,1,0.448,1,1l0,0
		C91,76.552,90.552,77,90,77z"/>
	<g>
		<g>
			<path fill="#ADADAD" d="M18.182,32.106l-0.223-0.113l0.452-0.892l0.223,0.113L18.182,32.106z M84.53,31.621l-0.981-0.188
				l0.047-0.246l0.981,0.188L84.53,31.621z M82.566,31.245l-0.982-0.188l0.047-0.246l0.982,0.188L82.566,31.245z M80.602,30.87
				l-0.982-0.188l0.047-0.246l0.982,0.188L80.602,30.87z M78.638,30.494l-0.982-0.188l0.047-0.246l0.982,0.188L78.638,30.494z
				 M19.086,30.322l-0.223-0.113l0.452-0.892l0.223,0.113L19.086,30.322z M76.673,30.119l-0.982-0.188l0.047-0.246l0.982,0.188
				L76.673,30.119z M74.708,29.743l-0.982-0.188l0.047-0.246l0.982,0.188L74.708,29.743z M72.744,29.368l-0.982-0.188l0.047-0.246
				l0.982,0.188L72.744,29.368z M70.779,28.992l-0.982-0.188l0.047-0.246l0.982,0.188L70.779,28.992z M68.815,28.617l-0.982-0.188
				l0.047-0.246l0.982,0.188L68.815,28.617z M19.991,28.539l-0.223-0.113l0.452-0.893l0.223,0.113L19.991,28.539z M66.851,28.241
				l-0.982-0.188l0.047-0.246l0.982,0.188L66.851,28.241z M64.886,27.866l-0.982-0.188l0.047-0.246l0.982,0.188L64.886,27.866z
				 M62.922,27.49l-0.982-0.188l0.047-0.246l0.982,0.188L62.922,27.49z M60.958,27.115l-0.982-0.188l0.047-0.246l0.982,0.188
				L60.958,27.115z M20.896,26.755l-0.223-0.113l0.452-0.892l0.223,0.113L20.896,26.755z M58.993,26.739l-0.982-0.188l0.047-0.246
				l0.982,0.188L58.993,26.739z M57.028,26.364l-0.982-0.188l0.047-0.246l0.982,0.188L57.028,26.364z M55.064,25.988l-0.982-0.188
				l0.047-0.246l0.982,0.188L55.064,25.988z M53.1,25.613l-0.982-0.188l0.047-0.246l0.982,0.188L53.1,25.613z M51.135,25.237
				l-0.982-0.188l0.047-0.246l0.982,0.188L51.135,25.237z M21.8,24.971l-0.223-0.113l0.452-0.892l0.223,0.113L21.8,24.971z
				 M49.171,24.862l-0.982-0.188l0.047-0.246l0.982,0.188L49.171,24.862z M47.206,24.487l-0.982-0.188l0.047-0.246l0.982,0.188
				L47.206,24.487z M45.242,24.111l-0.982-0.188l0.047-0.246l0.982,0.188L45.242,24.111z M43.277,23.736l-0.982-0.188l0.047-0.246
				l0.982,0.188L43.277,23.736z M41.313,23.36l-0.982-0.188l0.047-0.246l0.982,0.188L41.313,23.36z M22.704,23.188l-0.223-0.113
				l0.452-0.893l0.223,0.113L22.704,23.188z M39.349,22.985l-0.982-0.188l0.047-0.246l0.982,0.188L39.349,22.985z M37.384,22.609
				l-0.982-0.188l0.047-0.246l0.982,0.188L37.384,22.609z M35.419,22.234l-0.982-0.188l0.047-0.246l0.982,0.188L35.419,22.234z
				 M33.455,21.858l-0.982-0.188l0.047-0.246l0.982,0.188L33.455,21.858z M31.491,21.483l-0.982-0.188l0.047-0.246l0.982,0.188
				L31.491,21.483z M23.608,21.403l-0.223-0.113l0.452-0.892l0.223,0.113L23.608,21.403z M29.526,21.107l-0.982-0.188l0.047-0.246
				l0.982,0.188L29.526,21.107z M27.562,20.732l-0.982-0.188l0.047-0.246l0.982,0.188L27.562,20.732z M25.597,20.356l-0.982-0.188
				l0.047-0.246l0.982,0.188L25.597,20.356z"/>
		</g>
		<g>
			<path fill="#ADADAD" d="M50.952,18.286l-0.989-0.148L50,17.89l0.989,0.148L50.952,18.286z M51.978,18.222l-0.044-0.246
				l0.985-0.174l0.043,0.246L51.978,18.222z M48.974,17.99l-0.989-0.147l0.037-0.248l0.989,0.147L48.974,17.99z M53.948,17.873
				l-0.044-0.246l0.984-0.174l0.044,0.246L53.948,17.873z M46.996,17.695l-0.989-0.148l0.037-0.248l0.989,0.148L46.996,17.695z
				 M55.917,17.524l-0.043-0.246l0.985-0.174l0.043,0.246L55.917,17.524z M45.018,17.399l-0.989-0.147l0.037-0.248l0.989,0.147
				L45.018,17.399z M57.886,17.176l-0.043-0.246l0.985-0.174l0.043,0.246L57.886,17.176z M43.039,17.104l-0.989-0.147l0.037-0.248
				l0.989,0.147L43.039,17.104z M59.856,16.827l-0.044-0.246l0.984-0.174l0.044,0.246L59.856,16.827z M41.061,16.809l-0.989-0.147
				l0.037-0.248l0.989,0.147L41.061,16.809z M39.083,16.513l-0.989-0.147l0.037-0.248l0.989,0.147L39.083,16.513z M61.825,16.479
				l-0.044-0.246l0.984-0.175l0.044,0.246L61.825,16.479z M37.105,16.218l-0.989-0.147l0.037-0.248l0.989,0.147L37.105,16.218z
				 M63.794,16.13l-0.044-0.246l0.985-0.175l0.044,0.246L63.794,16.13z M35.127,15.922l-0.989-0.147l0.037-0.248l0.989,0.147
				L35.127,15.922z M65.764,15.781l-0.044-0.246l0.985-0.175l0.044,0.246L65.764,15.781z M33.149,15.627l-0.989-0.147l0.037-0.248
				l0.989,0.147L33.149,15.627z M67.733,15.433l-0.044-0.246l0.984-0.175l0.044,0.246L67.733,15.433z M31.171,15.331l-0.989-0.147
				l0.037-0.248l0.989,0.147L31.171,15.331z M69.703,15.084l-0.044-0.246l0.984-0.175l0.044,0.246L69.703,15.084z M29.193,15.036
				l-0.989-0.147l0.037-0.248l0.989,0.147L29.193,15.036z M27.215,14.74l-0.989-0.147l0.037-0.248l0.989,0.147L27.215,14.74z
				 M71.672,14.735l-0.044-0.246l0.985-0.175l0.044,0.246L71.672,14.735z M25.237,14.445l-0.989-0.147l0.037-0.248l0.989,0.147
				L25.237,14.445z M73.641,14.387l-0.044-0.246l0.985-0.175l0.044,0.246L73.641,14.387z M23.259,14.149l-0.989-0.147l0.037-0.248
				l0.989,0.147L23.259,14.149z M75.611,14.037l-0.044-0.246l0.985-0.174l0.043,0.246L75.611,14.037z M21.281,13.854l-0.989-0.147
				l0.037-0.248l0.989,0.147L21.281,13.854z M77.579,13.688l-0.043-0.246l0.985-0.174l0.043,0.246L77.579,13.688z M19.303,13.559
				l-0.989-0.147l0.037-0.248l0.989,0.147L19.303,13.559z M79.549,13.34l-0.043-0.246l0.984-0.174l0.043,0.246L79.549,13.34z
				 M17.325,13.264l-0.989-0.147l0.037-0.248l0.989,0.147L17.325,13.264z M81.519,12.991l-0.043-0.246l0.984-0.174l0.043,0.246
				L81.519,12.991z M15.347,12.968l-0.989-0.147l0.037-0.248l0.989,0.147L15.347,12.968z M83.487,12.643l-0.043-0.246l0.985-0.174
				l0.043,0.246L83.487,12.643z"/>
		</g>
		<g>
			<path fill="#ADADAD" d="M55.724,25.857l-0.104-0.229l0.911-0.412l0.104,0.229L55.724,25.857z M57.545,25.032l-0.104-0.229
				l0.911-0.413l0.104,0.229L57.545,25.032z M59.367,24.206l-0.104-0.229l0.911-0.412l0.104,0.229L59.367,24.206z M61.189,23.381
				l-0.104-0.229l0.911-0.413l0.104,0.229L61.189,23.381z M63.01,22.555l-0.104-0.229l0.911-0.413l0.104,0.229L63.01,22.555z
				 M64.832,21.729l-0.104-0.229l0.911-0.413l0.104,0.229L64.832,21.729z M66.654,20.903l-0.104-0.229l0.911-0.413l0.104,0.229
				L66.654,20.903z M68.475,20.078l-0.104-0.229l0.911-0.413l0.104,0.229L68.475,20.078z M70.297,19.252l-0.104-0.229l0.911-0.413
				l0.104,0.229L70.297,19.252z M72.118,18.427l-0.104-0.229l0.911-0.413l0.104,0.229L72.118,18.427z M73.94,17.601l-0.104-0.229
				l0.911-0.413l0.104,0.229L73.94,17.601z M75.762,16.774l-0.104-0.229l0.91-0.412l0.104,0.229L75.762,16.774z M77.583,15.949
				l-0.104-0.229l0.911-0.413l0.104,0.229L77.583,15.949z M79.404,15.123l-0.104-0.229l0.911-0.412l0.104,0.229L79.404,15.123z
				 M81.227,14.298l-0.104-0.229l0.91-0.413l0.104,0.229L81.227,14.298z M83.048,13.472l-0.104-0.229l0.911-0.412l0.104,0.229
				L83.048,13.472z M84.869,12.646l-0.104-0.229l0.911-0.413l0.104,0.229L84.869,12.646z"/>
		</g>
		<g>
			<path fill="#ADADAD" d="M18.124,32.163l-0.105-0.227l0.907-0.422l0.105,0.227L18.124,32.163z M19.937,31.32l-0.105-0.227
				l0.907-0.422l0.105,0.227L19.937,31.32z M21.751,30.478l-0.105-0.227l0.907-0.422l0.105,0.227L21.751,30.478z M23.565,29.635
				l-0.105-0.227l0.907-0.422l0.105,0.227L23.565,29.635z M25.378,28.792l-0.105-0.227l0.907-0.422l0.105,0.227L25.378,28.792z
				 M27.192,27.949l-0.105-0.227l0.907-0.422l0.105,0.227L27.192,27.949z M29.006,27.105L28.9,26.879l0.907-0.421l0.105,0.227
				L29.006,27.105z M30.82,26.263l-0.105-0.227l0.907-0.421l0.105,0.227L30.82,26.263z M32.633,25.42l-0.105-0.227l0.907-0.421
				l0.105,0.227L32.633,25.42z M34.447,24.577l-0.105-0.227l0.907-0.421l0.105,0.227L34.447,24.577z M36.261,23.734l-0.105-0.227
				l0.907-0.421l0.105,0.227L36.261,23.734z M38.075,22.892l-0.105-0.227l0.907-0.422l0.105,0.227L38.075,22.892z M39.888,22.049
				l-0.105-0.227l0.907-0.422l0.105,0.227L39.888,22.049z M41.702,21.206l-0.105-0.227l0.907-0.422l0.105,0.227L41.702,21.206z
				 M43.516,20.363l-0.105-0.227l0.907-0.422l0.105,0.227L43.516,20.363z M45.33,19.521l-0.105-0.227l0.907-0.422l0.105,0.227
				L45.33,19.521z M47.143,18.678l-0.105-0.227l0.907-0.422l0.105,0.227L47.143,18.678z M48.957,17.834l-0.105-0.227l0.907-0.421
				l0.105,0.227L48.957,17.834z M50.771,16.991l-0.105-0.227l0.907-0.421l0.105,0.227L50.771,16.991z"/>
		</g>
		<g>
			<polygon fill="#31343B" points="56.744,40.727 46.217,40.727 47.192,35.138 55.769,35.138 			"/>
			<path fill="#4F535E" d="M59.473,40.727H43.488v-0.033c0-0.951,0.771-1.722,1.722-1.722h12.542c0.951,0,1.722,0.771,1.722,1.722
				V40.727z"/>
		</g>
		<g opacity="0.7">
			<path fill="#D9D3CD" d="M24.073,29.264l-0.476,0.112c-0.119,0.017-0.234,0.058-0.34,0.122l-5.42,2.313l4.869,4.972
				c0.233,0.043,0.285-0.02,0.33-0.28l1.222-7.019C24.279,29.358,24.187,29.248,24.073,29.264z"/>
			<path fill="#D9D3CD" d="M12.8,27.202l0.409,0.274c0.106,0.058,0.2,0.137,0.278,0.235l4.454,4.119l-6.395,2.912
				c-0.233-0.043-0.26-0.119-0.215-0.379l1.222-7.019C12.574,27.217,12.698,27.146,12.8,27.202z"/>
			<path fill="#EDE7DF" d="M11.345,34.423l6.495-2.612l5.167,4.746c0.035,0.136-0.073,0.268-0.201,0.245l-11.356-2.078
				C11.323,34.7,11.266,34.538,11.345,34.423z"/>
			<path fill="#EBE4DC" d="M24.213,29.546l-6.202,3.08c-0.211,0.105-0.456,0.061-0.62-0.112l-4.825-5.098
				c-0.035-0.136,0.073-0.268,0.201-0.245l11.34,2.075C24.235,29.269,24.292,29.431,24.213,29.546z"/>
		</g>
		<g opacity="0.7">
			<path fill="#D9D3CD" d="M90.823,9.945l-0.391,0.081c-0.097,0.011-0.192,0.042-0.281,0.092l-4.481,1.764l3.863,4.174
				c0.189,0.04,0.233-0.01,0.276-0.221l1.16-5.706C90.989,10.027,90.916,9.935,90.823,9.945z"/>
			<path fill="#D9D3CD" d="M81.661,8l0.327,0.233c0.085,0.049,0.16,0.117,0.222,0.198l3.544,3.468l-5.291,2.231
				c-0.189-0.04-0.21-0.104-0.167-0.315l1.16-5.706C81.476,8.007,81.579,7.953,81.661,8z"/>
			<path fill="#EDE7DF" d="M80.306,13.866l5.366-1.984l4.112,3.996c0.026,0.112-0.066,0.217-0.17,0.195l-9.229-1.959
				C80.282,14.092,80.239,13.958,80.306,13.866z"/>
			<path fill="#EBE4DC" d="M90.931,10.179l-5.137,2.373c-0.175,0.081-0.374,0.039-0.504-0.106l-3.824-4.276
				c-0.026-0.112,0.066-0.217,0.169-0.195l9.216,1.957C90.955,9.953,90.998,10.087,90.931,10.179z"/>
		</g>
		<g opacity="0.7">
			<path fill="#D9D3CD" d="M76.918,19.918l-0.323,0.235c-0.084,0.05-0.158,0.118-0.218,0.199l-3.352,3.458l5.243,2.205
				c0.189-0.042,0.208-0.105,0.16-0.315l-1.302-5.675C77.103,19.924,76.999,19.87,76.918,19.918z"/>
			<path fill="#D9D3CD" d="M67.771,21.933l0.395,0.077c0.098,0.01,0.194,0.04,0.284,0.089l4.66,1.693l-3.896,4.218
				c-0.189,0.042-0.234-0.008-0.282-0.218l-1.302-5.675C67.606,22.016,67.677,21.924,67.771,21.933z"/>
			<path fill="#EDE7DF" d="M68.961,27.835l4.067-4.024l5.396,1.94c0.069,0.091,0.03,0.225-0.074,0.248l-9.214,2.03
				C69.033,28.051,68.938,27.946,68.961,27.835z"/>
			<path fill="#EBE4DC" d="M77.113,20.086l-3.698,4.284c-0.126,0.146-0.325,0.19-0.502,0.112l-5.249-2.314
				c-0.069-0.091-0.03-0.225,0.074-0.248l9.201-2.027C77.041,19.87,77.136,19.975,77.113,20.086z"/>
		</g>
		<g opacity="0.6">
			<path fill="#D9D3CD" d="M16.91,8.335l-0.233,0.264c-0.063,0.059-0.113,0.131-0.149,0.213l-2.221,3.61l4.925,0.896
				c0.154-0.072,0.159-0.13,0.077-0.301L17.11,8.388C17.071,8.305,16.971,8.278,16.91,8.335z"/>
			<path fill="#D9D3CD" d="M9.435,11.808l0.354-0.009c0.086-0.01,0.174-0.003,0.261,0.022l4.327,0.568l-2.545,4.367
				c-0.154,0.072-0.203,0.038-0.284-0.133l-2.199-4.629C9.309,11.911,9.352,11.818,9.435,11.808z"/>
			<path fill="#EDE7DF" d="M11.581,16.653l2.728-4.232l5.006,0.639c0.077,0.065,0.068,0.188-0.016,0.227l-7.531,3.499
				C11.684,16.824,11.583,16.753,11.581,16.653z"/>
			<path fill="#EBE4DC" d="M17.11,8.442l-2.362,4.385c-0.08,0.149-0.243,0.225-0.41,0.192L9.387,12.03
				c-0.077-0.065-0.068-0.188,0.016-0.227l7.52-3.494C17.007,8.27,17.108,8.342,17.11,8.442z"/>
		</g>
		<g opacity="0.6">
			<path fill="#D9D3CD" d="M26.757,17.392l-0.212,0.154c-0.055,0.033-0.104,0.077-0.143,0.13l-2.206,2.265l3.438,1.456
				c0.124-0.027,0.137-0.069,0.106-0.207l-0.845-3.727C26.879,17.396,26.81,17.36,26.757,17.392z"/>
			<path fill="#D9D3CD" d="M20.75,18.699l0.259,0.051c0.064,0.007,0.127,0.027,0.186,0.059l3.056,1.119l-2.564,2.763
				c-0.124,0.027-0.154-0.005-0.185-0.143l-0.845-3.727C20.641,18.754,20.688,18.693,20.75,18.699z"/>
			<path fill="#EDE7DF" d="M21.521,22.575l2.676-2.635l3.539,1.282c0.045,0.06,0.019,0.148-0.049,0.163l-6.052,1.318
				C21.568,22.717,21.506,22.649,21.521,22.575z"/>
			<path fill="#EBE4DC" d="M26.885,17.502l-2.434,2.806c-0.083,0.096-0.213,0.124-0.33,0.073l-3.442-1.527
				c-0.045-0.06-0.019-0.148,0.049-0.163l6.043-1.316C26.838,17.36,26.9,17.429,26.885,17.502z"/>
		</g>
		<g opacity="0.6">
			<path fill="#D9D3CD" d="M87.367,29.482l-0.165,0.119c-0.043,0.025-0.081,0.06-0.111,0.101l-1.712,1.758l2.669,1.13
				c0.096-0.021,0.106-0.053,0.082-0.16l-0.656-2.893C87.462,29.485,87.408,29.458,87.367,29.482z"/>
			<path fill="#D9D3CD" d="M82.704,30.497l0.201,0.04c0.05,0.005,0.099,0.021,0.144,0.046l2.372,0.869l-1.991,2.144
				c-0.096,0.021-0.119-0.004-0.144-0.111l-0.656-2.893C82.62,30.539,82.656,30.492,82.704,30.497z"/>
			<path fill="#EDE7DF" d="M83.303,33.506l2.077-2.045l2.747,0.995c0.035,0.046,0.015,0.115-0.038,0.126l-4.697,1.023
				C83.339,33.616,83.291,33.563,83.303,33.506z"/>
			<path fill="#EBE4DC" d="M87.466,29.568l-1.889,2.178c-0.064,0.074-0.166,0.096-0.256,0.056l-2.672-1.185
				c-0.035-0.047-0.015-0.115,0.038-0.126l4.691-1.021C87.43,29.458,87.478,29.511,87.466,29.568z"/>
		</g>
		<g>
			<path fill="#BB69FF" d="M33.656,34.119c-0.61,0-1.107-0.491-1.107-1.095V11.047c0-0.604,0.497-1.095,1.107-1.095h35.649
				c0.61,0,1.107,0.491,1.107,1.095v21.978c0,0.604-0.497,1.095-1.107,1.095H33.656z"/>
			<path fill="#4F535E" d="M69.305,10.952c0.059,0,0.107,0.052,0.107,0.095v21.977c0,0.043-0.048,0.095-0.107,0.095H33.656
				c-0.059,0-0.107-0.052-0.107-0.095V11.047c0-0.043,0.048-0.095,0.107-0.095H69.305 M69.305,8.952H33.656
				c-1.159,0-2.107,0.943-2.107,2.095v21.977c0,1.152,0.948,2.095,2.107,2.095h35.649c1.159,0,2.107-0.943,2.107-2.095V11.047
				C71.412,9.895,70.464,8.952,69.305,8.952L69.305,8.952z"/>
		</g>
		<g>
			<g opacity="0.05">
				<rect x="37.107" y="20.122" width="1.145" height="13.061"/>
			</g>
			<path fill="#DBD7D2" d="M38.252,18.758v12.866c0,0.861-0.698,1.56-1.56,1.56h12.476c0.858,0,1.56-0.702,1.56-1.56v-8.967
				l-3.704-3.899L38.252,18.758z"/>
			<rect x="45.075" y="23.241" fill="#D3CFC9" width="4.094" height="0.78"/>
			<rect x="39.812" y="23.241" fill="#E57C58" width="4.289" height="4.289"/>
			<rect x="45.075" y="24.996" fill="#D3CFC9" width="4.094" height="0.78"/>
			<rect x="45.075" y="26.75" fill="#D3CFC9" width="4.094" height="0.78"/>
			<rect x="39.812" y="28.505" fill="#C2BEB9" width="9.357" height="0.78"/>
			<rect x="39.812" y="30.259" fill="#C2BEB9" width="9.357" height="0.78"/>
			<rect x="39.812" y="20.902" fill="#B7B3AE" width="9.357" height="1.365"/>
			<polygon fill="#FFFFFF" points="47.025,22.657 50.729,22.657 47.025,18.758 			"/>
			<polygon opacity="0.05" points="50.729,22.657 47.025,22.657 50.729,25.971 			"/>
		</g>
		<g>
			<g opacity="0.05">
				<rect x="52.313" y="20.122" width="1.145" height="13.061"/>
			</g>
			<path fill="#DBD7D2" d="M53.458,18.758v12.866c0,0.861-0.698,1.56-1.56,1.56h12.476c0.858,0,1.56-0.702,1.56-1.56v-8.967
				l-3.704-3.899L53.458,18.758z"/>
			<rect x="55.017" y="23.241" fill="#C2BEB9" width="4.289" height="0.78"/>
			<rect x="55.017" y="24.996" fill="#C2BEB9" width="4.289" height="0.78"/>
			<rect x="55.017" y="26.75" fill="#C2BEB9" width="4.289" height="0.78"/>
			<rect x="55.017" y="28.505" fill="#C2BEB9" width="9.357" height="0.78"/>
			<rect x="55.017" y="30.259" fill="#C2BEB9" width="9.357" height="0.78"/>
			<rect x="55.017" y="20.902" fill="#B7B3AE" width="9.357" height="1.365"/>
			<polygon fill="#FFFFFF" points="62.23,22.657 65.934,22.657 62.23,18.758 			"/>
			<polygon opacity="0.05" points="65.934,22.657 62.23,22.657 65.934,25.971 			"/>
			<rect x="60.086" y="23.241" fill="#639DC7" width="4.289" height="4.289"/>
		</g>
		<g>
			<g opacity="0.1">
				<rect x="43.345" y="18.758" width="1.145" height="14.426"/>
			</g>
			<g opacity="0.1">
				<rect x="57.552" y="18.758" width="2.705" height="14.426"/>
			</g>
			<path fill="#F5F0EB" d="M44.491,12.715v18.909c0,0.861-0.698,1.56-1.56,1.56h14.815c0.858,0,1.56-0.702,1.56-1.56v-15.01
				l-3.704-3.899L44.491,12.715z"/>
			<rect x="52.678" y="17.198" fill="#D3CFC9" width="5.068" height="0.78"/>
			<rect x="46.05" y="17.198" fill="#F59C36" width="5.653" height="6.043"/>
			<rect x="52.678" y="18.953" fill="#D3CFC9" width="5.068" height="0.78"/>
			<rect x="52.678" y="20.707" fill="#D3CFC9" width="5.068" height="0.78"/>
			<rect x="52.678" y="22.462" fill="#D3CFC9" width="5.068" height="0.78"/>
			<rect x="46.05" y="24.216" fill="#D3CFC9" width="11.696" height="0.78"/>
			<rect x="46.05" y="25.971" fill="#D3CFC9" width="11.696" height="0.78"/>
			<rect x="46.05" y="27.725" fill="#D3CFC9" width="5.653" height="0.78"/>
			<rect x="46.05" y="29.48" fill="#D3CFC9" width="5.653" height="0.78"/>
			<rect x="46.05" y="31.234" fill="#D3CFC9" width="5.653" height="0.78"/>
			<rect x="46.05" y="14.859" fill="#B7B3AE" width="11.696" height="1.365"/>
			<polygon fill="#FFFFFF" points="55.602,16.613 59.306,16.613 55.602,12.715 			"/>
			<polygon opacity="0.05" points="59.306,16.613 55.602,16.613 59.306,19.927 			"/>
			<rect x="52.678" y="27.725" fill="#74C7A5" width="5.068" height="4.289"/>
		</g>
		<polygon opacity="0.15" points="47.192,35 55.769,35 56.159,37.063 		"/>
	</g>
	<rect x="100" fill="#2C94F2" width="50" height="86"/>
	<path fill="#FFFFFF" d="M140,63h-30c-0.552,0-1-0.448-1-1v-7c0-0.552,0.448-1,1-1h30c0.552,0,1,0.448,1,1v7
		C141,62.552,140.552,63,140,63z"/>
	<path opacity="0.2" d="M140,48h-30c-0.552,0-1-0.448-1-1v-7c0-0.552,0.448-1,1-1h30c0.552,0,1,0.448,1,1v7
		C141,47.552,140.552,48,140,48z"/>
	<path opacity="0.2" d="M140,33h-30c-0.552,0-1-0.448-1-1v-7c0-0.552,0.448-1,1-1h30c0.552,0,1,0.448,1,1v7
		C141,32.552,140.552,33,140,33z"/>
</g>
</svg>
